<svg fill="none" xmlns="http://www.w3.org/2000/svg" viewBox="0 0 128 128"><path d="M64 128c35.346 0 64-28.654 64-64 0-35.346-28.654-64-64-64C28.654 0 0 28.654 0 64c0 35.346 28.654 64 64 64z" fill="#311E61"/><path d="M47.112 65.228h-.042l-.205.128c-.435.273-.853.572-1.297.853-.29.205-.589.401-.853.598a40.89 40.89 0 00-1.878 1.305l-.333.24-.179-.94a55.797 55.797 0 01-.153-2.944c-.03-.468-.03-.939 0-1.408 0-.281.094-.802-.197-1.05a.53.53 0 00-.529-.093c-.495.137-.426.7-.392 1.007v.205a5.237 5.237 0 01-.299 1.28 1.6 1.6 0 01-.17.375 1.997 1.997 0 01-.052-.725v-.247-.274a2.166 2.166 0 00-.196-1.262 1.058 1.058 0 00-1.323-.376 6.826 6.826 0 00-2.32 1.57 26.745 26.745 0 00-2.032 2.023 33.381 33.381 0 00-2.85 3.865c.094-.503.213-.998.324-1.493.145-.623.29-1.272.41-1.92.188-1.041.444-2.082.691-3.098.162-.665.333-1.348.478-2.03.145-.683.376-1.554.572-2.305.162-.606.324-1.229.47-1.852.306-1.314.665-2.636 1.006-3.916l.085-.307c.188-.7.325-1.417.453-2.108.128-.691.239-1.289.4-1.92v-.12a.669.669 0 010-.153h.377c.232.012.466.012.699 0a17.963 17.963 0 002.56-.555c.273-.085.555-.154.853-.222a11.3 11.3 0 001.22-.341l.794-.282.939-.341c.674-.23 1.365-.427 2.04-.623.46-.128.93-.264 1.382-.41 1.553-.486 2.96-.853 4.318-1.203.716-.17 1.433-.316 2.133-.435l.401-.068.853-.145h.205c.333 0 .853 0 .998-.478a.46.46 0 00-.119-.435c-.29-.282-.981-.205-1.997 0h-.17c-1.05.179-1.903.35-2.706.537-.938.222-1.877.487-2.781.751-.7.205-1.425.41-2.142.597-.555.137-1.11.316-1.647.478l-.768.24-.546.196-.461.17-.324.086a4.579 4.579 0 00-.632.213c-.624.254-1.27.454-1.928.597l-.265.069c-.815.232-1.649.395-2.492.486h-.136a3.038 3.038 0 01-.487 0c.015-.207.044-.412.086-.614v-.214a1.041 1.041 0 00-.393-1.11.783.783 0 00-.657-.084 1.074 1.074 0 00-.597.58c-.14.4-.14.837 0 1.237.046.17.12.332.222.478a.708.708 0 01.145.324 2.497 2.497 0 01-.111.572c0 .11-.06.23-.086.333l-.102.537c-.051.214-.094.435-.136.649a49.127 49.127 0 01-1.11 4.966 23.807 23.807 0 00-.58 2.364c-.17.785-.341 1.596-.58 2.364-.162.529-.273 1.075-.384 1.604-.06.307-.12.614-.197.922l-.06.238c-.11.504-.23.999-.358 1.494-.298 1.186-.563 2.39-.853 3.558l-.282 1.28c0 .111-.05.23-.068.342 0-.35 0-.709-.043-1.058a58.786 58.786 0 01-.102-3.414c0-1.937.051-4.028.239-6.775.102-1.647.162-3.32.222-4.941l.051-1.45v-1.315c0-.674.043-1.382.077-2.073v-.419c0-.358.043-.708.051-1.058v-.102a1.34 1.34 0 010-.273.45.45 0 010-.103.718.718 0 00.06-.384.52.52 0 00-.273-.375.802.802 0 00-.657 0 3.028 3.028 0 00-.854.742l-.11.128c-.24.256-.47.52-.692.794l-.324.367c-.393.444-.777.904-1.152 1.365l-.623.742a78.822 78.822 0 00-3.67 4.694c-.332.46-.63.956-.92 1.425-.291.47-.538.853-.854 1.306a6.366 6.366 0 01-.683.853c-.395.478-.757.983-1.084 1.51a.684.684 0 01-.076.12c-.18.273-.461.69-.35 1.05a.561.561 0 00.332.35c.53.221.811-.393.948-.692a1.43 1.43 0 01.094-.196c.256-.401.563-.794.853-1.178.29-.384.426-.555.631-.853.367-.52.709-1.067 1.041-1.596.333-.529.675-1.1 1.05-1.621.691-.973 1.263-1.707 1.8-2.424.709-.896 1.46-1.775 2.185-2.628l.341-.401c.23-.282.461-.563.692-.853.35-.444.708-.913 1.1-1.323v.23c-.068 1.22-.136 2.492-.11 3.746 0 .478 0 .965-.086 1.443-.085.477-.068.733-.085 1.1-.017.367 0 .777 0 1.17v1.237c0 .7-.077 1.408-.128 2.099-.051.691-.111 1.579-.145 2.372v.913c0 .913-.077 1.843-.077 2.774v.495c0 1.22 0 2.491.085 3.746 0 .307.043.623.06.93.014.93.116 1.855.307 2.765a.894.894 0 00.478.64.623.623 0 00.589-.086c.25-.22.45-.49.589-.793l.17-.308 1.383-2.064a21.5 21.5 0 012.56-3.346c.188-.179.367-.367.546-.563.463-.51.968-.982 1.51-1.408l.256-.196c.299-.239 1.101-.853 1.45-.853.07.28.07.573 0 .853v.29c-.049.42.01.846.172 1.237a1.007 1.007 0 00.947.623c.178-.007.351-.06.503-.153 0 .563.051 1.126.094 1.706l.051.854v.273c0 .375.052.614-.136.785l-.657.572-.743.64a25.99 25.99 0 00-4.266 4.684 14.787 14.787 0 00-2.134 6.161 13.082 13.082 0 00.555 6.571 7.015 7.015 0 001.707 2.73c.398.33.86.575 1.356.718h.103a5.308 5.308 0 001.647.358 3.747 3.747 0 002.602-1.391 3.882 3.882 0 00.854-1.954l.06-.23a14.35 14.35 0 00.298-3.004v-.359c0-.46.043-.921.077-1.39 0-.606.077-1.238.085-1.852 0-1.596 0-3.49-.102-5.462 0-.733-.051-1.493-.06-2.218V72.55v-.922-1.032-.325c0-.256-.077-.537 0-.665a1.79 1.79 0 01.359-.273l.221-.145.7-.496 1.707-1.168.077-.052.554-.358c.333-.214.674-.435.999-.666l.153-.094c.184-.082.345-.208.47-.367a.563.563 0 00-.077-.682.545.545 0 00-.487-.077zm-8.362 25.48a5.054 5.054 0 01-1.434-.324 2.8 2.8 0 01-1.246-.725 7.629 7.629 0 01-1.544-3.337 13.754 13.754 0 01-.24-3.55v-.05c.058-2.76.95-5.438 2.56-7.68a33.929 33.929 0 014.524-4.54v2.38c0 1.246 0 2.56.093 3.815.112 1.858.129 3.72.052 5.58 0 .538 0 1.067-.06 1.605a17.48 17.48 0 01-.649 5.12 2.765 2.765 0 01-2.124 1.647l.068.06zM112.708 59.468c-.375-.162-.939.162-1.707.742-.068 0-.11.086-.136.094-.657.41-1.323.854-2.168 1.51l-1.706 1.28c-.523.415-1.022.86-1.494 1.332l-.554.529c-1.101 1.067-2.347 2.261-3.789 2.645a5.119 5.119 0 01-4.523-.947 3.583 3.583 0 01-1.058-1.937 4.699 4.699 0 01-.11-1.178 1.05 1.05 0 00-.257-.785.7.7 0 00-.554-.179 1.783 1.783 0 00-.674.214c-.094.05-.19.092-.29.128a7.324 7.324 0 00-1.153.494c-.64.333-1.254.726-1.843 1.11l-.478.307c-1.475.97-2.999 1.864-4.565 2.68-1.425.708-2.953 1.382-4.437 1.006a2.809 2.809 0 01-.777-.4h-.06l-.298-.18a2.474 2.474 0 01-.794-.623 5.158 5.158 0 01-.452-.776l-.085-.145a.707.707 0 01-.128-.359.783.783 0 01.085-.17s0-.086.06-.12c.475-.938.681-1.99.597-3.038a1.076 1.076 0 00-.853-1.092 1.015 1.015 0 00-.794.273c0-.358 0-.725.06-1.075v-.7c0-.205 0-.418.042-.631.037-.302.136-.592.29-.854l.069-.136a31.058 31.058 0 001.612-4.037c.103-.324.222-.64.333-.964.412-1.074.729-2.182.948-3.31.102-.624.213-1.358.273-2.091v-.069a3.884 3.884 0 00-.214-2.065 1.366 1.366 0 00-.913-.725 1.125 1.125 0 00-.938.196 3.08 3.08 0 00-1.11 1.596 8.436 8.436 0 00-.273 1.621v.384c0 .256-.068.504-.094.751-.06.461-.12.922-.188 1.383-.068.46-.093.776-.127 1.16-.035.384-.069.7-.12 1.05-.11.75-.213 1.485-.273 2.244 0 .299-.051.597-.077.853 0 .436-.085.854-.11 1.331v.077a2.501 2.501 0 01-.385 1.485l-.29.444a21.395 21.395 0 01-2.236 2.927l-.05.051c-.786.895-1.69 1.68-2.689 2.33-.853.529-2.253.853-3.123.17a2.798 2.798 0 01-.853-1.416 6.751 6.751 0 01-.214-.913v-.18c0-.324 0-.81-.452-.93a.487.487 0 00-.418 0 .691.691 0 00-.273.512v.069c0 .29-.094.563-.162.853a2.055 2.055 0 01-.299.597v-.068a2.56 2.56 0 01-.051-.981.749.749 0 010-.171c.043-.29.12-.742-.213-.964a.452.452 0 00-.419-.077c-.34.094-.537.529-.682.853l-.077.18a13.828 13.828 0 01-2.56 3.08c-.537.465-1.108.89-1.707 1.271-.287.214-.62.357-.972.419a1.588 1.588 0 01-1.408-.495 3.515 3.515 0 01-.59-1.024 5.465 5.465 0 00-.28-.606.658.658 0 00-.658-.376.486.486 0 00-.392.453c.01.336.11.663.29.947l.102.222c.249.605.66 1.13 1.186 1.519.54.367 1.197.52 1.843.426a4.07 4.07 0 001.903-.853 16.445 16.445 0 002.936-2.748c.213-.247.452-.52.665-.853a1.16 1.16 0 00.905.981 1.075 1.075 0 001.067-.537c.098.233.21.46.332.682.27.611.743 1.11 1.34 1.408a4 4 0 003.66-.444 14.75 14.75 0 003.115-2.679 19.173 19.173 0 001.818-2.39l.111-.17v.239c0 .444-.068.904-.068 1.365v.785c.03.538.03 1.076 0 1.613-.043.555-.051 1.101-.06 1.63v.853c0 .282 0 .751-.051 1.127 0 .512-.068 1.04-.068 1.561 0 .751 0 1.51-.06 2.253-.06.743-.06 1.51-.06 2.27a.855.855 0 00.282.725.495.495 0 00.47.017c.4-.179.358-.776.323-1.211v-.375-1.998c0-.853 0-1.706.077-2.61v-.342c0-.418.051-.853.06-1.255v-.11a.998.998 0 010-.342c.063-.05.132-.093.205-.128v.06c.137.3.303.585.495.853.364.43.807.787 1.305 1.05l.248.153a4.658 4.658 0 003.797.402 12.955 12.955 0 003.413-1.502h.069c1.109-.649 2.252-1.314 3.353-2.014l.316-.196c.708-.444 1.433-.905 2.184-1.306a2.005 2.005 0 00.205 1.869.973.973 0 001.297.153c.162-.103.297-.243.393-.41a4.66 4.66 0 002.432 2.21 6.178 6.178 0 005.043-.059 13.147 13.147 0 003.115-2.347 42.246 42.246 0 013.302-2.824l.512-.393a23.402 23.402 0 011.587-1.143c.227-.143.46-.274.7-.393l.444-.239.111-.06c.35-.178.93-.486.853-.955a.435.435 0 00-.239-.384zM94.37 63.922a.388.388 0 010 .094v.069c-.02.234-.063.465-.128.69a3.426 3.426 0 01-.264.615 1.237 1.237 0 01.153-1.04c.063-.152.144-.295.239-.428zM80.316 47.914v.273c-.054.888-.182 1.77-.384 2.637-.111.426-.256.853-.401 1.288-.069.197-.137.393-.197.59-.358 1.117-.768 2.354-1.263 3.583.069-.674.154-1.348.24-2.005.085-.657.187-1.536.264-2.313 0-.41.102-.853.162-1.22.06-.367.12-.853.162-1.272v-.35c.027-.613.13-1.22.307-1.808.18-.47.504-1.007.751-1.076h.051c.045.003.087.02.12.052.324.256.239 1.109.188 1.62zm-2.663 17.092v-.503a3.473 3.473 0 01.085-.854c.058-.223.16-.431.3-.614.075-.097.157-.188.247-.273a3.789 3.789 0 01-.376 2.364c-.08-.051-.166-.091-.256-.12z" fill="#fff"/><path d="M47.787 48.998c-.171.157-.333.322-.487.495l-.153.162c-.734.785-1.408 1.622-2.04 2.415a30.715 30.715 0 00-3.473 5.462l-.094.17c-.52.973-.981 1.937-.853 2.424a.435.435 0 00.264.281.393.393 0 00.171 0c.059.014.12.014.18 0a1.075 1.075 0 00.511-.674c.173-.46.372-.91.598-1.348l.076-.154a28.37 28.37 0 012.927-4.872 32.982 32.982 0 012.373-2.901l.29-.3c.298-.306.597-.614.853-.93.059-.06.121-.117.188-.17.165-.128.307-.284.418-.46a.589.589 0 00-.137-.718.486.486 0 00-.588 0l-.214.163a5.576 5.576 0 00-.426.469c-.154.196-.282.35-.384.486zM52.557 55.901c.075.044.16.067.247.069a.615.615 0 00.307-.094.605.605 0 00.154-.853.52.52 0 00-.691-.282.623.623 0 00-.316.555.648.648 0 00.299.605zM52.215 52.787l.145.264.069-.042a.41.41 0 00.221.06h.137a.657.657 0 00.47-.623.58.58 0 00-.35-.564.59.59 0 00-.632.18.554.554 0 00-.12.477l.06.248zM52.224 51.2a.64.64 0 00.418.512c.051.008.103.008.154 0a.52.52 0 00.384-.18.64.64 0 000-.853.512.512 0 00-.7-.102.589.589 0 00-.256.623zM52.693 48.331a.562.562 0 00.504.853.587.587 0 00.204-.042.59.59 0 00.359-.563.546.546 0 00-1.067-.197v-.05zM53.436 58.64a.503.503 0 00.486-.367.358.358 0 000-.102v-.307h.009a.546.546 0 00-.24-.282.614.614 0 00-.64 0 .555.555 0 00-.221.563.597.597 0 00.606.495zM55.611 64.92a.429.429 0 00.308-.136h.06l.076-.247a.717.717 0 00-.307-.717.478.478 0 00-.614.068.596.596 0 00-.154.683.665.665 0 00.589.4l.042-.05zM50.654 62.445l-.256-.06h-.051a.537.537 0 00-.547.18.614.614 0 00-.102.623.547.547 0 00.478.324h.043a.59.59 0 00.562-.758.52.52 0 00-.136-.215l.009-.094zM52.105 54.117a.529.529 0 00.52.376.538.538 0 00.52-.367.666.666 0 00-.17-.717.494.494 0 00-.614-.06.734.734 0 00-.256.769zM54.733 62.378l.495-.162v-.077a.589.589 0 00.12-.341.665.665 0 00-.36-.64.52.52 0 00-.614.12.734.734 0 000 .853.512.512 0 00.376.23l-.017.017zM54.084 59.775a.572.572 0 00.35-.899.588.588 0 00-.862-.1.546.546 0 00-.136.58.598.598 0 00.563.436l.085-.017zM52.983 59.143h-.076l-.265-.051v.06a.505.505 0 00-.307.239.708.708 0 00.094.793.46.46 0 00.35.154.572.572 0 00.255-.069.606.606 0 00.325-.631.554.554 0 00-.376-.495zM51.336 61.438h-.076a.503.503 0 00-.487.145.674.674 0 00-.162.674.521.521 0 00.418.359h.094a.58.58 0 00.563-.47.572.572 0 00-.35-.708zM49.186 63.41h-.085a.555.555 0 00-.435.623.563.563 0 00.554.538.52.52 0 00.46-.299.674.674 0 00-.059-.648.513.513 0 00-.435-.214zM52.42 49.637a.614.614 0 00.265.683l.239.11v-.05a.47.47 0 00.315-.129.657.657 0 00.154-.69.53.53 0 00-.495-.368.537.537 0 00-.478.444zM54.451 60.962a.443.443 0 00.401-.265.623.623 0 000-.683.606.606 0 00-.631-.162.479.479 0 00-.393.47.708.708 0 00.53.623l.093.017zM54.494 46.975a.546.546 0 00.495-.299.614.614 0 000-.64.512.512 0 00-.512-.205.572.572 0 00-.478.632.52.52 0 00.495.512zM53.555 46.72a.563.563 0 00-.324 1.066c.092.06.198.092.307.094.1 0 .197-.026.282-.077a.47.47 0 00.213-.23h.06v-.538h-.069a.538.538 0 00-.469-.316zM56.525 51.336a.623.623 0 00-.333-.589.419.419 0 00-.478.128.657.657 0 00-.043.854.453.453 0 00.384.204c.086 0 .171-.02.248-.06a.512.512 0 00.222-.537zM55.21 56.02a.588.588 0 00.163-.725.52.52 0 00-.512-.315.59.59 0 00-.523.645.538.538 0 00.07.208l.419.316.042-.052a.477.477 0 00.342-.076zM53 57.317a.443.443 0 00.248-.076.717.717 0 00.23-.794.495.495 0 00-.29-.307v-.06h-.529v.077a.57.57 0 00-.17.264.64.64 0 00.153.675.528.528 0 00.358.221zM52.318 60.527a.494.494 0 00-.367-.171.546.546 0 00-.418.922.606.606 0 00.444.196.571.571 0 00.29-.077.487.487 0 00.239-.384h.05l-.187-.478-.051-.008zM55.944 53.98a.53.53 0 00-.554-.477.538.538 0 00-.487.324.64.64 0 000 .657.504.504 0 00.384.18l.18-.052a.597.597 0 00.477-.631zM54.272 57.498a.622.622 0 00.46-.197.52.52 0 000-.648.503.503 0 00-.562-.248.564.564 0 00-.333.214h-.077v.316a.487.487 0 00.299.511c.066.034.139.051.213.052zM48.299 64.332h-.103a.504.504 0 00-.46.299.615.615 0 00.102.665.497.497 0 00.375.162.527.527 0 00.197 0 .554.554 0 00.358-.614.563.563 0 00-.47-.512zM55.467 46.48a.546.546 0 00-.419.623.52.52 0 00.521.495.547.547 0 00.512-.29.598.598 0 00-.068-.615.555.555 0 00-.546-.213zM56.166 49.169H55.8v.077a.555.555 0 00-.187.503.537.537 0 00.529.495h.077a.563.563 0 00-.06-1.11l.008.035zM55.936 47.87a.512.512 0 00-.486.504.537.537 0 00.511.512.521.521 0 00.444-.23.52.52 0 00-.503-.786h.034zM56.32 52.983a.597.597 0 00-.094-.597.486.486 0 00-.495-.162.555.555 0 00-.418.64.52.52 0 00.512.47h.051a.555.555 0 00.444-.35z" fill="#fff"/></svg>
