<svg width="231" height="48" viewBox="0 0 231 48" fill="none" xmlns="http://www.w3.org/2000/svg">
<g id="cesko.digital-logotype-on-light-background-rgb 1" clip-path="url(#clip0)">
<path id="fullLogo" fill-rule="evenodd" clip-rule="evenodd" d="M97.1569 37.8578C95.8275 37.8578 95.0421 38.6425 95.0421 39.9712C95.0421 41.2993 95.8275 42.084 97.1569 42.084C98.4863 42.084 99.2716 41.2993 99.2716 39.9712C99.2716 38.6425 98.5464 37.8578 97.1569 37.8578ZM230.989 39.7293V41.4804C230.989 41.6615 230.869 41.7818 230.627 41.7818H227.364C224.464 41.7818 222.53 39.8502 222.53 36.9522V22.3408H217.697C217.455 22.3408 217.395 22.28 217.395 21.9787V20.2274C217.395 19.9855 217.455 19.8653 217.697 19.8653H225.068C225.116 19.8632 225.164 19.8712 225.209 19.8886C225.254 19.9061 225.295 19.9327 225.329 19.9667C225.363 20.0007 225.39 20.0415 225.407 20.0864C225.425 20.1312 225.433 20.1793 225.431 20.2274V36.6501C225.431 38.4012 226.276 39.367 228.029 39.367H230.687C230.869 39.4272 230.989 39.488 230.989 39.7293ZM203.317 37.7368C203.317 36.1067 204.283 35.2612 206.398 35.2612H209.782V38.8236C208.609 39.4476 207.303 39.7792 205.975 39.7901C204.162 39.7901 203.317 38.9446 203.317 37.7368ZM207.244 29.6461C208.996 29.6461 209.842 30.5518 209.842 32.3631V33.1486H206.519C202.531 33.1486 200.417 34.7788 200.417 37.858C200.417 40.2728 202.168 41.9638 205.431 41.9638C207.124 41.9825 208.777 41.4528 210.144 40.454L210.386 41.4204C210.506 41.6618 210.567 41.7825 210.808 41.7825H212.32C212.369 41.7895 212.419 41.785 212.466 41.7693C212.513 41.7535 212.556 41.7271 212.591 41.6919C212.626 41.6568 212.653 41.614 212.669 41.5669C212.684 41.5197 212.689 41.4696 212.682 41.4204V32.0617C212.682 29.1028 210.748 27.1705 207.787 27.1705H202.048C201.998 27.1635 201.948 27.1681 201.901 27.1838C201.854 27.1996 201.811 27.226 201.776 27.2612C201.741 27.2963 201.715 27.3391 201.699 27.3862C201.683 27.4333 201.678 27.4835 201.685 27.5326V29.2838C201.678 29.333 201.683 29.3831 201.699 29.4303C201.714 29.4774 201.741 29.5202 201.776 29.5554C201.811 29.5905 201.854 29.617 201.901 29.6327C201.948 29.6484 201.998 29.6529 202.048 29.6459L207.244 29.6461ZM188.151 29.6461V36.7102C188.151 38.4613 188.996 39.367 190.749 39.367H194.072C194.253 39.367 194.374 39.488 194.374 39.7291V41.4802C194.376 41.5205 194.37 41.5609 194.356 41.5987C194.341 41.6364 194.319 41.6707 194.291 41.6992C194.262 41.7278 194.228 41.7499 194.19 41.7643C194.152 41.7786 194.112 41.7848 194.072 41.7824H190.144C187.183 41.7824 185.311 39.9102 185.311 36.952V29.6459H180.96C180.719 29.6459 180.658 29.5256 180.658 29.3445V27.5936C180.658 27.3522 180.779 27.2315 180.96 27.2315H185.311V22.401C185.311 22.1596 185.432 22.0989 185.613 22.0989H187.788C188.03 22.0989 188.151 22.2199 188.151 22.401V27.2313H194.072C194.253 27.2313 194.374 27.3523 194.374 27.5934V29.3446C194.374 29.586 194.253 29.646 194.072 29.646L188.151 29.6461ZM164.103 41.4804C164.103 41.6615 164.224 41.7825 164.466 41.7825H176.732C176.974 41.7825 177.094 41.7224 177.094 41.4804V39.7301C177.094 39.4881 176.973 39.428 176.732 39.428H172.381V27.5936C172.381 27.3522 172.321 27.2315 172.079 27.2315H164.466C164.418 27.2294 164.37 27.2374 164.325 27.2548C164.28 27.2723 164.24 27.2989 164.205 27.3329C164.171 27.3669 164.145 27.4077 164.127 27.4526C164.11 27.4974 164.101 27.5455 164.103 27.5936V29.3447C164.103 29.5258 164.224 29.6468 164.466 29.6468H169.602V39.4278H164.466C164.224 39.4278 164.103 39.488 164.103 39.7299V41.4804ZM151.596 39.6691C152.737 39.6073 153.85 39.2983 154.859 38.7635V30.3106C153.909 29.739 152.826 29.4267 151.717 29.405C149.3 29.405 148.092 31.2163 148.092 34.5976C148.031 38.2802 149.3 39.6691 151.596 39.6691H151.596ZM151.053 27.0502C152.503 27.0502 153.832 27.5334 155.161 28.6202L155.464 27.6537C155.473 27.5502 155.523 27.4544 155.602 27.3868C155.681 27.3191 155.783 27.285 155.887 27.2916H157.397C157.578 27.2916 157.699 27.4126 157.699 27.6537V43.1713C157.699 46.1295 155.766 48.001 152.805 48.001H147.005C146.955 48.0081 146.905 48.0036 146.858 47.9879C146.811 47.9723 146.768 47.9458 146.732 47.9107C146.697 47.8755 146.671 47.8327 146.655 47.7855C146.639 47.7383 146.635 47.6881 146.642 47.6388V45.9485C146.642 45.7071 146.763 45.6464 147.005 45.6464H152.2C153.953 45.6464 154.798 44.6807 154.798 42.9295V40.6957C153.606 41.5139 152.196 41.9556 150.751 41.9636C146.702 41.9636 145.071 39.1859 145.071 34.5373C145.071 30.0084 146.823 27.0502 151.053 27.0502ZM127.548 41.4804C127.548 41.6615 127.669 41.7825 127.911 41.7825H140.176C140.418 41.7825 140.539 41.7224 140.539 41.4804V39.7301C140.539 39.4881 140.418 39.428 140.176 39.428H135.826V27.5936C135.826 27.3522 135.766 27.2315 135.524 27.2315H127.911C127.862 27.2295 127.814 27.2375 127.77 27.255C127.725 27.2725 127.684 27.2991 127.65 27.3331C127.616 27.3672 127.589 27.4079 127.572 27.4527C127.554 27.4975 127.546 27.5455 127.548 27.5936V29.3447C127.548 29.5258 127.669 29.6468 127.911 29.6468H133.047V39.4278H127.911C127.669 39.4278 127.548 39.488 127.548 39.7299L127.548 41.4804ZM115.344 39.6691C116.485 39.6147 117.6 39.3052 118.606 38.7635V30.3106C117.656 29.739 116.573 29.4267 115.465 29.405C113.047 29.405 111.839 31.2163 111.839 34.5976C111.779 38.2802 113.048 39.6691 115.344 39.6691H115.344ZM114.8 27.0502C116.153 27.0543 117.468 27.4995 118.546 28.3181V20.3484C118.546 20.1065 118.667 19.9863 118.848 19.9863H121.023C121.205 19.9863 121.325 20.1066 121.325 20.3484V41.4804C121.325 41.7218 121.205 41.7825 121.023 41.7825H119.513C119.271 41.7825 119.21 41.6615 119.09 41.4204L118.788 40.4539C117.544 41.4226 116.014 41.9534 114.438 41.9638C110.389 41.9638 108.758 39.186 108.758 34.5374C108.818 30.0084 110.57 27.0502 114.8 27.0502H114.8ZM82.777 34.5373C82.777 38.0991 81.6287 39.7901 79.1517 39.7901C76.6741 39.7901 75.5265 38.0991 75.5265 34.5373C75.5265 30.9749 76.6741 29.2839 79.1517 29.2839C81.6286 29.2839 82.7769 30.9749 82.7769 34.5373L82.777 34.5373ZM85.7372 34.5373C85.7372 30.1294 83.8644 27.0502 79.1517 27.0502C74.4391 27.0502 72.5656 30.1294 72.5656 34.5373C72.5656 39.0048 74.4391 42.0238 79.1517 42.0238C83.8644 42.0238 85.7371 39.0047 85.7371 34.5373L85.7372 34.5373ZM68.5774 41.7825H65.4354C65.3331 41.7743 65.2366 41.7317 65.1617 41.6615H65.161C65.1353 41.6437 65.1062 41.6232 65.0724 41.6014L57.701 34.5373V41.4804C57.701 41.7218 57.6408 41.7825 57.3989 41.7825H55.224C54.9821 41.7825 54.8618 41.6615 54.8618 41.4804V20.3484C54.8547 20.2992 54.8592 20.249 54.8749 20.2018C54.8906 20.1547 54.9171 20.1118 54.9522 20.0766C54.9874 20.0415 55.0303 20.015 55.0775 19.9993C55.1246 19.9836 55.1748 19.9792 55.224 19.9863H57.3989C57.6408 19.9863 57.701 20.1066 57.701 20.3484V33.8729L64.8913 27.4124C64.9521 27.2914 65.0724 27.2914 65.1934 27.2914H68.0333C68.3354 27.2914 68.3954 27.5935 68.2143 27.7746L60.9037 34.2351L68.7585 41.4204C68.9396 41.4804 68.8187 41.7825 68.5774 41.7825ZM37.2188 39.0047L36.7356 40.5748C36.7186 40.6825 36.726 40.7927 36.7574 40.8972C36.7887 41.0016 36.8432 41.0977 36.9166 41.1783C38.367 41.7825 39.8775 42.0846 42.4754 42.0846C47.007 42.0846 49.0615 40.4538 49.0615 37.7368C49.0615 34.8612 46.0702 34.1017 43.4796 33.4433C41.501 32.9409 39.7565 32.4973 39.7565 31.2161C39.7565 30.0694 40.5418 29.4049 43.0796 29.4049C44.6287 29.412 46.1638 29.6984 47.6112 30.2504C47.8531 30.3707 48.0343 30.3105 48.0944 30.1294L48.5776 28.4992C48.6065 28.4533 48.6231 28.4007 48.6257 28.3465C48.6284 28.2923 48.617 28.2383 48.5928 28.1898C48.5686 28.1412 48.5322 28.0998 48.4873 28.0693C48.4424 28.0389 48.3904 28.0205 48.3364 28.016C46.6913 27.3322 44.9206 27.0032 43.1397 27.0503C38.8501 27.0503 36.9165 28.6805 36.9165 31.3974C36.9165 34.273 39.9078 35.0332 42.4978 35.691C44.4764 36.194 46.2216 36.637 46.2216 37.9181C46.2216 39.0049 45.4362 39.6692 42.5355 39.6692C40.8841 39.7123 39.2407 39.4248 37.7019 38.8237C37.5209 38.7635 37.2789 38.7635 37.2188 39.0047ZM24.9529 29.2238C22.778 29.2238 21.3885 30.5518 21.2067 33.4505H28.2761C28.3369 30.8539 27.3698 29.2238 24.9529 29.2238ZM31.2369 34.2953V35.1408C31.2369 35.3821 31.116 35.503 30.9348 35.503H21.2067C21.4486 38.2199 22.899 39.6088 25.4362 39.6088C26.9352 39.6303 28.4206 39.3211 29.7866 38.7031C29.8286 38.6756 29.8765 38.6584 29.9265 38.6528C29.9764 38.6473 30.027 38.6536 30.0741 38.6712C30.1211 38.6888 30.1634 38.7173 30.1974 38.7543C30.2314 38.7913 30.2562 38.8358 30.2698 38.8842L30.7537 40.4535C30.8138 40.6345 30.8138 40.8156 30.5117 40.9367C28.8922 41.711 27.11 42.0839 25.3158 42.0239C20.9654 42.0239 18.1857 39.2468 18.1857 34.5374C18.1857 30.1295 20.3612 27.0503 25.0137 27.0503C29.6656 27.0502 31.2369 29.8881 31.2369 34.2953ZM12.5674 28.137C10.8961 27.3894 9.081 27.0184 7.25047 27.0502C2.96022 27.0502 0.0601447 29.8273 0 34.5975C0 39.2467 2.90011 42.0847 7.18967 42.0847C9.1834 42.0847 10.7547 41.8427 12.5065 40.9972C12.7485 40.8769 12.8695 40.6958 12.7485 40.5146L12.2652 38.9446C12.2476 38.8919 12.2179 38.844 12.1786 38.8047C12.1392 38.7654 12.0912 38.7358 12.0384 38.7182C11.9857 38.7006 11.9295 38.6956 11.8745 38.7035C11.8194 38.7113 11.7669 38.7319 11.7212 38.7636C10.3421 39.333 8.86283 39.6205 7.37079 39.6091C4.53156 39.6091 2.96022 37.8579 2.96022 34.5374C2.96022 31.2764 4.53156 29.526 7.37079 29.526C8.86587 29.4788 10.3525 29.7675 11.7212 30.3709C11.7669 30.4027 11.8194 30.4233 11.8745 30.4312C11.9296 30.4391 11.9857 30.4341 12.0385 30.4165C12.0913 30.3989 12.1393 30.3693 12.1786 30.33C12.218 30.2906 12.2476 30.2427 12.2652 30.1899L12.7485 28.6206C12.8695 28.3783 12.8086 28.2579 12.5674 28.137ZM168.393 10.8688C168.393 9.54079 169.178 8.75544 170.508 8.75544C171.897 8.75544 172.622 9.54079 172.622 10.8688C172.622 12.1969 171.837 12.9823 170.508 12.9823C169.178 12.9823 168.393 12.1969 168.393 10.8688ZM134.013 8.75544C132.684 8.75544 131.899 9.54079 131.899 10.8688C131.899 12.1969 132.623 12.9823 134.013 12.9823C135.342 12.9823 136.128 12.1969 136.128 10.8688C136.128 9.54076 135.403 8.75544 134.013 8.75544ZM4.95396 12.6801C5.1959 12.6801 5.25607 12.6801 5.49801 12.4387L11.6002 6.28045L5.49801 0.242499C5.42552 0.154733 5.33716 0.0814005 5.23754 0.0263338C5.14522 0.00140356 5.04924 -0.00714554 4.95396 0.00107483H2.29585C2.23688 -0.00701487 2.17685 0.00355323 2.12419 0.0312975C2.07153 0.0590418 2.02887 0.102571 2.00219 0.155783C1.97551 0.208995 1.96615 0.269221 1.97543 0.328019C1.98471 0.386817 2.01215 0.441237 2.05391 0.483651L7.97499 6.40077L2.17487 12.1969C2.13951 12.2414 2.1176 12.295 2.11171 12.3515C2.10582 12.408 2.11621 12.465 2.14164 12.5157C2.16706 12.5665 2.20648 12.609 2.25524 12.6381C2.304 12.6672 2.36006 12.6818 2.41684 12.6801H4.95396Z" fill="#0000FF"/>
</g>
<defs>
<clipPath id="clip0">
<rect width="230.989" height="48" fill="white"/>
</clipPath>
</defs>
</svg>
