<svg width="105" height="48" viewBox="0 0 105 48" fill="none" xmlns="http://www.w3.org/2000/svg">
<g clip-path="url(#clip0)">
<path fill-rule="evenodd" clip-rule="evenodd" d="M0.407959 47.5351H104.414V0.417969H0.407959V47.5351Z" fill="#ABDCEC"/>
</g>
<g clip-path="url(#clip1)">
<path fill-rule="evenodd" clip-rule="evenodd" d="M95.0075 19.0723V17.5751C95.0075 16.1612 93.8601 15.0097 92.4441 15.0097H81.547C80.1295 15.0097 78.9836 16.1612 78.9836 17.5751V23.2105H91.1399V24.0664H78.9836V25.5615C78.9836 26.976 80.1295 28.1249 81.547 28.1249H92.4441C93.8601 28.1249 95.0075 26.976 95.0075 25.5615V19.9261H82.8533V19.0723H95.0075ZM86.9966 9.3125C87.6476 9.3125 88.2185 9.55556 88.6929 10.0402C89.1673 10.5212 89.4093 11.1084 89.4093 11.7733C89.4093 12.4534 89.1714 13.0325 88.6985 13.514C88.2236 13.9981 87.6476 14.2396 86.9966 14.2396C86.3312 14.2396 85.7588 13.9981 85.2946 13.514C84.8218 13.0325 84.5843 12.4534 84.5843 11.7733C84.5843 11.1084 84.8218 10.5268 85.288 10.0463C85.7588 9.56118 86.3312 9.3125 86.9966 9.3125Z" fill="#D8232A"/>
<path fill-rule="evenodd" clip-rule="evenodd" d="M71.6648 36.9011C71.2445 37.3725 70.7216 37.5466 70.2406 37.5466C69.2469 37.5466 68.7342 36.9323 68.7342 35.9891V32.4954H69.6559V35.9483C69.6559 36.5427 70.0154 36.799 70.5991 36.799C70.978 36.799 71.3778 36.6142 71.6648 36.3583V32.4954H72.5763V37.0957C72.5763 38.3049 72.0845 39.2067 70.4658 39.2067C69.3388 39.2067 68.8777 39.1143 68.8777 38.7149V38.479H70.3427C71.1725 38.479 71.6648 38.2125 71.6648 37.0548V36.9011ZM63.7152 37.6181V32.4954H64.1758C64.5041 32.4954 64.6369 32.6695 64.6369 32.9151V33.0897C65.0571 32.6179 65.5902 32.4438 66.0718 32.4438C67.0655 32.4438 67.5572 33.0591 67.5572 34.012V37.6181H66.6452V34.0528C66.6452 33.4482 66.2969 33.1919 65.7128 33.1919C65.3237 33.1919 64.9238 33.3767 64.6369 33.6223V37.6181H63.7152ZM62.4855 37.6181H61.5638V31.3372C61.5638 31.0303 61.6762 30.8557 61.9836 30.8557H62.4855V37.6181ZM59.6796 34.6569C59.6898 34.565 59.6898 34.3597 59.6898 34.2371C59.6898 33.7454 59.4952 33.1306 58.7165 33.1306C58.0093 33.1306 57.6304 33.5815 57.5895 34.6569H59.6796ZM60.3863 36.942V37.1779C60.3863 37.5772 59.8435 37.6697 58.7165 37.6697C57.1182 37.6697 56.6265 36.4911 56.6265 35.0572C56.6265 33.6223 57.1489 32.4438 58.7063 32.4438C59.9666 32.4438 60.6222 33.223 60.6222 34.35C60.6222 34.5854 60.6222 34.8009 60.5707 35.2926H57.5895C57.5895 36.4814 57.9889 36.942 58.8192 36.942H60.3863ZM55.1308 32.4954H56.2374V33.1817H55.1308V36.3068C55.1308 36.7474 55.1824 36.9119 55.5097 36.9119H56.2374V37.1468C56.2374 37.5466 55.8682 37.6385 55.3565 37.6385C54.3112 37.6385 54.2086 37.0651 54.2086 36.3068V33.1817H53.5632V32.6695L54.2086 32.4954L54.5364 31.6758C54.6391 31.4608 54.7111 31.3684 54.8954 31.3684H55.1308V32.4954ZM51.8326 32.4954H52.3244C52.642 32.4954 52.7543 32.6695 52.7543 32.9769V37.6181H51.8326V32.4954ZM52.7543 31.9214H51.8326V31.3372C51.8326 31.0303 51.945 30.8557 52.2524 30.8557H52.7543V31.9214ZM48.6973 37.6181V32.4954H49.1584C49.4658 32.4954 49.5991 32.7415 49.6195 33.1306C50.0193 32.5975 50.5519 32.4438 50.9415 32.4438C51.1157 32.4438 51.3 32.4851 51.3 32.7001V33.3563H51.0437C50.2961 33.3563 49.9167 33.5406 49.6195 33.7863V37.6181H48.6973ZM49.7017 32.0547C49.5787 32.0547 49.5169 32.024 49.3943 31.8806L48.5747 30.9073C48.5339 30.8557 48.5339 30.7944 48.5339 30.7536H48.9434C49.0767 30.7536 49.138 30.774 49.2713 30.9073L49.8243 31.4194L50.388 30.9073C50.5213 30.774 50.5826 30.7536 50.7158 30.7536H51.1259C51.1259 30.7944 51.1259 30.8557 51.085 30.9073L50.2649 31.8806C50.1424 32.024 50.0806 32.0547 49.9581 32.0547H49.7017ZM46.7722 35.0572C46.7722 33.7965 46.5266 33.1306 45.6452 33.1306C44.7746 33.1306 44.5182 33.7965 44.5182 35.0572C44.5182 36.317 44.7746 36.9828 45.6452 36.9828C46.5266 36.9828 46.7722 36.317 46.7722 35.0572ZM43.5654 35.0572C43.5654 33.6223 44.0367 32.4438 45.6452 32.4438C47.2644 32.4438 47.7255 33.6223 47.7255 35.0572C47.7255 36.4911 47.2644 37.6697 45.6452 37.6697C44.0367 37.6697 43.5654 36.4911 43.5654 35.0572ZM40.7288 33.1817C40.329 33.1817 39.9705 33.366 39.7039 33.6121V36.4814C39.9705 36.727 40.329 36.9119 40.7288 36.9119C41.5274 36.9119 41.8558 36.2557 41.8558 35.0572C41.8558 33.8583 41.5274 33.1817 40.7288 33.1817ZM39.7039 39.1551H38.7817V32.4954H39.2428C39.5707 32.4954 39.7039 32.6695 39.7039 32.9258V33.0897C39.9909 32.7512 40.452 32.4438 41.0362 32.4438C42.2449 32.4438 42.8086 33.438 42.8086 35.0572C42.8086 36.676 42.2449 37.6697 41.0362 37.6697C40.452 37.6697 39.9909 37.3623 39.7039 37.0242V39.1551ZM36.1698 32.4438C37.0716 32.4438 37.6859 32.4647 37.6859 32.9151V33.1817H36.1392C35.6781 33.1817 35.3809 33.3864 35.3809 33.7148C35.3809 34.7805 37.9627 34.4726 37.9627 36.1939C37.9627 37.0344 37.4096 37.6697 35.9645 37.6697C35.1245 37.6697 34.3458 37.6697 34.3458 37.229V36.942H36.0672C36.682 36.942 36.969 36.727 36.969 36.2659C36.969 35.2926 34.3974 35.4872 34.3974 33.7658C34.3974 32.9463 35.0632 32.4438 36.1698 32.4438ZM29.8803 31.901C29.7475 32.0445 29.6857 32.0547 29.5524 32.0547H29.1429C29.1429 32.0138 29.1429 31.9526 29.1838 31.901L30.0033 30.9277C30.1264 30.7944 30.1877 30.7536 30.3107 30.7536H30.7203C30.7923 30.7536 30.8438 30.774 30.8438 30.8353C30.8438 30.8761 30.8229 30.9175 30.7412 31.0099L29.8803 31.901ZM30.5364 34.6569C30.5467 34.565 30.5467 34.3597 30.5467 34.2371C30.5467 33.7454 30.3516 33.1306 29.5729 33.1306C28.8661 33.1306 28.4867 33.5815 28.4459 34.6569H30.5364ZM31.2432 36.942V37.1779C31.2432 37.5772 30.6998 37.6697 29.5729 37.6697C27.9746 37.6697 27.4828 36.4911 27.4828 35.0572C27.4828 33.6223 28.0052 32.4438 29.5627 32.4438C30.8229 32.4438 31.4786 33.223 31.4786 34.35C31.4786 34.5854 31.4786 34.8009 31.4275 35.2926H28.4459C28.4459 36.4814 28.8457 36.942 29.6755 36.942H31.2432ZM24.3072 34.7493L26.2032 32.7001C26.3257 32.5566 26.3977 32.4954 26.5923 32.4954H27.3812C27.3812 32.5674 27.3506 32.6383 27.2995 32.7001L25.2294 34.8826L27.3097 37.4133C27.371 37.4751 27.3812 37.5466 27.3812 37.6181H26.5412C26.3053 37.6181 26.2338 37.516 26.0903 37.3316L24.3072 35.1486V37.6181H23.3855V31.3372C23.3855 31.0303 23.4978 30.8557 23.8052 30.8557H24.3072V34.7493ZM20.7735 32.4438C21.6753 32.4438 22.2901 32.4647 22.2901 32.9151V33.1817H20.7429C20.2818 33.1817 19.9846 33.3864 19.9846 33.7148C19.9846 34.7805 22.5669 34.4726 22.5669 36.1939C22.5669 37.0344 22.0134 37.6697 20.5688 37.6697C19.7288 37.6697 18.9501 37.6697 18.9501 37.229V36.942H20.6709C21.2857 36.942 21.5727 36.727 21.5727 36.2659C21.5727 35.2926 19.0011 35.4872 19.0011 33.7658C19.0011 32.9463 19.667 32.4438 20.7735 32.4438ZM17.363 34.6569C17.3732 34.565 17.3732 34.3597 17.3732 34.2371C17.3732 33.7454 17.1781 33.1306 16.3994 33.1306C15.6927 33.1306 15.3138 33.5815 15.2724 34.6569H17.363ZM18.0697 36.942V37.1779C18.0697 37.5772 17.5264 37.6697 16.3994 37.6697C14.8011 37.6697 14.3094 36.4911 14.3094 35.0572C14.3094 33.6223 14.8323 32.4438 16.3892 32.4438C17.6495 32.4438 18.3051 33.223 18.3051 34.35C18.3051 34.5854 18.3051 34.8009 18.2541 35.2926H15.2724C15.2724 36.4814 15.6723 36.942 16.5021 36.942H18.0697ZM12.1999 30.6203C12.0769 30.6203 12.0156 30.5897 11.8925 30.4457L11.0724 29.4724C11.0316 29.4218 11.0316 29.3595 11.0316 29.3187H11.4416C11.5749 29.3187 11.6362 29.3391 11.7695 29.4724L12.323 29.9851L12.8862 29.4724C13.0195 29.3391 13.0808 29.3187 13.2141 29.3187H13.6241C13.6241 29.3595 13.6241 29.4218 13.5827 29.4724L12.7632 30.4457C12.6406 30.5897 12.5788 30.6203 12.4558 30.6203H12.1999ZM12.4251 31.0099C13.6343 31.0099 13.9724 31.1228 13.9724 31.5731V31.8806H12.4251C11.2981 31.8806 10.8473 32.4545 10.8473 34.3393C10.8473 36.2251 11.2981 36.799 12.4251 36.799H13.9724V37.1059C13.9724 37.5568 13.6343 37.6697 12.4251 37.6697C10.6833 37.6697 9.84334 36.6351 9.84334 34.3393C9.84334 32.0445 10.6833 31.0099 12.4251 31.0099ZM67.2033 16.2509C67.2033 15.4722 67.5516 15.0826 68.3303 15.0826H75.5027V16.7018C75.5027 17.4806 75.1131 17.8492 74.3349 17.8492H70.4821V20.2058H74.7853V22.8698H70.4821V25.4317H75.6049V27.0504C75.6049 27.8291 75.2158 28.1978 74.437 28.1978H68.3303C67.5516 28.1978 67.2033 27.8082 67.2033 27.03V16.2509ZM62.5494 14.9805C65.2747 14.9805 66.1764 15.4722 66.1764 16.5992V17.8492H62.5494C60.7662 17.8492 60.3358 18.628 60.3358 21.6402C60.3358 24.653 60.7662 25.4317 62.5494 25.4317H66.1764V26.6812C66.1764 27.8082 65.2747 28.3005 62.5494 28.3005C58.9223 28.3005 56.9548 26.3131 56.9548 21.6402C56.9548 16.9679 58.9223 14.9805 62.5494 14.9805ZM49.8421 22.6242H51.8709L50.8874 18.4232H50.8052L49.8421 22.6242ZM52.4857 15.0417C53.0387 15.0417 53.3053 15.103 53.4278 15.5749L56.4815 27.6857C56.5228 27.87 56.5432 28.0549 56.5432 28.1978H53.8583C53.3053 28.1978 53.1414 28.157 53.0387 27.7061L52.4035 25.0829H49.3504L48.756 27.7061C48.6539 28.157 48.4895 28.1978 47.9364 28.1978H45.2724C45.2724 28.0549 45.2929 27.8904 45.3337 27.6857L48.3873 15.5749C48.5104 15.103 48.7764 15.0417 49.33 15.0417H52.4857ZM37.2784 17.8492V25.4317H39.1841C40.5981 25.4317 41.4794 24.653 41.4794 21.6402C41.4794 18.628 40.5981 17.8492 39.1841 17.8492H37.2784ZM33.9996 16.2509C33.9996 15.4722 34.3478 15.0826 35.1266 15.0826H39.2867C42.8112 15.0826 44.8604 16.9679 44.8604 21.6402C44.8604 26.3131 42.8112 28.1978 39.2867 28.1978H35.1266C34.3478 28.1978 33.9996 27.8082 33.9996 27.03V16.2509ZM26.2716 22.6242H28.3004L27.3169 18.4232H27.2352L26.2716 22.6242ZM28.9152 15.0417C29.4687 15.0417 29.7347 15.103 29.8578 15.5749L32.9109 27.6857C32.9523 27.87 32.9727 28.0549 32.9727 28.1978H30.2883C29.7347 28.1978 29.5708 28.157 29.4687 27.7061L28.8335 25.0829H25.7798L25.186 27.7061C25.0833 28.157 24.9194 28.1978 24.3659 28.1978H21.7019C21.7019 28.0549 21.7223 27.8904 21.7632 27.6857L24.8168 15.5749C24.9398 15.103 25.2064 15.0417 25.7594 15.0417H28.9152ZM17.9906 23.5669C17.7853 22.3372 17.7036 20.6159 17.7036 19.181V15.0826H20.675V27.2143C20.675 27.8082 20.388 28.2387 19.6093 28.2387H17.8062C17.2118 28.2387 16.9861 28.1774 16.7201 27.6652L12.6008 19.7141H12.5191C12.7238 21.2715 12.7856 22.952 12.7856 24.1V28.1978H9.81372V16.1687C9.81372 15.4722 10.1829 15.0417 10.9616 15.0417H12.7034C13.2774 15.0417 13.523 15.103 13.7895 15.6157L17.8879 23.5669H17.9906Z" fill="#004066"/>
</g>
<defs>
<clipPath id="clip0">
<rect width="104.681" height="48" fill="white"/>
</clipPath>
<clipPath id="clip1">
<rect width="85.7872" height="30.1277" fill="white" transform="translate(9.70215 9.19141)"/>
</clipPath>
</defs>
</svg>
