<svg width="198" height="48" viewBox="0 0 198 48" fill="none" xmlns="http://www.w3.org/2000/svg">
<g clip-path="url(#clip0)">
<path d="M35.6068 32.5605H8.24474C8.5756 34.798 9.69034 36.8453 11.3902 38.3373C13.252 39.8142 15.5798 40.5778 17.9546 40.4908C19.4774 40.5206 20.9902 40.2378 22.3994 39.6597C23.8086 39.0816 25.0842 38.2206 26.1474 37.13L33.3481 40.4847C31.7196 42.8693 29.5137 44.8026 26.9361 46.1042C24.1561 47.3839 21.1207 48.0124 18.0611 47.9419C15.6624 48.0316 13.2706 47.6311 11.032 46.7649C8.79332 45.8988 6.75486 44.5851 5.04119 42.9043C3.38522 41.259 2.08364 39.2921 1.21664 37.1247C0.34964 34.9573 -0.0644245 32.6353 -4.64651e-05 30.3018C-0.0678368 27.9242 0.338525 25.5568 1.19533 23.3378C2.05214 21.1188 3.34224 19.0927 4.99038 17.3776C6.61264 15.6987 8.56574 14.3748 10.7261 13.4898C12.8864 12.6047 15.207 12.1778 17.5408 12.2359C19.9491 12.1469 22.3496 12.5578 24.5911 13.4427C26.8326 14.3277 28.8664 15.6674 30.5643 17.3776C33.9252 20.7908 35.6056 25.3074 35.6056 30.9273L35.6068 32.5605ZM27.0995 25.8389C26.5354 23.9761 25.3723 22.3516 23.7907 21.2175C22.1084 20.0134 20.0809 19.3876 18.0127 19.4342C15.7677 19.4022 13.5736 20.103 11.7628 21.4304C10.39 22.6298 9.32715 24.143 8.66454 25.8413H27.0983L27.0995 25.8389ZM66.3817 0H74.889V47.0031H66.3817V43.4318C64.9415 44.8655 63.2504 46.0227 61.3924 46.8459C59.6754 47.5461 57.8377 47.9029 55.9834 47.896C53.8379 47.9102 51.7145 47.4626 49.7573 46.5836C47.8001 45.7046 46.0549 44.4147 44.6403 42.8015C41.4595 39.3661 39.745 34.825 39.8616 30.1446C39.6679 25.4177 41.326 20.8017 44.4831 17.2784C45.8876 15.6703 47.6247 14.3866 49.5743 13.5162C51.5238 12.6457 53.6393 12.2093 55.7741 12.2371C57.7425 12.2139 59.6936 12.6076 61.4989 13.3925C63.3466 14.2295 65.0212 15.4051 66.4361 16.8586V0H66.3817ZM57.4533 20.1141C56.2246 20.0871 55.0041 20.3212 53.8725 20.8009C52.7409 21.2805 51.724 21.9949 50.889 22.8967C49.114 24.841 48.1715 27.4034 48.2637 30.0345C48.1639 32.7094 49.1269 35.3152 50.9422 37.2824C51.7697 38.1975 52.7839 38.9246 53.9163 39.4144C55.0487 39.9042 56.273 40.1454 57.5066 40.1218C58.7509 40.1493 59.9873 39.9159 61.136 39.4366C62.2847 38.9574 63.3203 38.2429 64.1762 37.3392C65.0754 36.357 65.7705 35.2058 66.2212 33.9527C66.6719 32.6995 66.8691 31.3693 66.8015 30.0393C66.9041 27.3896 65.9613 24.8056 64.1762 22.8446C63.3071 21.9474 62.2605 21.2412 61.1031 20.771C59.9458 20.3009 58.7032 20.0772 57.4545 20.1141H57.4533ZM82.5567 13.13H91.1692V29.4622C91.0606 31.6869 91.2729 33.9157 91.7995 36.0798C92.172 37.243 92.9082 38.2558 93.8997 38.9688C94.9485 39.6892 96.1993 40.057 97.4711 40.019C98.7547 40.0671 100.022 39.7186 101.1 39.0209C102.138 38.2855 102.911 37.2362 103.306 36.0278C103.774 33.9797 103.951 31.8756 103.831 29.778V13.1287H112.338V27.5193C112.338 33.4534 111.865 37.4977 110.92 39.7032C109.902 42.2154 108.144 44.3585 105.879 45.8478C103.327 47.3648 100.391 48.1126 97.4239 48.0012C94.2293 48.1415 91.0709 47.2785 88.3915 45.5332C86.0528 43.8261 84.352 41.386 83.5596 38.6011C82.8773 36.5529 82.5615 32.8243 82.5615 27.362V13.1287L82.5567 13.13Z" fill="#253A75"/>
<path d="M123.048 38.128C124.165 38.1381 125.245 38.5347 126.103 39.2505C126.962 39.9663 127.546 40.9571 127.756 42.0548C127.967 43.1524 127.791 44.2891 127.259 45.2719C126.727 46.2546 125.871 47.0228 124.836 47.446C123.802 47.8691 122.653 47.9212 121.584 47.5933C120.516 47.2654 119.594 46.5777 118.975 45.6471C118.356 44.7165 118.078 43.6004 118.189 42.4882C118.299 41.376 118.791 40.3364 119.581 39.5459C120.032 39.0855 120.572 38.7222 121.168 38.4784C121.764 38.2345 122.404 38.1153 123.048 38.128ZM166.951 19.9569L159.862 23.8427C158.779 22.5994 157.434 21.6126 155.923 20.9537C154.464 20.4026 152.913 20.1353 151.353 20.1661C149.942 20.1006 148.533 20.3177 147.207 20.8047C145.881 21.2917 144.666 22.0387 143.633 23.0019C142.666 23.9503 141.906 25.0886 141.401 26.3451C140.895 27.6017 140.655 28.9492 140.696 30.3031C140.65 31.617 140.878 32.9261 141.366 34.1468C141.855 35.3675 142.592 36.4729 143.532 37.3925C144.529 38.3232 145.703 39.0444 146.984 39.5134C148.265 39.9824 149.627 40.1897 150.989 40.123C152.669 40.2106 154.346 39.9049 155.886 39.2303C157.427 38.5557 158.789 37.5308 159.864 36.2371L166.586 40.8586C162.956 45.5853 157.816 47.948 151.198 47.948C145.211 47.948 140.538 46.1623 137.177 42.6442C135.56 41.0135 134.282 39.0786 133.416 36.9513C132.551 34.8239 132.116 32.5463 132.136 30.2498C132.118 27.0534 132.972 23.9127 134.604 21.1642C136.24 18.3902 138.624 16.1331 141.484 14.6519C144.411 13.1636 147.638 12.3579 150.921 12.295C154.205 12.2321 157.46 12.9138 160.442 14.2889C163.045 15.6137 165.28 17.5607 166.949 19.9569H166.951ZM171.521 13.13H197.517L182.287 39.8665H196.676V47.0612H169.262L184.597 20.3246H171.626V13.13H171.521Z" fill="#ED1C2E"/>
</g>
<defs>
<clipPath id="clip0">
<rect width="197.517" height="48" fill="white"/>
</clipPath>
</defs>
</svg>
