<svg width="152" height="38" viewBox="0 0 152 38" fill="none" xmlns="http://www.w3.org/2000/svg">
<g clip-path="url(#clip0)">
<path d="M59.5923 10.9297V2.07955H66.0554V3.57115H61.3437V5.53508H65.7101V7.02668H61.3437V9.43809H66.2034V10.9297H59.5923ZM71.8771 10.9297V9.96015C71.6551 10.3082 71.3344 10.5817 70.9644 10.7805C70.5944 10.9794 70.1997 11.0789 69.7803 11.0789C69.3856 11.0789 68.991 10.9794 68.6456 10.8054C68.3249 10.6314 68.0536 10.3579 67.9055 10.0099C67.7575 9.66183 67.6835 9.1895 67.6835 8.59286V4.54068H69.361V7.49902C69.361 8.39397 69.3856 8.9409 69.4596 9.16464C69.509 9.36352 69.6323 9.53753 69.805 9.63697C69.9777 9.76127 70.175 9.81099 70.4217 9.81099C70.6931 9.81099 70.9644 9.73641 71.1864 9.56239C71.4084 9.41323 71.5565 9.21436 71.6551 8.96576C71.7291 8.74202 71.7785 8.14538 71.7785 7.22556V4.54068H73.4559V10.9546H71.8771V10.9297ZM76.7615 10.9297H75.084V4.54068H76.6381V5.4605C76.9095 5.03788 77.1315 4.73956 77.3535 4.61526C77.5755 4.4661 77.8222 4.41638 78.0689 4.41638C78.4636 4.41638 78.8336 4.54068 79.179 4.73956L78.661 6.2063C78.3896 6.03228 78.1182 5.93284 77.8716 5.93284C77.6496 5.93284 77.4522 6.00742 77.2795 6.13172C77.1068 6.25602 76.9835 6.50462 76.8848 6.85266C76.7862 7.2007 76.7368 7.92164 76.7368 8.99061V10.9297H76.7615ZM79.5243 7.64818C79.5243 7.0764 79.6724 6.50462 79.9437 6.00742C80.1904 5.48536 80.6098 5.06274 81.1031 4.78928C81.6212 4.51582 82.1885 4.36666 82.7806 4.36666C83.7426 4.36666 84.5074 4.68984 85.1241 5.31134C85.7408 5.93284 86.0368 6.72836 86.0368 7.6979C86.0368 8.66744 85.7408 9.46295 85.1241 10.1093C84.5074 10.7557 83.7426 11.054 82.8052 11.054C82.2379 11.054 81.6705 10.9297 81.1525 10.6562C80.6344 10.4076 80.2151 9.98501 79.9437 9.48781C79.6477 9.01547 79.5243 8.36912 79.5243 7.64818ZM81.2265 7.72276C81.2265 8.36912 81.3745 8.84145 81.6705 9.18949C82.1885 9.81099 83.1013 9.86071 83.718 9.33866C83.7673 9.28894 83.8166 9.23921 83.866 9.18949C84.162 8.84145 84.31 8.36912 84.31 7.72276C84.31 7.10126 84.162 6.60406 83.866 6.28088C83.3479 5.65938 82.4352 5.60966 81.8185 6.13172C81.7692 6.18144 81.7198 6.23116 81.6705 6.28088C81.3745 6.60406 81.2265 7.10126 81.2265 7.72276ZM87.3196 4.51582H88.8737V5.4605C89.071 5.13732 89.367 4.86386 89.6877 4.66498C90.0331 4.4661 90.4278 4.36666 90.8471 4.36666C91.5872 4.36666 92.2039 4.66498 92.7219 5.23676C93.24 5.80854 93.4867 6.62892 93.4867 7.67304C93.4867 8.74202 93.24 9.58726 92.7219 10.159C92.2039 10.7557 91.5872 11.054 90.8471 11.054C90.5264 11.054 90.2058 10.9794 89.9097 10.8303C89.6384 10.6811 89.3177 10.4574 89.0217 10.1093V13.3411H87.3442L87.3196 4.51582ZM88.9723 7.62332C88.9723 8.34425 89.1203 8.86632 89.3917 9.21436C89.6631 9.5624 90.0084 9.73641 90.4278 9.73641C90.8225 9.73641 91.1432 9.58725 91.3898 9.26407C91.6365 8.9409 91.7845 8.41884 91.7845 7.6979C91.7845 7.02668 91.6612 6.52948 91.3898 6.2063C91.1185 5.88312 90.7978 5.7091 90.4031 5.7091C90.0084 5.7091 89.6384 5.88312 89.3917 6.18144C89.0957 6.52948 88.9723 7.00182 88.9723 7.62332ZM98.4697 8.89118L100.147 9.16464C99.9251 9.78614 99.6044 10.2585 99.1357 10.5817C98.667 10.9048 98.0996 11.0789 97.4089 11.0789C96.2988 11.0789 95.5095 10.706 94.9668 9.98501C94.5474 9.41323 94.35 8.66744 94.35 7.77248C94.35 6.7035 94.6214 5.88312 95.1641 5.28648C95.7068 4.68984 96.3975 4.39152 97.2362 4.39152C98.1736 4.39152 98.9137 4.7147 99.4564 5.3362C99.9991 5.9577 100.27 6.92724 100.246 8.21996H96.0522C96.0522 8.71716 96.2002 9.11491 96.4469 9.38837C96.6935 9.66183 97.0389 9.81099 97.4089 9.81099C97.6556 9.81099 97.8776 9.73641 98.075 9.58726C98.223 9.46295 98.371 9.21435 98.4697 8.89118ZM98.5437 7.17584C98.5437 6.67864 98.3957 6.30574 98.1736 6.05714C97.7296 5.55994 96.9649 5.53508 96.4715 6.00742C96.4469 6.03228 96.4222 6.05714 96.3975 6.082C96.1508 6.35546 96.0522 6.72836 96.0522 7.17584H98.5437ZM102.836 6.47976L101.331 6.2063C101.504 5.5848 101.8 5.13732 102.219 4.839C102.639 4.54068 103.255 4.39152 104.069 4.39152C104.809 4.39152 105.377 4.49096 105.747 4.66498C106.117 4.839 106.364 5.06274 106.512 5.3362C106.66 5.60966 106.734 6.10686 106.734 6.85266L106.709 8.84146C106.709 9.41324 106.734 9.81099 106.783 10.0845C106.857 10.3828 106.956 10.6811 107.079 10.9546H105.426C105.377 10.8303 105.327 10.6811 105.278 10.4574C105.253 10.3579 105.229 10.2833 105.229 10.2585C104.957 10.5319 104.661 10.7308 104.316 10.9048C103.995 11.054 103.625 11.1286 103.28 11.1286C102.639 11.1286 102.121 10.9546 101.751 10.5817C101.381 10.2336 101.183 9.76127 101.183 9.21436C101.183 8.86632 101.257 8.54313 101.43 8.24481C101.603 7.97136 101.849 7.72276 102.145 7.59846C102.441 7.4493 102.885 7.325 103.477 7.2007C104.267 7.05154 104.809 6.90238 105.105 6.77808V6.60406C105.105 6.28088 105.031 6.05714 104.859 5.90798C104.711 5.75882 104.39 5.7091 103.971 5.7091C103.675 5.7091 103.453 5.75882 103.28 5.88312C103.107 6.00742 102.935 6.18144 102.836 6.47976ZM105.081 7.87192C104.735 7.97136 104.415 8.0708 104.069 8.12052C103.601 8.21995 103.305 8.3194 103.157 8.41884C102.935 8.568 102.836 8.76688 102.836 9.01548C102.836 9.23921 102.935 9.46295 103.107 9.63697C103.28 9.81099 103.527 9.91043 103.773 9.88557C104.094 9.88557 104.39 9.78613 104.637 9.58726C104.834 9.4381 104.957 9.26407 105.031 9.01548C105.081 8.86632 105.105 8.59285 105.105 8.1951L105.081 7.87192ZM114.109 10.9297H112.432V7.64818C112.432 6.9521 112.407 6.50462 112.333 6.30574C112.259 6.10686 112.161 5.9577 111.988 5.8334C111.815 5.7091 111.618 5.65938 111.421 5.65938C111.149 5.65938 110.878 5.73396 110.631 5.90798C110.409 6.05714 110.236 6.28088 110.162 6.55434C110.088 6.8278 110.039 7.30014 110.039 8.02108V10.9297H108.362V4.54068H109.916V5.48536C110.458 4.76442 111.149 4.39152 111.988 4.39152C112.333 4.39152 112.679 4.4661 112.999 4.5904C113.295 4.7147 113.542 4.88872 113.69 5.11246C113.838 5.3362 113.961 5.55994 114.011 5.8334C114.06 6.10686 114.109 6.47976 114.109 6.97696V10.9297ZM119.191 2.07955H120.943V6.87752C120.943 7.64818 120.967 8.12052 121.017 8.36911C121.091 8.71715 121.288 9.04033 121.559 9.23921C121.831 9.46295 122.225 9.56239 122.719 9.56239C123.212 9.56239 123.607 9.46295 123.853 9.23921C124.1 9.04033 124.248 8.76688 124.322 8.46856C124.371 8.17024 124.396 7.67304 124.396 6.9521V2.05469H126.148V6.7035C126.148 7.77248 126.098 8.51828 126 8.96576C125.926 9.36352 125.728 9.76127 125.482 10.0845C125.235 10.3828 124.89 10.6314 124.445 10.8054C124.026 10.9794 123.459 11.0789 122.768 11.0789C121.929 11.0789 121.313 10.9794 120.869 10.7805C120.449 10.5817 120.104 10.3331 119.857 10.0099C119.61 9.73641 119.462 9.38838 119.364 9.04034C119.24 8.54314 119.191 7.77248 119.191 6.80294V2.07955ZM133.745 10.9297H132.068V7.64818C132.068 6.9521 132.043 6.50462 131.969 6.30574C131.895 6.10686 131.797 5.9577 131.624 5.8334C131.451 5.7091 131.254 5.65938 131.057 5.65938C130.785 5.65938 130.514 5.73396 130.267 5.90798C130.045 6.05714 129.873 6.28088 129.799 6.55434C129.725 6.8278 129.675 7.30014 129.675 8.02108V10.9297H127.998V4.54068H129.552V5.48536C130.095 4.76442 130.785 4.39152 131.624 4.39152C131.969 4.39152 132.315 4.4661 132.635 4.5904C132.931 4.7147 133.178 4.88872 133.326 5.11246C133.474 5.3362 133.597 5.55994 133.647 5.8334C133.721 6.10686 133.745 6.47976 133.745 6.97696V10.9297ZM135.448 3.67058V2.10441H137.125V3.67058H135.448ZM135.448 10.9546V4.54068H137.125V10.9546H135.448ZM138.432 7.64818C138.432 7.0764 138.58 6.50462 138.852 6.00742C139.099 5.48536 139.518 5.0876 140.011 4.78928C140.529 4.51582 141.097 4.36666 141.689 4.36666C142.651 4.36666 143.44 4.68984 144.032 5.31134C144.649 5.93284 144.945 6.72836 144.945 7.6979C144.945 8.66744 144.649 9.46295 144.032 10.1093C143.415 10.7557 142.651 11.054 141.713 11.054C141.146 11.054 140.579 10.9297 140.061 10.6562C139.543 10.4076 139.123 9.98501 138.852 9.48781C138.556 9.01547 138.432 8.39398 138.432 7.64818ZM140.135 7.72276C140.135 8.36912 140.283 8.84145 140.579 9.18949C141.097 9.81099 142.009 9.86071 142.626 9.33866C142.675 9.28894 142.725 9.23921 142.774 9.18949C143.07 8.84145 143.218 8.36912 143.218 7.72276C143.218 7.10126 143.07 6.60406 142.774 6.28088C142.256 5.65938 141.343 5.60966 140.727 6.13172C140.677 6.18144 140.628 6.23116 140.579 6.28088C140.283 6.60406 140.135 7.10126 140.135 7.72276ZM152 10.9297H150.323V7.64818C150.323 6.9521 150.298 6.50462 150.224 6.30574C150.15 6.10686 150.051 5.9577 149.879 5.8334C149.706 5.7091 149.509 5.65938 149.311 5.65938C149.04 5.65938 148.768 5.73396 148.522 5.90798C148.3 6.05714 148.127 6.28088 148.053 6.55434C147.979 6.8278 147.93 7.30014 147.93 8.02108V10.9297H146.252V4.54068H147.806V5.48536C148.349 4.76442 149.04 4.39152 149.879 4.39152C150.224 4.39152 150.569 4.4661 150.89 4.5904C151.186 4.7147 151.433 4.88872 151.581 5.11246C151.729 5.3362 151.852 5.55994 151.901 5.8334C151.975 6.10686 152 6.47976 152 6.97696V10.9297ZM59.8883 23.6331V17.2193H64.452V17.9651H60.7024V19.929H64.2053V20.6748H60.7024V22.8625H64.5753V23.6083H59.8883V23.6331ZM68.6703 23.6331V22.937C68.3249 23.4591 67.8315 23.7326 67.2148 23.7326C66.9435 23.7326 66.6968 23.6828 66.4501 23.5834C66.2034 23.484 66.0307 23.3348 65.9321 23.1856C65.8087 23.0116 65.7347 22.8128 65.6854 22.6139C65.636 22.3653 65.636 22.1167 65.636 21.8681V18.9843H66.4008V21.5449C66.4008 21.9675 66.4254 22.241 66.4501 22.3653C66.4994 22.5642 66.5981 22.7382 66.7708 22.8625C66.9435 22.9868 67.1408 23.0365 67.3628 23.0365C67.5848 23.0365 67.8315 22.9868 68.0289 22.8625C68.2262 22.763 68.3742 22.589 68.4729 22.3653C68.5469 22.1664 68.5963 21.8681 68.5963 21.4703V18.9843H69.361V23.6083H68.6703V23.6331ZM70.5697 23.6331V19.0092H71.2604V19.7053C71.4331 19.3821 71.6058 19.1583 71.7538 19.0589C71.9018 18.9595 72.0745 18.9097 72.2472 18.9097C72.5432 18.9097 72.8145 19.0092 73.0366 19.1583L72.7652 19.8793C72.5925 19.7798 72.3952 19.7053 72.1978 19.7053C72.0252 19.7053 71.8772 19.755 71.7291 19.8544C71.5811 19.9539 71.4825 20.103 71.4331 20.277C71.3344 20.5754 71.3098 20.8737 71.3098 21.1969V23.6331H70.5697ZM73.2586 21.3212C73.2586 20.4511 73.5053 19.8296 73.974 19.4069C74.3687 19.0589 74.8374 18.8849 75.4047 18.8849C76.0461 18.8849 76.5395 19.0838 76.9588 19.5064C77.3535 19.929 77.5509 20.5008 77.5509 21.2466C77.5509 21.8432 77.4522 22.3155 77.2795 22.6636C77.1068 23.0116 76.8355 23.2851 76.5148 23.4591C76.1694 23.658 75.7994 23.7574 75.4047 23.7326C74.7634 23.7326 74.2453 23.5337 73.8506 23.1111C73.4559 22.6885 73.2586 22.0918 73.2586 21.3212ZM74.048 21.3212C74.048 21.9178 74.1713 22.3653 74.4427 22.6636C74.9114 23.2105 75.7007 23.2602 76.2435 22.7879C76.2928 22.7382 76.3421 22.7133 76.3668 22.6636C76.6135 22.3653 76.7615 21.9178 76.7615 21.2963C76.7615 20.7245 76.6381 20.277 76.3668 20.0036C75.8981 19.4567 75.1087 19.4069 74.566 19.8793C74.5167 19.929 74.492 19.9539 74.4427 20.0036C74.1713 20.277 74.048 20.7245 74.048 21.3212ZM78.4636 25.3982V18.9843H79.179V19.581C79.327 19.3572 79.5243 19.1832 79.7464 19.0589C79.993 18.9346 80.2397 18.8849 80.5111 18.8849C80.8811 18.8849 81.2511 18.9843 81.5472 19.1832C81.8432 19.4069 82.0899 19.7053 82.2132 20.0533C82.3612 20.4511 82.4352 20.8488 82.4352 21.2714C82.4352 21.7189 82.3612 22.1415 82.1885 22.5642C82.0405 22.9122 81.7938 23.2354 81.4485 23.4342C81.1525 23.6331 80.8071 23.7326 80.4371 23.7326C80.1904 23.7326 79.9437 23.6828 79.7464 23.5585C79.549 23.4591 79.3763 23.3099 79.2283 23.1359V25.3982H78.4636ZM79.1543 21.346C79.1543 21.9427 79.2777 22.3901 79.5243 22.6636C79.771 22.937 80.0424 23.0862 80.3877 23.0862C80.7331 23.0862 81.0291 22.937 81.2758 22.6387C81.5225 22.3404 81.6458 21.8929 81.6458 21.2714C81.6458 20.6748 81.5225 20.2273 81.2758 19.9539C81.0291 19.6555 80.7578 19.5064 80.4124 19.5064C80.0917 19.5064 79.7957 19.6555 79.5243 19.9787C79.2777 20.277 79.1543 20.7494 79.1543 21.346ZM86.5055 22.1415L87.3196 22.241C87.1962 22.7133 86.9495 23.0862 86.6288 23.3348C86.2835 23.6083 85.8395 23.7326 85.3214 23.7326C84.6554 23.7326 84.1127 23.5337 83.718 23.1111C83.3233 22.6885 83.1259 22.1167 83.1259 21.346C83.1259 20.5754 83.3233 19.9539 83.718 19.5312C84.1127 19.1086 84.6307 18.8849 85.2721 18.8849C85.8888 18.8849 86.3822 19.0838 86.7769 19.5064C87.1715 19.929 87.3689 20.5256 87.3689 21.2963C87.3689 21.346 87.3689 21.4206 87.3689 21.4952H83.94C83.9647 21.9924 84.1127 22.3901 84.3594 22.6636C84.606 22.937 84.9514 23.0862 85.3214 23.0613C85.5928 23.0613 85.8395 22.9868 86.0615 22.8376C86.2341 22.7133 86.4068 22.4647 86.5055 22.1415ZM83.9647 20.8737H86.5302C86.5055 20.4759 86.4068 20.2025 86.2341 20.0036C86.0121 19.7053 85.6421 19.5312 85.2721 19.5561C84.9267 19.5561 84.606 19.6804 84.384 19.929C84.1127 20.1279 83.9893 20.4511 83.9647 20.8737ZM91.2912 23.0613C91.0445 23.2851 90.7731 23.4591 90.4524 23.5834C90.1811 23.6828 89.8851 23.7326 89.589 23.7326C89.0957 23.7326 88.701 23.6083 88.4296 23.3597C88.1583 23.1111 88.0103 22.763 88.0349 22.415C88.0349 21.9924 88.2323 21.5946 88.5776 21.346C88.7503 21.2217 88.9477 21.1471 89.145 21.0974C89.367 21.0477 89.6137 20.998 89.8357 20.9731C90.4524 20.8985 90.9211 20.7991 91.2172 20.6997C91.2172 20.6002 91.2172 20.5256 91.2172 20.5008C91.2172 20.1776 91.1432 19.9539 90.9951 19.8296C90.7978 19.6555 90.5018 19.5561 90.1071 19.5561C89.7371 19.5561 89.4657 19.6307 89.293 19.755C89.1203 19.8793 88.997 20.103 88.8983 20.4511L88.1336 20.3516C88.2076 20.0284 88.3063 19.755 88.479 19.5561C88.627 19.3572 88.8737 19.2081 89.1697 19.0838C89.515 18.9595 89.8604 18.9097 90.2058 18.9097C90.6005 18.9097 90.9211 18.9595 91.1678 19.0589C91.4145 19.1583 91.5872 19.2578 91.7105 19.4069C91.8339 19.5561 91.9079 19.755 91.9572 19.929C91.9819 20.1776 92.0065 20.4013 92.0065 20.6499V21.6941C92.0065 22.415 92.0312 22.8873 92.0559 23.0862C92.0806 23.2851 92.1546 23.4591 92.2532 23.6331H91.4392C91.3652 23.4591 91.3158 23.2602 91.2912 23.0613ZM91.2172 21.2963C90.9458 21.4206 90.5018 21.52 89.9591 21.5946C89.6384 21.6443 89.4164 21.6941 89.293 21.7438C89.1697 21.7935 89.071 21.8929 88.997 21.9924C88.8243 22.2907 88.8737 22.6636 89.1204 22.8873C89.2684 23.0365 89.515 23.1111 89.8111 23.0862C90.0824 23.0862 90.3538 23.0116 90.6005 22.8873C90.8225 22.763 90.9951 22.5642 91.1185 22.3404C91.1925 22.1664 91.2418 21.8929 91.2418 21.5449L91.2172 21.2963ZM93.2153 23.6331V19.0092H93.906V19.6804C94.2514 19.1832 94.7201 18.9097 95.3615 18.9097C95.6328 18.9097 95.8795 18.9595 96.1262 19.0589C96.3235 19.1335 96.5209 19.2826 96.6442 19.4567C96.7676 19.6307 96.8416 19.8296 96.8909 20.0284C96.9156 20.1776 96.9402 20.4262 96.9402 20.7991V23.658H96.1755V20.8488C96.1755 20.5256 96.1508 20.3019 96.0768 20.1279C96.0028 19.9787 95.9042 19.8296 95.7561 19.755C95.5835 19.6555 95.4108 19.6058 95.2134 19.6058C94.8928 19.6058 94.5967 19.7053 94.35 19.929C94.1034 20.1527 93.98 20.5505 93.98 21.1471V23.6828H93.2153V23.6331ZM59.5676 32.7567L60.357 32.6822C60.4064 33.0053 60.4804 33.2539 60.6284 33.4777C60.7764 33.6765 60.9737 33.8506 61.2697 33.9749C61.5658 34.0992 61.9111 34.1738 62.2318 34.1738C62.5278 34.1738 62.7992 34.124 63.0705 34.0246C63.3172 33.9252 63.4899 33.8009 63.6132 33.6268C63.7366 33.4777 63.7859 33.2788 63.7859 33.0799C63.7859 32.881 63.7366 32.707 63.6132 32.5579C63.4899 32.4087 63.3172 32.2844 63.0459 32.185C62.8732 32.1104 62.5032 32.0109 61.9111 31.8618C61.3191 31.7126 60.9244 31.5883 60.6777 31.464C60.3817 31.3149 60.1597 31.116 60.0117 30.8674C59.8636 30.6188 59.7896 30.3453 59.7896 30.0719C59.7896 29.7487 59.8883 29.4255 60.061 29.1769C60.2583 28.8786 60.5297 28.6548 60.8504 28.5305C61.2204 28.3814 61.6151 28.3068 62.0098 28.3068C62.4292 28.3068 62.8485 28.3814 63.2432 28.5305C63.5886 28.6548 63.8599 28.9034 64.0573 29.2018C64.2546 29.5001 64.3533 29.8481 64.378 30.221L63.5886 30.2707C63.5392 29.873 63.3912 29.5498 63.1445 29.3509C62.8979 29.152 62.5278 29.0526 62.0345 29.0526C61.5164 29.0526 61.1711 29.152 60.9244 29.3261C60.7024 29.5249 60.579 29.7487 60.579 29.9973C60.579 30.221 60.653 30.4199 60.8257 30.5691C60.9984 30.7182 61.4178 30.8674 62.0838 31.0165C62.7745 31.1657 63.2432 31.3149 63.4899 31.4143C63.8599 31.5883 64.1313 31.8121 64.304 32.0607C64.4766 32.3341 64.5753 32.6573 64.5753 32.9805C64.5753 33.3285 64.4766 33.6517 64.2793 33.95C64.0819 34.2483 63.7859 34.4969 63.4406 34.6461C63.0459 34.8201 62.6512 34.8947 62.2318 34.8947C61.6644 34.8947 61.1711 34.8201 60.801 34.6461C60.431 34.4969 60.1103 34.2235 59.8883 33.8754C59.7156 33.5523 59.5923 33.1545 59.5676 32.7567ZM65.3647 32.4833C65.3647 31.6132 65.6114 30.9917 66.0801 30.5691C66.4748 30.221 66.9435 30.047 67.5108 30.047C68.1522 30.047 68.6456 30.2459 69.065 30.6685C69.4596 31.0911 69.657 31.6629 69.657 32.4087C69.657 33.0053 69.5583 33.4777 69.3856 33.8257C69.213 34.1737 68.9416 34.4472 68.6209 34.6212C68.2756 34.8201 67.9055 34.9196 67.5108 34.8947C66.8695 34.8947 66.3514 34.6958 65.9567 34.2732C65.5867 33.8754 65.3894 33.2539 65.3647 32.4833ZM66.1788 32.4833C66.1788 33.0799 66.3021 33.5274 66.5734 33.8257C67.0421 34.3726 67.8315 34.4223 68.3742 33.95C68.4236 33.9003 68.4729 33.8754 68.4976 33.8257C68.7443 33.5274 68.8923 33.0799 68.8923 32.4584C68.8923 31.8866 68.7689 31.4392 68.4976 31.1657C68.0289 30.6188 67.2148 30.5691 66.6968 31.0414C66.6475 31.0911 66.6228 31.116 66.5734 31.1657C66.3021 31.4392 66.1788 31.8866 66.1788 32.4833ZM73.5793 33.1048L74.344 33.2042C74.27 33.7263 74.048 34.1489 73.7026 34.4472C73.3573 34.7455 72.9379 34.8947 72.4445 34.8947C71.8278 34.8947 71.3098 34.6958 70.9397 34.2732C70.5697 33.8506 70.3724 33.2539 70.3724 32.4833C70.3724 31.9861 70.4464 31.5386 70.6191 31.1657C70.7671 30.8177 71.0384 30.5193 71.3591 30.3205C71.7045 30.1216 72.0745 30.047 72.4445 30.047C72.9379 30.047 73.3573 30.1713 73.6533 30.4199C73.974 30.6685 74.1713 31.0414 74.27 31.5137L73.5053 31.638C73.4313 31.3149 73.3079 31.0911 73.1352 30.942C72.9626 30.7928 72.7159 30.6934 72.4692 30.7182C72.0745 30.7182 71.7538 30.8674 71.5071 31.1408C71.2604 31.4143 71.1371 31.8618 71.1371 32.4833C71.1371 33.1048 71.2604 33.5522 71.4825 33.8506C71.7045 34.124 72.0498 34.298 72.3952 34.2732C72.6665 34.2732 72.9626 34.1738 73.1599 33.9997C73.3819 33.8009 73.5299 33.5025 73.5793 33.1048ZM75.01 29.3012V28.4062H75.7994V29.3012H75.01ZM75.01 34.7953V30.1713H75.7994V34.7953H75.01ZM79.9684 34.2235C79.7217 34.4472 79.4503 34.6212 79.1297 34.7455C78.8583 34.845 78.5623 34.8947 78.2663 34.8947C77.7729 34.8947 77.3782 34.7704 77.1068 34.5218C76.8355 34.2732 76.6875 33.9251 76.7122 33.5771C76.7122 33.3534 76.7615 33.1545 76.8602 32.9556C76.9588 32.7816 77.0822 32.6076 77.2549 32.5081C77.4275 32.3838 77.6249 32.3093 77.8222 32.2595C78.0442 32.2098 78.2909 32.1601 78.5129 32.1352C79.1297 32.0607 79.5984 31.9612 79.8944 31.8618C79.8944 31.7623 79.8944 31.6878 79.8944 31.6629C79.8944 31.3397 79.8204 31.116 79.6724 30.9917C79.475 30.8177 79.179 30.7182 78.7843 30.7182C78.4143 30.7182 78.1429 30.7928 77.9702 30.9171C77.7976 31.0414 77.6742 31.2651 77.5755 31.6132L76.8108 31.5137C76.8848 31.1906 76.9835 30.9171 77.1562 30.7182C77.3042 30.5193 77.5509 30.3702 77.8469 30.2459C78.1923 30.1216 78.5376 30.0719 78.883 30.0719C79.2777 30.0719 79.5984 30.1216 79.845 30.221C80.0917 30.3205 80.2644 30.4199 80.3877 30.5691C80.5111 30.7182 80.5851 30.9171 80.6344 31.116C80.6591 31.2403 80.6838 31.4889 80.6838 31.8369V32.881C80.6838 33.602 80.7084 34.0743 80.7331 34.2732C80.7578 34.4721 80.8318 34.6461 80.9304 34.8201H80.1164C80.0424 34.6212 79.9684 34.4223 79.9684 34.2235ZM79.8944 32.4833C79.623 32.6076 79.179 32.707 78.6363 32.7816C78.3156 32.8313 78.0936 32.881 77.9702 32.9308C77.8469 32.9805 77.7482 33.0799 77.6742 33.1794C77.5015 33.4777 77.5509 33.8506 77.7976 34.0743C77.9456 34.2235 78.1923 34.2732 78.4883 34.2732C78.7596 34.2732 79.031 34.1986 79.2777 34.0743C79.4997 33.95 79.6724 33.7511 79.7957 33.5274C79.8697 33.3534 79.919 33.0799 79.919 32.7319L79.8944 32.4833ZM81.8678 34.7953V28.4062H82.6326V34.7953H81.8678ZM86.4562 34.7953V28.4062H90.7238V29.152H87.2949V31.1408H90.2551V31.8866H87.2949V34.7953H86.4562ZM94.7201 34.7953V34.124C94.3747 34.6461 93.8813 34.9196 93.2646 34.9196C92.9933 34.9196 92.7466 34.8698 92.4999 34.7704C92.2532 34.671 92.0806 34.5218 91.9819 34.3726C91.8585 34.1986 91.7845 33.9997 91.7352 33.8009C91.6859 33.5523 91.6859 33.3036 91.6859 33.0799V30.221H92.4506V32.7816C92.4506 33.1794 92.4753 33.4777 92.4999 33.602C92.5493 33.8008 92.6479 33.9749 92.8206 34.0992C92.9933 34.2235 93.1906 34.2732 93.4126 34.2732C93.6347 34.2732 93.8813 34.2235 94.0787 34.0992C94.276 33.9997 94.4241 33.8257 94.5227 33.602C94.5967 33.4031 94.6461 33.1048 94.6461 32.707V30.221H95.4108V34.845L94.7201 34.7953ZM96.6442 34.7953V30.1713H97.3349V30.8425C97.6803 30.3453 98.149 30.0719 98.7904 30.0719C99.0617 30.0719 99.3084 30.1216 99.5551 30.221C99.7524 30.2956 99.9498 30.4448 100.073 30.6188C100.196 30.7928 100.27 30.9917 100.32 31.1906C100.344 31.3397 100.369 31.5883 100.369 31.9612V34.8201H99.5797V32.0109C99.5797 31.6878 99.5551 31.464 99.4811 31.29C99.4317 31.1408 99.3084 30.9917 99.1604 30.9171C98.9877 30.8177 98.815 30.7679 98.6177 30.7679C98.297 30.7679 98.001 30.8674 97.7543 31.0911C97.5076 31.3149 97.3843 31.7126 97.3843 32.3093V34.845L96.6442 34.7953ZM104.538 34.7953V34.2235C104.242 34.6958 103.823 34.9196 103.255 34.9196C102.885 34.9196 102.54 34.8201 102.244 34.6212C101.923 34.4224 101.677 34.124 101.529 33.776C101.356 33.3782 101.257 32.9556 101.282 32.5081C101.282 32.0855 101.356 31.638 101.504 31.2403C101.775 30.5193 102.466 30.047 103.206 30.0719C103.453 30.0719 103.724 30.1216 103.946 30.2459C104.143 30.3453 104.341 30.5193 104.464 30.7182V28.4062H105.229V34.7953H104.538ZM102.071 32.4833C102.071 33.0799 102.195 33.5274 102.441 33.8257C102.688 34.124 102.984 34.2732 103.329 34.2732C103.675 34.2732 103.946 34.124 104.193 33.8506C104.439 33.5771 104.538 33.1296 104.538 32.5579C104.538 31.9115 104.415 31.464 104.168 31.1657C103.921 30.8674 103.625 30.7182 103.28 30.7182C102.935 30.7182 102.639 30.8674 102.417 31.1408C102.17 31.4143 102.071 31.8618 102.071 32.4833Z" fill="black"/>
<path d="M55.1935 1.17969H1.15259V37.2437H55.1935V1.17969Z" fill="#003399"/>
<path d="M55.1935 1.17969H1.15259V37.2437H55.1935V1.17969Z" stroke="#003399" stroke-width="0.5341" stroke-miterlimit="1"/>
<path d="M28.1481 5.12695L27.7019 6.5169H26.2145L27.4044 7.38561L26.9582 8.77555L28.1481 7.93166L29.3132 8.77555L28.867 7.38561L30.0817 6.5169H28.5943L28.1481 5.12695ZM16.1252 17.1897L15.679 18.6044H14.1917L15.4063 19.4483L14.9601 20.8383L16.1252 20.0192L17.3151 20.8383L16.8689 19.4483L18.0588 18.6044H16.5714L16.1252 17.1897ZM40.1462 17.1897L39.7 18.5796H38.2126L39.4025 19.4483L38.9563 20.8383L40.1462 19.9944L41.3113 20.8383L40.8651 19.4483L42.0797 18.5796H40.5924L40.1462 17.1897ZM28.1729 29.1779L27.7267 30.5678H26.2393L27.454 31.4366L27.0078 32.8265L28.1729 31.9826L29.3628 32.8265L28.9166 31.4366L30.1065 30.5678H28.6191L28.1729 29.1779ZM34.1223 6.69064L33.6761 8.08058H32.1888L33.3787 8.94929L32.9324 10.3392L34.1223 9.49534L35.3122 10.3392L34.866 8.94929L36.0559 8.08058H34.5685L34.1223 6.69064ZM38.4853 11.1335L38.0391 12.5234H36.5517L37.7416 13.3921L37.2954 14.7821L38.4853 13.9382L39.6752 14.7821L39.2042 13.3921L40.4188 12.5234H38.9315L38.4853 11.1335ZM38.5844 23.1217L38.1382 24.5117H36.6509L37.8407 25.3804L37.3945 26.7703L38.5844 25.9264L39.7495 26.7703L39.3033 25.3804L40.518 24.5117H39.0306L38.5844 23.1217ZM34.1719 27.5149L33.7257 28.9297H32.2383L33.4282 29.7736L32.982 31.1635L34.1719 30.3196L35.337 31.1635L34.8908 29.7736L36.1055 28.9297H34.6181L34.1719 27.5149ZM22.1491 27.5149L21.7028 28.9049H20.2155L21.4302 29.7736L20.9839 31.1635L22.1491 30.3196L23.3389 31.1635L22.8927 29.7736L24.0826 28.9049H22.5953L22.1491 27.5149ZM17.7613 23.0721L17.3151 24.4869H15.8278L17.0176 25.3307L16.5714 26.7207L17.7613 25.9016L18.9512 26.7207L18.505 25.3307L19.6949 24.4869H18.2075L17.7613 23.0721ZM17.7365 11.1335L17.2903 12.5234H15.803L17.0176 13.3921L16.5714 14.7821L17.7365 13.9382L18.9264 14.7821L18.4802 13.3921L19.6701 12.5234H18.1827L17.7365 11.1335ZM22.1491 6.69064L21.7028 8.1054H20.2155L21.4054 8.97411L20.9592 10.3641L22.1491 9.52016L23.3389 10.3641L22.8927 8.97411L24.0826 8.1054H22.5953L22.1491 6.69064Z" fill="#FFCC00"/>
</g>
<defs>
<clipPath id="clip0">
<rect width="152" height="38" fill="white"/>
</clipPath>
</defs>
</svg>
