<svg width="48" height="48" viewBox="0 0 48 48" fill="none" xmlns="http://www.w3.org/2000/svg">
<path fill-rule="evenodd" clip-rule="evenodd" d="M1.03735 46.9802H23.5513V1.0293H1.03735V46.9802Z" fill="#D82332"/>
<path fill-rule="evenodd" clip-rule="evenodd" d="M24.4749 46.9802H46.9881V1.0293H24.4749V46.9802Z" fill="#D82332"/>
<path fill-rule="evenodd" clip-rule="evenodd" d="M0.112305 47.9167H47.9184V0.111328H0.112305V47.9167ZM24.4749 46.9807H46.9875V1.02981H24.4749V46.9807ZM1.03728 46.9807H23.5512V1.02981H1.03728V46.9807Z" fill="#FFDD32"/>
<path fill-rule="evenodd" clip-rule="evenodd" d="M5.71067 8.37265C5.8644 8.396 6.0285 8.40573 6.19002 8.40573C6.93726 8.40573 7.57423 8.17611 7.98288 7.75773C8.29683 7.42563 8.4538 6.99752 8.4538 6.48314C8.4538 5.97395 8.26504 5.52833 7.91867 5.2293C7.55477 4.90173 7.00083 4.73633 6.27499 4.73633C5.74958 4.73633 5.27412 4.7759 4.86158 4.85438L4.77661 4.87125V10.6085H5.71067V8.37265ZM5.71067 5.56206C5.82418 5.5439 6.02526 5.5199 6.29056 5.5199C6.74721 5.5199 7.51261 5.65027 7.51261 6.5253C7.51261 7.21676 7.03715 7.61373 6.20818 7.61373C6.00256 7.61373 5.84169 7.59817 5.71067 7.57157V5.56206Z" fill="#FFDD32"/>
<path fill-rule="evenodd" clip-rule="evenodd" d="M11.4655 8.17287H12.0447C12.6382 8.17287 12.9191 8.4466 13.0767 9.18346C13.2467 9.97287 13.3634 10.3964 13.4555 10.5567L13.4854 10.6085H14.4655L14.3896 10.4574C14.2832 10.2453 14.1444 9.66865 13.9731 8.93763C13.8343 8.36746 13.5904 8.00746 13.2434 7.81546C13.8369 7.54563 14.2086 7.01568 14.2086 6.37546C14.2086 5.91363 14.0354 5.4959 13.7312 5.2293C13.3602 4.8933 12.8185 4.73633 12.0278 4.73633C11.5401 4.73633 10.9984 4.78498 10.6144 4.86346L10.5308 4.88033V10.6085H11.4655V8.17287ZM11.4655 5.55881C11.5692 5.53871 11.7671 5.51211 12.0778 5.51211C12.6201 5.51211 13.2655 5.67492 13.2655 6.45071C13.2655 7.03579 12.8095 7.41395 12.1024 7.41395H11.4655V5.55881Z" fill="#FFDD32"/>
<path fill-rule="evenodd" clip-rule="evenodd" d="M17.7797 8.83983H19.6245C19.668 8.97021 20.2245 10.6087 20.2245 10.6087H21.2215L19.2308 4.77734H18.2059L16.2256 10.6087H17.1966C17.1966 10.6087 17.7369 8.97216 17.7797 8.83983ZM18.5049 6.5754C18.5834 6.34513 18.6353 6.11226 18.6924 5.8807C18.7462 6.07334 18.8909 6.58383 18.8909 6.58383C18.8909 6.58383 19.2716 7.68199 19.402 8.0647H18.0016C18.0788 7.83378 18.5049 6.5754 18.5049 6.5754Z" fill="#FFDD32"/>
<path fill-rule="evenodd" clip-rule="evenodd" d="M28.0795 7.97259H30.5911V10.608H31.5329V4.77734H30.5911V7.12999H28.0795V4.77734H27.1377V10.608H28.0795V7.97259Z" fill="#FFDD32"/>
<path fill-rule="evenodd" clip-rule="evenodd" d="M35.3091 8.83983H37.1532C37.1967 8.97021 37.7539 10.6087 37.7539 10.6087H38.7496L36.7595 4.77734H35.7346L33.7537 10.6087H34.7253C34.7253 10.6087 35.2663 8.97216 35.3091 8.83983ZM36.0337 6.5754C36.1128 6.34318 36.1634 6.11161 36.2211 5.88005C36.2763 6.07724 36.4196 6.58383 36.4196 6.58383C36.4203 6.58448 36.7997 7.68199 36.9307 8.0647H35.5297C35.6075 7.83378 36.0337 6.5754 36.0337 6.5754Z" fill="#FFDD32"/>
<path fill-rule="evenodd" clip-rule="evenodd" d="M5.71067 18.8701C5.8644 18.8941 6.0285 18.9044 6.19002 18.9044C6.93726 18.9044 7.57423 18.6735 7.98288 18.2564C8.29683 17.9243 8.4538 17.4956 8.4538 16.9818C8.4538 16.472 8.26504 16.027 7.91867 15.7267C7.55477 15.4004 7.00083 15.2344 6.27499 15.2344C5.74958 15.2344 5.27412 15.2739 4.86158 15.3531L4.77661 15.3693V21.1059H5.71067V18.8701ZM5.71067 16.0601C5.82418 16.0419 6.02526 16.0186 6.29056 16.0186C6.74721 16.0186 7.51261 16.1483 7.51261 17.0227C7.51261 17.7155 7.03715 18.1124 6.20818 18.1124C6.00256 18.1124 5.84169 18.0956 5.71067 18.0696V16.0601Z" fill="#FFDD32"/>
<path fill-rule="evenodd" clip-rule="evenodd" d="M11.4655 18.6709H12.0447C12.6382 18.6709 12.9191 18.9453 13.0767 19.6809C13.2467 20.4703 13.3634 20.8951 13.4555 21.054L13.4854 21.1072H14.4655L14.3896 20.9548C14.2832 20.7427 14.1444 20.1667 13.9731 19.435C13.8343 18.8662 13.5904 18.5055 13.2447 18.3148C13.8369 18.0424 14.2086 17.5137 14.2086 16.8742C14.2086 16.4123 14.0354 15.9946 13.7312 15.7273C13.3602 15.3913 12.8185 15.2344 12.0278 15.2344C11.5401 15.2344 10.9984 15.283 10.6144 15.3615L10.5308 15.3784V21.1072H11.4655V18.6709ZM11.4655 16.0569C11.5692 16.0374 11.7671 16.0102 12.0778 16.0102C12.6201 16.0102 13.2655 16.173 13.2655 16.9488C13.2655 17.5338 12.8095 17.912 12.1024 17.912H11.4655V16.0569Z" fill="#FFDD32"/>
<path fill-rule="evenodd" clip-rule="evenodd" d="M17.7797 19.3372H19.6245C19.668 19.4683 20.2245 21.1061 20.2245 21.1061H21.2215L19.2308 15.2754H18.2059L16.2256 21.1061H17.1966C17.1966 21.1061 17.7369 19.4689 17.7797 19.3372ZM18.5049 17.0728C18.5828 16.8445 18.6353 16.6116 18.6924 16.3781C18.7462 16.5688 18.8909 17.0812 18.8909 17.0812C18.8909 17.0819 19.2716 18.18 19.402 18.5621H18.0016C18.0788 18.3312 18.5049 17.0728 18.5049 17.0728Z" fill="#FFDD32"/>
<path fill-rule="evenodd" clip-rule="evenodd" d="M29.7874 21.1636C30.6702 21.1636 31.3668 20.9223 31.5595 20.849L31.6263 20.8224V17.9437H29.5662V18.737H30.7V20.236C30.5152 20.3106 30.2038 20.3547 29.8367 20.3547C28.5647 20.3547 27.7727 19.5251 27.7727 18.1909C27.7727 16.8598 28.5984 16.0341 29.9281 16.0341C30.4114 16.0341 30.7921 16.1074 31.1275 16.2657L31.2365 16.3163L31.4817 15.5243L31.4012 15.4853C31.1444 15.3614 30.6086 15.2168 29.945 15.2168C28.062 15.2168 26.7971 16.4252 26.7971 18.2239C26.7971 19.1009 27.0942 19.8916 27.6118 20.3924C28.156 20.9113 28.8676 21.1636 29.7874 21.1636Z" fill="#FFDD32"/>
<path fill-rule="evenodd" clip-rule="evenodd" d="M34.1245 15.2734V18.6886C34.1245 20.3044 34.8782 21.195 36.2469 21.195C37.6648 21.195 38.4782 20.2732 38.4782 18.6633V15.2734H37.5364V18.7145C37.5364 19.814 37.0986 20.3945 36.2722 20.3945C35.4951 20.3945 35.067 19.7984 35.067 18.7145V15.2734H34.1245Z" fill="#FFDD32"/>
<path fill-rule="evenodd" clip-rule="evenodd" d="M44.5865 20.2868H42.1508V18.4674H44.3283V17.6585H42.1508V16.0914H44.4619V15.2734H41.207V21.1041H44.5865V20.2868Z" fill="#FFDD32"/>
<path fill-rule="evenodd" clip-rule="evenodd" d="M5.71067 29.3648C5.86894 29.3888 6.03758 29.3992 6.19002 29.3992C6.93726 29.3992 7.57423 29.1676 7.98288 28.7499C8.29683 28.4178 8.4538 27.9904 8.4538 27.476C8.4538 26.9668 8.26504 26.5212 7.91867 26.2215C7.55477 25.8939 7.00083 25.7285 6.27499 25.7285C5.74958 25.7285 5.27412 25.7681 4.86158 25.8472L4.77661 25.8634V31.6007H5.71067V29.3648ZM5.71067 26.5549C5.82742 26.5361 6.02591 26.5127 6.29056 26.5127C6.74721 26.5127 7.51261 26.6438 7.51261 27.5162C7.51261 28.2102 7.03715 28.6059 6.20818 28.6059C6.00321 28.6059 5.84234 28.5904 5.71067 28.5644V26.5549Z" fill="#FFDD32"/>
<path fill-rule="evenodd" clip-rule="evenodd" d="M11.4655 29.1651H12.0447C12.6382 29.1651 12.9191 29.4388 13.0767 30.1757C13.2467 30.9651 13.3634 31.3893 13.4555 31.5488L13.4854 31.6014H14.4655L14.3896 31.4496C14.2832 31.2368 14.1444 30.6615 13.9731 29.9298C13.8343 29.3609 13.5904 28.9997 13.2434 28.8089C13.8369 28.5372 14.2086 28.0085 14.2086 27.3677C14.2086 26.9058 14.0354 26.4881 13.7312 26.2221C13.3602 25.8861 12.8185 25.7285 12.0278 25.7285C11.5388 25.7285 10.9971 25.7778 10.6144 25.8557L10.5308 25.8738V31.6014H11.4655V29.1651ZM11.4655 26.551C11.5692 26.5309 11.7671 26.5043 12.0778 26.5043C12.6201 26.5043 13.2655 26.6665 13.2655 27.4429C13.2655 28.0286 12.8095 28.4061 12.1024 28.4061H11.4655V26.551Z" fill="#FFDD32"/>
<path fill-rule="evenodd" clip-rule="evenodd" d="M17.7797 29.832H19.6245C19.668 29.9617 20.2245 31.6002 20.2245 31.6002H21.2215L19.2308 25.7695H18.2059L16.2256 31.6002H17.1966C17.1966 31.6002 17.7369 29.9637 17.7797 29.832ZM18.5049 27.5669C18.5834 27.3373 18.6353 27.1045 18.6924 26.8729C18.7462 27.0655 18.8909 27.5754 18.8909 27.5754C18.8909 27.5754 19.2716 28.6748 19.402 29.0556H18.0016C18.0788 28.826 18.5049 27.5669 18.5049 27.5669Z" fill="#FFDD32"/>
<path fill-rule="evenodd" clip-rule="evenodd" d="M29.7874 31.6571C30.6702 31.6571 31.3668 31.4158 31.5595 31.3419L31.6263 31.3166V28.4372H29.5662V29.2305H30.7V30.7308C30.5145 30.8041 30.2038 30.8482 29.8367 30.8482C28.5647 30.8482 27.7727 30.0193 27.7727 28.6843C27.7727 27.354 28.5984 26.5282 29.9281 26.5282C30.412 26.5282 30.7921 26.6009 31.1275 26.7585L31.2365 26.811L31.4817 26.0184L31.3999 25.9782C31.1431 25.8556 30.6079 25.7109 29.945 25.7109C28.062 25.7109 26.7971 26.9181 26.7971 28.7181C26.7971 29.595 27.0942 30.3851 27.6118 30.8859C28.156 31.4048 28.8676 31.6571 29.7874 31.6571Z" fill="#FFDD32"/>
<path fill-rule="evenodd" clip-rule="evenodd" d="M35.2946 29.832H37.1387C37.1828 29.9617 37.7387 31.6002 37.7387 31.6002H38.7356L36.7456 25.7695H35.7207L33.7397 31.6002H34.7114C34.7114 31.6002 35.2511 29.9637 35.2946 29.832ZM36.0191 27.5669C36.0956 27.3419 36.156 27.1168 36.2117 26.8897C36.2695 27.0941 36.4057 27.5754 36.4057 27.5754C36.4057 27.5754 36.7845 28.6748 36.9155 29.0556H35.5151C35.5923 28.826 36.0191 27.5669 36.0191 27.5669Z" fill="#FFDD32"/>
<path fill-rule="evenodd" clip-rule="evenodd" d="M5.71067 39.8596C5.86894 39.8843 6.03758 39.8947 6.19002 39.8947C6.93726 39.8947 7.57423 39.6637 7.98288 39.246C8.29683 38.9146 8.4538 38.4858 8.4538 37.9721C8.4538 37.4629 8.26504 37.0173 7.91867 36.7169C7.55542 36.39 7.00213 36.2246 6.27499 36.2246C5.75153 36.2246 5.27542 36.2642 4.86158 36.3427L4.77661 36.3595V42.0962H5.71067V39.8596ZM5.71067 37.0503C5.82742 37.0315 6.02591 37.0082 6.29056 37.0082C6.74721 37.0082 7.51261 37.1392 7.51261 38.0136C7.51261 38.7057 7.03715 39.102 6.20818 39.102C6.00321 39.102 5.84234 39.0864 5.71067 39.0605V37.0503Z" fill="#FFDD32"/>
<path fill-rule="evenodd" clip-rule="evenodd" d="M11.4655 39.6586H12.0447C12.6382 39.6586 12.9191 39.9336 13.0767 40.6698C13.2434 41.4488 13.3641 41.8841 13.4555 42.043L13.4854 42.0949H14.4655L14.3896 41.9437C14.2832 41.7303 14.1444 41.155 13.9731 40.424C13.8343 39.8544 13.5904 39.4931 13.2434 39.3024C13.8369 39.0307 14.2086 38.5027 14.2086 37.8618C14.2086 37.4 14.0354 36.9816 13.7312 36.7156C13.3602 36.3796 12.8185 36.2227 12.0278 36.2227C11.5401 36.2227 10.9984 36.2713 10.6144 36.3504L10.5308 36.3673V42.0949H11.4655V39.6586ZM11.4655 37.0451C11.5692 37.0244 11.7671 36.9984 12.0778 36.9984C12.6201 36.9984 13.2655 37.1613 13.2655 37.9364C13.2655 38.5221 12.8095 38.8996 12.1024 38.8996H11.4655V37.0451Z" fill="#FFDD32"/>
<path fill-rule="evenodd" clip-rule="evenodd" d="M17.7797 40.3262H19.6245C19.668 40.4559 20.2245 42.0944 20.2245 42.0944H21.2215L19.2308 36.2637H18.2059L16.2256 42.0944H17.1966C17.1966 42.0944 17.7369 40.4578 17.7797 40.3262ZM18.5049 38.0617C18.5834 37.8315 18.6353 37.5986 18.6924 37.367C18.7462 37.559 18.8909 38.0695 18.8909 38.0695C18.8909 38.0702 19.2716 39.1683 19.402 39.5504H18.0016C18.0788 39.3195 18.5049 38.0617 18.5049 38.0617Z" fill="#FFDD32"/>
<path fill-rule="evenodd" clip-rule="evenodd" d="M29.7874 42.1532C30.6702 42.1532 31.3668 41.9125 31.5595 41.838L31.6263 41.812V38.934H29.5662V39.726H30.7V41.2263C30.5152 41.3002 30.2045 41.3443 29.8367 41.3443C28.5647 41.3443 27.7727 40.516 27.7727 39.1798C27.7727 37.8494 28.5984 37.025 29.9281 37.025C30.4114 37.025 30.7921 37.0976 31.1275 37.2559L31.2365 37.3065L31.4817 36.5151L31.4012 36.4749C31.1444 36.3523 30.6086 36.207 29.945 36.207C28.062 36.207 26.7971 37.4148 26.7971 39.2142C26.7971 40.0911 27.0942 40.8805 27.6118 41.382C28.156 41.9009 28.8676 42.1532 29.7874 42.1532Z" fill="#FFDD32"/>
</svg>
