<svg width="179" height="45" viewBox="0 0 179 45" fill="none" xmlns="http://www.w3.org/2000/svg">
<g clip-path="url(#clip0)">
<path d="M7.3974 22.5037C2.98382 24.1821 0 28.4713 0 33.3822C0 39.785 5.12223 44.8202 11.6245 45.0067C19.2705 45.2267 24.8652 35.3092 36.3032 22.5037C24.8652 9.69807 19.2705 -0.185846 11.6245 0.000642704C5.09737 0.193348 0 5.2099 0 11.6251C0 16.5547 2.98382 20.8253 7.3974 22.5037Z" fill="black"/>
<path d="M60.7955 1.99429C60.859 1.99429 60.9236 1.99492 60.9876 1.9974C63.6482 2.07324 66.1099 3.1039 67.8877 4.8942C69.6842 6.67828 70.6726 9.06534 70.6726 11.6078C70.6726 15.6608 68.1239 18.8187 64.5682 20.6214C63.785 21.0131 62.5417 21.4109 62.5417 22.4863C62.5417 23.4872 63.785 23.9596 64.5682 24.3512C68.1239 26.1291 70.6726 29.3118 70.6726 33.3649C70.6726 35.926 69.6842 38.313 67.8877 40.0785C66.085 41.8688 63.6233 42.9007 60.9876 42.9753C60.923 42.9765 60.8596 42.9778 60.7955 42.9778C56.1271 42.9778 51.9062 37.8804 45.5034 30.1722C43.5702 27.8348 41.4193 25.2364 38.9763 22.464C41.3883 19.7163 43.5391 17.1179 45.5034 14.7557C51.9062 7.04753 56.1333 1.95016 60.7955 1.95016V1.99429ZM60.7955 -0.0452748C53.2738 -0.0452748 47.6791 9.77648 36.3655 22.4577C47.6791 35.139 53.2738 44.9608 60.7955 44.9608C60.8788 44.9608 60.9609 44.9595 61.0448 44.957C67.5719 44.7699 72.6693 39.754 72.6693 33.3325C72.6693 28.403 69.6855 24.1324 65.2719 22.454C69.6793 20.7632 72.6693 16.5112 72.6693 11.5755C72.6693 5.17269 67.5471 0.137484 61.0448 -0.0490046C60.9615 -0.0514911 60.8776 -0.0527344 60.7955 -0.0527344" fill="black"/>
<path d="M86.4065 10.5684H87.7243L93.1388 16.909V10.5684H95.0099V20.2658H93.692L88.2838 13.9252V20.2658H86.4127V10.5684H86.4065Z" fill="black"/>
<path d="M101.947 15.9133C101.572 15.4135 100.978 15.0803 100.281 15.0803C99.2246 15.0803 98.547 15.9568 98.547 16.9265C98.547 17.9833 99.3116 18.7603 100.325 18.7603C101.002 18.7603 101.599 18.4272 101.947 17.9274V15.9133ZM103.75 20.2833H102.016V19.7419C101.46 20.2143 100.822 20.4257 100.145 20.4257C99.1438 20.4257 98.2051 19.9812 97.6083 19.2881C97.0812 18.6783 96.7505 17.8459 96.7505 16.9321C96.7505 14.9491 98.2237 13.4199 100.051 13.4199C100.816 13.4199 101.494 13.6698 102.022 14.1037V13.5623H103.756V20.2759L103.75 20.2833Z" fill="black"/>
<path d="M110.65 15.9147C110.276 15.4149 109.68 15.0817 108.984 15.0817C107.927 15.0817 107.25 15.9582 107.25 16.9279C107.25 17.9847 108.014 18.7617 109.028 18.7617C109.705 18.7617 110.302 18.4286 110.65 17.9288V15.9147ZM110.719 20.2847V19.7433C110.165 20.2157 109.526 20.4271 108.848 20.4271C107.847 20.4271 106.902 19.9826 106.312 19.2895C105.785 18.6797 105.454 17.8473 105.454 16.9335C105.454 14.9505 106.927 13.4213 108.755 13.4213C109.488 13.4213 110.129 13.6296 110.657 14.043V10.4375H112.46V20.2593H110.725L110.719 20.2847Z" fill="black"/>
<path d="M119.353 15.9133C118.977 15.4135 118.383 15.0803 117.687 15.0803C116.63 15.0803 115.953 15.9568 115.953 16.9265C115.953 17.9833 116.717 18.7603 117.73 18.7603C118.408 18.7603 119.005 18.4272 119.353 17.9274V15.9133ZM121.156 20.2833H119.421V19.7419C118.867 20.2143 118.228 20.4257 117.55 20.4257C116.549 20.4257 115.604 19.9812 115.014 19.2881C114.487 18.6783 114.156 17.8459 114.156 16.9321C114.156 14.9491 115.629 13.4199 117.457 13.4199C118.221 13.4199 118.899 13.6698 119.427 14.1037V13.5623H121.162V20.2759L121.156 20.2833Z" fill="black"/>
<path d="M129.299 18.8979C128.51 19.9547 127.509 20.4085 126.247 20.4085C124.164 20.4085 122.641 18.8544 122.641 16.9087C122.641 14.9506 124.208 13.3965 126.259 13.3965C127.428 13.3965 128.466 13.9379 129.088 14.7454L127.813 15.8706C127.453 15.3988 126.912 15.0625 126.259 15.0625C125.221 15.0625 124.444 15.883 124.444 16.9087C124.444 17.9655 125.209 18.7425 126.303 18.7425C127.036 18.7425 127.621 18.2987 127.913 17.8536L129.299 18.8917V18.8979Z" fill="black"/>
<path d="M134.894 16.0381C134.839 15.4413 134.297 14.857 133.564 14.857C132.818 14.857 132.202 15.4251 132.121 16.0381H134.894ZM136.572 19.2022C135.92 19.9792 134.85 20.4081 133.812 20.4081C131.798 20.4081 130.288 19.0219 130.288 16.9146C130.288 15.0434 131.562 13.4023 133.564 13.4023C135.422 13.4023 136.74 14.9689 136.74 16.84C136.74 17.0209 136.727 17.2011 136.699 17.3534H132.037C132.134 18.2983 132.895 18.951 133.852 18.951C134.617 18.951 135.226 18.5208 135.543 18.174L136.568 19.1997L136.572 19.2022Z" fill="black"/>
<path d="M88.2715 32.1382V36.9123H86.4004V27.2148H88.2715V31.1L91.9516 27.2148H94.4194L90.1426 31.6533L94.9292 36.9247H92.5297L88.2715 32.1506V32.1382Z" fill="black"/>
<path d="M100.704 32.5734C100.329 32.0736 99.7344 31.7405 99.0382 31.7405C97.9814 31.7405 97.3038 32.617 97.3038 33.5867C97.3038 34.6435 98.0684 35.4205 99.0817 35.4205C99.7593 35.4205 100.356 35.0873 100.704 34.5875V32.5734ZM102.507 36.9435H100.773V36.4021C100.218 36.8745 99.579 37.0858 98.9014 37.0858C97.9006 37.0858 96.9557 36.6414 96.3652 35.9483C95.838 35.3384 95.5073 34.5061 95.5073 33.5923C95.5073 31.6093 96.9806 30.0801 98.8082 30.0801C99.5728 30.0801 100.25 30.33 100.779 30.7639V30.2224H102.513V36.936L102.507 36.9435Z" fill="black"/>
<path d="M108.785 31.828C108.66 31.786 108.397 31.759 108.133 31.759C107.343 31.759 106.715 32.3284 106.498 32.7287V36.962H104.695V30.2484H106.429V30.926C106.832 30.4262 107.567 30.1055 108.388 30.1055C108.651 30.1055 108.804 30.1327 108.997 30.1607L108.79 31.8391L108.785 31.828Z" fill="black"/>
<path d="M111.893 36.9253H110.091V27.1035H111.893V36.9253Z" fill="black"/>
<path d="M118.731 32.5734C118.357 32.0736 117.762 31.7405 117.065 31.7405C116.009 31.7405 115.331 32.617 115.331 33.5867C115.331 34.6435 116.096 35.4205 117.109 35.4205C117.786 35.4205 118.383 35.0873 118.731 34.5875V32.5734ZM120.534 36.9435H118.8V36.4021C118.244 36.8745 117.606 37.0858 116.929 37.0858C115.928 37.0858 114.983 36.6414 114.392 35.9483C113.865 35.3384 113.534 34.5061 113.534 33.5923C113.534 31.6093 115.008 30.0801 116.835 30.0801C117.6 30.0801 118.277 30.33 118.806 30.7639V30.2224H120.54V36.936L120.534 36.9435Z" fill="black"/>
<path d="M129.921 33.8791C129.921 34.6561 129.837 35.1845 129.616 35.601C129.116 36.5334 128.087 37.0742 126.968 37.0742C125.706 37.0742 124.68 36.4091 124.233 35.371L125.843 34.5629C125.995 34.9514 126.342 35.4083 126.98 35.4083C127.327 35.4083 127.633 35.2703 127.826 35.0204C127.964 34.8395 128.047 34.6033 128.047 34.0879V27.25H129.918V33.9014L129.921 33.8791Z" fill="black"/>
<path d="M136.759 32.5734C136.383 32.0736 135.789 31.7405 135.093 31.7405C134.036 31.7405 133.358 32.617 133.358 33.5867C133.358 34.6435 134.123 35.4205 135.136 35.4205C135.814 35.4205 136.41 35.0873 136.759 34.5875V32.5734ZM138.561 36.9435H136.827V36.4021C136.271 36.8745 135.633 37.0858 134.956 37.0858C133.955 37.0858 133.01 36.6414 132.42 35.9483C131.892 35.3384 131.562 34.5061 131.562 33.5923C131.562 31.6093 133.035 30.0801 134.863 30.0801C135.627 30.0801 136.305 30.33 136.833 30.7639V30.2224H138.568V36.936L138.561 36.9435Z" fill="black"/>
<path d="M140.489 36.9243V30.2107H142.223V30.7522C142.736 30.3357 143.373 30.0684 144.125 30.0684C145.058 30.0684 145.903 30.4849 146.456 31.15C146.9 31.6778 147.152 32.356 147.152 33.5122V36.9374H145.35V33.3692C145.35 32.7041 145.197 32.356 144.947 32.1073C144.711 31.8711 144.35 31.7331 143.934 31.7331C143.169 31.7331 142.547 32.2186 142.299 32.5661V36.9361H140.496L140.489 36.9243Z" fill="black"/>
<path d="M153.543 32.6982C153.488 32.1014 152.946 31.5171 152.213 31.5171C151.467 31.5171 150.851 32.0859 150.77 32.6982H153.543ZM155.221 35.8623C154.568 36.6393 153.499 37.0683 152.461 37.0683C150.447 37.0683 148.937 35.682 148.937 33.5747C148.937 31.7036 150.211 30.0625 152.213 30.0625C154.071 30.0625 155.389 31.629 155.389 33.5001C155.389 33.681 155.376 33.8613 155.349 34.0136H150.686C150.783 34.9585 151.544 35.6112 152.502 35.6112C153.266 35.6112 153.875 35.181 154.192 34.8341L155.218 35.8598L155.221 35.8623Z" fill="black"/>
<path d="M159.137 29.1548L157.751 26.9355H159L160.107 28.185L161.22 26.9355H162.469L161.083 29.1548H159.143H159.137ZM163.227 35.5576C162.438 36.6143 161.437 37.0681 160.175 37.0681C158.093 37.0681 156.57 35.514 156.57 33.5746C156.57 31.6164 158.136 30.0623 160.194 30.0623C161.363 30.0623 162.401 30.6038 163.022 31.4113L161.748 32.5364C161.387 32.0646 160.847 31.7283 160.194 31.7283C159.156 31.7283 158.379 32.5489 158.379 33.5746C158.379 34.6313 159.143 35.4084 160.237 35.4084C160.971 35.4084 161.555 34.9645 161.847 34.5194L163.234 35.5576H163.227Z" fill="black"/>
<path d="M167.84 33.2575L171.545 36.9624H169.115L166.268 34.0469V36.9624H164.465V27.1406H166.268V32.4431L168.586 30.2674H171.122L167.834 33.2948L167.84 33.2575Z" fill="black"/>
<path d="M177.165 32.5734C176.789 32.0736 176.195 31.7405 175.499 31.7405C174.442 31.7405 173.764 32.617 173.764 33.5867C173.764 34.6435 174.529 35.4205 175.542 35.4205C176.22 35.4205 176.816 35.0873 177.165 34.5875V32.5734ZM178.967 36.9435H177.233V36.4021C176.678 36.8745 176.039 37.0858 175.362 37.0858C174.361 37.0858 173.416 36.6414 172.826 35.9483C172.298 35.3384 171.968 34.5061 171.968 33.5923C171.968 31.6093 173.441 30.0801 175.269 30.0801C176.033 30.0801 176.711 30.33 177.239 30.7639V30.2224H178.974V36.936L178.967 36.9435Z" fill="black"/>
</g>
<defs>
<clipPath id="clip0">
<rect width="178.718" height="45" fill="white"/>
</clipPath>
</defs>
</svg>
