<svg width="210" height="48" viewBox="0 0 210 48" fill="none" xmlns="http://www.w3.org/2000/svg">
<path d="M54.5162 9.4668C53.7121 9.4668 53.0542 10.1247 53.0542 10.9288V38.6634C43.7557 38.5025 34.5888 40.6225 28.1998 44.3068C21.8254 40.6225 12.7462 38.5903 3.34543 38.6634V10.9288C3.34543 10.1247 2.68752 9.4668 1.88341 9.4668C1.0793 9.4668 0.421387 10.1247 0.421387 10.9288V40.1693C0.421387 40.564 0.58221 40.9441 0.874615 41.2219C1.1524 41.4997 1.54714 41.6167 1.94189 41.6313C11.6351 41.2511 21.1675 43.3711 27.4396 47.2601C27.6735 47.4063 27.9366 47.4794 28.2144 47.4794C28.4776 47.4794 28.7554 47.4063 28.9893 47.2601C35.2614 43.3711 44.7938 41.2365 54.487 41.6313C54.8671 41.6313 55.2765 41.4997 55.5542 41.2219C55.8466 40.9441 56.0075 40.564 56.0075 40.1693V10.9288C55.9782 10.1247 55.3203 9.4668 54.5162 9.4668Z" fill="#AADB1E"/>
<path d="M7.64388 32.8596C15.1002 33.2836 22.5711 36.4854 27.1472 41.1931C27.425 41.4709 27.8052 41.6317 28.1999 41.6317C28.5946 41.6317 28.9748 41.4709 29.2526 41.1931C33.8287 36.4854 41.2996 33.2982 48.7559 32.8596C49.5308 32.8157 50.1302 32.1724 50.1302 31.3976V2.15711C50.1302 1.74774 49.9694 1.36762 49.677 1.08983C49.3846 0.812048 49.0045 0.665847 48.5951 0.695087C40.3201 1.17755 32.3082 4.61331 27.1619 9.90583C26.8987 10.1836 26.7525 10.5491 26.7525 10.9292V31.3976C26.7525 32.2017 27.4104 32.8596 28.2145 32.8596C29.0186 32.8596 29.6765 32.2017 29.6765 31.3976V11.5287C33.9456 7.36191 40.5101 4.46711 47.2208 3.73609V30.0379C39.9692 30.7397 33.0538 33.6929 28.2145 38.1229C23.3752 33.6929 16.4599 30.7397 9.20824 30.0379V3.75071C13.5651 4.21856 17.9365 5.6221 21.6354 7.72742C22.3226 8.12216 23.229 7.88824 23.6238 7.18647C24.0331 6.4847 23.7846 5.59286 23.0828 5.19812C18.5506 2.61034 13.1265 1.00211 7.81932 0.709708C7.42457 0.680468 7.02983 0.82667 6.73742 1.10445C6.44502 1.38224 6.2842 1.76236 6.2842 2.17173V31.4122C6.26958 32.1724 6.869 32.8157 7.64388 32.8596Z" fill="#AADB1E"/>
<path d="M78.9029 14.832C73.9759 14.832 70.5986 18.2093 70.5986 23.8673C70.5986 29.5253 73.9759 32.9026 78.9029 32.9026C83.8299 32.9026 87.2072 29.5253 87.2072 23.8673C87.2072 18.2093 83.8299 14.832 78.9029 14.832ZM78.9029 30.1833C75.5549 30.1833 73.5373 27.6686 73.5373 23.8819C73.5373 20.0953 75.5549 17.5806 78.9029 17.5806C82.2509 17.5806 84.2685 20.0953 84.2685 23.8819C84.2685 27.6686 82.2509 30.1833 78.9029 30.1833Z" fill="#AADB1E"/>
<path d="M201.274 14.8184C196.347 14.8184 192.97 18.1956 192.97 23.8537C192.97 29.5263 196.347 32.8889 201.274 32.8889C206.201 32.8889 209.578 29.5117 209.578 23.8537C209.578 18.1956 206.216 14.8184 201.274 14.8184ZM201.274 30.1696C197.926 30.1696 195.908 27.6549 195.908 23.8683C195.908 20.0816 197.926 17.567 201.274 17.567C204.622 17.567 206.64 20.0816 206.64 23.8683C206.654 27.6549 204.622 30.1696 201.274 30.1696Z" fill="#AADB1E"/>
<path d="M138.1 15.0798C137.296 14.685 136.346 15.0506 136.01 15.8547L130.702 28.9836L125.395 15.8547C125.044 15.0506 124.094 14.685 123.305 15.0798C122.559 15.4453 122.281 16.381 122.603 17.1412L128.743 31.586C129.123 32.4632 129.884 32.8872 130.717 32.8872C131.536 32.8872 132.311 32.4486 132.691 31.586L138.831 17.1412C139.138 16.381 138.846 15.4453 138.1 15.0798Z" fill="#AADB1E"/>
<path d="M147.325 13.049C147.822 13.049 148.319 12.7858 148.626 12.3034C148.626 12.3034 151.609 7.65412 151.96 7.11317C152.311 6.57223 152.223 5.91432 151.726 5.54881C151.229 5.18331 150.527 5.28565 150.162 5.78274L147.325 9.62786L144.489 5.78274C144.123 5.28565 143.422 5.18331 142.925 5.54881C142.427 5.91432 142.325 6.57223 142.691 7.11317C143.042 7.65412 146.024 12.3034 146.024 12.3034C146.346 12.8004 146.828 13.0636 147.325 13.049Z" fill="#AADB1E"/>
<path d="M151.141 14.7724C148.758 15.0209 146.872 15.9274 145.556 17.9596V16.249C145.556 15.4742 144.928 14.8455 144.153 14.8455C143.378 14.8455 142.749 15.4742 142.749 16.249V31.4541C142.749 32.2582 143.407 32.9161 144.211 32.9161C145.015 32.9161 145.673 32.2582 145.673 31.4541V24.9919C145.673 19.7871 147.121 18.1204 151.463 17.6526C152.252 17.5649 152.837 16.8485 152.749 16.059C152.647 15.2695 151.931 14.6847 151.141 14.7724Z" fill="#AADB1E"/>
<path d="M183.028 14.7734C180.499 14.7734 178.525 15.5922 177.107 17.5805V16.2501C177.107 15.4752 176.478 14.8465 175.703 14.8465C174.928 14.8465 174.3 15.4752 174.3 16.2501V31.4551C174.3 32.2592 174.958 32.9171 175.762 32.9171C176.566 32.9171 177.224 32.2592 177.224 31.4551V23.3848C177.224 19.8174 179.183 17.4636 182.443 17.4636C185.309 17.4636 186.405 18.9987 186.405 22.4344V31.4405C186.405 32.2446 187.063 32.9025 187.867 32.9025C188.671 32.9025 189.329 32.2446 189.329 31.4405V21.7034C189.315 17.2296 187.297 14.7734 183.028 14.7734Z" fill="#AADB1E"/>
<path d="M120.191 23.3859C120.249 18.5758 117.69 14.8477 112.5 14.8477C107.953 14.8477 104.196 18.1664 104.196 23.883C104.196 29.3509 107.471 32.9182 112.88 32.9182C115.044 32.9182 117.208 32.3773 119.094 31.0907C119.737 30.6375 119.957 29.7895 119.533 29.117C119.109 28.4591 118.231 28.2544 117.559 28.6784C116.038 29.6579 114.474 30.155 112.895 30.155C109.606 30.155 107.5 28.2544 107.091 24.9356H118.568C119.459 24.9502 120.176 24.2777 120.191 23.3859ZM107.105 22.4063C107.559 19.2922 109.679 17.4647 112.515 17.4647C115.512 17.4647 117.12 19.2337 117.164 22.4063H107.105Z" fill="#AADB1E"/>
<path d="M170.192 23.3859C170.25 18.5758 167.691 14.8477 162.501 14.8477C157.954 14.8477 154.197 18.1664 154.197 23.883C154.197 29.3509 157.472 32.9182 162.881 32.9182C165.045 32.9182 167.209 32.3773 169.095 31.0907C169.738 30.6375 169.958 29.7895 169.534 29.117C169.11 28.4591 168.232 28.2544 167.56 28.6784C166.039 29.6579 164.475 30.155 162.896 30.155C159.607 30.155 157.501 28.2544 157.092 24.9356H168.569C169.475 24.9502 170.192 24.2777 170.192 23.3859ZM157.106 22.4063C157.56 19.2922 159.68 17.4647 162.516 17.4647C165.513 17.4647 167.121 19.2337 167.165 22.4063H157.106Z" fill="#AADB1E"/>
<path d="M100.014 29.7294C99.5318 29.8756 98.947 29.978 98.3037 29.978C96.4323 29.978 95.482 28.8083 95.482 26.513V17.7408H100.16C100.891 17.7408 101.476 17.156 101.476 16.425C101.476 15.694 100.891 15.1092 100.16 15.1092H95.482V10.9132C95.482 10.1091 94.8241 9.45117 94.02 9.45117C93.2159 9.45117 92.558 10.1091 92.558 10.9132V15.1092H90.1457C89.4146 15.1092 88.8298 15.694 88.8298 16.425C88.8298 17.156 89.4146 17.7408 90.1457 17.7408H92.558V26.513C92.558 30.5189 94.6633 32.9166 98.2599 32.9166C99.254 32.9166 100.029 32.7558 100.862 32.5073C101.623 32.2733 102.061 31.4546 101.827 30.6944C101.593 29.9195 100.775 29.4955 100.014 29.7294Z" fill="#AADB1E"/>
</svg>
