<svg width="178" height="48" viewBox="0 0 178 48" fill="none" xmlns="http://www.w3.org/2000/svg">
<g clip-path="url(#clip0)">
<path fill-rule="evenodd" clip-rule="evenodd" d="M177.093 17.9331C177.093 13.0433 175.111 8.61495 171.908 5.41056C168.701 2.2023 164.273 0.226562 159.386 0.226562C154.492 0.226562 150.067 2.2023 146.863 5.41056C146.022 6.25443 145.263 7.17959 144.605 8.17676C144.542 8.26347 144.474 8.3463 144.413 8.44695C141.89 12.4255 139.113 15.5293 135.749 15.5448C132.561 15.5347 129.897 12.7344 127.481 9.05237C126.701 7.71843 125.765 6.49521 124.682 5.41056C121.475 2.2023 117.046 0.226562 112.157 0.226562C107.269 0.226562 102.84 2.2023 99.6364 5.41056C98.7616 6.28153 97.985 7.24772 97.3061 8.29056C97.2728 8.34321 97.2317 8.38579 97.1954 8.44695C94.6792 12.4255 91.8991 15.5293 88.5329 15.5448C85.3092 15.5347 82.6181 12.6756 80.1832 8.93005C79.4191 7.64566 78.5079 6.45882 77.4557 5.41056C74.2537 2.2023 69.823 0.226562 64.9332 0.226562C60.0457 0.226562 55.6181 2.2023 52.4098 5.41056C51.5536 6.26914 50.7825 7.21753 50.1159 8.23869C50.0671 8.30527 50.0152 8.36721 49.9696 8.44695C47.4488 12.4255 44.6663 15.5293 41.3055 15.5448C38.0981 15.5347 35.4155 12.7035 32.9876 8.98424C32.2227 7.67663 31.2937 6.4774 30.2323 5.41056C27.0279 2.2023 22.5987 0.226562 17.7097 0.226562C12.8199 0.226562 8.39071 2.2023 5.18323 5.41056C1.98116 8.61495 0 13.0433 0 17.9331C0 22.8222 1.98116 27.2544 5.18323 30.4534C8.39071 33.6632 12.8199 35.6451 17.7097 35.6451C22.5987 35.6451 27.0279 33.6632 30.2323 30.4534C31.3579 29.3277 32.3296 28.0488 33.1223 26.6552C35.5099 23.0335 38.1523 20.3084 41.3055 20.2937C44.6446 20.3084 47.4132 23.3726 49.9169 27.3156C50.6299 28.4537 51.4645 29.5073 52.4098 30.4534C55.6181 33.6632 60.0457 35.6451 64.9332 35.6451C69.823 35.6451 74.2537 33.6632 77.4557 30.4534C78.5659 29.3393 79.5298 28.0735 80.3148 26.7032C82.7156 23.0583 85.3696 20.3084 88.5329 20.2937C91.8046 20.3084 94.5221 23.2511 96.9879 27.071C97.7319 28.3058 98.6245 29.45 99.6364 30.4534C102.84 33.6632 107.269 35.6451 112.157 35.6451C117.046 35.6451 121.475 33.6632 124.682 30.4534C125.82 29.3215 126.801 28.0155 127.593 26.6057C129.978 23.0095 132.612 20.3084 135.749 20.2937C139.113 20.3084 141.89 23.4129 144.413 27.3977C144.424 27.4193 144.444 27.4317 144.456 27.4503C145.147 28.5388 145.952 29.5476 146.863 30.4534C150.067 33.6632 154.492 35.6451 159.386 35.6451C164.273 35.6451 168.701 33.6632 171.908 30.4534C175.111 27.2544 177.093 22.8222 177.093 17.9331ZM14.8312 13.9329C14.8312 14.5724 15.4552 15.0764 16.6846 15.4371L17.1461 15.5719L17.4859 15.6578L18.2539 15.8351C18.2539 15.8351 19.1559 16.0681 19.2627 16.0983C19.351 16.1045 19.697 16.1409 19.697 16.1409L20.3884 16.3337C21.6302 16.6294 22.6204 17.2178 23.3396 18.0857C24.0635 18.9729 24.4343 20.0459 24.4343 21.2846C24.4343 21.2846 24.2841 22.6426 24.2779 22.6549C23.969 23.9881 23.2266 25.0766 22.0761 25.8888C20.9574 26.6916 19.5414 27.0919 17.8684 27.0919C17.8684 27.0919 16.5739 27.0214 16.5592 27.0183C15.7672 26.9208 15.0031 26.7094 14.2746 26.3982C13.5468 26.0746 12.9043 25.658 12.3577 25.1657C11.8196 24.6733 11.431 24.2266 11.177 23.8139C10.8774 23.3246 10.7311 22.881 10.7311 22.4591C10.7311 22.4591 10.9502 21.5146 10.9572 21.4991C11.2475 20.9362 11.7615 20.615 12.3724 20.615C12.3724 20.615 13.1373 20.8077 13.1435 20.8077L13.8194 21.3644C13.8194 21.3644 14.568 22.2973 14.5843 22.3182L14.9505 22.6604C14.9505 22.6604 15.4181 22.9786 15.4653 23.0064C16.0459 23.3455 16.639 23.5445 17.2196 23.5902L17.6973 23.6273L17.993 23.6366C18.4583 23.6366 18.8717 23.5755 19.2163 23.4624C19.5499 23.3517 19.8526 23.1868 20.1159 22.967C20.3605 22.7579 20.544 22.5264 20.6632 22.2578C20.7886 21.9729 20.8529 21.7042 20.8529 21.434C20.8529 20.8108 20.6539 20.4036 20.1646 20.1017C19.9719 19.9662 19.7055 19.8562 19.351 19.7711L18.6999 19.5961L16.3146 19.0402L15.6511 18.8746C12.0333 17.8596 11.2777 15.7429 11.2777 14.1442L11.3265 13.3584L11.5324 12.496C11.8831 11.3386 12.6054 10.4103 13.6668 9.73443C14.7484 9.03379 16.0521 8.6823 17.5355 8.6823H18.0248C18.0248 8.6823 18.816 8.77753 18.8284 8.77753C19.4981 8.84411 20.1523 9.01521 20.7306 9.27224L21.5961 9.67018C21.5961 9.67018 22.2991 10.1138 22.3301 10.1378L23.2289 10.936L23.7306 11.841C23.7646 11.9819 23.7832 12.1228 23.7832 12.2629C23.7832 12.5873 23.6911 12.9055 23.5138 13.202C23.2444 13.6457 22.8503 13.9244 22.3757 14.0095C21.9391 14.0924 21.5164 14.015 21.0735 13.7277L20.5014 13.2725L20.1283 12.9946C19.3208 12.4286 18.8284 12.2722 18.5597 12.2389L17.4062 12.1406C16.7001 12.1406 16.1187 12.2746 15.6759 12.5448C15.281 12.7832 15.0364 13.0704 14.9203 13.4312L14.8312 13.9329ZM72.4134 25.0093C72.4134 25.7494 71.9698 26.3362 71.1933 26.618L71.1499 26.649L70.5538 26.7195C69.991 26.7195 69.4676 26.505 69.0093 26.0885C69.0093 26.0885 64.3146 21.6392 62.6083 20.018V24.6245C62.6083 26.615 61.217 26.7706 60.7951 26.7706C60.257 26.7706 59.7856 26.5879 59.4279 26.2387C59.1925 26.0072 58.9084 25.5853 58.9084 24.9055V10.85C58.9084 8.83792 60.3244 8.6823 60.7579 8.6823C61.7892 8.6823 62.4736 9.19947 62.5997 10.0611L62.6083 10.1153V14.9974C64.2387 13.4676 68.4766 9.48669 68.4766 9.48669C68.9025 9.08566 69.3089 8.8534 69.7796 8.76514C70.2108 8.7125 70.6397 8.79534 71.016 9.01521C71.4124 9.24437 71.6857 9.60282 71.7987 10.0248C71.8351 10.1533 71.863 10.3058 71.863 10.4676C71.863 10.9027 71.6826 11.4346 71.0462 11.9881C71.0462 11.9881 65.6152 16.9298 65.0462 17.4531C65.6237 17.9881 71.6392 23.5352 71.6392 23.5352L72.0434 23.9943L72.4134 25.0093ZM120.123 25.082C120.123 25.7571 119.717 26.3115 119.021 26.594L118.171 26.7706C117.738 26.7706 116.688 26.6242 116.254 25.2725C116.254 25.2725 115.413 22.7579 115.315 22.4653H109.835C109.798 22.5597 108.975 24.9489 108.975 24.9489L108.728 25.6519C108.728 25.6519 108.523 25.9608 108.523 25.9762C108.169 26.4864 107.609 26.7706 106.942 26.7706C106.942 26.7706 106.3 26.6761 106.294 26.6823C105.465 26.4322 104.991 25.8214 104.991 25.0093C104.991 25.0093 105.205 23.8991 105.205 23.8937L109.912 10.6673C110.165 9.98837 110.477 9.5076 110.869 9.19947C111.306 8.85572 111.881 8.6823 112.569 8.6823C113.254 8.6823 113.823 8.86579 114.257 9.22966C114.633 9.54785 114.937 10.0557 115.185 10.7649L119.93 24.1228L120.123 25.082ZM167.093 10.401C167.093 10.401 166.891 11.4679 166.891 11.4802L162.527 24.8753C162.064 26.2511 161.193 26.6792 160.527 26.7891L159.982 26.8472C159.316 26.8472 158.107 26.594 157.527 24.866L153.194 11.4802L152.964 10.3793C152.964 9.65779 153.407 9.09495 154.15 8.8534L154.839 8.73418C155.57 8.73418 156.134 9.06166 156.42 9.66321L156.654 10.233C156.654 10.233 159.184 18.2235 160.059 20.9664C160.928 18.2026 163.459 10.1564 163.459 10.1564L163.685 9.63921C163.949 9.06398 164.517 8.73418 165.249 8.73418C165.249 8.73418 165.888 8.8503 165.897 8.84721C166.655 9.09805 167.093 9.66321 167.093 10.401ZM110.958 19.089H114.159C113.891 18.2792 113.184 16.1811 112.563 14.3184C111.93 16.1835 111.224 18.3001 110.958 19.089Z" fill="#669DC7"/>
<path fill-rule="evenodd" clip-rule="evenodd" d="M5.83743 44.1044L5.50994 44.037L4.75743 43.8651L4.52827 43.7614C4.34478 43.6522 4.26194 43.5175 4.26194 43.3216C4.26194 43.1374 4.34478 42.9787 4.51665 42.844L4.83407 42.6791L5.21343 42.6233L5.46659 42.6396C5.46659 42.6295 5.62607 42.6659 5.62607 42.6659C5.71124 42.6907 6.01782 42.8107 6.01782 42.8107L6.32362 43.0313L6.50711 43.1792L6.65962 43.2636C6.65962 43.269 6.86478 43.3031 6.86478 43.3031C7.13343 43.3031 7.3262 43.156 7.39975 42.8687C7.40904 42.8324 7.41524 42.7836 7.41524 42.7371C7.41524 42.5653 7.34246 42.4004 7.20388 42.2385C7.02349 42.0311 6.73936 41.8507 6.3453 41.7036L5.99614 41.5844L5.6942 41.5317L5.46659 41.5038L5.25911 41.4984C4.68388 41.4984 4.18917 41.6447 3.79123 41.9235C3.38478 42.2138 3.14633 42.5877 3.07278 43.0174L3.0364 43.406C3.0364 43.8473 3.18891 44.2081 3.47923 44.4829C3.76723 44.7524 4.19769 44.9505 4.79769 45.0853L5.29627 45.1844L5.70582 45.278C6.37549 45.4313 6.44827 45.7495 6.44827 45.9787L6.40956 46.2102C6.3662 46.3859 6.25627 46.5291 6.08207 46.6422C5.89859 46.756 5.65704 46.8078 5.35356 46.8078L4.75433 46.7227C4.4733 46.6422 4.21317 46.4835 3.97162 46.269C3.98091 46.2775 3.79123 46.0987 3.79123 46.0987L3.5582 45.9942L3.39098 45.9671C3.02711 45.9671 2.81885 46.1761 2.81885 46.5632C2.81885 46.7606 2.92569 46.9534 3.14014 47.1624L4.02349 47.7036L4.72414 47.8971L5.28388 47.9327C5.87149 47.9327 6.3724 47.8042 6.76724 47.5348C7.17678 47.26 7.43691 46.8992 7.54375 46.4649L7.62272 45.8656C7.62272 44.9784 7.02349 44.3815 5.83743 44.1044ZM10.5128 41.884L10.0723 41.7655H9.58994L9.60156 40.526V40.3108C9.52801 40.0004 9.32672 39.8533 9.0333 39.8533L8.7244 39.933C8.52853 40.0367 8.42711 40.2388 8.42711 40.5376V41.7307L8.15227 41.7655H7.99588C7.70865 41.8406 7.58014 42.0311 7.58014 42.2943L7.6382 42.5653C7.71485 42.7038 7.86736 42.8625 8.17085 42.8625H8.42711V47.3645L8.57111 47.8104C8.67562 47.9327 8.82194 48.0001 8.99923 48.0001L9.43665 47.8352L9.60156 47.4009V42.8625H10.0792L10.5376 42.7302C10.663 42.6233 10.7334 42.4863 10.7334 42.3113C10.7334 42.0736 10.6142 41.9451 10.5128 41.884ZM13.4733 41.5844L13.039 41.5441L12.6108 41.5844C12.1548 41.6517 11.7732 41.8042 11.4736 42.0365L10.9347 42.6125C10.9347 42.6179 10.8434 42.95 10.8434 42.95C10.8434 43.2404 10.9959 43.4432 11.2715 43.5237L11.4952 43.5291C11.537 43.5291 11.8924 43.3147 11.8924 43.3147L11.969 43.2233L12.3848 42.8045L12.8191 42.6659C12.8005 42.6659 12.9662 42.6597 12.9662 42.6597L13.128 42.6458C13.7698 42.6458 14.0725 42.95 14.0725 43.598V43.9325L13.9479 43.9844H13.0088C12.2563 43.9844 11.6601 44.1493 11.2405 44.4829C10.807 44.8135 10.5832 45.278 10.5832 45.8656L10.663 46.4835C10.7574 46.886 10.9719 47.2174 11.287 47.4806C11.6044 47.7307 12.0023 47.884 12.48 47.9327H12.7758C13.2108 47.9327 13.6018 47.8468 13.9347 47.6695L14.0299 47.6022L14.1275 47.5294C14.201 47.7764 14.3628 47.9327 14.6416 47.9327C14.8521 47.9327 15.2106 47.8352 15.2106 47.1624V43.382C15.2106 42.892 15.0635 42.4863 14.7763 42.1844C14.4914 41.8708 14.0547 41.6695 13.4733 41.5844ZM14.0725 45.621C14.0725 46.3247 13.7605 46.7095 13.0978 46.8218C13.0792 46.828 12.895 46.8411 12.895 46.8411L12.6906 46.828H12.6875C12.072 46.7498 11.7856 46.4695 11.7856 45.933C11.7856 45.6264 11.8746 45.4027 12.055 45.2571C12.2408 45.1124 12.5745 45.0396 13.0359 45.0396H14.0764C14.0764 45.0458 14.0725 45.621 14.0725 45.621ZM16.8674 39.5684C16.6475 39.5684 16.2782 39.6698 16.2782 40.3186V47.2174C16.2782 47.8406 16.6661 47.9327 16.8921 47.9327C17.1035 47.9327 17.455 47.8468 17.455 47.2414V40.0553C17.4 39.7302 17.1948 39.5684 16.8674 39.5684ZM21.1339 41.5844L20.7004 41.5441L20.2684 41.5844C19.8132 41.6517 19.4299 41.8042 19.1311 42.0365L18.593 42.6125C18.593 42.6179 18.5009 42.95 18.5009 42.95C18.5009 43.2404 18.6542 43.4432 18.929 43.5237L19.1551 43.5291C19.1923 43.5291 19.5499 43.3147 19.5499 43.3147L19.6289 43.2233L20.0423 42.8045L20.4767 42.6659C20.4581 42.6659 20.6261 42.6597 20.6261 42.6597L20.7887 42.6458C21.4305 42.6458 21.7278 42.95 21.7278 43.598V43.9325L21.6047 43.9844H20.6687C19.9138 43.9844 19.3169 44.1493 18.9019 44.4829C18.4645 44.8135 18.2439 45.278 18.2439 45.8656L18.3205 46.4835C18.4181 46.886 18.6263 47.2174 18.9445 47.4806C19.2596 47.7307 19.663 47.884 20.1368 47.9327H20.4341C20.8707 47.9327 21.2625 47.8468 21.593 47.6695L21.6875 47.6022L21.785 47.5294C21.8617 47.7764 22.0235 47.9327 22.3022 47.9327C22.5128 47.9327 22.8681 47.8352 22.8681 47.1624V43.382C22.8681 42.892 22.7218 42.4863 22.4299 42.1844C22.1466 41.8708 21.7115 41.6695 21.1339 41.5844ZM21.7278 45.621C21.7278 46.3247 21.4181 46.7095 20.7546 46.8218C20.7329 46.828 20.5556 46.8411 20.5556 46.8411L20.3481 46.828C19.7334 46.7498 19.4431 46.4695 19.4431 45.933C19.4431 45.6264 19.5345 45.4027 19.7087 45.2571C19.8952 45.1124 20.232 45.0396 20.6965 45.0396H21.7332C21.7332 45.0458 21.7278 45.621 21.7278 45.621ZM31.32 46.9085L29.4341 44.2135L29.4302 44.2081C29.4426 44.1895 29.4643 44.1717 29.4643 44.1717L30.9809 42.652C31.1644 42.4747 31.2527 42.2943 31.2527 42.1155L31.1125 41.7369C31.008 41.6115 30.8617 41.5441 30.6875 41.5441L30.1928 41.7764C30.1928 41.7764 28.4028 43.6321 28.2225 43.8171V40.0484C28.1683 39.7371 27.9778 39.5846 27.679 39.5846L27.3515 39.6698H27.3298H27.3484C27.1463 39.789 27.048 40.012 27.048 40.3364V47.2971C27.048 47.709 27.2594 47.9327 27.6318 47.9327C28.008 47.9327 28.2225 47.6935 28.2225 47.2778V45.542L28.2782 45.364C28.2782 45.364 28.5987 45.0396 28.6103 45.028C28.632 45.0589 30.3267 47.5565 30.3267 47.5565C30.504 47.8104 30.703 47.9327 30.9198 47.9327L31.241 47.8298C31.3974 47.7307 31.4803 47.5658 31.4803 47.3645L31.4431 47.1531L31.32 46.9085ZM34.4493 41.6579C34.4214 41.6579 34.2844 41.6393 34.2844 41.6393L33.96 41.6115L33.6906 41.6269L33.6844 41.6331H33.6875L33.4862 41.6579C32.7825 41.7764 32.2839 42.0791 31.9866 42.5653C31.6932 43.0375 31.5561 43.7552 31.5561 44.7655C31.5561 45.7797 31.6932 46.5036 31.9866 46.9665C32.2839 47.4435 32.7825 47.7493 33.4707 47.8685L33.6449 47.908L33.96 47.9142L34.4547 47.8685C35.0826 47.7493 35.5618 47.4984 35.8738 47.1013C36.1858 46.7095 36.3484 46.1413 36.3484 45.3942C36.3484 44.1284 36.2168 43.2466 35.9505 42.7038C35.6818 42.141 35.1739 41.7918 34.4493 41.6579ZM35.1739 45.1201C35.1739 45.7495 35.0694 46.1993 34.8619 46.4595C34.6661 46.7095 34.3634 46.828 33.9476 46.828C33.535 46.828 33.2354 46.7095 33.0364 46.4595C32.8343 46.1993 32.7306 45.7495 32.7306 45.1201V44.4009C32.7306 43.7738 32.8343 43.3278 33.0364 43.07C33.2354 42.8161 33.535 42.6969 33.9476 42.6969C34.3634 42.6969 34.6661 42.8161 34.8619 43.07C35.0694 43.3278 35.1739 43.7738 35.1739 44.4009V45.1201ZM39.6968 41.5441L39.1556 41.6014L38.6207 41.7833C38.6207 41.7833 38.3946 41.9142 38.3203 41.9567C38.3118 41.9142 38.2986 41.8708 38.2986 41.8708C38.1887 41.6579 38.0238 41.5441 37.807 41.5441L37.4648 41.6517C37.3417 41.7307 37.183 41.8964 37.183 42.2385V47.2902L37.2813 47.6695C37.3912 47.8468 37.5561 47.9327 37.7551 47.9327L38.0183 47.8747C38.1678 47.8104 38.3574 47.6517 38.3574 47.2414V43.7552C38.3574 43.1436 38.6478 42.8045 39.2748 42.6791C39.2447 42.6853 39.4119 42.6597 39.4119 42.6597C39.5048 42.6597 39.7208 42.6791 39.7208 42.6791C40.0212 42.7302 40.2318 42.8324 40.3487 42.9973C40.4702 43.156 40.5321 43.4192 40.5321 43.7738V47.2174L40.5933 47.6207C40.6785 47.822 40.8619 47.9327 41.1043 47.9327L41.4434 47.8298C41.6176 47.7191 41.7066 47.5046 41.7066 47.1872V43.598C41.7066 43.0035 41.5223 42.508 41.1554 42.1232C40.7884 41.7431 40.296 41.5441 39.6968 41.5441ZM45.2346 42.1844C45.2346 41.9025 45.0976 41.7191 44.8498 41.6447L44.6354 41.6393H44.064V40.8961C44.064 40.7838 44.1004 40.7165 44.2018 40.6693C44.2506 40.6693 44.3512 40.7033 44.3512 40.7033L44.5378 40.8512C44.5502 40.8512 44.8382 40.9356 44.8382 40.9356L45.223 40.7707L45.3763 40.3975L45.3476 40.2272C45.3422 40.2133 44.9698 39.7797 44.9698 39.7797L44.2932 39.6094H44.1832L43.8496 39.6427C43.4059 39.7495 43.1102 40.0004 42.96 40.3975C42.9569 40.4022 42.8834 40.8078 42.8834 40.8078V41.6393H42.6511L42.3422 41.7369L42.1889 41.908C42.1672 41.9382 42.0999 42.2084 42.0999 42.2084C42.0999 42.4646 42.2292 42.6597 42.4676 42.7371L42.6604 42.7518H42.8896L42.8834 47.26C42.8834 47.8685 43.296 47.9327 43.4764 47.9327C43.8496 47.9327 44.064 47.6881 44.064 47.2731V42.7712L44.6392 42.7518C45.0023 42.7518 45.137 42.5382 45.1858 42.4066C45.1858 42.4135 45.2346 42.1844 45.2346 42.1844ZM49.0699 45.6876C49.0854 45.6876 48.7982 45.8215 48.7982 45.8215L48.5567 46.1459C48.2872 46.581 47.9443 46.8009 47.5076 46.8009L47.177 46.7676C46.9107 46.7157 46.6909 46.581 46.5136 46.3859C46.3417 46.1869 46.2596 45.933 46.2596 45.621V45.1766C46.4377 45.1766 49.2201 45.1712 49.2201 45.1712C49.4369 45.1495 49.5623 45.0922 49.6266 44.9916L49.7063 44.4961V44.2971C49.7063 43.4006 49.5105 42.7124 49.1218 42.2548C48.7278 41.7918 48.1649 41.5441 47.4519 41.5441C46.6661 41.5441 46.0614 41.8104 45.6542 42.333C45.2601 42.8502 45.0573 43.6453 45.0573 44.7067C45.0573 46.828 45.8377 47.9142 47.3667 47.9142L47.6423 47.8971L47.8839 47.8685C48.391 47.7887 48.8168 47.5844 49.1528 47.2414C49.1489 47.2414 49.5198 46.7838 49.5198 46.7838L49.7063 46.3108C49.752 46.0793 49.6537 45.9144 49.5685 45.8215C49.44 45.6876 49.2658 45.6427 49.0699 45.6876ZM46.2627 43.9998C46.2627 43.9898 46.2805 43.8171 46.2805 43.8171L46.3115 43.6089C46.4191 43.1018 46.6754 42.7983 47.1004 42.6853C47.1066 42.6853 47.465 42.6295 47.465 42.6295C47.7492 42.6295 47.9752 42.7186 48.1525 42.892C48.336 43.0646 48.4552 43.3216 48.5164 43.6576L48.535 43.8535C48.5319 43.8318 48.5195 44.0773 48.5195 44.116C48.5048 44.0982 48.425 44.0982 48.425 44.0982H46.2596C46.2596 44.0912 46.2627 43.9998 46.2627 43.9998ZM53.8343 42.3547C53.8343 42.1743 53.7484 42.0094 53.5781 41.8654C53.4155 41.7307 53.1832 41.6331 52.8829 41.5844C52.8798 41.5844 52.6839 41.5658 52.6839 41.5658L52.2658 41.6115L51.7734 41.8298C51.7734 41.8298 51.7123 41.9025 51.6449 41.9753C51.5992 41.8298 51.5435 41.685 51.5435 41.685C51.4281 41.5604 51.2718 41.5038 51.0914 41.5263C50.9141 41.5263 50.5347 41.6014 50.5347 42.2084V47.486C50.6137 47.7887 50.8096 47.9327 51.0914 47.9327L51.4003 47.8538C51.6078 47.7369 51.7123 47.5449 51.7123 47.2902V43.8845C51.7123 43.5075 51.7734 43.2303 51.8958 43.0476C52.015 42.8749 52.1923 42.7766 52.4369 42.7464L52.6049 42.7247L52.841 42.7766L53.1314 42.8835C53.1407 42.892 53.2994 42.9175 53.2994 42.9175L53.6756 42.7518L53.8343 42.3547ZM57.6542 45.6876C57.6697 45.6876 57.3763 45.8215 57.3763 45.8215L57.1347 46.1459C56.8684 46.581 56.5254 46.8009 56.0888 46.8009L55.7613 46.7676C55.4919 46.7157 55.272 46.581 55.0947 46.3859C54.9229 46.1869 54.8408 45.933 54.8408 45.621V45.1766C55.0212 45.1766 57.8044 45.1712 57.8044 45.1712C58.0119 45.1495 58.1435 45.0922 58.2078 44.9916L58.2875 44.4961V44.2971C58.2875 43.4006 58.0885 42.7124 57.6999 42.2548C57.3089 41.7918 56.7453 41.5441 56.033 41.5441C55.2449 41.5441 54.6418 41.8104 54.2377 42.333C53.8374 42.844 53.6385 43.6453 53.6385 44.7067C53.6385 46.828 54.4127 47.9142 55.9448 47.9142L56.2258 47.8971L56.4619 47.8685C56.9752 47.7887 57.3979 47.5844 57.7339 47.2414L58.1001 46.7838L58.2836 46.3108C58.2937 46.2636 58.296 46.2233 58.296 46.1931C58.296 46.0174 58.2201 45.892 58.1489 45.8215C58.0173 45.6876 57.847 45.6427 57.6542 45.6876ZM54.8439 44.0068C54.8439 43.9998 54.8586 43.8249 54.8586 43.8249L54.8896 43.6089C55.0003 43.1018 55.2596 42.7983 55.6754 42.6853C55.6854 42.6853 56.0454 42.6295 56.0454 42.6295C56.3303 42.6295 56.5533 42.7186 56.7306 42.892C56.9141 43.0646 57.0333 43.3216 57.0945 43.6576L57.113 43.8535C57.113 43.8318 57.1007 44.0773 57.0945 44.116C57.0821 44.0982 57.0062 44.0982 57.0062 44.0982H54.8408C54.8408 44.0912 54.8439 44.0068 54.8439 44.0068ZM61.6266 41.5441L61.0916 41.6014L60.5567 41.7833C60.5567 41.7833 60.3298 41.9142 60.2563 41.9567C60.2447 41.9142 60.2323 41.8708 60.2323 41.8708C60.1247 41.6579 59.9574 41.5441 59.7368 41.5441L59.3977 41.6517C59.2746 41.7307 59.119 41.8964 59.119 42.2385V47.2902L59.2134 47.6695C59.321 47.8468 59.489 47.9327 59.688 47.9327L59.9505 47.8747C60.1038 47.8104 60.2934 47.6517 60.2934 47.2414V43.7552C60.2934 43.1436 60.5838 42.8045 61.2109 42.6791C61.1807 42.6853 61.3479 42.6597 61.3479 42.6597C61.44 42.6597 61.6568 42.6791 61.6568 42.6791C61.9541 42.7302 62.1647 42.8324 62.2808 42.9973C62.4062 43.156 62.4681 43.4192 62.4681 43.7738V47.2174L62.5254 47.6207C62.5866 47.7616 62.7275 47.9327 63.0395 47.9327L63.3794 47.8298C63.5466 47.7191 63.6426 47.5046 63.6426 47.1872V43.598C63.6426 43.0035 63.4552 42.508 63.089 42.1232C62.7275 41.7431 62.2289 41.5441 61.6266 41.5441ZM68.4581 45.4437L68.1492 45.542L67.9386 45.8169L67.8743 45.9733L67.5685 46.5237L67.135 46.756L66.847 46.8009L66.7061 46.7893C66.2865 46.7498 66.0248 46.5632 65.8684 46.2388C65.6996 45.8811 65.6145 45.2176 65.6145 44.2816C65.6145 43.7552 65.7058 43.3487 65.887 43.0956C66.0581 42.8502 66.3151 42.7124 66.6627 42.6659C66.6759 42.6659 66.8044 42.6597 66.8044 42.6597C67.1009 42.6597 67.361 42.7712 67.6057 43.0096L67.8929 43.3549C67.9115 43.3673 68.1561 43.5175 68.1561 43.5175L68.3419 43.5415C68.5959 43.5415 68.7801 43.406 68.8591 43.1745C68.8622 43.156 68.8901 42.9973 68.8901 42.9973C68.8901 42.7836 68.7979 42.5653 68.6176 42.3493C68.4225 42.1155 68.1461 41.9142 67.7977 41.7709L67.2658 41.5844L66.7339 41.5371C66.0821 41.5371 65.5355 41.7709 65.095 42.2385C64.6599 42.7038 64.4369 43.3278 64.4369 44.0982V44.8073C64.4369 45.8757 64.6421 46.6693 65.0423 47.1624C65.4496 47.6579 66.0821 47.9142 66.9259 47.9142C67.6908 47.9142 68.2909 47.5905 68.7058 46.9534L68.9505 46.4835L69.0302 46.0677L68.9017 45.6481C68.8374 45.5536 68.7089 45.4437 68.4581 45.4437ZM73.4826 45.6876C73.4981 45.6876 73.2078 45.8215 73.2078 45.8215L72.9662 46.1459C72.6999 46.581 72.3577 46.8009 71.9172 46.8009L71.5897 46.7676C71.3241 46.7157 71.1004 46.581 70.9262 46.3859C70.7551 46.1869 70.6699 45.933 70.6699 45.621V45.1766C70.8503 45.1766 73.6328 45.1712 73.6328 45.1712C73.8472 45.1495 73.9719 45.0922 74.0392 44.9916L74.1136 44.4961V44.2971C74.1136 43.4006 73.9231 42.7124 73.5314 42.2548C73.135 41.7918 72.5745 41.5441 71.8622 41.5441C71.0764 41.5441 70.4741 41.8104 70.0638 42.333C69.6728 42.844 69.4707 43.6453 69.4707 44.7067C69.4707 46.828 70.2449 47.9142 71.7763 47.9142L72.055 47.8971L72.2934 47.8685C72.8013 47.7887 73.2294 47.5844 73.5654 47.2414L73.9324 46.7838L74.1136 46.3108C74.1221 46.2636 74.1283 46.2233 74.1283 46.1931C74.1283 46.0174 74.0516 45.892 73.9819 45.8215C73.8503 45.6876 73.6785 45.6427 73.4826 45.6876ZM70.673 44.0068C70.673 43.9998 70.694 43.8249 70.694 43.8249L70.7218 43.6089C70.8287 43.1018 71.0888 42.7983 71.5069 42.6853C71.5138 42.6853 71.8777 42.6295 71.8777 42.6295C72.1587 42.6295 72.3825 42.7186 72.5629 42.892C72.7456 43.0646 72.8687 43.3216 72.9259 43.6576L72.9445 43.8535C72.9445 43.8318 72.9321 44.0773 72.929 44.116C72.9174 44.0982 72.8377 44.0982 72.8377 44.0982H70.6699C70.673 44.0912 70.673 44.0068 70.673 44.0068ZM80.6702 41.5844L80.2382 41.5441L79.8047 41.5844C79.3487 41.6517 78.9693 41.8042 78.6697 42.0365L78.1309 42.6125C78.1309 42.6179 78.0364 42.95 78.0364 42.95C78.0364 43.2404 78.1897 43.4432 78.4684 43.5237L78.6906 43.5291C78.7309 43.5291 79.0885 43.3147 79.0885 43.3147L79.1652 43.2233L79.5809 42.8045L80.0152 42.6659C79.9936 42.6659 80.1623 42.6597 80.1623 42.6597L80.3272 42.6458C80.969 42.6458 81.2687 42.9562 81.2687 43.6089V43.9456L81.1409 43.9998H80.2049C79.4493 43.9998 78.8563 44.1655 78.4374 44.4891C77.9992 44.8251 77.7763 45.2904 77.7763 45.8757L77.8591 46.4835C77.9536 46.8922 78.1649 47.2174 78.4831 47.4806C78.7974 47.7307 79.1954 47.884 79.673 47.9327H79.9719C80.4101 47.9327 80.798 47.8468 81.1309 47.6695L81.2292 47.6022L81.3267 47.5294C81.4003 47.7764 81.5629 47.9327 81.8377 47.9327C82.049 47.9327 82.4067 47.8352 82.4067 47.1624V43.382C82.4067 42.892 82.2596 42.4863 81.9693 42.1844C81.6844 41.8708 81.2478 41.6695 80.6702 41.5844ZM81.2687 45.6264C81.2687 46.3309 80.9567 46.7095 80.2939 46.8218C80.2723 46.828 80.088 46.8411 80.088 46.8411L79.889 46.828H79.8867C79.2697 46.7498 78.9817 46.4695 78.9817 45.9392C78.9817 45.6264 79.0668 45.4104 79.248 45.2718C79.4369 45.1201 79.7706 45.0458 80.232 45.0458H81.2725C81.2725 45.0589 81.2687 45.6264 81.2687 45.6264ZM86.0214 44.1044L85.6947 44.037L84.9422 43.8651L84.7161 43.7614C84.5319 43.6522 84.4459 43.5175 84.4459 43.3216C84.4459 43.1374 84.5319 42.9787 84.7007 42.844L85.015 42.6791L85.4005 42.6233L85.6514 42.6396C85.6514 42.6295 85.7861 42.6659 85.7861 42.6659L85.896 42.6907L86.201 42.8107L86.5107 43.0313L86.6942 43.1792L86.8436 43.2636C86.8436 43.269 87.0426 43.3031 87.0426 43.3031C87.3182 43.3031 87.5102 43.156 87.5876 42.8687C87.59 42.8324 87.6031 42.7913 87.6031 42.7371C87.6031 42.5986 87.5536 42.4282 87.3887 42.2385C87.2083 42.0311 86.9265 41.8507 86.5285 41.7036L86.1801 41.5844L85.8774 41.5317L85.6514 41.5038L85.4431 41.4984C84.8679 41.4984 84.3732 41.6447 83.9752 41.9235C83.5688 42.2138 83.3241 42.5877 83.2568 43.0174L83.2196 43.406C83.2196 43.8473 83.3698 44.2081 83.6632 44.4829C83.9505 44.7524 84.3794 44.9505 84.9778 45.0853L85.4803 45.1844L85.8898 45.278C86.5603 45.4313 86.633 45.7495 86.633 45.9787L86.5928 46.2102C86.5471 46.3859 86.4403 46.5291 86.2661 46.6422C86.0795 46.756 85.8379 46.8078 85.5414 46.8078L84.9391 46.7227C84.6604 46.6422 84.3941 46.4835 84.1595 46.269C84.1626 46.2775 83.9752 46.0987 83.9752 46.0987L83.7399 45.9942L83.575 45.9671C83.2142 45.9671 83.0029 46.1761 83.0029 46.5632C83.0029 46.7606 83.1066 46.9534 83.3241 47.1624L84.2083 47.7036L84.9081 47.8971C84.9112 47.8971 85.4671 47.9327 85.4671 47.9327C86.0547 47.9327 86.5564 47.8042 86.9536 47.5348C87.3577 47.26 87.6178 46.8992 87.7309 46.4649L87.8075 45.8656C87.8075 44.9784 87.2083 44.3815 86.0214 44.1044ZM91.1172 41.6579C91.0854 41.6579 90.9507 41.6393 90.9507 41.6393C90.9476 41.6393 90.6232 41.6115 90.6232 41.6115L90.3546 41.6269L90.3492 41.6331H90.3546L90.1479 41.6579C89.4465 41.7764 88.9448 42.0791 88.6514 42.5653C88.361 43.0375 88.217 43.7552 88.217 44.7655C88.217 45.7797 88.361 46.5036 88.6514 46.9665C88.9448 47.4435 89.4465 47.7493 90.1316 47.8685L90.3058 47.908L90.6232 47.9142L91.1203 47.8685C91.7466 47.7493 92.2258 47.4984 92.5417 47.1013C92.8506 46.7095 93.0062 46.1413 93.0062 45.3942C93.0062 44.1284 92.8808 43.2466 92.6145 42.7038C92.3435 42.141 91.8387 41.7918 91.1172 41.6579ZM91.8356 45.1201C91.8356 45.7495 91.728 46.1993 91.5259 46.4595C91.327 46.7095 91.0312 46.828 90.6147 46.828C90.1959 46.828 89.9001 46.7095 89.7004 46.4595C89.4921 46.1993 89.3915 45.7495 89.3915 45.1201V44.4009C89.3915 43.7738 89.4921 43.3278 89.7004 43.07C89.9001 42.8161 90.1959 42.6969 90.6147 42.6969C91.0312 42.6969 91.327 42.8161 91.5229 43.07C91.728 43.3278 91.8356 43.7738 91.8356 44.4009V45.1201ZM97.5995 45.4437L97.2906 45.542L97.0823 45.8169L97.0189 45.9733L96.7092 46.5237L96.2764 46.756L95.9907 46.8009L95.8467 46.7893C95.4341 46.7498 95.1654 46.5632 95.009 46.2388C94.8441 45.8811 94.7582 45.2176 94.7582 44.2816C94.7582 43.7552 94.8465 43.3487 95.0276 43.0956C95.2018 42.8502 95.4558 42.7124 95.8103 42.6659C95.8165 42.6659 95.9481 42.6597 95.9481 42.6597C96.2416 42.6597 96.5017 42.7712 96.7463 43.0096L97.0336 43.3549C97.0521 43.3673 97.2968 43.5175 97.2968 43.5175L97.4834 43.5415C97.7373 43.5415 97.9216 43.406 97.9998 43.1745C98.0067 43.156 98.0307 42.9973 98.0307 42.9973C98.0307 42.7836 97.9425 42.5653 97.7582 42.3493C97.5631 42.1155 97.2852 41.9142 96.9352 41.7709C96.9422 41.7709 96.408 41.5844 96.408 41.5844L95.8746 41.5371C95.2258 41.5371 94.6769 41.7709 94.2356 42.2385C93.8013 42.7038 93.5807 43.3278 93.5807 44.0982V44.8073C93.5807 45.8757 93.7835 46.6693 94.1838 47.1624C94.5902 47.6579 95.2258 47.9142 96.0674 47.9142C96.8361 47.9142 97.4315 47.5905 97.8465 46.9534L98.0911 46.4835L98.1716 46.0677L98.0454 45.6481C97.9781 45.5536 97.8496 45.4437 97.5995 45.4437ZM99.4777 41.5658C99.4777 41.5658 99.1657 41.6447 99.1657 41.6517C98.9752 41.7493 98.8777 41.9753 98.8777 42.3113V47.1531L98.9032 47.4806L98.9892 47.6881C99.086 47.8468 99.2478 47.9327 99.4529 47.9327L99.792 47.8298C99.9647 47.7191 100.052 47.4922 100.052 47.1686V42.2262L100.031 42.0094C99.9569 41.7121 99.7618 41.5658 99.4777 41.5658ZM103.752 41.5844L103.322 41.5441L102.89 41.5844C102.434 41.6517 102.049 41.8042 101.749 42.0365L101.211 42.6125C101.211 42.6179 101.123 42.95 101.123 42.95C101.123 43.2404 101.271 43.4432 101.548 43.5237L101.774 43.5291C101.81 43.5291 102.171 43.3147 102.171 43.3147L102.245 43.2233L102.663 42.8045L103.099 42.6659C103.073 42.6659 103.242 42.6597 103.242 42.6597L103.407 42.6458C104.052 42.6458 104.353 42.9562 104.353 43.6089V43.9456L104.221 43.9998H103.285C102.535 43.9998 101.942 44.1655 101.516 44.4891C101.079 44.8251 100.86 45.2904 100.86 45.8757L100.942 46.4835C101.037 46.8922 101.248 47.2174 101.569 47.4806C101.881 47.7307 102.283 47.884 102.756 47.9327H103.055C103.49 47.9327 103.878 47.8468 104.208 47.6695L104.306 47.6022L104.407 47.5294C104.481 47.7764 104.64 47.9327 104.921 47.9327C105.132 47.9327 105.486 47.8352 105.486 47.1624V43.382C105.486 42.892 105.339 42.4863 105.053 42.1844C104.769 41.8708 104.327 41.6695 103.752 41.5844ZM104.353 45.6264C104.353 46.3309 104.04 46.7095 103.37 46.8218C103.355 46.828 103.174 46.8411 103.174 46.8411L102.969 46.828H102.968C102.349 46.7498 102.062 46.4695 102.062 45.9392C102.062 45.6264 102.151 45.4104 102.331 45.2718C102.52 45.1201 102.85 45.0458 103.312 45.0458H104.354C104.354 45.0589 104.353 45.6264 104.353 45.6264ZM110.309 45.4437L110 45.542L109.793 45.8169L109.725 45.9733C109.731 45.9733 109.422 46.5237 109.422 46.5237L108.989 46.756C108.985 46.756 108.701 46.8009 108.701 46.8009L108.557 46.7893C108.144 46.7498 107.878 46.5632 107.718 46.2388C107.551 45.8811 107.465 45.2176 107.465 44.2816C107.465 43.7552 107.556 43.3487 107.734 43.0956C107.909 42.8502 108.166 42.7124 108.514 42.6659C108.53 42.6659 108.658 42.6597 108.658 42.6597C108.951 42.6597 109.215 42.7712 109.456 43.0096L109.747 43.3549C109.761 43.3673 110.006 43.5175 110.006 43.5175L110.193 43.5415C110.446 43.5415 110.63 43.406 110.71 43.1745C110.715 43.156 110.74 42.9973 110.74 42.9973C110.74 42.7836 110.649 42.5653 110.468 42.3493C110.272 42.1155 109.997 41.9142 109.648 41.7709L109.113 41.5844L108.588 41.5371C107.936 41.5371 107.386 41.7709 106.942 42.2385C106.51 42.7038 106.291 43.3278 106.291 44.0982V44.8073C106.291 45.8757 106.492 46.6693 106.893 47.1624C107.296 47.6579 107.936 47.9142 108.777 47.9142C109.541 47.9142 110.141 47.5905 110.556 46.9534L110.802 46.4835L110.881 46.0677L110.752 45.6481C110.691 45.5536 110.559 45.4437 110.309 45.4437ZM112.26 41.5658C112.26 41.5658 111.945 41.6447 111.941 41.6447C111.749 41.7493 111.651 41.9753 111.651 42.3113V47.1531L111.677 47.4806L111.762 47.6881C111.863 47.8468 112.028 47.9327 112.226 47.9327L112.562 47.8298C112.737 47.7191 112.822 47.4922 112.822 47.1686V42.0249C112.75 41.7121 112.551 41.5658 112.26 41.5658ZM120.835 41.5906C120.82 41.5844 120.648 41.5658 120.648 41.5658C120.444 41.5658 120.169 41.6633 120.034 42.134C120.034 42.134 119.153 45.2904 118.915 46.1529C118.674 45.2904 117.78 42.134 117.78 42.134C117.661 41.6633 117.386 41.5658 117.177 41.5658L117.009 41.5844C116.737 41.6757 116.597 41.8778 116.597 42.1534L116.621 42.3601L116.654 42.508L118.04 47.1376C118.215 47.7036 118.503 47.9877 118.89 47.9877L119.215 47.9273C119.218 47.9204 119.545 47.6765 119.545 47.6765L119.78 47.1376L121.171 42.5142L121.235 42.1844C121.235 41.8894 121.095 41.6912 120.835 41.5906ZM125.535 45.6876C125.548 45.6876 125.261 45.8215 125.261 45.8215L125.016 46.1459C124.75 46.581 124.411 46.8009 123.973 46.8009L123.645 46.7676C123.373 46.7157 123.154 46.581 122.979 46.3859C122.805 46.1869 122.725 45.933 122.725 45.621V45.1766C122.903 45.1766 125.686 45.1712 125.686 45.1712C125.9 45.1495 126.026 45.0922 126.089 44.9916L126.168 44.4961V44.2971C126.168 43.4006 125.973 42.7124 125.58 42.2548C125.189 41.7918 124.627 41.5441 123.914 41.5441C123.129 41.5441 122.526 41.8104 122.117 42.333C121.719 42.8502 121.52 43.6453 121.52 44.7067C121.52 46.828 122.296 47.9142 123.827 47.9142L124.107 47.8971L124.347 47.8685C124.856 47.7887 125.278 47.5844 125.618 47.2414C125.615 47.2414 125.985 46.7838 125.985 46.7838L126.168 46.3108C126.214 46.0793 126.119 45.9144 126.03 45.8215C125.9 45.6876 125.732 45.6427 125.535 45.6876ZM122.725 43.9998C122.725 43.9898 122.74 43.8171 122.74 43.8171L122.772 43.6089C122.882 43.1018 123.141 42.7983 123.56 42.6853C123.566 42.6853 123.93 42.6295 123.93 42.6295C124.208 42.6295 124.434 42.7186 124.615 42.892C124.796 43.0646 124.921 43.3216 124.976 43.6576L124.997 43.8535C124.997 43.8318 124.982 44.0773 124.979 44.116C124.967 44.0982 124.887 44.0982 124.887 44.0982H122.725V43.9998ZM133.847 41.5906C133.833 41.5844 133.661 41.5658 133.661 41.5658C133.452 41.5658 133.178 41.6633 133.044 42.134C133.044 42.134 132.163 45.2904 131.92 46.1529C131.683 45.2904 130.793 42.134 130.793 42.134C130.671 41.6633 130.395 41.5658 130.184 41.5658L130.016 41.5844C129.747 41.6757 129.606 41.8778 129.606 42.1534L129.63 42.3601L129.668 42.508L131.049 47.1376C131.224 47.7036 131.508 47.9877 131.902 47.9877L132.224 47.9273C132.227 47.9204 132.557 47.6765 132.557 47.6765L132.786 47.1314L134.182 42.5142L134.242 42.1844C134.242 41.8894 134.107 41.6912 133.847 41.5906ZM138.392 41.7655H135.248L135.006 41.7833C135.003 41.7833 134.74 41.8894 134.74 41.8894C134.643 41.9382 134.527 42.0558 134.527 42.3113L134.61 42.5931C134.729 42.7712 134.952 42.8625 135.269 42.8625H137.224C136.909 43.3077 134.643 46.5446 134.643 46.5446L134.398 46.9232C134.388 46.9356 134.316 47.2112 134.316 47.2112C134.316 47.5046 134.478 47.709 134.774 47.7764C134.774 47.7709 135.218 47.8104 135.218 47.8104H138.101L138.566 47.7307C138.756 47.6207 138.853 47.4651 138.853 47.2538L138.765 46.9487L138.484 46.7273L137.998 46.6762H135.962C136.279 46.2233 138.615 42.9361 138.615 42.9361C138.615 42.9299 138.786 42.6659 138.786 42.6659C138.786 42.6597 138.866 42.4917 138.866 42.4917C138.872 42.4646 138.897 42.2997 138.897 42.2997L138.762 41.9296L138.392 41.7655ZM143.419 39.5846C143.419 39.5846 143.107 39.6767 143.096 39.6822C142.926 39.7944 142.842 40.012 142.842 40.3186V41.9877C142.707 41.8964 142.557 41.7918 142.557 41.7918L142.034 41.6269L141.606 41.5844L140.982 41.6695C140.413 41.822 139.988 42.1038 139.716 42.508C139.422 42.9361 139.272 43.5593 139.272 44.3544C139.272 45.4894 139.408 46.3054 139.674 46.8512C139.952 47.4071 140.422 47.7493 141.082 47.884L141.63 47.9327C141.976 47.9327 142.282 47.8685 142.542 47.7431C142.685 47.6695 142.767 47.5449 142.875 47.4434C142.955 47.8468 143.224 47.9327 143.404 47.9327C143.618 47.9327 143.979 47.8406 143.979 47.1988V40.2814L143.945 39.9942C143.915 39.8355 143.807 39.5846 143.419 39.5846ZM142.842 45.1766C142.842 45.7743 142.74 46.2055 142.542 46.4649C142.358 46.7095 142.068 46.828 141.668 46.828C141.254 46.828 140.964 46.6909 140.78 46.4161C140.563 46.0987 140.45 45.5536 140.45 44.8073V44.4396C140.45 43.8318 140.559 43.3751 140.769 43.0886C140.964 42.8161 141.245 42.6907 141.615 42.6907L141.878 42.7124C142.233 42.765 142.477 42.892 142.614 43.1095C142.764 43.3333 142.842 43.7366 142.842 44.3087V45.1766ZM148.795 45.6876C148.811 45.6876 148.52 45.8215 148.52 45.8215L148.282 46.1459C148.015 46.581 147.671 46.8009 147.232 46.8009L146.905 46.7676C146.634 46.7157 146.416 46.581 146.238 46.3859C146.071 46.1869 145.985 45.933 145.985 45.621V45.1766C146.162 45.1766 148.945 45.1712 148.945 45.1712C149.162 45.1495 149.29 45.0922 149.355 44.9916L149.432 44.4961V44.2971C149.432 43.4006 149.236 42.7124 148.847 42.2548C148.45 41.7918 147.89 41.5441 147.181 41.5441C146.391 41.5441 145.786 41.8104 145.383 42.333C144.985 42.8502 144.783 43.6453 144.783 44.7067C144.783 46.828 145.56 47.9142 147.092 47.9142L147.37 47.8971L147.609 47.8685C148.12 47.7887 148.539 47.5844 148.877 47.2414L149.248 46.7838L149.432 46.3108C149.475 46.0793 149.383 45.9144 149.294 45.8215C149.165 45.6876 148.994 45.6427 148.795 45.6876ZM145.988 43.9998C145.988 43.9898 146.007 43.8171 146.007 43.8171L146.037 43.6089C146.144 43.1018 146.404 42.7983 146.826 42.6853C146.832 42.6853 147.197 42.6295 147.197 42.6295C147.475 42.6295 147.701 42.7186 147.878 42.892C148.061 43.0646 148.181 43.3216 148.242 43.6576L148.26 43.8535C148.26 43.8318 148.249 44.0773 148.246 44.116C148.229 44.0982 148.15 44.0982 148.15 44.0982H145.985C145.985 44.0912 145.988 43.9998 145.988 43.9998ZM150.853 39.5684C150.633 39.5684 150.262 39.6698 150.262 40.3186V47.2174C150.262 47.8406 150.649 47.9327 150.878 47.9327C151.111 47.9327 151.239 47.8298 151.303 47.7369L151.437 47.2414V40.0553C151.389 39.7302 151.178 39.5684 150.853 39.5684ZM155.117 41.5844L154.682 41.5441L154.255 41.5844C153.8 41.6517 153.416 41.8042 153.118 42.0365L152.58 42.6125C152.58 42.6179 152.483 42.95 152.483 42.95C152.483 43.2404 152.64 43.4432 152.915 43.5237L153.138 43.5291C153.178 43.5291 153.537 43.3147 153.537 43.3147L153.612 43.2233C153.609 43.2233 154.025 42.8045 154.025 42.8045L154.459 42.6659C154.444 42.6659 154.606 42.6597 154.606 42.6597L154.771 42.6458C155.41 42.6458 155.713 42.95 155.713 43.598V43.9325L155.584 43.9844H154.651C153.897 43.9844 153.303 44.1493 152.881 44.4829C152.45 44.8135 152.227 45.278 152.227 45.8656L152.306 46.4835C152.401 46.886 152.611 47.2174 152.93 47.4806C153.242 47.7307 153.643 47.884 154.123 47.9327H154.417C154.853 47.9327 155.245 47.8468 155.575 47.6695L155.67 47.6022L155.769 47.5294C155.841 47.7764 156.004 47.9327 156.283 47.9327C156.495 47.9327 156.853 47.8352 156.853 47.1624V43.382C156.853 42.892 156.705 42.4863 156.413 42.1844C156.129 41.8708 155.692 41.6695 155.117 41.5844ZM155.713 45.621C155.713 46.3247 155.404 46.7095 154.74 46.8218C154.719 46.828 154.539 46.8411 154.539 46.8411L154.334 46.828H154.33C153.713 46.7498 153.428 46.4695 153.428 45.933C153.428 45.621 153.514 45.4027 153.694 45.2571C153.881 45.1124 154.214 45.0396 154.679 45.0396H155.716C155.716 45.0458 155.713 45.621 155.713 45.621ZM161.658 41.5906C161.643 41.5844 161.475 41.5658 161.475 41.5658C161.267 41.5658 160.988 41.6633 160.853 42.134C160.853 42.134 159.975 45.2904 159.735 46.1529C159.493 45.2904 158.607 42.134 158.607 42.134C158.481 41.6633 158.206 41.5658 157.997 41.5658L157.829 41.5844C157.557 41.6757 157.419 41.8778 157.419 42.1534L157.441 42.3601L157.474 42.508L158.859 47.1376C159.037 47.7036 159.322 47.9877 159.713 47.9877L160.037 47.9273C160.037 47.9204 160.367 47.6765 160.367 47.6765L160.604 47.1376L161.991 42.5142C161.994 42.5142 162.056 42.1844 162.056 42.1844C162.056 41.8894 161.918 41.6912 161.658 41.5906ZM165.224 41.5844C165.218 41.5844 164.789 41.5441 164.789 41.5441L164.354 41.5844C163.899 41.6517 163.517 41.8042 163.22 42.0365L162.682 42.6125C162.679 42.6125 162.588 42.95 162.588 42.95C162.588 43.2404 162.738 43.4432 163.019 43.5237L163.246 43.5291C163.279 43.5291 163.637 43.3147 163.637 43.3147L163.713 43.2233C163.709 43.2233 164.129 42.8045 164.129 42.8045L164.567 42.6659C164.545 42.6659 164.71 42.6597 164.71 42.6597L164.878 42.6458C165.52 42.6458 165.82 42.95 165.82 43.598V43.9325L165.688 43.9844H164.752C164.004 43.9844 163.407 44.1493 162.982 44.4829C162.55 44.8135 162.327 45.278 162.327 45.8656L162.411 46.4835C162.505 46.886 162.713 47.2174 163.031 47.4806C163.346 47.7307 163.747 47.884 164.224 47.9327H164.523C164.961 47.9327 165.346 47.8468 165.679 47.6695L165.774 47.6022L165.873 47.5294C165.948 47.7764 166.11 47.9327 166.389 47.9327C166.6 47.9327 166.955 47.8352 166.955 47.1624V43.382C166.955 42.892 166.808 42.4863 166.521 42.1844C166.233 41.8708 165.795 41.6695 165.224 41.5844ZM165.82 45.621C165.82 46.3247 165.508 46.7095 164.841 46.8218C164.82 46.828 164.64 46.8411 164.64 46.8411L164.437 46.828C163.817 46.7498 163.529 46.4695 163.529 45.933C163.529 45.621 163.618 45.4027 163.799 45.2571C163.985 45.1124 164.32 45.0396 164.78 45.0396H165.823C165.823 45.0458 165.82 45.621 165.82 45.621ZM170.535 41.5441L169.997 41.6014H169.994L169.462 41.7833C169.462 41.7833 169.233 41.9142 169.16 41.9567C169.15 41.9142 169.135 41.8708 169.135 41.8708C169.028 41.6579 168.86 41.5441 168.643 41.5441L168.306 41.6517C168.181 41.7307 168.026 41.8964 168.026 42.2385V47.2902L168.121 47.6695C168.233 47.8468 168.395 47.9327 168.596 47.9327L168.856 47.8747C169.006 47.8104 169.199 47.6517 169.199 47.2414V43.7552C169.199 43.1436 169.493 42.8045 170.117 42.6791C170.083 42.6853 170.254 42.6597 170.254 42.6597C170.347 42.6597 170.556 42.6791 170.556 42.6791C170.858 42.7302 171.071 42.8324 171.19 42.9973C171.31 43.156 171.373 43.4192 171.373 43.7738V47.2174L171.432 47.6207C171.493 47.7616 171.639 47.9327 171.948 47.9327L172.285 47.8298C172.459 47.7191 172.548 47.5046 172.548 47.1872V43.598C172.548 42.9973 172.364 42.508 171.998 42.1232C171.628 41.7431 171.135 41.5441 170.535 41.5441ZM174.289 41.5658L173.973 41.6447C173.774 41.7493 173.673 41.9753 173.673 42.3113V47.1531L173.702 47.4806L173.786 47.6881C173.887 47.8468 174.05 47.9327 174.255 47.9327L174.591 47.8298C174.765 47.7191 174.854 47.4922 174.854 47.1686V42.0249C174.777 41.7121 174.579 41.5658 174.289 41.5658Z" fill="#6F8F9D"/>
<path fill-rule="evenodd" clip-rule="evenodd" d="M13.3818 39.5765L13.3547 39.5912L13.3818 39.585L12.6169 40.3066L12.4977 40.4475C12.4853 40.4715 12.418 40.7045 12.418 40.7045C12.418 40.9368 12.5411 41.1086 12.7602 41.1868C12.7671 41.1868 12.922 41.2209 12.922 41.2209L13.3416 41.0529L14.1274 40.3011C14.1336 40.295 14.3024 39.9148 14.3024 39.9148C14.3024 39.7693 14.2435 39.5703 13.9865 39.4387C13.9811 39.4317 13.7984 39.3984 13.7984 39.3984L13.3818 39.5765Z" fill="#6F8F9D"/>
<path fill-rule="evenodd" clip-rule="evenodd" d="M148.052 39.4379C148.046 39.4325 147.857 39.3984 147.857 39.3984L147.45 39.5765L147.423 39.5912L147.444 39.5858L147.001 40.0077L146.557 39.5858L146.581 39.5912L146.557 39.5765L146.141 39.3984C146.141 39.3984 145.952 39.4325 145.948 39.4379C145.695 39.5695 145.636 39.7693 145.636 39.9148C145.636 39.9148 145.799 40.2957 145.805 40.3011L146.593 41.0529L146.697 41.0962C146.738 41.1295 146.768 41.1698 146.826 41.1876C146.832 41.1876 146.991 41.2209 146.991 41.2209H147.006C147.006 41.2209 147.168 41.1876 147.171 41.1876C147.227 41.1698 147.258 41.1295 147.303 41.0962L147.408 41.0529L148.193 40.3011C148.202 40.2957 148.361 39.9148 148.361 39.9148C148.361 39.7693 148.312 39.5695 148.052 39.4379Z" fill="#6F8F9D"/>
<path fill-rule="evenodd" clip-rule="evenodd" d="M21.0395 39.5765L21.0147 39.5912L21.0395 39.585L20.2754 40.3066L20.1554 40.4475C20.1399 40.4715 20.0764 40.7045 20.0764 40.7045C20.0764 40.9368 20.198 41.1086 20.4186 41.1868C20.424 41.1868 20.5804 41.2209 20.5804 41.2209L20.9993 41.0529L21.7858 40.3011C21.7944 40.295 21.9562 39.9148 21.9562 39.9148C21.9562 39.7693 21.9051 39.5703 21.6449 39.4387C21.6387 39.4317 21.4514 39.3984 21.4514 39.3984L21.0395 39.5765Z" fill="#6F8F9D"/>
<path fill-rule="evenodd" clip-rule="evenodd" d="M99.2144 39.2965L99.1958 39.312L99.2144 39.3027C99.0735 39.3763 98.9109 39.535 98.9109 39.8687V40.3417C98.9109 40.9285 99.3057 40.9928 99.4776 40.9928L99.908 40.807L100.082 40.3672V39.6821C100.009 39.3693 99.8097 39.2168 99.5194 39.2168L99.2144 39.2965Z" fill="#6F8F9D"/>
<path fill-rule="evenodd" clip-rule="evenodd" d="M112.593 39.585L112.569 39.5904L112.593 39.585L111.839 40.3182L111.719 40.4599C111.715 40.466 111.628 40.7099 111.628 40.7099C111.628 40.9491 111.749 41.1133 111.97 41.2L112.133 41.2333L112.551 41.0614L113.34 40.3004C113.343 40.3004 113.508 39.9148 113.508 39.9148C113.508 39.7677 113.455 39.5688 113.198 39.4371C113.195 39.4317 113.006 39.3984 113.006 39.3984L112.593 39.585Z" fill="#6F8F9D"/>
<path fill-rule="evenodd" clip-rule="evenodd" d="M155.022 39.5765L154.997 39.5912L155.022 39.585L154.26 40.3066L154.141 40.4537C154.129 40.4715 154.059 40.7045 154.059 40.7045C154.059 40.9368 154.184 41.1086 154.401 41.1868C154.407 41.1868 154.566 41.2209 154.566 41.2209L154.985 41.0529L155.769 40.3011C155.774 40.295 155.945 39.9148 155.945 39.9148C155.945 39.7693 155.885 39.5703 155.628 39.4387C155.628 39.4317 155.435 39.3984 155.435 39.3984L155.022 39.5765Z" fill="#6F8F9D"/>
<path fill-rule="evenodd" clip-rule="evenodd" d="M165.125 39.5765L165.101 39.5912L165.125 39.585L164.364 40.3066L164.245 40.4537C164.23 40.4715 164.16 40.7045 164.16 40.7045C164.16 40.9368 164.288 41.1086 164.505 41.1868C164.511 41.1868 164.67 41.2209 164.67 41.2209L165.083 41.0529L165.875 40.3011C165.878 40.295 166.046 39.9148 166.046 39.9148C166.046 39.7693 165.989 39.5703 165.732 39.4387C165.728 39.4317 165.543 39.3984 165.543 39.3984L165.125 39.5765Z" fill="#6F8F9D"/>
<path fill-rule="evenodd" clip-rule="evenodd" d="M175.224 39.4379C175.224 39.4325 175.031 39.3984 175.031 39.3984L174.618 39.5858L174.594 39.5912L174.618 39.5858L173.866 40.3197L173.744 40.4606C173.738 40.466 173.652 40.7107 173.652 40.7107C173.652 40.9499 173.774 41.1133 173.995 41.2C174 41.2 174.157 41.2341 174.157 41.2341L174.576 41.0622L175.365 40.3011C175.371 40.3011 175.536 39.9148 175.536 39.9148C175.536 39.7693 175.478 39.5695 175.224 39.4379Z" fill="#6F8F9D"/>
</g>
<defs>
<clipPath id="clip0">
<rect width="177.29" height="48" fill="white"/>
</clipPath>
</defs>
</svg>
