<svg width="74" height="48" viewBox="0 0 74 48" fill="none" xmlns="http://www.w3.org/2000/svg">
<g clip-path="url(#clip0)">
<path d="M0.700195 38.7461L4.88689 34.1673L0.854222 34.1393L0.868225 32.291L7.74337 32.333L7.72937 33.9433L3.52867 38.5221L7.71537 38.5501L7.70136 40.3984L0.700195 40.3564V38.7461Z" fill="black"/>
<path d="M8.83553 36.4215V36.3935C8.84953 34.0971 10.5018 32.2068 12.8402 32.2208C15.5286 32.2348 16.7469 34.3351 16.7469 36.6175C16.7469 36.7995 16.7328 37.0096 16.7188 37.2196L11.1039 37.1916C11.3279 38.2278 12.0421 38.7739 13.0642 38.7879C13.8344 38.7879 14.3945 38.5498 15.0246 37.9757L16.3268 39.1379C15.5707 40.0621 14.4785 40.6362 13.0222 40.6222C10.5998 40.5942 8.82153 38.8859 8.83553 36.4215ZM14.5205 35.7774C14.3945 34.7552 13.7924 34.0551 12.8262 34.0551C11.874 34.0551 11.2579 34.7272 11.0759 35.7634L14.5205 35.7774Z" fill="black"/>
<path d="M18.455 32.4013L20.7374 32.4153V33.5635C21.2695 32.8914 21.9556 32.2753 23.1178 32.2893C24.168 32.2893 24.9661 32.7654 25.3862 33.5775C26.1003 32.7514 26.9404 32.3033 28.0326 32.3173C29.7269 32.3313 30.749 33.3535 30.735 35.2998L30.707 40.5507L28.4247 40.5367L28.4527 36.0419C28.4527 34.9637 27.9766 34.4036 27.1224 34.3896C26.2683 34.3896 25.7362 34.9357 25.7362 36.0279L25.7082 40.5227L23.4258 40.5087L23.4538 36.0139C23.4538 34.9357 22.9778 34.3756 22.1236 34.3616C21.2695 34.3616 20.7374 34.9077 20.7374 35.9999L20.7094 40.4947L18.427 40.4807L18.455 32.4013Z" fill="black"/>
<path d="M32.3314 36.5484V36.5204C32.3454 34.224 33.9977 32.3337 36.3361 32.3477C39.0245 32.3617 40.2427 34.4621 40.2427 36.7445C40.2427 36.9265 40.2287 37.1365 40.2147 37.3466L34.5998 37.3186C34.8238 38.3547 35.5379 38.9008 36.5601 38.9148C37.3302 38.9148 37.8903 38.6768 38.5204 38.1027L39.8226 39.2649C39.0665 40.189 37.9743 40.7631 36.5181 40.7491C34.0957 40.7211 32.3174 39.0128 32.3314 36.5484ZM38.0163 35.9043C37.8903 34.8822 37.2882 34.182 36.3221 34.182C35.3699 34.182 34.7538 34.8542 34.5718 35.8903L38.0163 35.9043Z" fill="black"/>
<path d="M33.4238 28.832L35.1881 28.846L36.3643 29.8402L37.5545 28.86L39.2768 28.874L37.4145 31.2264L35.2441 31.2124L33.4238 28.832Z" fill="black"/>
<path d="M41.9792 30.6518C41.9792 30.0217 42.4973 29.5176 43.1274 29.5176C43.7575 29.5176 44.2616 30.0357 44.2616 30.6658L44.2336 35.6646L47.104 32.9762C47.4401 32.6681 47.7061 32.4721 48.1122 32.4721C48.7283 32.4721 49.1204 32.9762 49.1204 33.4942C49.1204 33.8863 48.9103 34.1804 48.5883 34.4884L46.782 36.0287L48.9103 38.9411C49.1064 39.2072 49.1904 39.4172 49.1904 39.6833C49.1904 40.2994 48.6863 40.7194 48.1122 40.7194C47.6641 40.7194 47.3981 40.5654 47.118 40.1874L45.1297 37.4289L44.2056 38.255L44.1916 39.5572C44.1916 40.1874 43.6735 40.6914 43.0434 40.6914C42.4133 40.6914 41.9092 40.1734 41.9092 39.5432L41.9792 30.6518Z" fill="black"/>
<path d="M54.0632 40.8197H53.9372C53.3211 40.8197 52.9011 40.4276 52.649 39.8255L50.2126 34.1126C50.1566 33.9585 50.1006 33.7625 50.1006 33.5525C50.1006 33.0064 50.6047 32.4883 51.2208 32.4883C51.8369 32.4883 52.1729 32.8383 52.327 33.3004L54.0352 37.9912L55.8135 33.3004C55.9676 32.9084 56.2896 32.5163 56.8917 32.5303C57.4938 32.5303 57.9839 33.0064 57.9839 33.6225C57.9839 33.8185 57.8999 34.0565 57.8579 34.1686L55.3655 39.8535C55.1134 40.4136 54.6793 40.8197 54.0632 40.8197Z" fill="black"/>
<path d="M62.9966 40.8738C60.5742 40.8598 58.7959 39.1515 58.8099 36.6871V36.6591C58.8239 34.3627 60.4762 32.4724 62.8146 32.4864C65.503 32.5004 66.6792 34.7128 66.6792 36.3931C66.6792 37.0512 66.2031 37.4852 65.601 37.4852L61.0783 37.4572C61.3023 38.4934 62.0164 39.0395 63.0386 39.0535C63.6687 39.0535 64.2008 38.8575 64.6629 38.5214C64.8309 38.3954 64.9849 38.3394 65.223 38.3394C65.7411 38.3394 66.1051 38.7315 66.1051 39.2495C66.1051 39.5436 65.9651 39.7816 65.7971 39.9217C65.097 40.5098 64.1728 40.8878 62.9966 40.8738ZM64.4949 36.043C64.3688 35.0208 63.7667 34.3207 62.8006 34.3207C61.8484 34.3207 61.2323 34.9928 61.0503 36.029L64.4949 36.043Z" fill="black"/>
<path d="M68.7937 38.4387L68.8077 34.616H68.7377C68.1916 34.616 67.7576 34.168 67.7716 33.6359C67.7716 33.0898 68.2196 32.6557 68.7517 32.6697H68.8217V31.6615C68.8217 31.0314 69.3398 30.5273 69.9699 30.5273C70.6 30.5273 71.1041 31.0454 71.1041 31.6755V32.6837H72.1123C72.6584 32.6837 73.0925 33.1318 73.0785 33.6639C73.0785 34.21 72.6304 34.644 72.0983 34.63H71.0901L71.0761 38.0746C71.0761 38.6067 71.3002 38.8587 71.8043 38.8587C71.8743 38.8587 72.0283 38.8447 72.0703 38.8447C72.5884 38.8447 73.0085 39.2648 73.0085 39.7969C73.0085 40.203 72.7284 40.539 72.4204 40.651C72.0003 40.8191 71.6082 40.8751 71.1041 40.8751C69.7179 40.8751 68.7797 40.315 68.7937 38.4387Z" fill="black"/>
<path d="M63.4167 29.4064C63.9208 29.0004 64.2848 28.9163 64.8029 28.9163C65.083 28.9163 65.293 29.0424 65.293 29.2804C65.293 29.4204 65.167 29.5745 65.069 29.7145L64.1168 30.9327C63.8648 31.2407 63.5707 31.4368 63.0526 31.4368H62.3245C61.7924 31.4368 61.5124 31.2407 61.2603 30.9187L60.3222 29.7005C60.2242 29.5605 60.0981 29.3924 60.0981 29.2664C60.0981 29.0284 60.3362 28.9023 60.6302 28.9023C61.1483 28.9023 61.5124 29.0004 62.0165 29.4064L62.7166 29.9945L63.4167 29.4064Z" fill="black"/>
<path d="M37.0642 5.99405C38.5258 5.99405 39.7106 4.8092 39.7106 3.34761C39.7106 1.88602 38.5258 0.701172 37.0642 0.701172C35.6026 0.701172 34.4177 1.88602 34.4177 3.34761C34.4177 4.8092 35.6026 5.99405 37.0642 5.99405Z" fill="black"/>
<path d="M40.5368 19.5765L38.4784 18.9044L36.4201 18.2323L34.3617 17.5602L32.3034 16.8881L30.245 16.216L28.8308 15.7539C28.9428 16.23 29.0689 16.7201 29.2229 17.2102L30.231 17.5462L32.2894 18.2183L34.3477 18.8904L36.4061 19.5625L38.4644 20.2347L40.5228 20.9068L42.2871 21.4809C42.5251 21.2288 42.7491 20.9768 42.9732 20.6967C43.0432 20.6127 43.0992 20.5287 43.1692 20.4447L42.5951 20.2487L40.5368 19.5765Z" fill="black"/>
<path d="M42.5952 18.9174L44.3455 18.3713C44.5555 17.8812 44.7376 17.3771 44.8916 16.873L40.5369 18.2453L42.5952 18.9174Z" fill="black"/>
<path d="M36.3921 20.8787L34.3338 20.2066L32.2754 19.5345L30.2171 18.8623L29.811 18.7363C30.0771 19.3104 30.3991 19.8705 30.7772 20.3746L32.2754 20.8647L34.3338 21.5368L36.3921 22.2089L39.9767 23.3851C40.3968 23.1331 40.8309 22.825 41.2369 22.4749L38.4505 21.5648L36.3921 20.8787Z" fill="black"/>
<path d="M32.4995 22.25C33.5917 23.2302 34.7119 23.8743 35.8321 24.1403C35.8321 24.1403 35.8321 24.1403 35.8461 24.1403C36.0281 24.1823 36.2101 24.2103 36.4062 24.2383C36.7842 24.2943 37.5264 24.2383 37.5264 24.2383C37.7224 24.2103 37.9044 24.1823 38.0865 24.1403C38.1285 24.1263 38.1845 24.1123 38.2265 24.0983L34.3338 22.8241L32.4995 22.25Z" fill="black"/>
<path d="M45.7736 10.7273V10.7133C45.7736 10.6573 45.7736 10.6152 45.7736 10.5732C45.7736 10.4472 45.7736 10.3632 45.7736 10.3352L45.7456 9.63508L45.0735 9.81711C45.0735 9.81711 45.0595 9.81711 45.0455 9.83111C44.8775 9.87312 44.0374 10.0972 42.8192 10.4332C42.5391 8.37487 41.979 6.7506 41.951 6.68059L41.727 6.05048L41.1529 6.37253C41.0549 6.42854 38.9965 7.59074 37.0642 9.34103C35.1459 7.56273 33.1016 6.37253 33.0035 6.31652L32.4294 5.98047L32.2054 6.61057C32.1774 6.69459 31.5753 8.36087 31.2813 10.4752C29.993 9.98514 29.0829 9.7331 29.0409 9.7191L28.3688 9.53706L28.3408 10.2372C28.3408 10.3772 28.2708 12.1415 28.6068 14.3399L31.5893 15.32L32.3454 15.5721L34.4038 16.2442L36.4201 16.9023L38.4784 17.5744L45.2696 15.4321C45.3396 15.082 45.4096 14.7459 45.4656 14.4239C45.4656 14.4099 45.4656 14.4099 45.4656 14.3959C45.4656 14.3679 45.4796 14.3539 45.4796 14.3259C45.4936 14.2419 45.5076 14.1718 45.5216 14.0878C45.5216 14.0738 45.5216 14.0598 45.5356 14.0318C45.6056 13.5417 45.6616 13.0797 45.6896 12.6596C45.6896 12.6316 45.6896 12.5896 45.7036 12.5616C45.7036 12.5336 45.7036 12.5056 45.7036 12.4776C45.7036 12.4496 45.7036 12.4215 45.7176 12.3935C45.7176 12.3655 45.7176 12.3515 45.7176 12.3235C45.7176 12.2955 45.7176 12.2675 45.7176 12.2395C45.7176 12.2115 45.7176 12.1975 45.7176 12.1695C45.7176 12.1275 45.7176 12.0855 45.7316 12.0575C45.7316 12.0295 45.7316 12.0155 45.7316 11.9875C45.7316 11.9595 45.7316 11.9455 45.7316 11.9175C45.7316 11.8895 45.7316 11.8755 45.7316 11.8475C45.7316 11.8194 45.7316 11.7914 45.7316 11.7774C45.7316 11.7494 45.7316 11.7074 45.7316 11.6794C45.7316 11.6654 45.7316 11.6374 45.7316 11.6234C45.7316 11.5954 45.7316 11.5814 45.7316 11.5534C45.7316 11.5394 45.7316 11.5114 45.7316 11.4974C45.7316 11.4694 45.7316 11.4414 45.7316 11.4134C45.7316 11.3854 45.7316 11.3714 45.7316 11.3434C45.7316 11.3294 45.7316 11.3014 45.7316 11.2874C45.7316 11.2734 45.7316 11.2454 45.7316 11.2313C45.7316 11.2173 45.7316 11.2033 45.7316 11.1753C45.7316 11.1473 45.7316 11.1193 45.7316 11.0913C45.7316 11.0773 45.7316 11.0633 45.7316 11.0493C45.7316 11.0353 45.7316 11.0073 45.7316 10.9933C45.7316 10.9793 45.7316 10.9653 45.7316 10.9513C45.7316 10.9233 45.7316 10.9093 45.7316 10.8813C45.7316 10.8673 45.7316 10.8673 45.7316 10.8533C45.7316 10.8253 45.7316 10.7973 45.7316 10.7693C45.7316 10.7553 45.7316 10.7553 45.7316 10.7413C45.7736 10.7693 45.7736 10.7413 45.7736 10.7273ZM41.0829 7.68875C41.2789 8.34687 41.559 9.45305 41.713 10.6993C40.8728 10.9233 39.9347 11.1753 38.9545 11.4414C38.9265 11.4134 38.9125 11.3854 38.8845 11.3434C38.8705 11.3294 38.8705 11.3154 38.8565 11.3014C38.8005 11.2313 38.7445 11.1613 38.6885 11.0913C38.6745 11.0773 38.6605 11.0493 38.6465 11.0353C38.6045 10.9793 38.5625 10.9233 38.5065 10.8673C38.4925 10.8393 38.4644 10.8253 38.4504 10.7973C38.3944 10.7273 38.3384 10.6713 38.2824 10.6012L38.2684 10.5872C38.2124 10.5172 38.1424 10.4472 38.0724 10.3772C38.0584 10.3632 38.0304 10.3352 38.0164 10.3212C37.9604 10.2652 37.9184 10.2092 37.8623 10.1532C37.8483 10.1392 37.8343 10.1252 37.8203 10.1112C39.0525 9.00498 40.3548 8.15083 41.0829 7.68875ZM35.4119 12.4075C35.3279 12.3655 35.2579 12.3235 35.1739 12.2675C35.0619 12.1975 34.9359 12.1415 34.8238 12.0715C34.7818 12.0575 34.7398 12.0295 34.7118 12.0155C34.6278 11.9735 34.5438 11.9315 34.4598 11.8895C34.4178 11.8615 34.3618 11.8475 34.3198 11.8194C34.2497 11.7774 34.1657 11.7354 34.0957 11.7074C34.0397 11.6794 33.9977 11.6514 33.9417 11.6374C33.8717 11.5954 33.7877 11.5674 33.7177 11.5254C33.6617 11.4974 33.6056 11.4694 33.5636 11.4554C33.4936 11.4134 33.4096 11.3854 33.3256 11.3434C33.2696 11.3154 33.2136 11.2874 33.1576 11.2734C33.0736 11.2313 32.9895 11.2033 32.9195 11.1613C32.8635 11.1333 32.8215 11.1193 32.7655 11.0913C32.6815 11.0493 32.5835 11.0073 32.4995 10.9793C32.4575 10.9653 32.4154 10.9373 32.3594 10.9233C32.3454 10.9233 32.3454 10.9233 32.3314 10.9093C32.4995 9.56507 32.8215 8.36087 33.0315 7.66075C33.8437 8.17884 35.3279 9.21501 36.6581 10.5172C36.7422 10.6012 36.8122 10.6713 36.8962 10.7553C36.9102 10.7693 36.9242 10.7833 36.9382 10.8113C37.0082 10.8813 37.0782 10.9653 37.1622 11.0353C37.1762 11.0493 37.1902 11.0633 37.2042 11.0773C37.2742 11.1473 37.3303 11.2173 37.4003 11.2874C37.4143 11.3014 37.4143 11.3154 37.4283 11.3154C37.4983 11.3854 37.5543 11.4694 37.6243 11.5394C37.6383 11.5534 37.6523 11.5674 37.6663 11.5954C37.7223 11.6514 37.7643 11.7214 37.8203 11.7774C36.9942 11.9735 36.1961 12.1835 35.4119 12.4075Z" fill="black"/>
<path d="M0.770192 44.6693C0.770192 44.5993 0.812199 44.5573 0.882211 44.5573C0.952222 44.5573 0.99423 44.5993 0.99423 44.6693V45.0054C1.14826 44.7393 1.4003 44.5293 1.82037 44.5293C2.39446 44.5293 2.73052 44.9354 2.73052 45.4815L2.71652 46.7977C2.71652 46.8677 2.67451 46.9097 2.6045 46.9097C2.53449 46.9097 2.49248 46.8677 2.49248 46.7977V45.5235C2.49248 45.0474 2.22644 44.7393 1.76436 44.7393C1.31628 44.7393 0.966226 45.0754 0.966226 45.5515V46.7837C0.966226 46.8537 0.924218 46.8957 0.854207 46.8957C0.784195 46.8957 0.742188 46.8537 0.742188 46.7837L0.770192 44.6693Z" fill="black"/>
<path d="M7.33716 46.2402C7.33716 45.7501 7.75723 45.484 8.34533 45.484C8.66739 45.484 8.89143 45.526 9.10146 45.5821V45.484C9.10146 45.022 8.82141 44.7839 8.34533 44.7839C8.09329 44.7839 7.88325 44.8399 7.68722 44.9379C7.67322 44.952 7.64521 44.9519 7.63121 44.9519C7.5752 44.9519 7.5332 44.8959 7.5332 44.8539C7.5332 44.7979 7.5752 44.7699 7.60321 44.7559C7.84125 44.6579 8.06529 44.5879 8.35934 44.5879C8.66739 44.5879 8.91943 44.6719 9.08746 44.8399C9.24149 44.994 9.3255 45.204 9.3115 45.484L9.29749 46.8283C9.29749 46.8983 9.25549 46.9403 9.18548 46.9403C9.11547 46.9403 9.07346 46.8983 9.07346 46.8283V46.5342C8.91943 46.7582 8.62538 46.9683 8.19131 46.9683C7.78524 46.9683 7.33716 46.7162 7.33716 46.2402ZM9.10146 46.0581V45.7921C8.90543 45.7361 8.65338 45.6801 8.31733 45.6801C7.82724 45.6801 7.5612 45.8901 7.5612 46.2122V46.2262C7.5612 46.5622 7.86925 46.7582 8.21931 46.7582C8.7094 46.7582 9.10146 46.4782 9.10146 46.0581Z" fill="black"/>
<path d="M16.2568 46.855C16.2568 46.925 16.2147 46.967 16.1447 46.967C16.0747 46.967 16.0327 46.925 16.0327 46.855V46.4349C15.8367 46.7289 15.5426 46.995 15.0806 46.995C14.5205 46.995 13.9604 46.5469 13.9744 45.7908V45.7768C13.9744 45.0347 14.5485 44.5726 15.0946 44.5866C15.5566 44.5866 15.8507 44.8526 16.0327 45.1467L16.0467 43.7605C16.0467 43.6904 16.0887 43.6484 16.1587 43.6484C16.2287 43.6484 16.2708 43.6904 16.2708 43.7605L16.2568 46.855ZM14.2124 45.7908C14.2124 46.4069 14.6325 46.799 15.1086 46.799C15.5846 46.799 16.0467 46.4069 16.0467 45.8188V45.8048C16.0467 45.2167 15.5986 44.8106 15.1086 44.8106C14.6185 44.8106 14.2124 45.1747 14.2124 45.7908Z" fill="black"/>
<path d="M20.9055 46.3085C20.9055 45.8184 21.3256 45.5524 21.9137 45.5524C22.2357 45.5524 22.4598 45.5944 22.6698 45.6504V45.5524C22.6698 45.0903 22.3897 44.8523 21.9137 44.8523C21.6616 44.8523 21.4516 44.9083 21.2556 45.0063C21.2416 45.0203 21.2136 45.0203 21.1996 45.0203C21.1436 45.0203 21.1015 44.9643 21.1015 44.9223C21.1015 44.8663 21.1436 44.8383 21.1716 44.8243C21.4096 44.7263 21.6336 44.6562 21.9277 44.6562C22.2357 44.6562 22.4878 44.7403 22.6558 44.9083C22.8098 45.0623 22.8938 45.2724 22.8798 45.5524L22.8658 46.8966C22.8658 46.9666 22.8238 47.0086 22.7538 47.0086C22.6838 47.0086 22.6418 46.9666 22.6418 46.8966V46.6026C22.4878 46.8266 22.1937 47.0366 21.7596 47.0366C21.3676 47.0366 20.9055 46.7846 20.9055 46.3085ZM22.6838 46.1265V45.8604C22.4878 45.8044 22.2357 45.7484 21.8997 45.7484C21.4096 45.7484 21.1436 45.9585 21.1436 46.2805V46.2945C21.1436 46.6306 21.4516 46.8266 21.8017 46.8266C22.2777 46.8406 22.6838 46.5466 22.6838 46.1265Z" fill="black"/>
<path d="M27.5428 45.8754C27.5428 45.2173 28.0609 44.6712 28.719 44.6712C29.111 44.6712 29.3771 44.8392 29.5871 45.0353C29.6011 45.0493 29.6151 45.0913 29.6151 45.1193C29.6151 45.1893 29.5591 45.2313 29.5031 45.2313C29.4751 45.2313 29.4471 45.2173 29.4331 45.2033C29.2511 45.0213 29.041 44.8812 28.719 44.8812C28.2009 44.8812 27.7948 45.3153 27.7808 45.8614V45.8754C27.7808 46.4355 28.2009 46.8696 28.719 46.8696C29.013 46.8696 29.2511 46.7296 29.4471 46.5475C29.4611 46.5335 29.4891 46.5055 29.5171 46.5055C29.5731 46.5055 29.6291 46.5615 29.6291 46.6175C29.6291 46.6455 29.6151 46.6735 29.6011 46.6875C29.3771 46.9256 29.097 47.0796 28.705 47.0796C28.0328 47.0796 27.5288 46.5195 27.5428 45.8754ZM28.985 43.8451C29.041 43.7891 29.069 43.7891 29.125 43.7891C29.167 43.7891 29.181 43.8171 29.181 43.8311C29.181 43.8451 29.181 43.8591 29.153 43.8871L28.831 44.2791C28.789 44.3352 28.761 44.3632 28.705 44.3632H28.663C28.6069 44.3632 28.5789 44.3352 28.5369 44.2791L28.2149 43.8871C28.2009 43.8591 28.1869 43.8451 28.1869 43.8311C28.1869 43.8031 28.2149 43.7891 28.2569 43.7891C28.3129 43.7891 28.3549 43.8031 28.4109 43.8451L28.691 44.1111L28.985 43.8451Z" fill="black"/>
<path d="M34.2778 44.8529C34.2778 44.7829 34.3198 44.7409 34.3898 44.7409C34.4598 44.7409 34.5018 44.7829 34.5018 44.8529V45.189C34.6558 44.9229 34.9079 44.7129 35.3279 44.7129C35.902 44.7129 36.2381 45.119 36.2381 45.665L36.2241 46.9813C36.2241 47.0513 36.1821 47.0933 36.1121 47.0933C36.0421 47.0933 36 47.0513 36 46.9813V45.7071C36 45.231 35.734 44.9229 35.2719 44.9229C34.8238 44.9229 34.4738 45.259 34.4738 45.7351V46.9673C34.4738 47.0373 34.4318 47.0793 34.3618 47.0793C34.2918 47.0793 34.2498 47.0373 34.2498 46.9673L34.2778 44.8529Z" fill="black"/>
<path d="M41.0828 44.8943C41.0828 44.8242 41.1249 44.7822 41.1949 44.7822C41.2649 44.7822 41.3069 44.8242 41.3069 44.8943L41.2929 47.0086C41.2929 47.0786 41.2509 47.1206 41.1809 47.1206C41.1109 47.1206 41.0688 47.0786 41.0688 47.0086L41.0828 44.8943ZM41.1249 44.3902C41.1249 44.3762 41.1389 44.3482 41.1389 44.3342L41.4189 43.9141C41.4609 43.8581 41.4889 43.8301 41.5449 43.8301C41.6289 43.8301 41.727 43.8861 41.727 43.9281C41.727 43.9561 41.699 43.9841 41.671 44.0121L41.3069 44.3622C41.2509 44.4182 41.2229 44.4182 41.1669 44.4182C41.1529 44.4182 41.1249 44.4042 41.1249 44.3902Z" fill="black"/>
<path d="M51.6689 45.048H51.4169C51.3608 45.048 51.3188 45.0059 51.3188 44.9499C51.3188 44.8939 51.3749 44.8519 51.4169 44.8519H51.6689V44.6279C51.6689 44.3618 51.7389 44.1658 51.8789 44.0258C51.991 43.9138 52.159 43.8438 52.355 43.8438C52.467 43.8438 52.5511 43.8578 52.6351 43.8718C52.6911 43.8858 52.7191 43.9278 52.7191 43.9698C52.7191 44.0398 52.6631 44.0818 52.5931 44.0678C52.523 44.0538 52.439 44.0398 52.355 44.0398C52.033 44.0398 51.8929 44.2218 51.8929 44.6139V44.8379H52.6071C52.6631 44.8379 52.7051 44.8799 52.7051 44.9359C52.7051 44.9919 52.6491 45.0339 52.6071 45.0339H51.8929L51.8789 47.0363C51.8789 47.1063 51.8369 47.1483 51.7669 47.1483C51.6969 47.1483 51.6549 47.0923 51.6549 47.0363L51.6689 45.048Z" fill="black"/>
<path d="M56.9614 46.0421C56.9614 45.384 57.4655 44.8379 58.1516 44.8379C58.8378 44.8379 59.3278 45.398 59.3138 46.0421V46.0561C59.3138 46.7002 58.8097 47.2603 58.1236 47.2463C57.4515 47.2323 56.9614 46.6862 56.9614 46.0421ZM59.0898 46.0421C59.0898 45.482 58.6837 45.0339 58.1516 45.0339C57.6055 45.0339 57.2135 45.468 57.2135 46.0141V46.0281C57.2135 46.5882 57.6195 47.0223 58.1516 47.0223C58.6837 47.0363 59.0898 46.5882 59.0898 46.0421Z" fill="black"/>
<path d="M64.0187 45.0072C64.0187 44.9372 64.0607 44.8952 64.1307 44.8952C64.2008 44.8952 64.2428 44.9372 64.2428 45.0072V45.3433C64.3968 45.0772 64.6488 44.8672 65.0689 44.8672C65.643 44.8672 65.979 45.2733 65.979 45.8193L65.9651 47.1356C65.9651 47.2056 65.923 47.2476 65.853 47.2476C65.783 47.2476 65.741 47.2056 65.741 47.1356V45.8613C65.741 45.3853 65.475 45.0772 65.0129 45.0772C64.5648 45.0772 64.2148 45.4133 64.2148 45.8894V47.1216C64.2148 47.1916 64.1728 47.2336 64.1027 47.2336C64.0327 47.2336 63.9907 47.1916 63.9907 47.1216L64.0187 45.0072Z" fill="black"/>
<path d="M72.9103 47.1636C72.9103 47.2336 72.8683 47.2756 72.7983 47.2756C72.7283 47.2756 72.6863 47.2336 72.6863 47.1636V46.7435C72.4903 47.0375 72.1962 47.3036 71.7341 47.3036C71.174 47.3036 70.6139 46.8555 70.6279 46.0994V46.0854C70.6279 45.3433 71.202 44.8812 71.7481 44.8952C72.2102 44.8952 72.5043 45.1612 72.6863 45.4553L72.7003 44.069C72.7003 43.999 72.7423 43.957 72.8123 43.957C72.8823 43.957 72.9243 43.999 72.9243 44.069L72.9103 47.1636ZM70.866 46.0994C70.866 46.7155 71.2861 47.1076 71.7621 47.1076C72.2382 47.1076 72.7003 46.7155 72.7003 46.1274V46.1134C72.7003 45.5253 72.2522 45.1192 71.7621 45.1192C71.2721 45.1192 70.88 45.4833 70.866 46.0994Z" fill="black"/>
</g>
<defs>
<clipPath id="clip0">
<rect width="73.7923" height="48" fill="white"/>
</clipPath>
</defs>
</svg>
