<svg width="360" height="107" viewBox="0 0 360 107" fill="none" xmlns="http://www.w3.org/2000/svg">
<g id="404" clip-path="url(#clip0)">
<g id="Group">
<path id="Vector" d="M232.188 63.8902C239.713 61.9935 252.984 59.1308 270.205 57.3758C280.324 56.3467 290.719 55.8244 301.104 55.8244C327.735 55.823 353.766 59.2101 378.475 65.89C404.048 72.8026 426.276 76.3078 444.541 76.3078C469.819 76.3078 481.103 69.6116 485.303 66.0623H499.907V56.0707H483.32L480.904 56.0143L479.437 57.8873C479.067 58.2726 474.551 62.7153 461.767 64.9783C456.762 65.8636 451.023 66.312 444.707 66.312C427.203 66.312 405.797 62.9242 381.081 56.2423C355.523 49.3344 328.612 45.832 301.1 45.832C290.375 45.832 279.64 46.3713 269.193 47.4357C253.011 49.0841 240.304 51.6368 232.188 53.5858V63.8902Z" fill="#0C0807"/>
</g>
<g id="Group_2">
<path id="Vector_2" d="M232.188 61.3133C239.899 59.3955 253.023 56.6169 269.953 54.8925C295.603 52.2801 335.365 51.6486 379.126 63.4786C456.181 84.308 479.72 67.9267 484.355 63.5641H497.409V58.5686H483.293L482.098 58.5422L481.349 59.4993C481.304 59.5529 476.753 64.8625 462.199 67.439C448.614 69.8431 423.395 70.2712 380.428 58.6554C351.267 50.7735 323.865 48.3307 301.1 48.332C289.126 48.332 278.431 49.007 269.446 49.9221C252.976 51.5991 240.168 54.2142 232.188 56.155V61.3133Z" fill="white"/>
</g>
<g id="Group_3">
<path id="Vector_3" d="M379.126 62.5461C456.181 83.3754 479.72 66.9942 484.355 62.6316H497.409V61.0706H484.355C479.72 65.4332 456.181 81.8131 379.126 60.9845C335.365 49.1544 295.603 49.786 269.953 52.3977C253.023 54.1228 239.899 56.9007 232.188 58.8198V60.3807C239.899 58.463 253.023 55.6844 269.953 53.96C295.603 51.3476 335.365 50.716 379.126 62.5461Z" fill="#CAB0FF"/>
</g>
<g id="Group_4">
<path id="Vector_4" d="M127.72 63.8902C120.197 61.9935 106.926 59.1308 89.7046 57.3758C79.5854 56.3467 69.1887 55.8244 58.8035 55.8244C32.1741 55.823 6.1424 59.2101 -18.5645 65.89C-44.139 72.8026 -66.3685 76.3078 -84.6322 76.3078C-109.911 76.3078 -121.195 69.6116 -125.395 66.0623H-140V56.0707H-123.413L-120.995 56.0143L-119.528 57.8873C-119.158 58.2726 -114.644 62.7153 -101.857 64.9783C-96.8523 65.8636 -91.1127 66.312 -84.7984 66.312C-67.2951 66.312 -45.8872 62.9242 -21.1721 56.2423C4.38678 49.3344 31.2963 45.832 58.811 45.832C69.5346 45.832 80.2691 46.3713 90.7174 47.4357C106.897 49.0841 119.605 51.6368 127.72 53.5858V63.8902Z" fill="#0C0807"/>
</g>
<g id="Group_5">
<path id="Vector_5" d="M127.722 61.3133C120.012 59.3955 106.889 56.6169 89.9592 54.8925C64.3073 52.2801 24.5447 51.6486 -19.2155 63.4786C-96.2701 84.308 -119.81 67.9267 -124.444 63.5641H-137.5V58.5686H-123.384L-122.189 58.5422L-121.438 59.4993C-121.393 59.5529 -116.843 64.8625 -102.291 67.439C-88.7036 69.8431 -63.4865 70.2712 -20.5187 58.6554C8.64172 50.7735 36.0451 48.3307 58.8125 48.332C70.7858 48.332 81.4796 49.007 90.4652 49.9221C106.934 51.5991 119.742 54.2142 127.722 56.155V61.3133Z" fill="white"/>
</g>
<g id="Group_6">
<path id="Vector_6" d="M-19.2155 62.5461C-96.2701 83.3754 -119.81 66.9942 -124.444 62.6316H-137.5V61.0706H-124.444C-119.81 65.4332 -96.2701 81.8131 -19.2155 60.9845C24.5447 49.1544 64.3073 49.786 89.9592 52.3977C106.889 54.1228 120.012 56.9007 127.722 58.8198V60.3807C120.012 58.463 106.889 55.6844 89.9592 53.96C64.3073 51.3476 24.5447 50.716 -19.2155 62.5461Z" fill="#CAB0FF"/>
</g>
<g id="Group_7">
<path id="Vector_7" d="M204.701 65.9465C204.701 64.5022 203.531 63.332 202.086 63.332H180.268C178.824 63.332 177.656 64.5022 177.656 65.9465C177.656 67.3873 178.824 68.5575 180.268 68.5575H202.086C203.531 68.5575 204.701 67.3873 204.701 65.9465Z" fill="#CAB0FF"/>
</g>
<g id="Group_8">
<path id="Vector_8" d="M180.268 64.6386H202.086C203.052 64.6386 203.884 64.1094 204.337 63.332C204.562 63.716 204.701 64.1583 204.701 64.6386C204.701 66.0794 203.531 67.2496 202.086 67.2496H180.268C178.824 67.2496 177.656 66.0794 177.656 64.6386C177.656 64.1583 177.794 63.716 178.018 63.332C178.471 64.1094 179.303 64.6386 180.268 64.6386Z" fill="#F3F4F5"/>
</g>
<g id="Group_9">
<path id="Vector_9" d="M201.938 66.0575C202.685 66.0575 203.291 65.4476 203.291 64.7021C203.291 63.9539 202.685 63.3454 201.938 63.3454H180.119C179.373 63.3454 178.765 63.9539 178.765 64.7021C178.765 65.4476 179.373 66.0575 180.119 66.0575H201.938ZM205.809 64.7021C205.809 66.8349 204.073 68.5722 201.938 68.5722H180.119C177.986 68.5722 176.25 66.8349 176.25 64.7021C176.25 62.5673 177.986 60.832 180.119 60.832H201.938C204.073 60.832 205.809 62.5673 205.809 64.7021Z" fill="#0C0807"/>
</g>
<g id="Group_10">
<path id="Vector_10" d="M204.701 40.9458C204.701 39.5036 203.531 38.332 202.086 38.332H180.268C178.824 38.332 177.656 39.5036 177.656 40.9458C177.656 42.3887 178.824 43.5575 180.268 43.5575H202.086C203.531 43.5575 204.701 42.3887 204.701 40.9458Z" fill="#CAB0FF"/>
</g>
<g id="Group_11">
<path id="Vector_11" d="M180.268 42.1386H202.086C203.052 42.1386 203.884 41.6081 204.337 40.832C204.562 41.218 204.701 41.6596 204.701 42.1386C204.701 43.5815 203.531 44.7503 202.086 44.7503H180.268C178.824 44.7503 177.656 43.5815 177.656 42.1386C177.656 41.6596 177.794 41.218 178.018 40.832C178.471 41.6081 179.303 42.1386 180.268 42.1386Z" fill="#F3F4F5"/>
</g>
<g id="Group_12">
<path id="Vector_12" d="M201.938 43.5561C202.685 43.5561 203.291 42.949 203.291 42.2014C203.291 41.4546 202.685 40.8474 201.938 40.8474H180.119C179.373 40.8474 178.765 41.4546 178.765 42.2014C178.765 42.949 179.373 43.5561 180.119 43.5561H201.938ZM205.809 42.2014C205.809 44.3356 204.073 46.0709 201.938 46.0709H180.119C177.986 46.0709 176.25 44.3356 176.25 42.2014C176.25 40.0666 177.986 38.332 180.119 38.332H201.938C204.073 38.332 205.809 40.0666 205.809 42.2014Z" fill="#0C0807"/>
</g>
<g id="Group_13">
<path id="Vector_13" d="M250.279 59.3678H229.219V48.332H250.279C253.028 48.332 255.255 50.5591 255.255 53.3065V54.3926C255.255 57.14 253.028 59.3678 250.279 59.3678Z" fill="#F3F4F5"/>
</g>
<g id="Group_14">
<path id="Vector_14" d="M250.279 58.7124H229.219V55.3335H247.858C250.607 55.3335 252.833 53.1064 252.833 50.3583V49.2723C252.833 48.95 252.801 48.6373 252.743 48.332C254.242 49.1888 255.255 50.7999 255.255 52.6512V53.7373C255.255 56.4847 253.028 58.7124 250.279 58.7124Z" fill="#CAB0FF"/>
</g>
<g id="Group_15">
<path id="Vector_15" d="M230.483 56.8677H250.286C252.336 56.8677 254.004 55.199 254.004 53.1503V52.0642C254.004 50.0149 252.336 48.3467 250.286 48.3467H230.483V56.8677ZM256.519 52.0642V53.1503C256.519 56.5862 253.723 59.3831 250.286 59.3831H229.225C228.532 59.3831 227.969 58.8194 227.969 58.1254V47.0897C227.969 46.3944 228.532 45.832 229.225 45.832H250.286C253.723 45.832 256.519 48.6283 256.519 52.0642Z" fill="#0C0807"/>
</g>
<g id="Group_16">
<path id="Vector_16" d="M219.955 76.2129H198.477C195.607 76.2129 193.281 73.8874 193.281 71.0166V36.0283C193.281 33.1582 195.607 30.832 198.477 30.832H219.955V76.2129Z" fill="#F3F4F5"/>
</g>
<g id="Group_17">
<path id="Vector_17" d="M220.984 30.832H213.438V76.2129H220.984V30.832Z" fill="#CAB0FF"/>
</g>
<g id="Group_18">
<path id="Vector_18" d="M218.704 73.7116V30.8467H198.485C196.312 30.8467 194.545 32.6119 194.545 34.7854V69.7736C194.545 71.9451 196.312 73.7116 198.485 73.7116H218.704ZM221.221 29.589V74.9699C221.221 75.6646 220.657 76.2269 219.963 76.2269H198.485C194.925 76.2269 192.031 73.331 192.031 69.7736V34.7854C192.031 31.2266 194.925 28.332 198.485 28.332H219.963C220.657 28.332 221.221 28.8944 221.221 29.589Z" fill="#0C0807"/>
</g>
<g id="Group_19">
<path id="Vector_19" d="M224.762 32.35C224.762 30.1317 223.066 28.332 220.976 28.332C218.883 28.332 217.188 30.1317 217.188 32.35V72.8439C217.188 75.0628 218.883 76.8612 220.976 76.8612C223.066 76.8612 224.762 75.0628 224.762 72.8439V32.35Z" fill="#F3F4F5"/>
</g>
<g id="Group_20">
<path id="Vector_20" d="M220.959 76.8612C220.267 76.8612 219.621 76.6624 219.062 76.3205C220.195 75.6259 220.957 74.3309 220.957 72.8439V32.35C220.957 30.863 220.195 29.5694 219.062 28.8741C219.621 28.5301 220.267 28.332 220.959 28.332C223.049 28.332 224.745 30.1317 224.745 32.35V72.8439C224.745 75.0628 223.049 76.8612 220.959 76.8612Z" fill="#CAB0FF"/>
</g>
<g id="Group_21">
<path id="Vector_21" d="M223.512 74.1023V33.6084C223.512 32.0861 222.377 30.8481 220.984 30.8481C219.588 30.8481 218.454 32.0861 218.454 33.6084V74.1023C218.454 75.6245 219.588 76.8639 220.984 76.8639C222.377 76.8639 223.512 75.6245 223.512 74.1023ZM226.027 33.6084V74.1023C226.027 77.0111 223.765 79.3766 220.984 79.3766C218.203 79.3766 215.938 77.0111 215.938 74.1023V33.6084C215.938 30.6995 218.203 28.332 220.984 28.332C223.765 28.332 226.027 30.6995 226.027 33.6084Z" fill="#0C0807"/>
</g>
<g id="Group_22">
<path id="Vector_22" d="M232.163 66.2849H224.688V38.332H232.163C234.434 38.332 236.275 40.1718 236.275 42.4409V62.174C236.275 64.4459 234.434 66.2849 232.163 66.2849Z" fill="#F3F4F5"/>
</g>
<g id="Group_23">
<path id="Vector_23" d="M232.207 66.2849H228.75C231.021 66.2849 232.864 64.4459 232.864 62.174V42.4409C232.864 40.1718 231.021 38.332 228.75 38.332H232.207C234.478 38.332 236.319 40.1718 236.319 42.4409V62.174C236.319 64.4459 234.478 66.2849 232.207 66.2849Z" fill="#CAB0FF"/>
</g>
<g id="Group_24">
<path id="Vector_24" d="M225.952 66.2856H232.171C233.744 66.2856 235.026 65.0062 235.026 63.4317V43.6986C235.026 42.1268 233.744 40.8474 232.171 40.8474H225.952V66.2856ZM237.54 43.6986V63.4317C237.54 66.3921 235.13 68.801 232.171 68.801H224.695C224.001 68.801 223.438 68.2386 223.438 67.5426V39.5897C223.438 38.8951 224.001 38.332 224.695 38.332H232.171C235.13 38.332 237.54 40.7396 237.54 43.6986Z" fill="#0C0807"/>
</g>
<g id="Group_25">
<path id="Vector_25" d="M202.172 50.832H193.281V56.3051H202.172V50.832Z" fill="#CAB0FF"/>
</g>
<g id="Group_26">
<path id="Vector_26" d="M202.172 53.332H193.281V56.0686H202.172V53.332Z" fill="#F3F4F5"/>
</g>
<g id="Group_27">
<path id="Vector_27" d="M194.545 53.8065H200.921V50.8461H194.545V53.8065ZM203.439 49.5904V55.0635C203.439 55.7581 202.875 56.3205 202.18 56.3205H193.289C192.594 56.3205 192.031 55.7581 192.031 55.0635V49.5904C192.031 48.8951 192.594 48.332 193.289 48.332H202.18C202.875 48.332 203.439 48.8951 203.439 49.5904Z" fill="#0C0807"/>
</g>
<g id="Group_28">
<path id="Vector_28" d="M230.008 43.332C229.315 43.332 228.75 43.8944 228.75 44.5897V61.4689C228.75 62.1635 229.315 62.7259 230.008 62.7259C230.702 62.7259 231.265 62.1635 231.265 61.4689V44.5897C231.265 43.8944 230.702 43.332 230.008 43.332Z" fill="#0C0807"/>
</g>
<g id="Group_29">
<path id="Vector_29" d="M162.771 83.7009L153.025 93.4477C152.533 93.9395 152.533 94.7346 153.025 95.2257C153.269 95.472 153.592 95.5947 153.913 95.5947C154.236 95.5947 154.558 95.472 154.803 95.2257L164.551 85.4796C165.042 84.9878 165.042 84.1927 164.551 83.7009C164.059 83.2091 163.262 83.2091 162.771 83.7009Z" fill="#0C0807"/>
</g>
<g id="Group_30">
<path id="Vector_30" d="M177.82 90.832C177.124 90.832 176.562 91.3957 176.562 92.0904V105.875C176.562 106.569 177.124 107.133 177.82 107.133C178.514 107.133 179.077 106.569 179.077 105.875V92.0904C179.077 91.3957 178.514 90.832 177.82 90.832Z" fill="#0C0807"/>
</g>
<g id="Group_31">
<path id="Vector_31" d="M192.616 83.7009C192.122 83.2091 191.327 83.2091 190.838 83.7009C190.346 84.1907 190.346 84.9878 190.838 85.4776L200.584 95.2264C200.83 95.4726 201.152 95.5941 201.474 95.5941C201.796 95.5941 202.115 95.4726 202.362 95.2264C202.855 94.7346 202.855 93.9382 202.362 93.4477L192.616 83.7009Z" fill="#0C0807"/>
</g>
<g id="Group_32">
<path id="Vector_32" d="M177.508 17.1339C178.202 17.1339 178.765 16.5695 178.765 15.8762V2.0904C178.765 1.39643 178.202 0.832031 177.508 0.832031C176.813 0.832031 176.25 1.39643 176.25 2.0904V15.8762C176.25 16.5695 176.813 17.1339 177.508 17.1339Z" fill="#0C0807"/>
</g>
<g id="Group_33">
<path id="Vector_33" d="M162.771 22.7257C163.017 22.9719 163.339 23.0947 163.659 23.0947C163.982 23.0947 164.304 22.9719 164.551 22.7257C165.041 22.2352 165.041 21.4388 164.551 20.9484L154.803 11.2009C154.312 10.7091 153.514 10.7091 153.025 11.2009C152.533 11.6914 152.533 12.4864 153.025 12.9782L162.771 22.7257Z" fill="#0C0807"/>
</g>
<g id="Group_34">
<path id="Vector_34" d="M191.724 23.0947C192.048 23.0947 192.369 22.9713 192.616 22.7257L202.363 12.9782C202.855 12.4878 202.855 11.6914 202.363 11.2009C201.871 10.7091 201.076 10.7091 200.585 11.2009L190.838 20.9484C190.346 21.4402 190.346 22.2352 190.838 22.7257C191.081 22.9713 191.404 23.0947 191.724 23.0947Z" fill="#0C0807"/>
</g>
<g id="Group_35">
<path id="Vector_35" d="M106.07 59.3678H127.13V48.332H106.07C103.32 48.332 101.094 50.5591 101.094 53.3065V54.3926C101.094 57.14 103.32 59.3678 106.07 59.3678Z" fill="#F3F4F5"/>
</g>
<g id="Group_36">
<path id="Vector_36" d="M106.07 58.7124H127.13V55.3335H108.492C105.743 55.3335 103.516 53.1064 103.516 50.3583V49.2723C103.516 48.95 103.549 48.6373 103.608 48.332C102.107 49.1888 101.094 50.7999 101.094 52.6512V53.7373C101.094 56.4847 103.32 58.7124 106.07 58.7124Z" fill="#CAB0FF"/>
</g>
<g id="Group_37">
<path id="Vector_37" d="M125.879 48.3467H106.077C104.027 48.3467 102.358 50.0149 102.358 52.0642V53.1503C102.358 55.199 104.027 56.8677 106.077 56.8677H125.879V48.3467ZM106.077 45.832H127.137C127.831 45.832 128.392 46.3944 128.392 47.0897V58.1254C128.392 58.8194 127.831 59.3831 127.137 59.3831H106.077C102.64 59.3831 99.8438 56.5862 99.8438 53.1503V52.0642C99.8438 48.6283 102.64 45.832 106.077 45.832Z" fill="#0C0807"/>
</g>
<g id="Group_38">
<path id="Vector_38" d="M124.112 66.2849H131.587V38.332H124.112C121.84 38.332 120 40.1718 120 42.4409V62.174C120 64.4459 121.84 66.2849 124.112 66.2849Z" fill="#F3F4F5"/>
</g>
<g id="Group_39">
<path id="Vector_39" d="M124.112 66.2849H127.567C125.297 66.2849 123.456 64.4459 123.456 62.174V42.4409C123.456 40.1718 125.297 38.332 127.567 38.332H124.112C121.84 38.332 120 40.1718 120 42.4409V62.174C120 64.4459 121.84 66.2849 124.112 66.2849Z" fill="#CAB0FF"/>
</g>
<g id="Group_40">
<path id="Vector_40" d="M130.338 40.8474H124.12C122.547 40.8474 121.266 42.1268 121.266 43.6986V63.4317C121.266 65.0062 122.547 66.2856 124.12 66.2856H130.338V40.8474ZM124.12 38.332H131.595C132.29 38.332 132.853 38.8951 132.853 39.5897V67.5426C132.853 68.2386 132.29 68.801 131.595 68.801H124.12C121.16 68.801 118.75 66.3921 118.75 63.4317V43.6986C118.75 40.7396 121.16 38.332 124.12 38.332Z" fill="#0C0807"/>
</g>
<g id="Group_41">
<path id="Vector_41" d="M126.256 43.332C126.951 43.332 127.515 43.8944 127.515 44.5897V61.4689C127.515 62.1635 126.951 62.7259 126.256 62.7259C125.562 62.7259 125 62.1635 125 61.4689V44.5897C125 43.8944 125.562 43.332 126.256 43.332Z" fill="#0C0807"/>
</g>
<g id="Group_42">
<path id="Vector_42" d="M158.236 30.832H136.758C133.889 30.832 131.562 33.1568 131.562 36.029V71.0152C131.562 73.8861 133.889 76.2115 136.758 76.2115H158.236V30.832Z" fill="#F3F4F5"/>
</g>
<g id="Group_43">
<path id="Vector_43" d="M159.106 30.832H151.562V76.2115H159.106V30.832Z" fill="#CAB0FF"/>
</g>
<g id="Group_44">
<path id="Vector_44" d="M136.765 30.8467C134.594 30.8467 132.828 32.6139 132.828 34.7874V69.7736C132.828 71.9451 134.594 73.7129 136.765 73.7129H156.985V30.8467H136.765ZM158.243 76.2269H136.765C133.206 76.2269 130.312 73.333 130.312 69.7736V34.7874C130.312 31.2273 133.206 28.332 136.765 28.332H158.243C158.936 28.332 159.501 28.8944 159.501 29.5904V74.9699C159.501 75.6646 158.936 76.2269 158.243 76.2269Z" fill="#0C0807"/>
</g>
<g id="Group_45">
<path id="Vector_45" d="M162.886 72.8439C162.886 75.0628 161.191 76.8612 159.1 76.8612C157.008 76.8612 155.312 75.0628 155.312 72.8439V32.35C155.312 30.1317 157.008 28.332 159.1 28.332C161.191 28.332 162.887 30.1317 162.887 32.35L162.886 72.8439Z" fill="#F3F4F5"/>
</g>
<g id="Group_46">
<path id="Vector_46" d="M159.081 28.332C158.39 28.332 157.744 28.5301 157.188 28.8741C158.318 29.5694 159.081 30.863 159.081 32.35L159.08 72.8439C159.08 74.3309 158.318 75.6259 157.188 76.3205C157.744 76.6624 158.39 76.8612 159.081 76.8612C161.172 76.8612 162.867 75.0628 162.867 72.8439L162.868 32.35C162.868 30.1317 161.172 28.332 159.081 28.332Z" fill="#CAB0FF"/>
</g>
<g id="Group_47">
<path id="Vector_47" d="M159.107 30.8481C157.712 30.8481 156.576 32.0861 156.576 33.6084V74.1023C156.576 75.6245 157.712 76.8639 159.107 76.8639C160.502 76.8639 161.636 75.6245 161.636 74.1023L161.637 33.6084C161.637 32.0861 160.502 30.8481 159.107 30.8481ZM159.107 79.3766C156.325 79.3766 154.062 77.0111 154.062 74.1023V33.6084C154.062 30.6995 156.326 28.332 159.107 28.332C161.89 28.332 164.151 30.6995 164.151 33.6084L164.151 74.1023C164.151 77.0111 161.888 79.3766 159.107 79.3766Z" fill="#0C0807"/>
</g>
<g id="Group_48">
<path id="Vector_48" d="M148.091 60.832H139.381C138.687 60.832 138.125 61.3944 138.125 62.0891C138.125 62.7837 138.687 63.3461 139.381 63.3461H148.091C148.786 63.3461 149.349 62.7837 149.349 62.0891C149.349 61.3944 148.786 60.832 148.091 60.832Z" fill="#0C0807"/>
</g>
<g id="Group_49">
<path id="Vector_49" d="M139.381 58.3454H148.091C148.786 58.3454 149.349 57.7837 149.349 57.0877C149.349 56.3937 148.786 55.832 148.091 55.832H139.381C138.687 55.832 138.125 56.3937 138.125 57.0877C138.125 57.7837 138.687 58.3454 139.381 58.3454Z" fill="#0C0807"/>
</g>
<g id="Group_50">
<path id="Vector_50" d="M139.381 50.8454H148.091C148.786 50.8454 149.349 50.283 149.349 49.589C149.349 48.8944 148.786 48.332 148.091 48.332H139.381C138.687 48.332 138.125 48.8944 138.125 49.589C138.125 50.283 138.687 50.8454 139.381 50.8454Z" fill="#0C0807"/>
</g>
<g id="Group_51">
<path id="Vector_51" d="M139.381 45.8467H148.091C148.786 45.8467 149.349 45.283 149.349 44.589C149.349 43.8944 148.786 43.332 148.091 43.332H139.381C138.687 43.332 138.125 43.8944 138.125 44.589C138.125 45.283 138.687 45.8467 139.381 45.8467Z" fill="#0C0807"/>
</g>
</g>
<defs>
<clipPath id="clip0">
<rect width="640" height="106.667" fill="white" transform="translate(-140)"/>
</clipPath>
</defs>
</svg>
