<svg width="24" height="25" viewBox="0 0 24 25" fill="none" xmlns="http://www.w3.org/2000/svg">
<path d="M20 21.9137H4C3.26667 21.9137 2.66667 21.3137 2.66667 20.5803V4.58032C2.66667 3.84699 3.26667 3.24699 4 3.24699H10.6667C11.4 3.24699 12 2.64699 12 1.91366C12 1.18032 11.4 0.580322 10.6667 0.580322H2.66667C1.95942 0.580322 1.28115 0.861274 0.781048 1.36137C0.280951 1.86147 0 2.53974 0 3.24699V21.9137C0 23.3803 1.2 24.5803 2.66667 24.5803H21.3333C22.8 24.5803 24 23.3803 24 21.9137V13.9137C24 13.1803 23.4 12.5803 22.6667 12.5803C21.9333 12.5803 21.3333 13.1803 21.3333 13.9137V20.5803C21.3333 21.3137 20.7333 21.9137 20 21.9137ZM14.6667 1.91366C14.6667 2.64699 15.2667 3.24699 16 3.24699H19.4533L7.28 15.4203C7.0307 15.6696 6.89064 16.0078 6.89064 16.3603C6.89064 16.7129 7.0307 17.051 7.28 17.3003C7.5293 17.5496 7.86743 17.6897 8.22 17.6897C8.57257 17.6897 8.9107 17.5496 9.16 17.3003L21.3333 5.12699V8.58032C21.3333 9.31366 21.9333 9.91366 22.6667 9.91366C23.4 9.91366 24 9.31366 24 8.58032V1.91366C24 1.18032 23.4 0.580322 22.6667 0.580322H16C15.2667 0.580322 14.6667 1.18032 14.6667 1.91366Z" fill="white"/>
</svg>
