<svg width="146" height="198" viewBox="0 0 146 198" fill="none" xmlns="http://www.w3.org/2000/svg">
<g id="v3">
<path id="Vector" d="M80.5414 189.485H41.3206V159.694H80.5414C83.1731 159.694 85.6971 158.649 87.558 156.788C89.4189 154.927 90.4643 152.403 90.4643 149.771C90.4643 147.14 89.4189 144.616 87.558 142.755C85.6971 140.894 83.1731 139.848 80.5414 139.848H66.1199C55.5871 139.848 45.4857 135.664 38.0379 128.216C30.5901 120.769 26.4059 110.667 26.4059 100.134C26.4059 89.6017 30.5901 79.5003 38.0379 72.0525C45.4857 64.6047 55.5871 60.4205 66.1199 60.4205H80.5414C81.8592 60.4441 83.1686 60.2049 84.3929 59.717C85.6173 59.229 86.7322 58.5019 87.6725 57.5783C88.6128 56.6547 89.3597 55.553 89.8696 54.3375C90.3794 53.1221 90.642 51.8172 90.642 50.4992C90.642 49.1812 90.3794 47.8763 89.8696 46.6609C89.3597 45.4454 88.6128 44.3437 87.6725 43.4201C86.7322 42.4965 85.6173 41.7694 84.3929 41.2814C83.1686 40.7935 81.8592 40.5543 80.5414 40.5779H41.1392V10.7868H80.5414C91.0742 10.7868 101.176 14.971 108.623 22.4188C116.071 29.8666 120.255 39.968 120.255 50.5008C120.255 61.0336 116.071 71.135 108.623 78.5828C101.176 86.0306 91.0742 90.2147 80.5414 90.2147H66.1199C64.8021 90.1911 63.4927 90.4303 62.2684 90.9183C61.044 91.4063 59.9291 92.1334 58.9888 93.057C58.0485 93.9806 57.3016 95.0823 56.7917 96.2977C56.2819 97.5132 56.0193 98.818 56.0193 100.136C56.0193 101.454 56.2819 102.759 56.7917 103.974C57.3016 105.19 58.0485 106.292 58.9888 107.215C59.9291 108.139 61.044 108.866 62.2684 109.354C63.4927 109.842 64.8021 110.081 66.1199 110.057H80.5414C91.0742 110.057 101.176 114.242 108.623 121.689C116.071 129.137 120.255 139.239 120.255 149.771C120.255 160.304 116.071 170.406 108.623 177.853C101.176 185.301 91.0742 189.485 80.5414 189.485Z" fill="#7F50FF"/>
<path id="Vector_2" d="M25.3847 47.5039C37.4364 47.5039 47.2062 37.7341 47.2062 25.6824C47.2062 13.6307 37.4364 3.86084 25.3847 3.86084C13.333 3.86084 3.56317 13.6307 3.56317 25.6824C3.56317 37.7341 13.333 47.5039 25.3847 47.5039Z" fill="white"/>
<path id="Vector_3" d="M25.3847 50.4817C20.4799 50.4817 15.6852 49.0273 11.6069 46.3023C7.52871 43.5773 4.35011 39.7042 2.4731 35.1727C0.5961 30.6412 0.104984 25.6549 1.06187 20.8442C2.01876 16.0336 4.38068 11.6148 7.84893 8.14657C11.3172 4.67832 15.736 2.31641 20.5466 1.35952C25.3572 0.402631 30.3435 0.893741 34.875 2.77075C39.4065 4.64775 43.2797 7.82635 46.0046 11.9046C48.7296 15.9828 50.1841 20.7775 50.1841 25.6824C50.1799 32.2583 47.5657 38.5636 42.9159 43.2135C38.266 47.8634 31.9606 50.4775 25.3847 50.4817ZM25.3847 6.84185C21.6586 6.84248 18.0162 7.94799 14.9184 10.0186C11.8205 12.0892 9.40614 15.0319 7.98063 18.4746C6.55512 21.9173 6.18247 25.7054 6.9098 29.3599C7.63712 33.0144 9.43175 36.3712 12.0668 39.0057C14.7018 41.6403 18.0589 43.4344 21.7135 44.1611C25.3681 44.8878 29.1561 44.5145 32.5986 43.0884C36.0411 41.6623 38.9834 39.2475 41.0534 36.1493C43.1235 33.051 44.2284 29.4085 44.2284 25.6824C44.2225 20.6868 42.2352 15.8976 38.7025 12.3655C35.1698 8.8334 30.3803 6.8469 25.3847 6.84185Z" fill="#7F50FF"/>
<path id="Vector_4" d="M22.7791 21.5242H22.6359C21.742 22.38 19.5977 22.9527 17.4152 22.9527V17.7701C20.9911 17.7701 23.4949 16.0521 23.4949 13.5515H29.2215V38.7549H22.7791V21.5242Z" fill="#7F50FF"/>
<path id="Vector_5" d="M121.121 72.0423C133.172 72.0423 142.942 62.2725 142.942 50.2208C142.942 38.1691 133.172 28.3993 121.121 28.3993C109.069 28.3993 99.2992 38.1691 99.2992 50.2208C99.2992 62.2725 109.069 72.0423 121.121 72.0423Z" fill="white"/>
<path id="Vector_6" d="M121.111 75.0202C116.208 75.017 111.415 73.5603 107.339 70.8341C103.264 68.1079 100.087 64.2346 98.2124 59.7038C96.3374 55.1729 95.8476 50.1879 96.805 45.3788C97.7624 40.5697 100.124 36.1523 103.591 32.685C107.059 29.2177 111.476 26.8561 116.285 25.8987C121.094 24.9414 126.079 25.4311 130.61 27.3062C135.141 29.1812 139.014 32.3573 141.74 36.4331C144.467 40.5089 145.923 45.3014 145.926 50.2049C145.926 56.7863 143.312 63.0982 138.658 67.7519C134.004 72.4057 127.693 75.0202 121.111 75.0202ZM121.111 31.3803C117.385 31.3803 113.742 32.4853 110.644 34.5555C107.546 36.6257 105.131 39.5682 103.705 43.0109C102.279 46.4535 101.906 50.2417 102.633 53.8964C103.36 57.5511 105.154 60.9082 107.789 63.5431C110.424 66.178 113.781 67.9723 117.436 68.6993C121.09 69.4263 124.878 69.0532 128.321 67.6272C131.764 66.2012 134.706 63.7863 136.777 60.688C138.847 57.5897 139.952 53.9471 139.952 50.2208C139.946 45.2258 137.959 40.4371 134.427 36.9051C130.895 33.3731 126.106 31.3862 121.111 31.3803Z" fill="#7F50FF"/>
<path id="Vector_7" d="M112.006 57.8467C120.513 52.0915 123.974 48.4456 123.974 45.3341C123.974 43.4253 122.794 42.1177 121.079 42.1177C119.365 42.1177 118.254 43.298 118.254 44.981C118.247 45.6997 118.307 46.4175 118.432 47.1253L112.108 47.3384C111.9 46.4848 111.804 45.6079 111.821 44.7297C111.821 39.8334 115.68 36.4006 121.223 36.4006C126.656 36.4006 130.411 39.9766 130.411 45.1591C130.411 49.9504 127.585 53.31 120.615 56.8128V56.9559L130.229 56.7778V62.1385H112L112.006 57.8467Z" fill="#7F50FF"/>
<path id="Vector_8" d="M25.3847 121.956C37.4364 121.956 47.2062 112.186 47.2062 100.135C47.2062 88.0828 37.4364 78.313 25.3847 78.313C13.333 78.313 3.56317 88.0828 3.56317 100.135C3.56317 112.186 13.333 121.956 25.3847 121.956Z" fill="white"/>
<path id="Vector_9" d="M25.3847 124.934C20.4799 124.934 15.6852 123.479 11.6069 120.754C7.52871 118.029 4.35011 114.156 2.4731 109.625C0.5961 105.093 0.104984 100.107 1.06187 95.2964C2.01876 90.4858 4.38068 86.067 7.84893 82.5987C11.3172 79.1305 15.736 76.7686 20.5466 75.8117C25.3572 74.8548 30.3435 75.3459 34.875 77.2229C39.4065 79.0999 43.2797 82.2785 46.0046 86.3567C48.7296 90.435 50.1841 95.2297 50.1841 100.135C50.1799 106.71 47.5657 113.016 42.9159 117.666C38.266 122.316 31.9606 124.93 25.3847 124.934ZM25.3847 81.294C21.6586 81.2946 18.0162 82.4001 14.9184 84.4707C11.8205 86.5414 9.40614 89.4841 7.98063 92.9268C6.55512 96.3695 6.18247 100.158 6.9098 103.812C7.63712 107.467 9.43175 110.823 12.0668 113.458C14.7018 116.092 18.0589 117.887 21.7135 118.613C25.3681 119.34 29.1561 118.967 32.5986 117.541C36.0411 116.114 38.9834 113.7 41.0534 110.601C43.1235 107.503 44.2284 103.861 44.2284 100.135C44.2225 95.139 42.2352 90.3497 38.7025 86.8176C35.1698 83.2856 30.3803 81.2991 25.3847 81.294Z" fill="#7F50FF"/>
<path id="Vector_10" d="M15.5541 104.993L22.2033 104.636C22.2033 106.863 23.5618 108.136 25.7792 108.136C27.6022 108.136 28.7093 107.181 28.7093 105.454C28.7093 103.631 26.9595 102.524 23.7049 102.524V98.2383C26.9595 98.2383 28.7093 97.128 28.7093 95.3401C28.7093 93.5521 27.5322 92.5531 25.5661 92.5531C23.4918 92.5531 22.2033 93.9116 22.2033 96.2722L15.5541 96.0559C15.5541 90.8001 19.7377 87.1192 25.7792 87.1192C31.3563 87.1192 35.2154 90.1925 35.2154 94.6274C35.2154 97.8438 33.0711 100.204 29.9978 100.354V100.494C33.0711 100.745 35.2154 103.071 35.2154 106.179C35.2154 110.541 31.3977 113.579 25.8492 113.579C19.7727 113.573 15.5541 110.07 15.5541 104.993Z" fill="#7F50FF"/>
<path id="Vector_11" d="M121.121 171.593C133.172 171.593 142.942 161.823 142.942 149.771C142.942 137.72 133.172 127.95 121.121 127.95C109.069 127.95 99.2992 137.72 99.2992 149.771C99.2992 161.823 109.069 171.593 121.121 171.593Z" fill="white"/>
<path id="Vector_12" d="M121.111 174.571C116.203 174.571 111.405 173.115 107.325 170.389C103.244 167.662 100.063 163.786 98.1848 159.252C96.3066 154.717 95.8152 149.728 96.7727 144.914C97.7302 140.101 100.094 135.679 103.564 132.208C107.035 128.738 111.456 126.375 116.27 125.417C121.084 124.46 126.073 124.951 130.608 126.829C135.142 128.707 139.018 131.888 141.744 135.969C144.471 140.05 145.926 144.847 145.926 149.755C145.926 156.337 143.312 162.649 138.658 167.302C134.004 171.956 127.693 174.571 121.111 174.571ZM121.111 130.931C117.385 130.931 113.742 132.036 110.644 134.106C107.546 136.176 105.131 139.119 103.705 142.561C102.279 146.004 101.906 149.792 102.633 153.447C103.36 157.102 105.154 160.459 107.789 163.094C110.424 165.729 113.781 167.523 117.436 168.25C121.09 168.977 124.878 168.604 128.321 167.178C131.764 165.752 134.706 163.337 136.776 160.239C138.847 157.14 139.952 153.498 139.952 149.771C139.946 144.776 137.959 139.988 134.427 136.456C130.895 132.924 126.106 130.937 121.111 130.931Z" fill="#7F50FF"/>
<path id="Vector_13" d="M121.996 156.503H111.023V152.931C114.882 148.569 117.293 142.384 117.293 136.664H123.908C123.908 142.632 121.191 148.352 116.721 151.715V151.855H122.371V145.601H128.161V151.855H131.238V156.503H128.161V161.689H121.996V156.503Z" fill="#7F50FF"/>
<path id="Vector_14" d="M25.3847 194.633C37.4364 194.633 47.2062 184.863 47.2062 172.811C47.2062 160.76 37.4364 150.99 25.3847 150.99C13.333 150.99 3.56317 160.76 3.56317 172.811C3.56317 184.863 13.333 194.633 25.3847 194.633Z" fill="white"/>
<path id="Vector_15" d="M25.3847 197.611C20.4761 197.614 15.6767 196.161 11.5938 193.436C7.51084 190.712 4.32773 186.837 2.44708 182.303C0.566434 177.769 0.0727364 172.779 1.02844 167.964C1.98415 163.149 4.34633 158.726 7.81617 155.254C11.286 151.782 15.7076 149.417 20.5218 148.458C25.3359 147.499 30.3262 147.99 34.8616 149.868C39.3969 151.745 43.2734 154.926 46.0009 159.007C48.7283 163.088 50.1841 167.887 50.1841 172.795C50.1841 179.374 47.5718 185.684 42.9215 190.337C38.2712 194.99 31.9634 197.607 25.3847 197.611ZM25.3847 153.971C21.6586 153.972 18.0163 155.077 14.9184 157.148C11.8205 159.218 9.40616 162.161 7.98065 165.604C6.55514 169.046 6.18249 172.834 6.90981 176.489C7.63714 180.143 9.43177 183.5 12.0668 186.135C14.7018 188.769 18.0589 190.563 21.7135 191.29C25.3681 192.017 29.1561 191.644 32.5986 190.217C36.0411 188.791 38.9834 186.377 41.0535 183.278C43.1236 180.18 44.2284 176.538 44.2284 172.811C44.2225 167.816 42.2352 163.027 38.7025 159.495C35.1699 155.962 30.3803 153.976 25.3847 153.971Z" fill="#7F50FF"/>
<path id="Vector_16" d="M15.7322 178.169L22.1683 177.956C22.2764 179.779 23.5999 180.886 25.3497 180.886C27.2808 180.886 28.6043 179.422 28.6043 177.348C28.6043 175.274 27.2808 173.915 25.3497 173.915C24.7688 173.923 24.2026 174.099 23.7202 174.423C23.2377 174.747 22.8599 175.204 22.6327 175.738L16.0917 174.784L17.9497 160.518H34.3214V165.882H23.2404L22.5246 170.336H22.6677C23.5267 169.48 25.2129 168.908 26.7813 168.908C31.6426 168.908 35.0372 172.376 35.0372 177.345C35.0372 182.601 31.0699 186.253 25.3497 186.253C19.6295 186.253 15.7322 182.925 15.7322 178.169Z" fill="#7F50FF"/>
</g>
</svg>
