<svg width="80" height="80" viewBox="0 0 133 134" fill="none" xmlns="http://www.w3.org/2000/svg">
<g id="vyluka_logo_rgb_round_01_black1">
<path id="Vector" d="M66.5 133.324C103.227 133.324 133 103.551 133 66.8242C133 30.0973 103.227 0.324219 66.5 0.324219C29.7731 0.324219 0 30.0973 0 66.8242C0 103.551 29.7731 133.324 66.5 133.324Z" fill="black"/>
<g id="Group">
<path id="Vector_2" d="M48.9529 68.1006H48.9086L48.6958 68.2336C48.2436 68.5173 47.8091 68.8277 47.348 69.1203C47.0466 69.3331 46.7362 69.537 46.4614 69.7409C45.7964 70.1754 45.1491 70.6276 44.5107 71.0975L44.1649 71.3458L43.9787 70.3705C43.9078 69.3685 43.8368 68.3311 43.8191 67.3115C43.7885 66.8243 43.7885 66.3357 43.8191 65.8485C43.8191 65.5559 43.9166 65.015 43.6152 64.7579C43.5406 64.694 43.4503 64.6513 43.3536 64.6341C43.2569 64.617 43.1574 64.626 43.0654 64.6603C42.5512 64.8022 42.6221 65.3874 42.6576 65.7066C42.6576 65.7864 42.6576 65.8662 42.6576 65.9194C42.6104 66.374 42.5061 66.8209 42.3472 67.2494C42.3052 67.3866 42.2456 67.5177 42.1699 67.6395C42.1062 67.3937 42.0881 67.1382 42.1167 66.8859C42.1167 66.7883 42.1167 66.7085 42.1167 66.6287C42.1167 66.5489 42.1167 66.4425 42.1167 66.345C42.1822 65.897 42.1111 65.4397 41.9128 65.0327C41.7677 64.8147 41.5495 64.6556 41.2976 64.584C41.0456 64.5125 40.7764 64.5333 40.5384 64.6426C39.6303 65.0138 38.8091 65.5693 38.1267 66.2741C37.3862 66.9363 36.6818 67.6378 36.0164 68.3755C34.9341 69.6415 33.9444 70.9838 33.055 72.3921C33.1525 71.8689 33.2766 71.3547 33.3919 70.8404C33.5426 70.1931 33.6934 69.5193 33.8175 68.8454C34.0126 67.7637 34.2786 66.6819 34.5357 65.6268C34.7042 64.9352 34.8815 64.2259 35.0322 63.5165C35.183 62.8072 35.4224 61.9028 35.6263 61.1225C35.7948 60.493 35.9632 59.8457 36.114 59.1985C36.4332 57.833 36.8056 56.4587 37.1602 55.1287L37.2489 54.8095C37.444 54.0824 37.5858 53.3376 37.7188 52.6194C37.8518 51.9012 37.9671 51.2805 38.1356 50.6244V50.5003C38.1294 50.4472 38.1294 50.3937 38.1356 50.3407H38.3395H38.5257C38.7679 50.3536 39.0106 50.3536 39.2528 50.3407C40.1523 50.2135 41.0413 50.0209 41.9128 49.7643C42.1965 49.6757 42.4891 49.6047 42.7994 49.5338C43.1098 49.4629 43.6861 49.321 44.0674 49.1791L44.892 48.8865L45.8673 48.5319C46.5678 48.2925 47.286 48.0885 47.9864 47.8846C48.4652 47.7516 48.9529 47.6097 49.4228 47.459C51.0366 46.9536 52.4996 46.5723 53.9094 46.2088C54.6542 46.0315 55.399 45.8807 56.126 45.7566L56.5428 45.6857L57.4294 45.5349H57.6422C57.988 45.5349 58.5289 45.5349 58.6796 45.0384C58.6995 44.9587 58.6984 44.8753 58.6767 44.7961C58.655 44.7169 58.6132 44.6446 58.5555 44.5862C58.254 44.2936 57.5358 44.3734 56.4807 44.5862H56.3034C55.2128 44.7724 54.3261 44.9497 53.4926 45.1448C52.5173 45.3753 51.542 45.6502 50.6021 45.9251C49.875 46.1379 49.1214 46.3507 48.3766 46.5457C47.8002 46.6876 47.2239 46.8738 46.6653 47.0423L45.8673 47.2905L45.2998 47.4945L44.821 47.6718L44.4841 47.7605C44.2603 47.8183 44.041 47.8924 43.828 47.9821C43.179 48.246 42.5086 48.4536 41.8241 48.6028L41.5492 48.6737C40.7021 48.9155 39.836 49.0845 38.9602 49.1791H38.8183C38.6501 49.1927 38.4811 49.1927 38.3129 49.1791C38.3282 48.9646 38.3578 48.7513 38.4016 48.5407C38.4016 48.4432 38.4016 48.3634 38.4016 48.3191C38.4578 48.1082 38.4489 47.8853 38.3761 47.6796C38.3033 47.4739 38.17 47.295 37.9937 47.1664C37.8932 47.1027 37.7801 47.0618 37.6621 47.0465C37.5442 47.0312 37.4243 47.0419 37.311 47.0777C37.1726 47.1319 37.0465 47.2131 36.9399 47.3167C36.8333 47.4202 36.7485 47.5439 36.6903 47.6807C36.5443 48.0968 36.5443 48.5502 36.6903 48.9663C36.7381 49.1438 36.8161 49.3118 36.9208 49.4629C36.9989 49.5605 37.0508 49.6765 37.0716 49.7998C37.0565 50.0016 37.0178 50.201 36.9563 50.3939C36.9563 50.5091 36.8942 50.6333 36.8676 50.7397L36.7612 51.2983C36.708 51.5199 36.6637 51.7505 36.6194 51.9721C36.3246 53.711 35.9398 55.4335 35.4667 57.1325C35.224 57.9404 35.0228 58.7602 34.8638 59.5886C34.6864 60.4043 34.5091 61.2467 34.2608 62.0447C34.0924 62.5944 33.9771 63.1619 33.8618 63.7116C33.7998 64.0308 33.7377 64.35 33.6579 64.6692L33.5958 64.9175C33.4806 65.4406 33.3564 65.9549 33.2234 66.4691C32.9131 67.7016 32.6382 68.9518 32.3368 70.1665L32.0442 71.4965C32.0442 71.6118 31.991 71.7359 31.9732 71.8512C31.9732 71.4877 31.9732 71.1153 31.9289 70.7517C31.8491 69.537 31.8314 68.3489 31.8225 67.2051C31.8225 65.1923 31.8757 63.02 32.0708 60.1649C32.1772 58.4537 32.2392 56.7158 32.3013 55.0311L32.3545 53.5238C32.3545 53.0716 32.3545 52.6371 32.3545 52.1583C32.3545 51.4579 32.3988 50.7219 32.4343 50.0037V49.5693C32.4343 49.1969 32.4786 48.8333 32.4875 48.4698V48.3634C32.4778 48.2691 32.4778 48.174 32.4875 48.0797C32.4835 48.0443 32.4835 48.0086 32.4875 47.9733C32.5445 47.8485 32.566 47.7104 32.5496 47.5743C32.5357 47.4917 32.5028 47.4135 32.4536 47.3458C32.4044 47.2781 32.3401 47.2228 32.2658 47.1841C32.1585 47.1359 32.0421 47.111 31.9245 47.111C31.8068 47.111 31.6904 47.1359 31.5831 47.1841C31.2417 47.3833 30.9409 47.645 30.6964 47.9555L30.5812 48.0885C30.3329 48.3545 30.0935 48.6294 29.863 48.9131L29.526 49.2944C29.1182 49.7555 28.7192 50.2343 28.329 50.7131L27.6818 51.4845C26.405 52.9829 25.1282 54.6321 23.8691 56.3611C23.5233 56.8399 23.213 57.3542 22.9115 57.8419C22.61 58.3295 22.3529 58.7285 22.0248 59.1985C21.6968 59.6684 21.5549 59.828 21.3155 60.0851C20.9054 60.5824 20.5292 61.1067 20.1894 61.6545C20.1672 61.6986 20.1405 61.7402 20.1096 61.7787C19.9234 62.0624 19.6308 62.4969 19.7461 62.8693C19.7732 62.9517 19.8182 63.0271 19.8781 63.09C19.9379 63.1528 20.0109 63.2016 20.0919 63.2328C20.6416 63.4633 20.9342 62.8249 21.0761 62.5146C21.1034 62.4442 21.136 62.3761 21.1736 62.3107C21.4396 61.8939 21.7588 61.4861 22.0603 61.0871C22.3618 60.6881 22.5036 60.5107 22.7164 60.2004C23.0977 59.6595 23.4524 59.0921 23.7982 58.5423C24.144 57.9926 24.4986 57.3985 24.8888 56.8577C25.607 55.8469 26.201 55.0843 26.7596 54.3395C27.4956 53.4085 28.2758 52.4953 29.0295 51.6086L29.3842 51.1919C29.6236 50.8993 29.863 50.6067 30.1024 50.3052C30.4659 49.8441 30.8383 49.3565 31.2462 48.9309V49.1703C31.1752 50.4382 31.1043 51.7593 31.1309 53.0627C31.1309 53.5593 31.1309 54.0647 31.0422 54.5612C30.9536 55.0577 30.9713 55.3237 30.9536 55.705C30.9358 56.0863 30.9536 56.5119 30.9536 56.9197C30.9536 57.3276 30.9536 57.8064 30.9536 58.2054C30.9536 58.9325 30.8738 59.6684 30.8206 60.3866C30.7674 61.1048 30.7053 62.0269 30.6698 62.8515V63.8003C30.6698 64.749 30.59 65.7155 30.59 66.6819V67.1962C30.59 68.4641 30.59 69.7853 30.6787 71.0887C30.6787 71.4079 30.723 71.7359 30.7408 72.0551C30.7549 73.0207 30.8618 73.9828 31.06 74.9279C31.0857 75.0696 31.1439 75.2034 31.23 75.3188C31.3162 75.4342 31.4279 75.528 31.5565 75.5929C31.6578 75.6304 31.7668 75.6418 31.8737 75.6264C31.9805 75.6109 32.0818 75.5689 32.1683 75.5043C32.4282 75.2758 32.6368 74.9947 32.7801 74.6797L32.9574 74.3605L34.3938 72.2147C35.1646 70.9719 36.0555 69.8077 37.0538 68.739C37.2489 68.5528 37.4351 68.3577 37.6213 68.1538C38.1025 67.6231 38.6275 67.1337 39.1907 66.6908L39.4567 66.4869C39.767 66.2386 40.6005 65.6002 40.964 65.6002C41.0358 65.8914 41.0358 66.1957 40.964 66.4869C40.964 66.5933 40.964 66.6997 40.964 66.7883C40.9126 67.225 40.9737 67.6676 41.1414 68.074C41.2215 68.2682 41.3582 68.4339 41.5337 68.5493C41.7093 68.6647 41.9155 68.7247 42.1256 68.7213C42.3107 68.7134 42.4907 68.6584 42.6487 68.5617C42.6487 69.1469 42.7019 69.7321 42.7462 70.335L42.7994 71.2217V71.5054C42.7994 71.8955 42.8526 72.1438 42.6576 72.3211L41.9748 72.9152L41.2034 73.5802C39.5327 75.0159 38.0438 76.6507 36.7701 78.448C35.5641 80.3904 34.8068 82.5775 34.5534 84.8497C34.1594 87.1374 34.3578 89.4878 35.1298 91.6771C35.4928 92.7476 36.0999 93.7189 36.9031 94.5144C37.3166 94.8573 37.7966 95.1109 38.3129 95.2592H38.4193C38.9662 95.4737 39.5439 95.5994 40.1306 95.6316C40.6557 95.5863 41.1662 95.4349 41.631 95.1865C42.0959 94.938 42.5055 94.5978 42.8349 94.1863C43.3142 93.6055 43.6213 92.9022 43.7216 92.1559L43.7836 91.9165C43.9965 90.8899 44.1006 89.8438 44.094 88.7954V88.423C44.094 87.9442 44.1383 87.4654 44.1738 86.9777C44.1738 86.3482 44.2536 85.6921 44.2624 85.0537C44.2624 83.3956 44.2624 81.4272 44.156 79.379C44.156 78.6165 44.1028 77.8273 44.094 77.0737C44.094 76.6215 44.094 76.187 44.094 75.7082C44.094 75.389 44.094 75.0698 44.094 74.7506C44.094 74.4314 44.094 74.0324 44.094 73.6777C44.094 73.5713 44.094 73.4561 44.094 73.3408C44.094 73.0748 44.0142 72.7822 44.094 72.6492C44.2057 72.5393 44.3308 72.444 44.4664 72.3655L44.6969 72.2147L45.424 71.7005L47.1973 70.4857L47.2771 70.4325L47.8534 70.0601C48.1992 69.8385 48.5539 69.6079 48.8908 69.3685L49.0504 69.271C49.2416 69.1855 49.409 69.0546 49.5381 68.8897C49.6049 68.7793 49.6333 68.6498 49.6189 68.5215C49.6044 68.3932 49.548 68.2733 49.4583 68.1804C49.3862 68.1284 49.3029 68.0942 49.2151 68.0803C49.1273 68.0664 49.0375 68.0734 48.9529 68.1006ZM40.2636 94.5765C39.7533 94.5374 39.2514 94.4239 38.774 94.2395C38.284 94.1056 37.8377 93.8458 37.4794 93.4859C36.6698 92.4784 36.1189 91.2882 35.8746 90.019C35.6325 88.8054 35.549 87.5655 35.6263 86.3305V86.2773C35.6858 83.4095 36.6133 80.6272 38.2863 78.2973C39.7004 76.5802 41.2739 75.0008 42.9856 73.5802C42.9856 74.4048 42.9856 75.2383 42.9856 76.054C42.9856 77.3485 42.9856 78.714 43.0832 80.0174C43.1989 81.9482 43.2167 83.8836 43.1364 85.8162C43.1364 86.3748 43.1364 86.9245 43.0743 87.4831C43.1142 89.28 42.8871 91.0729 42.4004 92.8031C42.2084 93.2526 41.9049 93.6457 41.5185 93.9452C41.1322 94.2446 40.6758 94.4405 40.1926 94.5144L40.2636 94.5765Z" fill="white"/>
<path id="Vector_3" d="M117.111 62.1154C116.721 61.9469 116.136 62.2839 115.338 62.8868C115.267 62.8868 115.222 62.9755 115.196 62.9843C114.513 63.4099 113.821 63.871 112.944 64.5537L111.17 65.8837C110.627 66.3145 110.109 66.7763 109.619 67.2669L109.042 67.8167C107.898 68.925 106.604 70.1663 105.105 70.5653C104.3 70.7811 103.455 70.8045 102.638 70.6335C101.822 70.4626 101.057 70.1021 100.406 69.5811C99.837 69.0426 99.4523 68.3383 99.3067 67.5684C99.2169 67.167 99.1782 66.7559 99.1914 66.3448C99.2045 66.1979 99.1877 66.0499 99.142 65.9097C99.0963 65.7695 99.0226 65.64 98.9254 65.5291C98.8484 65.4584 98.757 65.4052 98.6575 65.3731C98.5581 65.341 98.4529 65.3307 98.3491 65.3429C98.1031 65.3693 97.865 65.4446 97.6486 65.5645C97.5515 65.6162 97.4508 65.6607 97.3471 65.6975C96.9342 65.8344 96.5337 66.0065 96.1501 66.2118C95.4851 66.5576 94.8467 66.9655 94.2349 67.3645L93.7384 67.6837C92.2053 68.6913 90.622 69.6206 88.9947 70.4678C87.514 71.2037 85.9269 71.9042 84.3841 71.5141C84.095 71.4181 83.8228 71.2775 83.5772 71.0973H83.5151L83.2048 70.9111C82.8884 70.7543 82.6077 70.534 82.3802 70.2639C82.2004 70.0091 82.0432 69.7391 81.9103 69.457L81.8216 69.3063C81.7441 69.1966 81.6981 69.0678 81.6886 68.9339C81.7108 68.8714 81.7406 68.8118 81.7773 68.7565C81.7773 68.7565 81.7773 68.6679 81.8393 68.6324C82.333 67.6575 82.5478 66.5651 82.46 65.4759C82.4698 65.2125 82.3862 64.9541 82.224 64.7465C82.0617 64.5388 81.8312 64.3951 81.5733 64.3409C81.4236 64.3267 81.2726 64.3447 81.1304 64.3936C80.9881 64.4426 80.858 64.5213 80.7487 64.6247C80.7487 64.2523 80.7487 63.871 80.8108 63.5075V62.7804C80.8108 62.5676 80.8108 62.3459 80.8551 62.1243C80.8934 61.8111 80.996 61.5092 81.1566 61.2376L81.2275 61.0957C81.8834 59.7386 82.4433 58.3372 82.9033 56.9018C83.0097 56.5649 83.1339 56.2368 83.2491 55.8999C83.6768 54.784 84.0062 53.6329 84.2333 52.4596C84.3397 51.8123 84.455 51.0498 84.5171 50.2873V50.2163C84.6393 49.4942 84.5627 48.7525 84.2954 48.0706C84.2027 47.8827 84.0696 47.7177 83.9055 47.5874C83.7415 47.4571 83.5506 47.3647 83.3467 47.3169C83.1791 47.2771 83.0048 47.2747 82.8362 47.3099C82.6676 47.3452 82.5089 47.4172 82.3713 47.5209C81.8183 47.9347 81.4139 48.5164 81.2187 49.1789C81.0694 49.7299 80.9744 50.2942 80.9349 50.8636C80.9349 50.9966 80.9349 51.1296 80.9349 51.2626C80.9349 51.5286 80.864 51.7857 80.8374 52.0429C80.7753 52.5217 80.7133 53.0005 80.6423 53.4793C80.5714 53.9581 80.5448 54.2861 80.5093 54.6851C80.4739 55.0841 80.4384 55.4122 80.3852 55.7757C80.2699 56.556 80.1635 57.3185 80.1015 58.1077C80.1015 58.418 80.0483 58.7283 80.0217 58.9943C80.0217 59.4465 79.933 59.881 79.9064 60.3775V60.4573C79.9383 61.0007 79.7987 61.5404 79.5074 62.0001L79.2059 62.4612C78.5204 63.5399 77.7432 64.5574 76.8829 65.5025L76.8297 65.5557C76.0135 66.4862 75.0737 67.3006 74.0367 67.9763C73.15 68.526 71.6959 68.8629 70.7915 68.1536C70.3544 67.7635 70.0454 67.2505 69.9048 66.6817C69.809 66.371 69.7349 66.054 69.6831 65.733C69.6831 65.6798 69.6831 65.6177 69.6831 65.5468C69.6831 65.2099 69.6831 64.7045 69.2132 64.5803C69.1453 64.548 69.0711 64.5313 68.996 64.5313C68.9208 64.5313 68.8466 64.548 68.7787 64.5803C68.6957 64.6432 68.6273 64.7233 68.5783 64.8151C68.5293 64.907 68.5009 65.0084 68.495 65.1123V65.1833C68.495 65.4847 68.3975 65.7685 68.3265 66.0699C68.2576 66.2924 68.1528 66.502 68.0162 66.6906V66.6197C67.9328 66.2864 67.9147 65.9401 67.963 65.6C67.9563 65.5411 67.9563 65.4816 67.963 65.4227C68.0073 65.1212 68.0871 64.6513 67.7413 64.4207C67.681 64.3729 67.6098 64.3405 67.5341 64.3266C67.4583 64.3127 67.3803 64.3176 67.3069 64.3409C66.9522 64.4385 66.7483 64.8907 66.5975 65.2276L66.5177 65.4138C65.7911 66.6042 64.895 67.6824 63.8577 68.6147C63.2998 69.0979 62.7071 69.5394 62.0844 69.9358C61.7861 70.1577 61.4399 70.3065 61.0736 70.3703C60.8063 70.4111 60.533 70.3855 60.2779 70.2958C60.0228 70.2061 59.7936 70.0551 59.6106 69.856C59.3481 69.5384 59.1413 69.1786 58.9988 68.792C58.9142 68.5764 58.8165 68.3661 58.7062 68.1625C58.6465 68.035 58.5489 67.9291 58.4266 67.8592C58.3044 67.7894 58.1636 67.7591 58.0235 67.7723C57.9128 67.794 57.8125 67.8519 57.7386 67.9371C57.6647 68.0222 57.6214 68.1297 57.6156 68.2423C57.6257 68.5915 57.7299 68.9315 57.9171 69.2265L58.0235 69.457C58.2821 70.086 58.7084 70.6319 59.2559 71.0353C59.8165 71.4173 60.4998 71.5754 61.1711 71.4786C61.896 71.3598 62.5775 71.0542 63.1484 70.5919C64.2781 69.7686 65.3024 68.8098 66.1985 67.7369C66.4202 67.4797 66.6685 67.196 66.8901 66.8502C66.9228 67.0962 67.0306 67.3262 67.1988 67.5087C67.367 67.6911 67.5874 67.8173 67.83 67.8699C68.0493 67.8968 68.2716 67.8581 68.4689 67.7586C68.6661 67.6592 68.8295 67.5035 68.9383 67.3113C69.041 67.5536 69.1565 67.7904 69.2841 68.0206C69.5637 68.6555 70.056 69.1729 70.6762 69.4836C71.3007 69.7174 71.9723 69.7975 72.6344 69.7173C73.2964 69.637 73.9294 69.3988 74.48 69.0225C75.6833 68.25 76.7727 67.3128 77.7163 66.2384C78.4097 65.4614 79.0412 64.6313 79.6049 63.7557L79.7202 63.5784C79.7202 63.6582 79.7202 63.738 79.7202 63.8267C79.7202 64.2877 79.6493 64.7665 79.6493 65.2453C79.6493 65.5202 79.6493 65.7862 79.6493 66.0611C79.6803 66.6192 79.6803 67.1787 79.6493 67.7369C79.6049 68.3132 79.5961 68.8807 79.5872 69.4304C79.5872 69.7319 79.5872 70.0245 79.5872 70.3171C79.5872 70.6097 79.5872 71.0973 79.534 71.4875C79.534 72.0195 79.4631 72.5692 79.4631 73.1101C79.4631 73.8903 79.4631 74.6795 79.401 75.4509C79.3389 76.2223 79.3389 77.0203 79.3389 77.8094C79.3245 77.9492 79.3435 78.0905 79.3943 78.2215C79.4452 78.3526 79.5265 78.4696 79.6315 78.5631C79.7052 78.6113 79.7918 78.6361 79.8798 78.634C79.9627 78.6358 80.0449 78.6176 80.1192 78.5808C80.5359 78.3946 80.4916 77.7739 80.4561 77.3217C80.4561 77.2331 80.4561 77.1621 80.4561 77.1089V76.9316C80.4561 76.4262 80.4561 75.9208 80.4561 75.4154V74.8568C80.4561 73.9701 80.4561 73.0835 80.5359 72.1436V71.7889C80.5359 71.3545 80.5891 70.9023 80.598 70.4855V70.3703C80.5776 70.2529 80.5776 70.133 80.598 70.0156C80.6638 69.9635 80.7352 69.9189 80.8108 69.8826V69.9447C80.9533 70.2561 81.1255 70.553 81.3251 70.8313C81.7033 71.2783 82.1638 71.6486 82.6817 71.9219L82.9388 72.0815C83.5297 72.4257 84.1869 72.6408 84.867 72.7127C85.5471 72.7845 86.2347 72.7114 86.8845 72.4983C88.1358 72.1519 89.3304 71.6263 90.4311 70.9377H90.5021C91.6547 70.2639 92.8429 69.5723 93.9867 68.8452L94.3147 68.6413C95.0507 68.1802 95.8043 67.7014 96.5846 67.2847C96.4587 67.6011 96.4123 67.9435 96.4494 68.2821C96.4865 68.6206 96.6059 68.9448 96.7974 69.2265C96.9622 69.4155 97.1914 69.5366 97.4405 69.5661C97.6896 69.5956 97.9407 69.5314 98.1451 69.3861C98.3133 69.279 98.4532 69.133 98.553 68.9605C99.0885 70.0075 99.9867 70.8238 101.08 71.2569C101.909 71.6157 102.804 71.7957 103.707 71.785C104.61 71.7743 105.5 71.5732 106.32 71.1949C107.514 70.5477 108.605 69.7259 109.557 68.7565C110.649 67.7201 111.795 66.7405 112.988 65.8217L113.52 65.4138C114.052 65.0059 114.602 64.5892 115.169 64.2257C115.404 64.0774 115.647 63.9413 115.896 63.8178L116.357 63.5695L116.473 63.5075C116.836 63.3213 117.439 63.0021 117.359 62.5144C117.358 62.4315 117.335 62.3505 117.291 62.2801C117.247 62.2098 117.185 62.1528 117.111 62.1154ZM98.0565 66.7438C98.0605 66.7762 98.0605 66.809 98.0565 66.8413V66.9123C98.0356 67.1554 97.9911 67.396 97.9235 67.6305C97.853 67.8518 97.7609 68.0656 97.6486 68.2689C97.5941 68.0879 97.5801 67.8972 97.6077 67.7102C97.6353 67.5232 97.7037 67.3446 97.8082 67.1871C97.874 67.0305 97.9573 66.8818 98.0565 66.7438ZM83.4531 50.1099C83.4531 50.2075 83.4531 50.305 83.4531 50.3937C83.3976 51.3166 83.2642 52.2331 83.0541 53.1335C82.9388 53.5768 82.7881 54.0201 82.6373 54.4723C82.5664 54.6763 82.4955 54.8802 82.4334 55.0841C82.061 56.2457 81.6354 57.5313 81.1211 58.8081C81.1921 58.1077 81.2807 57.4072 81.3694 56.7245C81.4581 56.0417 81.5645 55.1285 81.6443 54.3216C81.6443 53.896 81.7507 53.4349 81.8127 53.0537C81.8748 52.6724 81.9369 52.167 81.9812 51.7325V51.369C82.0088 50.7316 82.116 50.1001 82.3004 49.4893C82.4866 49.0016 82.8235 48.443 83.0807 48.3721H83.1339C83.1803 48.3745 83.2243 48.3933 83.258 48.4253C83.5949 48.6913 83.5063 49.5779 83.4531 50.1099ZM80.6867 67.8699C80.6867 67.6925 80.6867 67.5152 80.6867 67.3467C80.6795 67.0487 80.7093 66.7508 80.7753 66.4601C80.8347 66.2285 80.9403 66.0114 81.0857 65.8217C81.1642 65.7208 81.2501 65.626 81.3428 65.5379C81.4815 66.3773 81.3447 67.239 80.9527 67.994C80.8698 67.9412 80.7804 67.8995 80.6867 67.8699Z" fill="white"/>
<path id="Vector_4" d="M49.6533 51.2363C49.476 51.3988 49.3073 51.5705 49.1479 51.7506L48.9883 51.919C48.2258 52.7348 47.5253 53.6037 46.8692 54.4283C45.4698 56.1875 44.2602 58.0896 43.2604 60.103C43.2604 60.103 43.2072 60.2005 43.1629 60.2803C42.622 61.2911 42.1432 62.293 42.2762 62.7984C42.2964 62.8651 42.3317 62.9262 42.3794 62.9769C42.4271 63.0277 42.4858 63.0667 42.5511 63.091C42.6095 63.104 42.67 63.104 42.7284 63.091C42.7897 63.1054 42.8534 63.1054 42.9146 63.091C43.0461 63.0164 43.161 62.9158 43.2525 62.7954C43.3439 62.675 43.41 62.5372 43.4466 62.3906C43.6262 61.912 43.8334 61.4442 44.0673 60.9896L44.1471 60.83C44.9888 59.0449 46.0077 57.3487 47.1884 55.7672C47.9522 54.7164 48.7752 53.7098 49.6533 52.7525L49.9548 52.4422C50.2651 52.123 50.5754 51.8038 50.8414 51.4757C50.9024 51.4122 50.9675 51.353 51.0365 51.2984C51.2083 51.1655 51.3553 51.0034 51.471 50.8196C51.5345 50.6975 51.5551 50.5577 51.5293 50.4225C51.5036 50.2874 51.433 50.1649 51.3291 50.0748C51.2411 50.0079 51.1337 49.9717 51.0232 49.9717C50.9127 49.9717 50.8053 50.0079 50.7173 50.0748L50.4956 50.2432C50.3387 50.3972 50.1907 50.56 50.0523 50.7309C49.8927 50.9348 49.7597 51.0944 49.6533 51.2363Z" fill="white"/>
<path id="Vector_5" d="M54.6098 58.409C54.6881 58.454 54.7766 58.4785 54.8669 58.4799C54.9801 58.4762 55.0903 58.4426 55.1861 58.3824C55.2556 58.3353 55.315 58.2748 55.3608 58.2044C55.4066 58.1341 55.4378 58.0552 55.4527 57.9726C55.4676 57.89 55.4658 57.8053 55.4474 57.7234C55.429 57.6414 55.3945 57.564 55.3457 57.4957C55.3186 57.4287 55.2783 57.3678 55.2273 57.3166C55.1762 57.2654 55.1154 57.225 55.0484 57.1977C54.9815 57.1704 54.9097 57.1568 54.8374 57.1578C54.7651 57.1587 54.6938 57.1741 54.6275 57.2031C54.526 57.2606 54.4418 57.3446 54.3841 57.446C54.3263 57.5475 54.2971 57.6627 54.2995 57.7794C54.2884 57.9027 54.3115 58.0267 54.3662 58.1378C54.4209 58.2488 54.5052 58.3427 54.6098 58.409Z" fill="white"/>
<path id="Vector_6" d="M54.2552 55.173L54.4059 55.4479L54.4768 55.4036C54.5462 55.4458 54.6262 55.4674 54.7074 55.4656H54.8492C54.989 55.424 55.1117 55.3387 55.1995 55.2222C55.2872 55.1057 55.3354 54.9642 55.3369 54.8184C55.3433 54.6954 55.3119 54.5734 55.2469 54.4687C55.1819 54.3641 55.0865 54.2819 54.9734 54.2332C54.8579 54.1956 54.7338 54.1932 54.6169 54.2264C54.5001 54.2595 54.3958 54.3267 54.3172 54.4194C54.2597 54.487 54.2186 54.567 54.197 54.6531C54.1755 54.7392 54.1741 54.8292 54.1931 54.9159L54.2552 55.173Z" fill="white"/>
<path id="Vector_7" d="M54.2641 53.5237C54.2813 53.6435 54.3308 53.7564 54.4073 53.8501C54.4839 53.9439 54.5846 54.0149 54.6986 54.0557C54.7514 54.0641 54.8053 54.0641 54.8582 54.0557C54.934 54.0544 55.0087 54.0371 55.0775 54.005C55.1462 53.973 55.2074 53.9268 55.2572 53.8695C55.3662 53.7476 55.4265 53.5897 55.4265 53.4262C55.4265 53.2626 55.3662 53.1047 55.2572 52.9828C55.1729 52.875 55.0504 52.8037 54.915 52.7839C54.7796 52.7641 54.6417 52.7972 54.5301 52.8764C54.4249 52.9442 54.343 53.0425 54.2954 53.1583C54.2479 53.274 54.2369 53.4015 54.2641 53.5237Z" fill="white"/>
<path id="Vector_8" d="M54.7517 50.5449C54.6973 50.6353 54.6683 50.7387 54.6679 50.8442C54.6674 50.9496 54.6954 51.0533 54.749 51.1442C54.8026 51.235 54.8798 51.3097 54.9724 51.3603C55.0649 51.4109 55.1694 51.4355 55.2749 51.4316C55.3479 51.4296 55.4199 51.4146 55.4877 51.3872C55.6017 51.3389 55.6983 51.257 55.7648 51.1525C55.8313 51.048 55.8645 50.9258 55.8601 50.802C55.8688 50.6635 55.8265 50.5265 55.741 50.417C55.6556 50.3076 55.533 50.2332 55.3964 50.2081C55.2598 50.183 55.1188 50.2088 55 50.2807C54.8812 50.3525 54.7929 50.4655 54.7517 50.5981V50.5449Z" fill="white"/>
<path id="Vector_9" d="M55.5231 61.2554C55.6374 61.2558 55.7487 61.2187 55.84 61.1499C55.9313 61.081 55.9975 60.9842 56.0285 60.8741C56.0336 60.8388 56.0336 60.803 56.0285 60.7677V60.4485H56.0373C55.9911 60.3251 55.9033 60.2217 55.7891 60.1559C55.6889 60.0948 55.5739 60.0625 55.4566 60.0625C55.3393 60.0625 55.2242 60.0948 55.1241 60.1559C55.0331 60.2207 54.9629 60.3104 54.9219 60.4143C54.881 60.5182 54.8712 60.6317 54.8935 60.7411C54.9191 60.8882 54.9968 61.0212 55.1124 61.1157C55.228 61.2101 55.3738 61.2597 55.5231 61.2554Z" fill="white"/>
<path id="Vector_10" d="M57.7841 67.7817C57.8441 67.7809 57.9034 67.7679 57.9583 67.7436C58.0131 67.7192 58.0625 67.6839 58.1033 67.6399H58.1654L58.2452 67.3827C58.2695 67.241 58.2524 67.0953 58.1957 66.9631C58.1391 66.831 58.0454 66.718 57.926 66.6379C57.8284 66.5722 57.7107 66.5433 57.5937 66.5563C57.4768 66.5693 57.3683 66.6233 57.2876 66.7089C57.1897 66.7953 57.1217 66.9104 57.093 67.0377C57.0644 67.1651 57.0766 67.2982 57.128 67.4182C57.18 67.5385 57.2651 67.6415 57.3734 67.7153C57.4817 67.7891 57.6088 67.8306 57.7398 67.8349L57.7841 67.7817Z" fill="white"/>
<path id="Vector_11" d="M52.6325 65.2099L52.3665 65.1478H52.3133C52.2108 65.122 52.1031 65.1257 52.0026 65.1587C51.9022 65.1917 51.8131 65.2525 51.7459 65.334C51.6712 65.4222 51.6219 65.5289 51.6032 65.6429C51.5844 65.7569 51.597 65.8739 51.6395 65.9813C51.6825 66.0782 51.7518 66.1612 51.8396 66.2207C51.9273 66.2803 52.03 66.3141 52.136 66.3182H52.1803C52.3268 66.3176 52.4682 66.2645 52.5789 66.1685C52.6895 66.0725 52.762 65.94 52.7833 65.7951C52.7991 65.7069 52.7928 65.6162 52.765 65.5311C52.7371 65.446 52.6886 65.3691 52.6237 65.3074L52.6325 65.2099Z" fill="white"/>
<path id="Vector_12" d="M54.1399 56.5564C54.1748 56.6717 54.2467 56.7724 54.3444 56.8428C54.4421 56.9133 54.5603 56.9498 54.6808 56.9465C54.7998 56.9489 54.9164 56.9132 55.0137 56.8446C55.111 56.776 55.1839 56.6782 55.2216 56.5653C55.2687 56.4375 55.277 56.2986 55.2454 56.1661C55.2139 56.0336 55.1439 55.9134 55.0443 55.8205C54.9607 55.7393 54.8519 55.689 54.7359 55.6777C54.62 55.6664 54.5036 55.6949 54.4059 55.7584C54.2882 55.8507 54.2002 55.9755 54.1529 56.1174C54.1056 56.2593 54.1011 56.412 54.1399 56.5564Z" fill="white"/>
<path id="Vector_13" d="M56.8708 65.1394L57.3851 64.9709V64.8911C57.4627 64.7888 57.5061 64.6648 57.5092 64.5364C57.5191 64.4013 57.4891 64.2662 57.4229 64.148C57.3567 64.0298 57.2572 63.9336 57.1368 63.8714C57.0314 63.8201 56.9121 63.8044 56.7969 63.8268C56.6818 63.8492 56.577 63.9084 56.4984 63.9956C56.406 64.1249 56.3563 64.2799 56.3563 64.4389C56.3563 64.5979 56.406 64.7529 56.4984 64.8822C56.5416 64.9487 56.599 65.0046 56.6664 65.046C56.7339 65.0875 56.8098 65.1133 56.8886 65.1216L56.8708 65.1394Z" fill="white"/>
<path id="Vector_14" d="M56.1969 62.4349C56.3385 62.4072 56.4651 62.329 56.5532 62.2148C56.6413 62.1006 56.6849 61.9582 56.6757 61.8143C56.6673 61.7012 56.6275 61.5926 56.561 61.5008C56.4944 61.409 56.4037 61.3375 56.2988 61.2942C56.194 61.251 56.0792 61.2378 55.9672 61.256C55.8553 61.2743 55.7506 61.3232 55.6649 61.3975C55.5854 61.4735 55.5297 61.5709 55.5045 61.6779C55.4793 61.785 55.4857 61.897 55.523 62.0005C55.5592 62.1286 55.6356 62.2418 55.7409 62.3232C55.8463 62.4047 55.9751 62.45 56.1082 62.4527L56.1969 62.4349Z" fill="white"/>
<path id="Vector_15" d="M55.0531 61.7788H54.9733L54.6985 61.7256V61.7877C54.6314 61.8058 54.5687 61.8371 54.5139 61.8797C54.4591 61.9223 54.4133 61.9754 54.3793 62.0359C54.3106 62.1672 54.2832 62.3162 54.3006 62.4633C54.318 62.6104 54.3794 62.7489 54.4768 62.8605C54.5225 62.9116 54.5785 62.9522 54.6412 62.9798C54.704 63.0073 54.7718 63.0211 54.8403 63.0201C54.9333 63.0176 55.0244 62.9933 55.1063 62.9492C55.2244 62.8892 55.3205 62.7934 55.381 62.6756C55.4414 62.5578 55.4632 62.424 55.4433 62.2931C55.437 62.1782 55.3965 62.0678 55.327 61.9762C55.2574 61.8845 55.1621 61.8158 55.0531 61.7788Z" fill="white"/>
<path id="Vector_16" d="M53.342 64.1642H53.2622C53.1721 64.1423 53.0779 64.1447 52.9891 64.1712C52.9003 64.1977 52.8201 64.2473 52.7568 64.315C52.6679 64.4055 52.6052 64.5185 52.5756 64.6419C52.5459 64.7652 52.5503 64.8944 52.5883 65.0154C52.6186 65.1119 52.6754 65.198 52.7522 65.2638C52.829 65.3296 52.9228 65.3726 53.0228 65.3878H53.1203C53.2591 65.3863 53.3931 65.337 53.4997 65.2481C53.6063 65.1593 53.679 65.0364 53.7055 64.9002C53.7512 64.7543 53.739 64.5964 53.6713 64.4593C53.6036 64.3222 53.4856 64.2165 53.342 64.1642Z" fill="white"/>
<path id="Vector_17" d="M51.1074 66.2123H51.0188C50.8752 66.2423 50.7485 66.326 50.6644 66.4463C50.5804 66.5666 50.5454 66.7144 50.5666 66.8596C50.5733 67.0086 50.6368 67.1494 50.7439 67.2532C50.851 67.3571 50.9937 67.416 51.1429 67.4182C51.2437 67.4162 51.342 67.3861 51.4266 67.3313C51.5112 67.2764 51.5788 67.199 51.6217 67.1078C51.6691 66.9994 51.6883 66.8807 51.6775 66.7629C51.6666 66.6451 51.6261 66.5319 51.5596 66.434C51.5084 66.3625 51.4403 66.3049 51.3614 66.2662C51.2825 66.2275 51.1953 66.209 51.1074 66.2123Z" fill="white"/>
<path id="Vector_18" d="M54.468 51.9015C54.4316 52.0336 54.4387 52.1738 54.4882 52.3016C54.5377 52.4293 54.627 52.5377 54.7428 52.6108L54.9911 52.7261V52.6729C55.1132 52.6712 55.2303 52.6238 55.3192 52.5399C55.4116 52.4479 55.4757 52.3314 55.504 52.2041C55.5323 52.0769 55.5235 51.9442 55.4788 51.8217C55.4436 51.7124 55.3751 51.6169 55.2828 51.5485C55.1906 51.4801 55.0793 51.4423 54.9645 51.4404C54.8426 51.4523 54.728 51.5038 54.6383 51.5871C54.5486 51.6704 54.4888 51.7808 54.468 51.9015Z" fill="white"/>
<path id="Vector_19" d="M56.5782 63.6669C56.6667 63.6659 56.7531 63.6395 56.827 63.5907C56.9009 63.542 56.9592 63.473 56.9949 63.392C57.0639 63.2866 57.1007 63.1634 57.1007 63.0374C57.1007 62.9114 57.0639 62.7881 56.9949 62.6827C56.913 62.595 56.8077 62.5325 56.6914 62.5027C56.5752 62.4728 56.4528 62.4768 56.3388 62.5142C56.2245 62.535 56.1211 62.5951 56.0466 62.6842C55.972 62.7733 55.9311 62.8857 55.9309 63.0019C55.9444 63.1534 56.0046 63.2969 56.103 63.4128C56.2014 63.5287 56.3334 63.6113 56.4806 63.6492L56.5782 63.6669Z" fill="white"/>
<path id="Vector_20" d="M56.6226 49.135C56.7288 49.1366 56.8332 49.1083 56.9242 49.0535C57.0151 48.9986 57.0888 48.9194 57.1369 48.8247C57.198 48.7245 57.2303 48.6095 57.2303 48.4922C57.2303 48.3749 57.198 48.2598 57.1369 48.1597C57.0777 48.0772 56.9962 48.0133 56.902 47.9756C56.8077 47.9378 56.7046 47.9279 56.6049 47.9469C56.4534 47.971 56.3172 48.0528 56.2246 48.1751C56.1321 48.2974 56.0904 48.4507 56.1083 48.603C56.1104 48.7404 56.1647 48.8719 56.2603 48.9707C56.3558 49.0695 56.4853 49.1283 56.6226 49.135Z" fill="white"/>
<path id="Vector_21" d="M55.6473 48.869C55.5081 48.8477 55.366 48.8773 55.2469 48.9523C55.1278 49.0273 55.0397 49.1426 54.9988 49.2773C54.9579 49.4119 54.9668 49.5568 55.0241 49.6854C55.0813 49.814 55.1829 49.9176 55.3103 49.9774C55.4056 50.0388 55.5161 50.0726 55.6295 50.0749C55.7326 50.0758 55.8338 50.0482 55.9221 49.9951C56.0213 49.9431 56.0996 49.8586 56.1438 49.7557H56.2059V49.1971H56.1349C56.0922 49.1025 56.0239 49.0217 55.9377 48.9638C55.8516 48.9058 55.751 48.873 55.6473 48.869Z" fill="white"/>
<path id="Vector_22" d="M58.7328 53.6658C58.7402 53.5414 58.7115 53.4174 58.6501 53.3089C58.5888 53.2004 58.4974 53.1119 58.387 53.054C58.3008 53.0205 58.2062 53.0153 58.1169 53.0392C58.0276 53.0631 57.9483 53.1149 57.8904 53.187C57.7785 53.3053 57.7126 53.4596 57.7045 53.6222C57.6963 53.7847 57.7466 53.9449 57.8461 54.0737C57.8893 54.1398 57.9486 54.194 58.0183 54.2312C58.0881 54.2684 58.1661 54.2874 58.2451 54.2865C58.3345 54.286 58.4225 54.2648 58.5022 54.2244C58.5928 54.1657 58.6633 54.0808 58.7045 53.981C58.7457 53.8813 58.7555 53.7713 58.7328 53.6658Z" fill="white"/>
<path id="Vector_23" d="M57.3673 58.5335C57.4777 58.4464 57.5548 58.3239 57.5855 58.1866C57.6162 58.0493 57.5986 57.9057 57.5358 57.7798C57.4919 57.6768 57.4172 57.5899 57.322 57.5312C57.2267 57.4724 57.1155 57.4447 57.0038 57.4518C56.8823 57.465 56.7675 57.5142 56.6743 57.5933C56.581 57.6723 56.5136 57.7774 56.4806 57.8951C56.4585 57.9687 56.4519 58.046 56.461 58.1223C56.4702 58.1986 56.495 58.2722 56.5338 58.3384L56.9683 58.6665L57.0126 58.6133C57.1367 58.6325 57.2634 58.604 57.3673 58.5335Z" fill="white"/>
<path id="Vector_24" d="M55.0708 59.8814C55.1626 59.8809 55.2521 59.8532 55.328 59.8016C55.4481 59.7056 55.5356 59.5749 55.5784 59.4272C55.6213 59.2796 55.6174 59.1223 55.5673 58.977C55.5438 58.9048 55.5045 58.8388 55.4524 58.7836C55.4003 58.7284 55.3366 58.6854 55.2659 58.6578V58.5957H54.9999H54.7161V58.6755C54.6325 58.7487 54.571 58.844 54.5388 58.9504C54.4956 59.0702 54.4876 59.1998 54.5159 59.324C54.5442 59.4482 54.6075 59.5616 54.6984 59.6508C54.7414 59.7127 54.7966 59.7651 54.8607 59.8048C54.9247 59.8444 54.9963 59.8705 55.0708 59.8814Z" fill="white"/>
<path id="Vector_25" d="M54.3616 63.2154C54.3141 63.1606 54.2556 63.1165 54.1899 63.086C54.1242 63.0554 54.0528 63.0391 53.9803 63.0381C53.8675 63.0335 53.7559 63.0627 53.6598 63.122C53.5636 63.1812 53.4874 63.2678 53.4407 63.3706C53.3941 63.4734 53.3791 63.5878 53.3979 63.6992C53.4166 63.8105 53.4681 63.9137 53.5458 63.9957C53.6045 64.0596 53.6757 64.1107 53.7551 64.1458C53.8344 64.1809 53.9201 64.1992 54.0069 64.1996C54.1127 64.2003 54.2168 64.1728 54.3084 64.1198C54.379 64.0784 54.4384 64.0204 54.4817 63.9509C54.5249 63.8814 54.5507 63.8024 54.5566 63.7208H54.6098L54.4148 63.2243L54.3616 63.2154Z" fill="white"/>
<path id="Vector_26" d="M58.1299 56.4143C58.1164 56.2732 58.0489 56.1428 57.9415 56.0502C57.8341 55.9577 57.6951 55.9103 57.5536 55.9178C57.4458 55.9192 57.3407 55.9517 57.2511 56.0115C57.1614 56.0713 57.0909 56.1558 57.0482 56.2547C56.9864 56.3579 56.9539 56.4758 56.9539 56.5961C56.9539 56.7163 56.9864 56.8343 57.0482 56.9374C57.0971 56.9956 57.1582 57.0424 57.2271 57.0745C57.296 57.1067 57.3711 57.1235 57.4472 57.1236L57.6334 57.0704C57.782 57.0406 57.9145 56.9573 58.006 56.8365C58.0975 56.7156 58.1415 56.5654 58.1299 56.4143Z" fill="white"/>
<path id="Vector_27" d="M56.392 60.0678C56.4816 60.0688 56.5704 60.0512 56.6528 60.0161C56.7353 59.981 56.8095 59.9292 56.8708 59.8639C56.9471 59.7681 56.9886 59.6493 56.9886 59.5269C56.9886 59.4045 56.9471 59.2858 56.8708 59.19C56.8154 59.0885 56.728 59.0082 56.6221 58.9617C56.5162 58.9152 56.3979 58.905 56.2856 58.9329C56.1474 58.9626 56.0245 59.0413 55.9398 59.1545H55.86V59.4205V59.4826C55.8459 59.5931 55.8687 59.7051 55.9248 59.8013C55.9809 59.8976 56.0672 59.9725 56.1704 60.0146C56.2391 60.0493 56.315 60.0675 56.392 60.0678Z" fill="white"/>
<path id="Vector_28" d="M50.1853 67.1694H50.0789C49.9777 67.1693 49.8785 67.1985 49.7935 67.2536C49.7085 67.3087 49.6413 67.3872 49.6001 67.4798C49.5486 67.5929 49.5312 67.7186 49.5501 67.8414C49.569 67.9643 49.6234 68.079 49.7065 68.1714C49.7558 68.2256 49.8161 68.2687 49.8834 68.2978C49.9507 68.3268 50.0234 68.3412 50.0967 68.3398C50.1641 68.3526 50.2332 68.3526 50.3006 68.3398C50.4277 68.2939 50.5346 68.2049 50.6026 68.0882C50.6707 67.9715 50.6956 67.8346 50.673 67.7014C50.6629 67.571 50.6093 67.4477 50.521 67.3513C50.4326 67.2549 50.3144 67.1908 50.1853 67.1694Z" fill="white"/>
<path id="Vector_29" d="M57.6334 48.6206C57.492 48.6526 57.3683 48.7375 57.2875 48.8578C57.2067 48.9782 57.175 49.1249 57.199 49.2679C57.2058 49.4067 57.2658 49.5375 57.3665 49.6333C57.4672 49.729 57.6009 49.7823 57.7398 49.7822C57.848 49.7879 57.9556 49.7626 58.0499 49.7092C58.1442 49.6558 58.2212 49.5765 58.2718 49.4807C58.3194 49.3779 58.3379 49.2641 58.3254 49.1516C58.3129 49.0391 58.2698 48.9321 58.2009 48.8423C58.1365 48.756 58.0491 48.6895 57.9489 48.6503C57.8486 48.6112 57.7393 48.6009 57.6334 48.6206Z" fill="white"/>
<path id="Vector_30" d="M58.3604 51.4134H58.2629H57.9791V51.4932C57.905 51.5567 57.8482 51.6381 57.814 51.7296C57.7799 51.8211 57.7696 51.9197 57.7841 52.0163C57.7951 52.1551 57.8576 52.2848 57.9593 52.38C58.061 52.4751 58.1946 52.5288 58.3338 52.5306H58.4136C58.5487 52.5004 58.6688 52.4233 58.7524 52.313C58.8361 52.2027 58.8779 52.0662 58.8704 51.928C58.863 51.7897 58.8068 51.6586 58.7118 51.5579C58.6168 51.4572 58.4891 51.3934 58.3515 51.3779L58.3604 51.4134Z" fill="white"/>
<path id="Vector_31" d="M58.121 50.0658C57.9861 50.0725 57.8588 50.1303 57.7649 50.2275C57.6711 50.3246 57.6177 50.4538 57.6156 50.5889C57.6221 50.7279 57.6802 50.8595 57.7786 50.9579C57.877 51.0563 58.0086 51.1144 58.1476 51.1209C58.2384 51.1229 58.3282 51.102 58.4088 51.0602C58.4893 51.0183 58.5581 50.9569 58.6087 50.8815C58.6605 50.7951 58.6871 50.6959 58.6856 50.5952C58.6841 50.4945 58.6545 50.3962 58.6001 50.3114C58.5457 50.2266 58.4687 50.1587 58.3778 50.1153C58.2869 50.0719 58.1857 50.0547 58.0855 50.0658H58.121Z" fill="white"/>
<path id="Vector_32" d="M58.5201 55.3774C58.5605 55.2746 58.5728 55.1629 58.5557 55.0538C58.5385 54.9447 58.4926 54.8422 58.4226 54.7567C58.3616 54.6828 58.2809 54.6277 58.1899 54.5979C58.0988 54.568 58.0012 54.5647 57.9083 54.5883C57.7644 54.6222 57.6391 54.7102 57.5582 54.834C57.4773 54.9577 57.4471 55.1078 57.4738 55.2533C57.4869 55.3858 57.5484 55.5088 57.6466 55.5988C57.7448 55.6888 57.8727 55.7394 58.0058 55.7409H58.059C58.1614 55.7272 58.2582 55.6862 58.3393 55.6223C58.4204 55.5583 58.4829 55.4737 58.5201 55.3774Z" fill="white"/>
</g>
</g>
</svg>
