<svg width="360" height="338" viewBox="0 0 360 338" fill="none" xmlns="http://www.w3.org/2000/svg">
<g clip-path="url(#clip0)">
<path d="M352.705 38.6719L360.004 42.3493V40.048C357.612 39.3413 355.169 38.8666 352.705 38.6719Z" fill="#CAB0FF"/>
<path d="M337.676 40.7639L360.022 52.0253V49.0386L341.372 39.6386C340.124 39.9453 338.889 40.3213 337.676 40.7639Z" fill="#CAB0FF"/>
<path d="M328.447 45.7585L359.989 61.6572V58.6705L330.949 44.0332C330.095 44.5719 329.263 45.1452 328.447 45.7585Z" fill="#CAB0FF"/>
<path d="M323.567 50.1884C322.999 50.8098 322.461 51.4471 321.943 52.0978L359.991 71.2711V68.2844L323.733 50.0098C323.679 50.0711 323.621 50.1271 323.567 50.1884Z" fill="#CAB0FF"/>
<path d="M317.461 59.5128L360.01 80.9581V77.9715L318.656 57.1288C318.224 57.9128 317.826 58.7075 317.461 59.5128Z" fill="#CAB0FF"/>
<path d="M314.824 67.8122L359.981 90.5723V87.5856L315.422 65.1269C315.19 66.0176 314.99 66.9136 314.824 67.8122Z" fill="#CAB0FF"/>
<path d="M314.422 77.2302L360.033 100.217V97.2302L314.297 74.1796C314.294 75.1982 314.337 76.2142 314.422 77.2302Z" fill="#CAB0FF"/>
<path d="M317.116 88.2041L358.135 108.876C358.764 108.727 359.38 108.508 360.002 108.324V106.831L315.791 84.5508C316.167 85.7881 316.607 87.0068 317.116 88.2041Z" fill="#CAB0FF"/>
<path d="M323.35 97.998C324.136 98.8727 324.971 99.718 325.859 100.526C331.806 105.955 339.094 108.99 346.539 109.683L323.35 97.998Z" fill="#CAB0FF"/>
<path d="M349.877 139.133L341.349 130.605L338.994 132.963L347.525 141.488L338.994 150.016L341.349 152.371L349.877 143.843L358.408 152.371L360.031 150.747V149.288L352.231 141.488L360.031 133.691V132.232L358.408 130.605L349.877 139.133Z" fill="#CAB0FF"/>
<path d="M277.01 77.6664L285.538 69.1357L294.069 77.6664L296.418 75.3091L287.893 66.7837L296.418 58.2557L294.069 55.8984L285.538 64.4291L277.01 55.8984L274.658 58.2557L283.186 66.7837L274.658 75.3091L277.01 77.6664Z" fill="#CAB0FF"/>
<path d="M222.794 124.799C222.794 123.879 222.048 123.135 221.128 123.135H216.114V118.119C216.114 117.199 215.368 116.455 214.448 116.455C213.533 116.455 212.786 117.199 212.786 118.119V123.135H207.77C206.85 123.135 206.104 123.879 206.104 124.799C206.104 125.719 206.85 126.466 207.77 126.466H212.786V131.479C212.786 132.399 213.533 133.146 214.448 133.146C215.368 133.146 216.114 132.399 216.114 131.479V126.466H221.128C222.048 126.466 222.794 125.719 222.794 124.799Z" fill="#CAB0FF"/>
<path d="M203.079 46.9185V54.0918H193.517L203.079 46.9185ZM206.41 45.2545H248.695L236.911 54.0918H206.41V45.2545ZM239.13 101.377V94.2039H248.695L239.13 101.377ZM235.802 103.041H193.517L205.301 94.2039H235.802V103.041ZM203.079 91.7052L190.186 101.377V57.4225H203.079V91.7052ZM235.802 90.8732H206.41V57.4225H235.802V90.8732ZM239.13 56.5905L252.026 46.9185V90.8732H239.13V56.5905ZM187.445 54.5132C187.357 54.5879 187.287 54.6758 187.218 54.7638C187.154 54.8465 187.093 54.9292 187.048 55.0225C187 55.1132 186.975 55.2092 186.946 55.3052C186.917 55.4145 186.887 55.5292 186.877 55.6465C186.874 55.6865 186.855 55.7185 186.855 55.7585V104.705C186.855 104.772 186.885 104.825 186.89 104.889C186.906 105.006 186.925 105.121 186.959 105.228C186.994 105.332 187.05 105.433 187.106 105.532C187.138 105.588 187.149 105.652 187.189 105.705C187.21 105.732 187.245 105.74 187.266 105.769C187.383 105.905 187.522 106.015 187.669 106.103C187.727 106.137 187.77 106.183 187.829 106.212C188.042 106.308 188.271 106.372 188.522 106.372H237.469C237.669 106.372 237.864 106.324 238.056 106.252C238.12 106.228 238.181 106.188 238.239 106.156C238.314 106.116 238.397 106.092 238.466 106.038L254.69 93.8705C254.722 93.8465 254.738 93.8092 254.765 93.7852C254.855 93.7078 254.925 93.6198 254.992 93.5318C255.056 93.4492 255.117 93.3665 255.167 93.2732C255.21 93.1825 255.237 93.0865 255.264 92.9905C255.298 92.8812 255.322 92.7692 255.333 92.6465C255.336 92.6092 255.354 92.5772 255.354 92.5372V43.5905C255.354 43.5238 255.325 43.4705 255.317 43.4065C255.303 43.2918 255.287 43.1772 255.25 43.0678C255.213 42.9612 255.162 42.8625 255.104 42.7638C255.074 42.7078 255.063 42.6438 255.021 42.5905C254.997 42.5612 254.965 42.5452 254.938 42.5158C254.858 42.4278 254.773 42.3559 254.682 42.2892C254.602 42.2252 254.52 42.1612 254.424 42.1158C254.336 42.0705 254.239 42.0438 254.143 42.0145C254.034 41.9852 253.922 41.9558 253.802 41.9478C253.762 41.9452 253.733 41.9238 253.69 41.9238H204.746C204.677 41.9238 204.621 41.9558 204.557 41.9638C204.442 41.9772 204.33 41.9959 204.223 42.0305C204.119 42.0652 204.018 42.1185 203.919 42.1745C203.861 42.2065 203.799 42.2172 203.746 42.2572L187.522 54.4252C187.487 54.4492 187.474 54.4865 187.445 54.5132Z" fill="#CAB0FF"/>
<path d="M191.907 152.921H195.326C196.27 152.921 197.038 152.158 197.038 151.211C197.038 150.267 196.27 149.502 195.326 149.502H191.907C190.963 149.502 190.195 150.267 190.195 151.211C190.195 152.158 190.963 152.921 191.907 152.921Z" fill="#CAB0FF"/>
<path d="M239.059 151.827C239.059 150.88 238.291 150.117 237.347 150.117C236.4 150.117 235.635 150.88 235.635 151.827V155.245C235.635 156.189 236.4 156.955 237.347 156.955C238.291 156.955 239.059 156.189 239.059 155.245V151.827Z" fill="#CAB0FF"/>
<path d="M189.756 162.367C189.756 162.439 189.791 162.503 189.799 162.575C189.905 163.415 190.599 164.076 191.468 164.076C192.34 164.076 193.031 163.415 193.137 162.575C193.148 162.503 193.177 162.439 193.177 162.367V158.946C193.177 158.002 192.412 157.236 191.468 157.236C190.521 157.236 189.756 158.002 189.756 158.946V162.367Z" fill="#CAB0FF"/>
<path d="M231.579 151.211C231.579 150.267 230.814 149.502 229.867 149.502H226.448C225.504 149.502 224.736 150.267 224.736 151.211C224.736 152.158 225.504 152.921 226.448 152.921H229.867C230.814 152.921 231.579 152.158 231.579 151.211Z" fill="#CAB0FF"/>
<path d="M220.065 151.211C220.065 150.267 219.295 149.502 218.353 149.502H214.935C213.988 149.502 213.223 150.267 213.223 151.211C213.223 152.158 213.988 152.921 214.935 152.921H218.353C219.295 152.921 220.065 152.158 220.065 151.211Z" fill="#CAB0FF"/>
<path d="M208.549 151.211C208.549 150.267 207.784 149.502 206.84 149.502H203.418C202.474 149.502 201.709 150.267 201.709 151.211C201.709 152.158 202.474 152.921 203.418 152.921H206.84C207.784 152.921 208.549 152.158 208.549 151.211Z" fill="#CAB0FF"/>
<path d="M260.42 146.584H310.633L298.079 124.84L285.526 103.096L272.972 124.84L260.42 146.584Z" fill="#CAB0FF"/>
<path d="M65.3063 123.275C65.6396 123.713 66.1516 123.942 66.6636 123.942C67.0263 123.942 67.3943 123.827 67.7063 123.587C71.757 120.47 76.6103 118.819 81.741 118.819C86.8637 118.819 91.7169 120.47 95.7676 123.585C96.5196 124.161 97.5943 124.019 98.1676 123.27C98.7436 122.523 98.6023 121.449 97.853 120.873C93.197 117.294 87.6263 115.401 81.741 115.401C75.8503 115.401 70.277 117.294 65.621 120.875C64.869 121.451 64.7303 122.526 65.3063 123.275Z" fill="#CAB0FF"/>
<path d="M157.407 55.8105C156.484 55.8105 155.743 56.5572 155.743 57.4772V62.4905H150.726C149.809 62.4905 149.062 63.2372 149.062 64.1572C149.062 65.0772 149.809 65.8211 150.726 65.8211H155.743V70.8371C155.743 71.7571 156.484 72.5038 157.407 72.5038C158.324 72.5038 159.071 71.7571 159.071 70.8371V65.8211H164.087C165.004 65.8211 165.748 65.0772 165.748 64.1572C165.748 63.2372 165.004 62.4905 164.087 62.4905H159.071V57.4772C159.071 56.5572 158.324 55.8105 157.407 55.8105Z" fill="#CAB0FF"/>
<path d="M38.609 152.559C37.801 152.073 36.7503 152.335 36.2623 153.143C35.6383 154.183 35.0783 155.273 34.593 156.385C34.2197 157.252 34.6197 158.257 35.4837 158.633C35.7077 158.729 35.937 158.775 36.1637 158.775C36.825 158.775 37.4544 158.388 37.7344 157.743C38.153 156.769 38.6463 155.812 39.193 154.905C39.681 154.095 39.417 153.044 38.609 152.559Z" fill="#CAB0FF"/>
<path d="M85.728 157.074C85.2747 155.951 84.7414 154.847 84.1414 153.796C83.6774 152.972 82.6374 152.687 81.8134 153.154C80.9921 153.62 80.7041 154.663 81.1707 155.484C81.6934 156.407 82.16 157.372 82.5574 158.356C82.8267 159.02 83.4667 159.426 84.1414 159.426C84.3547 159.426 84.5733 159.383 84.784 159.3C85.6587 158.946 86.0827 157.948 85.728 157.074Z" fill="#CAB0FF"/>
<path d="M75.9088 144.805C75.1382 144.261 74.0688 144.445 73.5275 145.218C72.9808 145.989 73.1648 147.055 73.9381 147.602C74.8048 148.213 75.6422 148.885 76.4262 149.607C76.7542 149.909 77.1702 150.058 77.5862 150.058C78.0475 150.058 78.5034 149.871 78.8421 149.503C79.4848 148.81 79.4368 147.727 78.7408 147.09C77.8501 146.269 76.8955 145.498 75.9088 144.805Z" fill="#CAB0FF"/>
<path d="M57.9845 141.473C57.8512 140.54 56.9739 139.902 56.0459 140.025C54.8459 140.198 53.6486 140.454 52.4859 140.78C51.5793 141.033 51.0486 141.977 51.3046 142.889C51.5153 143.641 52.2033 144.134 52.95 144.134C53.102 144.134 53.2592 144.116 53.4139 144.07C54.4299 143.785 55.4832 143.564 56.5365 143.409C57.4725 143.276 58.1205 142.409 57.9845 141.473Z" fill="#CAB0FF"/>
<path d="M47.0684 144.816C46.5511 144.035 45.4951 143.813 44.7004 144.339C43.6951 145.005 42.7217 145.749 41.8044 146.555C41.0924 147.176 41.0231 148.259 41.6444 148.968C41.9831 149.352 42.4551 149.549 42.9324 149.549C43.3324 149.549 43.7323 149.411 44.0603 149.125C44.8603 148.424 45.711 147.771 46.591 147.189C47.3777 146.664 47.5937 145.605 47.0684 144.816Z" fill="#CAB0FF"/>
<path d="M69.3309 143.108C69.6109 142.204 69.1042 141.247 68.2002 140.969C67.0509 140.612 65.8562 140.329 64.6616 140.124C63.7469 139.959 62.8455 140.593 62.6909 141.524C62.5309 142.457 63.1603 143.34 64.0883 143.497C65.1363 143.673 66.1816 143.924 67.1923 144.236C67.3603 144.287 67.5309 144.313 67.6989 144.313C68.4296 144.313 69.1043 143.841 69.3309 143.108Z" fill="#CAB0FF"/>
<path d="M97.9702 70.6243L112.546 55.299L127.122 70.6243C127.45 70.9683 127.89 71.139 128.33 71.139C128.741 71.139 129.154 70.987 129.477 70.6804C130.141 70.0484 130.168 68.9924 129.536 68.3284L113.754 51.7364C113.125 51.075 111.968 51.075 111.341 51.7364L95.5568 68.3284C94.9222 68.9924 94.9489 70.0484 95.6155 70.6804C96.2795 71.315 97.3328 71.291 97.9702 70.6243Z" fill="#CAB0FF"/>
<path d="M95.6155 81.4908C96.2795 82.1255 97.3328 82.0988 97.9702 81.4348L112.546 66.1095L127.122 81.4348C127.45 81.7762 127.89 81.9522 128.33 81.9522C128.741 81.9522 129.154 81.8001 129.477 81.4908C130.141 80.8588 130.168 79.8055 129.536 79.1388L113.754 62.5468C113.125 61.8855 111.968 61.8855 111.341 62.5468L95.5568 79.1388C94.9222 79.8055 94.9489 80.8588 95.6155 81.4908Z" fill="#CAB0FF"/>
<path d="M128.33 92.76C128.741 92.76 129.154 92.608 129.477 92.3013C130.141 91.6693 130.168 90.6133 129.536 89.9493L113.754 73.3573C113.125 72.696 111.968 72.696 111.341 73.3573L95.5568 89.9493C94.9222 90.6133 94.9489 91.6693 95.6155 92.3013C96.2795 92.936 97.3328 92.9093 97.9702 92.2427L112.546 76.92L127.122 92.2427C127.45 92.5867 127.89 92.76 128.33 92.76Z" fill="#CAB0FF"/>
<path d="M86.3876 22.7881L98.4382 14.2547L110.492 22.7881C111.068 23.1987 111.841 23.1987 112.417 22.7881L124.468 14.2547L136.521 22.7881C137.097 23.1987 137.87 23.1987 138.446 22.7881L150.5 14.2547L162.545 22.7881C163.121 23.1987 163.897 23.1987 164.473 22.7881L176.524 14.2547L188.577 22.7881C188.87 22.9987 189.204 23.0974 189.537 23.0974C190.062 23.0974 190.574 22.8521 190.9 22.3934C191.428 21.6441 191.254 20.6041 190.505 20.0734L177.489 10.8548C176.913 10.4441 176.14 10.4441 175.558 10.8548L163.51 19.3908L151.462 10.8548C150.884 10.4441 150.11 10.4441 149.537 10.8548L137.484 19.3908L125.43 10.8548C124.857 10.4441 124.084 10.4441 123.505 10.8548L111.454 19.3908L99.4036 10.8548C98.8249 10.4441 98.0516 10.4441 97.4756 10.8548L84.4596 20.0734C83.7103 20.6041 83.5369 21.6441 84.0649 22.3934C84.5983 23.1427 85.6303 23.3214 86.3876 22.7881Z" fill="#CAB0FF"/>
<path d="M138.402 5.09334L145.591 0H139.828L137.439 1.69336L135.05 0H129.287L136.476 5.09334C137.052 5.50401 137.826 5.50401 138.402 5.09334Z" fill="#CAB0FF"/>
<path d="M189.465 5.40002C189.99 5.40002 190.502 5.15467 190.828 4.696C191.356 3.94667 191.182 2.90668 190.433 2.37602L187.078 0H181.318L188.505 5.09334C188.798 5.29868 189.132 5.40002 189.465 5.40002Z" fill="#CAB0FF"/>
<path d="M112.386 5.09334L119.576 0H113.816L111.424 1.69336L109.034 0H103.271L110.461 5.09334C111.037 5.50401 111.81 5.50401 112.386 5.09334Z" fill="#CAB0FF"/>
<path d="M164.415 5.09334L171.604 0H165.844L163.452 1.69336L161.06 0H155.303L162.487 5.09334C163.063 5.50401 163.839 5.50401 164.415 5.09334Z" fill="#CAB0FF"/>
<path d="M86.3876 5.09334L93.5769 0H87.8143L84.4596 2.37602C83.7103 2.90668 83.5369 3.94667 84.0649 4.696C84.5983 5.448 85.6303 5.62668 86.3876 5.09334Z" fill="#CAB0FF"/>
<path d="M56.0742 39.0956L64.5995 47.6236L56.0742 56.1516L58.4262 58.5063L66.9542 49.9783L75.4822 58.5063L77.8369 56.1516L69.3089 47.6236L77.8369 39.0956L75.4822 36.7383L66.9542 45.269L58.4262 36.7383L56.0742 39.0956Z" fill="#CAB0FF"/>
<path d="M317.273 26.2249C327.364 26.2249 335.545 18.0436 335.545 7.95561V7.91028H299.004V7.95561C299.004 18.0436 307.185 26.2249 317.273 26.2249Z" fill="#CAB0FF"/>
<path d="M57.3468 11.4983C58.2908 11.4983 59.0588 10.733 59.0588 9.78898V6.37032C59.0588 5.42365 58.2908 4.65833 57.3468 4.65833C56.4001 4.65833 55.6348 5.42365 55.6348 6.37032V9.78898C55.6348 10.733 56.4001 11.4983 57.3468 11.4983Z" fill="#CAB0FF"/>
<path d="M42.4028 18.7996H45.8241C46.7681 18.7996 47.5334 18.0343 47.5334 17.0903C47.5334 16.1463 46.7681 15.3809 45.8241 15.3809H42.4028C41.4614 15.3809 40.6934 16.1463 40.6934 17.0903C40.6934 18.0343 41.4614 18.7996 42.4028 18.7996Z" fill="#CAB0FF"/>
<path d="M57.4008 0H57.2168C57.2488 7.40741e-06 57.2755 5.18799e-05 57.3101 5.18799e-05C57.3421 5.18799e-05 57.3688 7.40741e-06 57.4008 0Z" fill="#CAB0FF"/>
<path d="M53.919 18.7996H57.3377C58.2817 18.7996 59.0497 18.0343 59.0497 17.0903C59.0497 16.1463 58.2817 15.3809 57.3377 15.3809H53.919C52.9724 15.3809 52.207 16.1463 52.207 17.0903C52.207 18.0343 52.9724 18.7996 53.919 18.7996Z" fill="#CAB0FF"/>
<path d="M253.605 11.2029C253.912 11.2029 254.221 11.1202 254.501 10.9495C255.531 10.3149 256.53 9.60551 257.469 8.83751C258.2 8.24284 258.312 7.16553 257.715 6.43219C257.115 5.69619 256.037 5.58954 255.309 6.18687C254.488 6.85887 253.608 7.48285 252.709 8.03485C251.904 8.53085 251.653 9.5842 252.149 10.3869C252.474 10.9149 253.035 11.2029 253.605 11.2029Z" fill="#CAB0FF"/>
<path d="M217.009 1.08268C217.276 1.08268 217.545 1.01867 217.798 0.890666C218.177 0.693332 218.43 0.368 218.577 0H215.42C215.447 0.0533333 215.465 0.109346 215.492 0.162679C215.796 0.746679 216.393 1.08268 217.009 1.08268Z" fill="#CAB0FF"/>
<path d="M242.793 14.9033C242.851 14.9033 242.913 14.9033 242.977 14.8953C244.182 14.7646 245.39 14.554 246.563 14.2713C247.481 14.0473 248.041 13.1219 247.819 12.2046C247.595 11.2846 246.659 10.7273 245.753 10.9459C244.726 11.1966 243.67 11.3806 242.609 11.4953C241.67 11.5966 240.993 12.4393 241.094 13.3779C241.187 14.2553 241.926 14.9033 242.793 14.9033Z" fill="#CAB0FF"/>
<path d="M230.896 13.5201C232.04 13.9201 233.224 14.2455 234.41 14.4908C234.528 14.5148 234.642 14.5255 234.757 14.5255C235.552 14.5255 236.266 13.9681 236.432 13.1601C236.618 12.2348 236.026 11.3308 235.098 11.1414C234.058 10.9281 233.024 10.6401 232.021 10.2908C231.133 9.98143 230.154 10.4481 229.842 11.3415C229.53 12.2321 230.002 13.2081 230.896 13.5201Z" fill="#CAB0FF"/>
<path d="M260.846 2.96269C261.134 3.15202 261.457 3.24003 261.777 3.24003C262.337 3.24003 262.884 2.96536 263.212 2.46403C263.718 1.68003 264.158 0.842667 264.593 0H260.681C260.561 0.194667 260.47 0.407997 260.348 0.597331C259.83 1.38666 260.052 2.44802 260.846 2.96269Z" fill="#CAB0FF"/>
<path d="M223.336 9.44127C223.646 9.67594 224.008 9.78795 224.368 9.78795C224.886 9.78795 225.398 9.55596 225.736 9.11062C226.304 8.35862 226.158 7.2866 225.406 6.71593C224.558 6.07593 223.744 5.37194 222.99 4.62527C222.318 3.96127 221.235 3.96662 220.571 4.63862C219.907 5.31062 219.915 6.39328 220.587 7.05728C221.448 7.91061 222.374 8.71061 223.336 9.44127Z" fill="#CAB0FF"/>
<path d="M338.545 321.786L325.553 299.281C324.959 298.249 323.268 298.249 322.671 299.281L309.676 321.786H301.884L324.111 283.284L346.343 321.786H338.545ZM313.524 321.786L324.111 303.441L334.703 321.786H313.524ZM346.343 341.946H301.884L311.601 325.116H336.625L346.343 341.946ZM350.665 324.284C350.967 323.77 350.967 323.132 350.665 322.62L325.553 279.121C324.959 278.092 323.268 278.092 322.671 279.121L297.556 322.62C297.26 323.132 297.26 323.77 297.556 324.284C297.857 324.799 298.404 325.116 298.999 325.116H307.756L297.556 342.778C297.26 343.295 297.26 343.93 297.556 344.442C297.857 344.959 298.404 345.276 298.999 345.276H349.225C349.823 345.276 350.369 344.959 350.665 344.442C350.967 343.93 350.967 343.295 350.665 342.778L340.471 325.116H349.225C349.823 325.116 350.369 324.799 350.665 324.284Z" fill="#CAB0FF"/>
<path d="M261.741 295.401C255.85 295.401 250.277 297.294 245.621 300.875C244.869 301.454 244.73 302.526 245.306 303.272C245.64 303.71 246.152 303.939 246.664 303.939C247.026 303.939 247.394 303.824 247.706 303.587C251.757 300.47 256.61 298.819 261.741 298.819C266.864 298.819 271.717 300.47 275.768 303.587C276.522 304.16 277.592 304.022 278.168 303.27C278.744 302.523 278.602 301.449 277.853 300.873C273.197 297.294 267.626 295.401 261.741 295.401Z" fill="#CAB0FF"/>
<path d="M196.766 230.797C195.881 229.781 194.932 228.805 193.913 227.875C187.825 222.317 180.334 219.269 172.705 218.672L196.766 230.797Z" fill="#CAB0FF"/>
<path d="M202.801 240.521L161.375 219.639C160.127 219.948 158.892 220.321 157.676 220.764L204.086 244.156C203.729 242.927 203.297 241.713 202.801 240.521Z" fill="#CAB0FF"/>
<path d="M134.422 257.23L188.649 284.561C189.516 284.03 190.353 283.457 191.174 282.846L134.297 254.18C134.294 255.198 134.337 256.214 134.422 257.23Z" fill="#CAB0FF"/>
<path d="M181.868 287.775L135.791 264.551C136.167 265.788 136.607 267.009 137.116 268.207L178.135 288.879C179.396 288.58 180.639 288.212 181.868 287.775Z" fill="#CAB0FF"/>
<path d="M166.536 289.683L143.35 277.998C144.136 278.873 144.971 279.718 145.859 280.526C151.806 285.958 159.091 288.99 166.536 289.683Z" fill="#CAB0FF"/>
<path d="M178.408 332.371L180.759 330.016L172.231 321.488L180.759 312.963L178.408 310.605L169.877 319.133L161.349 310.605L158.994 312.963L167.522 321.488L158.994 330.016L161.349 332.371L169.877 323.843L178.408 332.371Z" fill="#CAB0FF"/>
<path d="M114.069 235.898L105.538 244.426L97.0102 235.898L94.6582 238.256L103.186 246.781L94.6582 255.309L97.0102 257.666L105.538 249.138L114.069 257.666L116.418 255.309L107.893 246.781L116.418 238.256L114.069 235.898Z" fill="#CAB0FF"/>
<path d="M337.407 235.811C336.487 235.811 335.743 236.555 335.743 237.475V242.491H330.727C329.809 242.491 329.062 243.235 329.062 244.155C329.062 245.075 329.809 245.819 330.727 245.819H335.743V250.837C335.743 251.755 336.487 252.501 337.407 252.501C338.327 252.501 339.071 251.755 339.071 250.837V245.819H344.087C345.007 245.819 345.75 245.075 345.75 244.155C345.75 243.235 345.007 242.491 344.087 242.491H339.071V237.475C339.071 236.555 338.327 235.811 337.407 235.811Z" fill="#CAB0FF"/>
<path d="M41.1275 303.135H36.1142V298.119C36.1142 297.199 35.3675 296.455 34.4475 296.455C33.5328 296.455 32.7862 297.199 32.7862 298.119V303.135H27.7702C26.8502 303.135 26.1035 303.879 26.1035 304.802C26.1035 305.719 26.8502 306.466 27.7702 306.466H32.7862V311.482C32.7862 312.399 33.5328 313.146 34.4475 313.146C35.3675 313.146 36.1142 312.399 36.1142 311.482V306.466H41.1275C42.0475 306.466 42.7942 305.719 42.7942 304.802C42.7942 303.879 42.0475 303.135 41.1275 303.135Z" fill="#CAB0FF"/>
<path d="M59.1301 281.374V274.201H68.6955L59.1301 281.374ZM55.8022 283.038H13.5168L25.3008 274.201H55.8022V283.038ZM23.0794 226.918V234.089H13.5168L23.0794 226.918ZM26.4102 225.254H68.6955L56.9115 234.089H26.4102V225.254ZM59.1301 236.588L72.0261 226.918V270.87H59.1301V236.588ZM26.4102 237.42H55.8022V270.87H26.4102V237.42ZM23.0794 271.705L10.1861 281.374V237.42H23.0794V271.705ZM75.2502 223.068C75.2128 222.958 75.1621 222.86 75.1034 222.761C75.0741 222.705 75.0634 222.641 75.0207 222.59C74.9967 222.556 74.9648 222.542 74.9381 222.513C74.8581 222.422 74.7728 222.353 74.6821 222.286C74.6021 222.222 74.5194 222.158 74.4234 222.11C74.3354 222.068 74.2395 222.044 74.1462 222.014C74.0342 221.98 73.9195 221.953 73.7995 221.945C73.7595 221.942 73.7301 221.924 73.6901 221.924H24.7461C24.6794 221.924 24.6261 221.953 24.5621 221.958C24.4448 221.972 24.3301 221.99 24.2208 222.028C24.1168 222.065 24.0181 222.113 23.9221 222.172C23.8635 222.204 23.7994 222.214 23.7461 222.254L7.52214 234.422C7.49014 234.446 7.47416 234.484 7.44482 234.51C7.35682 234.585 7.28743 234.673 7.2181 234.761C7.15677 234.846 7.09278 234.926 7.04744 235.02C6.99944 235.11 6.97548 235.206 6.94881 235.3C6.91681 235.412 6.88746 235.524 6.87679 235.644C6.87412 235.684 6.85547 235.716 6.85547 235.753V284.703C6.85547 284.767 6.88482 284.825 6.89282 284.887C6.90616 285.004 6.92482 285.116 6.96216 285.225C6.99682 285.329 7.05012 285.431 7.10612 285.529C7.13812 285.585 7.1488 285.647 7.1888 285.703C7.21014 285.732 7.24478 285.737 7.26611 285.764C7.38345 285.905 7.52212 286.012 7.66878 286.1C7.72745 286.134 7.77013 286.18 7.83146 286.209C8.04213 286.305 8.27147 286.369 8.52214 286.369H57.4688C57.6688 286.369 57.8634 286.321 58.0554 286.249C58.1194 286.225 58.1808 286.185 58.2394 286.153C58.3141 286.113 58.3968 286.087 58.4661 286.036L74.6901 273.868C74.7221 273.844 74.7381 273.809 74.7648 273.78C74.8555 273.705 74.9248 273.62 74.9914 273.532C75.0555 273.447 75.1168 273.364 75.1675 273.273C75.2101 273.18 75.2368 273.084 75.2634 272.988C75.2981 272.878 75.3221 272.764 75.3328 272.644C75.3354 272.609 75.3541 272.574 75.3541 272.534V223.588C75.3541 223.521 75.3248 223.468 75.3168 223.404C75.3035 223.289 75.2875 223.174 75.2502 223.068Z" fill="#CAB0FF"/>
<path d="M38.3534 329.502H34.9347C34.7507 329.502 34.5853 329.553 34.4173 329.603C33.732 329.825 33.2227 330.449 33.2227 331.211C33.2227 331.974 33.732 332.598 34.4173 332.819C34.5853 332.87 34.7507 332.923 34.9347 332.923H38.3534C39.2947 332.923 40.0653 332.158 40.0653 331.211C40.0653 330.267 39.2947 329.502 38.3534 329.502Z" fill="#CAB0FF"/>
<path d="M57.3468 330.117C56.4001 330.117 55.6348 330.883 55.6348 331.824V335.245C55.6348 336.189 56.4001 336.955 57.3468 336.955C58.2908 336.955 59.0588 336.189 59.0588 335.245V331.824C59.0588 330.883 58.2908 330.117 57.3468 330.117Z" fill="#CAB0FF"/>
<path d="M49.867 329.502H46.4483C45.5043 329.502 44.7363 330.267 44.7363 331.211C44.7363 332.158 45.5043 332.923 46.4483 332.923H49.867C50.8137 332.923 51.579 332.158 51.579 331.211C51.579 330.267 50.8137 329.502 49.867 329.502Z" fill="#CAB0FF"/>
<path d="M218.609 332.56C217.798 332.072 216.75 332.336 216.262 333.144C215.638 334.181 215.078 335.272 214.593 336.384C214.22 337.253 214.62 338.256 215.484 338.632C215.708 338.728 215.937 338.776 216.164 338.776C216.825 338.776 217.454 338.386 217.734 337.741C218.153 336.77 218.646 335.813 219.193 334.906C219.681 334.096 219.417 333.045 218.609 332.56Z" fill="#CAB0FF"/>
<path d="M224.7 324.339C223.695 325.005 222.722 325.749 221.804 326.555C221.092 327.176 221.023 328.259 221.644 328.965C221.983 329.355 222.455 329.549 222.932 329.549C223.332 329.549 223.732 329.411 224.06 329.125C224.86 328.424 225.711 327.771 226.591 327.187C227.378 326.667 227.594 325.603 227.068 324.816C226.548 324.035 225.495 323.813 224.7 324.339Z" fill="#CAB0FF"/>
<path d="M264.141 339.422C264.355 339.422 264.573 339.385 264.784 339.299C265.659 338.945 266.083 337.947 265.728 337.073C265.275 335.95 264.741 334.849 264.141 333.795C263.677 332.971 262.637 332.689 261.813 333.153C260.992 333.619 260.704 334.662 261.171 335.483C261.693 336.406 262.16 337.371 262.557 338.353C262.827 339.019 263.467 339.422 264.141 339.422Z" fill="#CAB0FF"/>
<path d="M255.909 324.805C255.138 324.261 254.069 324.445 253.527 325.218C252.981 325.991 253.165 327.055 253.938 327.599C254.805 328.213 255.642 328.885 256.426 329.607C256.754 329.909 257.17 330.058 257.586 330.058C258.047 330.058 258.503 329.871 258.842 329.506C259.485 328.81 259.437 327.727 258.741 327.09C257.85 326.269 256.896 325.498 255.909 324.805Z" fill="#CAB0FF"/>
<path d="M236.046 320.025C234.846 320.199 233.649 320.452 232.486 320.777C231.579 321.033 231.049 321.977 231.305 322.887C231.515 323.641 232.203 324.137 232.95 324.137C233.102 324.137 233.259 324.116 233.414 324.071C234.43 323.785 235.483 323.564 236.537 323.409C237.473 323.276 238.121 322.409 237.985 321.476C237.851 320.54 236.969 319.9 236.046 320.025Z" fill="#CAB0FF"/>
<path d="M248.2 320.966C247.051 320.611 245.856 320.326 244.662 320.123C243.739 319.961 242.846 320.593 242.691 321.523C242.531 322.457 243.16 323.339 244.088 323.499C245.136 323.672 246.182 323.923 247.192 324.235C247.36 324.286 247.531 324.312 247.699 324.312C248.43 324.312 249.104 323.84 249.331 323.107C249.611 322.203 249.104 321.248 248.2 320.966Z" fill="#CAB0FF"/>
<path d="M277.97 250.622L292.546 235.299L307.122 250.622C307.45 250.968 307.89 251.139 308.33 251.139C308.741 251.139 309.154 250.99 309.477 250.683C310.141 250.048 310.167 248.995 309.535 248.328L293.754 231.736C293.125 231.075 291.967 231.075 291.341 231.736L275.557 248.328C274.922 248.995 274.949 250.048 275.616 250.683C276.28 251.315 277.333 251.286 277.97 250.622Z" fill="#CAB0FF"/>
<path d="M275.616 261.491C276.28 262.125 277.333 262.099 277.97 261.432L292.546 246.11L307.122 261.432C307.45 261.779 307.89 261.949 308.33 261.949C308.741 261.949 309.154 261.8 309.477 261.491C310.141 260.859 310.167 259.806 309.535 259.139L293.754 242.547C293.125 241.886 291.967 241.886 291.341 242.547L275.557 259.139C274.922 259.806 274.949 260.859 275.616 261.491Z" fill="#CAB0FF"/>
<path d="M308.33 272.763C308.741 272.763 309.154 272.608 309.477 272.301C310.141 271.669 310.167 270.616 309.535 269.949L293.754 253.357C293.125 252.696 291.967 252.696 291.341 253.357L275.557 269.949C274.922 270.616 274.949 271.669 275.616 272.301C276.28 272.936 277.333 272.907 277.97 272.245L292.546 256.92L307.122 272.245C307.45 272.589 307.89 272.763 308.33 272.763Z" fill="#CAB0FF"/>
<path d="M212.883 245.511C208.475 245.511 204.4 246.919 201.059 249.292L150.942 224.033C150.088 224.567 149.256 225.143 148.44 225.756L198.814 251.145C197.347 252.537 196.086 254.14 195.083 255.911L143.723 230.028C143.67 230.087 143.611 230.145 143.558 230.201C142.99 230.825 142.451 231.463 141.934 232.113L193.923 258.313C193.171 260.175 192.691 262.169 192.515 264.252L138.627 237.092C138.195 237.873 137.798 238.671 137.432 239.476L192.494 267.228C192.662 269.964 193.366 272.545 194.502 274.887L135.422 245.111C135.19 246.001 134.99 246.897 134.824 247.796L195.875 278.567C195.976 278.457 196.08 278.35 196.179 278.238C196.251 278.164 196.31 278.081 196.379 278.009C200.099 283.094 206.096 286.412 212.883 286.412C224.176 286.412 233.336 277.257 233.336 265.964C233.336 254.665 224.176 245.511 212.883 245.511Z" fill="#CAB0FF"/>
<path d="M130.633 326.584L118.079 304.84L105.527 283.096L92.9719 304.84L80.4199 326.584H130.633Z" fill="#CAB0FF"/>
<path d="M355.561 190.855L343.513 199.391L331.462 190.855C330.884 190.444 330.11 190.444 329.537 190.855L317.484 199.391L305.43 190.855C304.857 190.444 304.084 190.444 303.505 190.855L291.454 199.391L279.404 190.855C278.825 190.444 278.052 190.444 277.476 190.855L264.46 200.073C263.71 200.604 263.537 201.644 264.065 202.393C264.598 203.143 265.633 203.324 266.388 202.788L278.438 194.252L290.492 202.788C291.068 203.201 291.841 203.201 292.417 202.788L304.468 194.252L316.521 202.788C317.097 203.201 317.87 203.201 318.446 202.788L330.5 194.252L342.548 202.788C343.124 203.201 343.897 203.201 344.473 202.788L356.526 194.252L360.033 196.737V192.657L357.489 190.855C356.913 190.444 356.14 190.444 355.561 190.855Z" fill="#CAB0FF"/>
<path d="M355.561 173.189L343.513 181.725L331.462 173.189C330.884 172.778 330.11 172.778 329.537 173.189L317.484 181.725L305.43 173.189C304.857 172.778 304.084 172.778 303.505 173.189L291.454 181.725L279.404 173.189C278.825 172.778 278.052 172.778 277.476 173.189L264.46 182.407C263.71 182.938 263.537 183.978 264.065 184.727C264.598 185.477 265.633 185.655 266.388 185.122L278.438 176.589L290.492 185.122C291.068 185.535 291.841 185.535 292.417 185.122L304.468 176.589L316.521 185.122C317.097 185.535 317.87 185.535 318.446 185.122L330.5 176.589L342.548 185.122C343.124 185.535 343.897 185.535 344.473 185.122L356.526 176.589L360.033 179.071V174.991L357.489 173.189C356.913 172.778 356.14 172.778 355.561 173.189Z" fill="#CAB0FF"/>
<path d="M255.482 238.506L257.837 236.152L249.309 227.621L257.837 219.096L255.482 216.738L246.954 225.269L238.426 216.738L236.074 219.096L244.6 227.621L236.074 236.152L238.426 238.506L246.954 229.976L255.482 238.506Z" fill="#CAB0FF"/>
<path d="M239.059 163.34C239.059 163.036 238.955 162.764 238.819 162.519C238.523 161.996 237.987 161.631 237.347 161.631C236.707 161.631 236.171 161.996 235.875 162.519C235.736 162.764 235.635 163.036 235.635 163.34V166.759C235.635 167.703 236.4 168.471 237.347 168.471C238.291 168.471 239.059 167.703 239.059 166.759V163.34Z" fill="#CAB0FF"/>
<path d="M189.756 196.908C189.756 197.852 190.521 198.617 191.468 198.617C192.412 198.617 193.177 197.852 193.177 196.908V193.489C193.177 192.543 192.412 191.777 191.468 191.777C190.521 191.777 189.756 192.543 189.756 193.489V196.908Z" fill="#CAB0FF"/>
<path d="M222.403 198.8H225.824C226.768 198.8 227.533 198.037 227.533 197.09C227.533 196.146 226.768 195.381 225.824 195.381H222.403C221.461 195.381 220.693 196.146 220.693 197.09C220.693 198.037 221.461 198.8 222.403 198.8Z" fill="#CAB0FF"/>
<path d="M237.338 195.381H233.919C232.972 195.381 232.207 196.146 232.207 197.09C232.207 198.037 232.972 198.8 233.919 198.8H237.338C238.282 198.8 239.05 198.037 239.05 197.09C239.05 196.146 238.282 195.381 237.338 195.381Z" fill="#CAB0FF"/>
<path d="M210.892 195.381C209.948 195.381 209.18 196.146 209.18 197.09C209.18 198.037 209.948 198.8 210.892 198.8H214.313C215.26 198.8 216.025 198.037 216.025 197.09C216.025 196.146 215.26 195.381 214.313 195.381H210.892Z" fill="#CAB0FF"/>
<path d="M202.799 195.381H199.378C198.434 195.381 197.666 196.146 197.666 197.09C197.666 198.037 198.434 198.8 199.378 198.8H202.799C203.743 198.8 204.511 198.037 204.511 197.09C204.511 196.146 203.743 195.381 202.799 195.381Z" fill="#CAB0FF"/>
<path d="M239.059 174.857C239.059 173.913 238.291 173.145 237.347 173.145C236.4 173.145 235.635 173.913 235.635 174.857V178.275C235.635 179.219 236.4 179.985 237.347 179.985C238.291 179.985 239.059 179.219 239.059 178.275V174.857Z" fill="#CAB0FF"/>
<path d="M239.059 186.365C239.059 185.424 238.291 184.658 237.347 184.658C236.4 184.658 235.635 185.424 235.635 186.365V189.786C235.635 190.73 236.4 191.496 237.347 191.496C238.291 191.496 239.059 190.73 239.059 189.786V186.365Z" fill="#CAB0FF"/>
<path d="M189.756 173.881C189.756 174.825 190.521 175.59 191.468 175.59C192.412 175.59 193.177 174.825 193.177 173.881V170.459C193.177 169.515 192.412 168.75 191.468 168.75C190.521 168.75 189.756 169.515 189.756 170.459V173.881Z" fill="#CAB0FF"/>
<path d="M189.756 185.394C189.756 186.338 190.521 187.104 191.468 187.104C192.412 187.104 193.177 186.338 193.177 185.394V181.973C193.177 181.029 192.412 180.264 191.468 180.264C190.521 180.264 189.756 181.029 189.756 181.973V185.394Z" fill="#CAB0FF"/>
<path d="M131.601 145.118H156.625L166.343 161.948H121.884L131.601 145.118ZM154.703 141.788H133.524L144.111 123.446L154.703 141.788ZM121.884 141.788L144.111 103.286L166.343 141.788H158.543L145.553 119.284C144.959 118.252 143.268 118.252 142.671 119.284L129.676 141.788H121.884ZM170.665 164.444C170.967 163.932 170.967 163.294 170.665 162.78L170.551 162.588L160.471 145.118H169.225C169.823 145.118 170.369 144.801 170.665 144.284C170.967 143.772 170.967 143.134 170.665 142.62L145.553 99.1235C144.959 98.0915 143.268 98.0915 142.671 99.1235L117.556 142.62C117.26 143.134 117.26 143.772 117.556 144.284C117.857 144.801 118.404 145.118 118.999 145.118H127.756L117.671 162.588L117.556 162.78C117.26 163.294 117.26 163.932 117.556 164.444C117.857 164.961 118.404 165.278 118.999 165.278H169.225C169.823 165.278 170.369 164.961 170.665 164.444Z" fill="#CAB0FF"/>
<path d="M119.004 187.956C119.004 198.044 127.185 206.225 137.273 206.225C147.364 206.225 155.545 198.044 155.545 187.956V187.91H119.004V187.956Z" fill="#CAB0FF"/>
<path d="M85.5048 172.491C85.5848 172.499 85.6595 172.504 85.7342 172.504C86.5795 172.504 87.3128 171.88 87.4275 171.019C87.5875 169.829 87.6648 168.605 87.6648 167.384C87.6648 166.725 87.6408 166.072 87.5982 165.421C87.5315 164.48 86.7262 163.771 85.7742 163.832C84.8302 163.899 84.1208 164.715 84.1848 165.659C84.2248 166.227 84.2435 166.805 84.2435 167.384C84.2435 168.456 84.1742 169.528 84.0382 170.571C83.9155 171.507 84.5715 172.365 85.5048 172.491Z" fill="#CAB0FF"/>
<path d="M81.777 183.237C82.337 183.237 82.8837 182.962 83.2117 182.461C83.8677 181.45 84.4703 180.381 84.9957 179.279C85.3983 178.426 85.0383 177.407 84.185 177.002C83.329 176.597 82.3104 176.959 81.905 177.81C81.449 178.773 80.9236 179.709 80.3476 180.594C79.8303 181.383 80.0517 182.445 80.8463 182.959C81.1343 183.149 81.457 183.237 81.777 183.237Z" fill="#CAB0FF"/>
<path d="M65.7526 190.945C64.726 191.196 63.67 191.383 62.6087 191.495C61.67 191.596 60.9927 192.436 61.094 193.377C61.1874 194.255 61.926 194.905 62.7927 194.905C62.8513 194.905 62.9127 194.903 62.9767 194.895C64.182 194.764 65.39 194.553 66.5633 194.271C67.4807 194.047 68.0406 193.121 67.8193 192.201C67.5953 191.281 66.6593 190.729 65.7526 190.945Z" fill="#CAB0FF"/>
<path d="M34.3917 163.239C34.373 163.236 34.3544 163.223 34.3331 163.22C33.3678 163.132 32.557 163.823 32.4717 164.764C32.3863 165.636 32.3438 166.522 32.3438 167.415C32.3438 167.746 32.3517 168.076 32.3624 168.404C32.3971 169.324 33.1544 170.047 34.0664 170.047H34.1383C34.229 170.042 34.3037 170.002 34.3917 169.983C35.2023 169.823 35.8131 169.124 35.7784 168.271C35.7677 167.988 35.7651 167.703 35.7651 167.415C35.7651 166.628 35.8024 165.852 35.8717 165.084C35.9597 164.167 35.2983 163.359 34.3917 163.239Z" fill="#CAB0FF"/>
<path d="M52.0209 190.29C51.1303 189.981 50.1516 190.45 49.8423 191.344C49.5303 192.234 50.0023 193.21 50.8956 193.522C52.0396 193.922 53.2237 194.25 54.4103 194.493C54.5277 194.517 54.6423 194.528 54.7569 194.528C55.5516 194.528 56.2663 193.97 56.4316 193.162C56.6183 192.237 56.0263 191.333 55.0983 191.144C54.0583 190.93 53.0236 190.642 52.0209 190.29Z" fill="#CAB0FF"/>
<path d="M40.5712 184.64C39.9071 185.312 39.9152 186.394 40.5872 187.058C41.4485 187.912 42.3739 188.714 43.3365 189.445C43.6459 189.677 44.0085 189.792 44.3685 189.792C44.8858 189.792 45.3979 189.557 45.7365 189.114C46.3045 188.362 46.1579 187.288 45.4059 186.717C44.5579 186.077 43.7445 185.376 42.9899 184.626C42.3179 183.96 41.2352 183.968 40.5712 184.64Z" fill="#CAB0FF"/>
<path d="M75.3092 186.186C74.4878 186.858 73.6079 187.482 72.7092 188.037C71.9039 188.53 71.6532 189.586 72.1492 190.386C72.4745 190.914 73.0345 191.202 73.6052 191.202C73.9119 191.202 74.2212 191.119 74.5012 190.946C75.5305 190.314 76.5305 189.605 77.4691 188.837C78.1998 188.242 78.3118 187.162 77.7145 186.431C77.1145 185.698 76.0372 185.589 75.3092 186.186Z" fill="#CAB0FF"/>
<path d="M13.9067 47.9048C9.78399 44.1421 5.01333 41.5608 0 40.0781V42.3794L16.76 50.8275C15.8747 49.8115 14.9253 48.8355 13.9067 47.9048Z" fill="#CAB0FF"/>
<path d="M22.776 60.5229L0 49.0429V52.0296L24.0613 64.1576C23.7039 62.9256 23.272 61.7122 22.776 60.5229Z" fill="#CAB0FF"/>
<path d="M16.1973 98.1965C16.2693 98.1192 16.328 98.0392 16.3973 97.9618C20.1173 103.05 26.1146 106.37 32.9013 106.37C33.408 106.37 33.9093 106.33 34.4053 106.293C44.9973 105.519 53.3547 96.7032 53.3547 85.9165C53.3547 75.1298 44.9973 66.3139 34.4053 65.5405C33.9093 65.5032 33.408 65.4659 32.9013 65.4659C28.4933 65.4659 24.4186 66.8739 21.0773 69.2472L0 58.6232V61.6099L18.8319 71.1005C17.3653 72.4925 16.104 74.0952 15.1013 75.8658L0 68.2552V71.2419L13.9413 78.2685C13.1893 80.1298 12.7093 82.1219 12.5333 84.2072L0 77.8899V80.8765L12.512 87.1832C12.68 89.9192 13.3839 92.5032 14.5199 94.8418L0 87.5245V90.5112L15.8933 98.5219C15.9946 98.4125 16.0987 98.3059 16.1973 98.1965Z" fill="#CAB0FF"/>
<path d="M11.1413 102.823L0 97.207V100.194L8.61865 104.54C9.48265 104.01 10.3199 103.434 11.1413 102.823Z" fill="#CAB0FF"/>
<path d="M0 106.787V108.281C0.621333 108.097 1.25328 107.947 1.86662 107.729L0 106.787Z" fill="#CAB0FF"/>
<path d="M0 132.188V133.646L0.727946 132.918L0 132.188Z" fill="#CAB0FF"/>
<path d="M0 149.238V150.697L0.727946 149.966L0 149.238Z" fill="#CAB0FF"/>
<path d="M19.378 18.7996H22.7994C23.7434 18.7996 24.5114 18.0343 24.5114 17.0903C24.5114 16.1463 23.7434 15.3809 22.7994 15.3809H19.378C18.434 15.3809 17.666 16.1463 17.666 17.0903C17.666 18.0343 18.434 18.7996 19.378 18.7996Z" fill="#CAB0FF"/>
<path d="M11.4679 7.10362C12.4119 7.10362 13.1772 6.33827 13.1772 5.39427V1.97292C13.1772 1.02892 12.4119 0.263611 11.4679 0.263611C10.5212 0.263611 9.75586 1.02892 9.75586 1.97292V5.39427C9.75586 6.33827 10.5212 7.10362 11.4679 7.10362Z" fill="#CAB0FF"/>
<path d="M30.8917 18.7996H34.313C34.3503 18.7996 34.3823 18.7809 34.4143 18.7783C35.3103 18.7223 36.025 17.9969 36.025 17.0903C36.025 16.1809 35.3103 15.4556 34.4143 15.3996C34.3823 15.3996 34.3503 15.3809 34.313 15.3809H30.8917C29.9477 15.3809 29.1797 16.1463 29.1797 17.0903C29.1797 18.0343 29.9477 18.7996 30.8917 18.7996Z" fill="#CAB0FF"/>
<path d="M11.4679 18.6173C12.4119 18.6173 13.1772 17.852 13.1772 16.908V13.4867C13.1772 12.5427 12.4119 11.7773 11.4679 11.7773C10.5212 11.7773 9.75586 12.5427 9.75586 13.4867V16.908C9.75586 17.852 10.5212 18.6173 11.4679 18.6173Z" fill="#CAB0FF"/>
<path d="M15.326 329.502H11.9073C10.9633 329.502 10.1953 330.267 10.1953 331.211C10.1953 332.158 10.9633 332.923 11.9073 332.923H15.326C16.27 332.923 17.038 332.158 17.038 331.211C17.038 330.267 16.27 329.502 15.326 329.502Z" fill="#CAB0FF"/>
<path d="M11.4679 337.236C10.5212 337.236 9.75586 338.002 9.75586 338.948V342.367C9.75586 343.311 10.5212 344.076 11.4679 344.076C12.4119 344.076 13.1772 343.311 13.1772 342.367V338.948C13.1772 338.002 12.4119 337.236 11.4679 337.236Z" fill="#CAB0FF"/>
<path d="M26.8396 329.502H23.4183C22.4743 329.502 21.709 330.267 21.709 331.211C21.709 332.158 22.4743 332.923 23.4183 332.923H26.8396C27.7836 332.923 28.549 332.158 28.549 331.211C28.549 330.267 27.7836 329.502 26.8396 329.502Z" fill="#CAB0FF"/>
<path d="M9.50399 203.096C10.0293 203.096 10.5413 202.851 10.8666 202.392C11.3946 201.643 11.2213 200.603 10.472 200.072L0 192.656V196.736L8.54395 202.787C8.83728 202.997 9.17065 203.096 9.50399 203.096Z" fill="#CAB0FF"/>
<path d="M9.50399 185.43C10.0293 185.43 10.5413 185.185 10.8666 184.726C11.3946 183.977 11.2213 182.937 10.472 182.406L0 174.99V179.07L8.54395 185.121C8.83728 185.329 9.17065 185.43 9.50399 185.43Z" fill="#CAB0FF"/>
<path d="M34.4269 177.759C34.7575 178.575 35.0856 179.399 35.4909 180.177C35.7949 180.761 36.3923 181.097 37.0083 181.097C37.2749 181.097 37.5442 181.033 37.7976 180.905C38.6349 180.471 38.9603 179.436 38.5256 178.599C38.0376 177.657 37.6029 176.676 37.2429 175.676C36.9175 174.788 35.9309 174.335 35.0509 174.652C34.8056 174.743 34.6002 174.889 34.4269 175.063C33.9762 175.519 33.7949 176.201 34.0269 176.844C34.1389 177.156 34.3042 177.449 34.4269 177.759Z" fill="#CAB0FF"/>
</g>
<defs>
<clipPath id="clip0">
<rect width="360" height="360" fill="white"/>
</clipPath>
</defs>
</svg>
