<svg width="248" height="149" viewBox="0 0 248 149" fill="none" xmlns="http://www.w3.org/2000/svg">
<path d="M110.08 60.9209L126.72 39.2109H110V31.4609H138.63V38.0709L122 59.8809H138.95V67.6409H110.08V60.9209Z" fill="#7F50FF"/>
<path d="M141.5 60.9192C141.5 56.1592 145.79 52.9192 152.82 52.3892L157.37 52.0292V51.1492C157.403 50.74 157.348 50.3286 157.211 49.9417C157.074 49.5549 156.857 49.2013 156.574 48.9041C156.291 48.6068 155.948 48.3726 155.568 48.2167C155.189 48.0608 154.78 47.9867 154.37 47.9992C153.967 47.975 153.564 48.0357 153.187 48.1772C152.809 48.3187 152.465 48.538 152.178 48.8208C151.89 49.1036 151.665 49.4437 151.518 49.8189C151.37 50.1942 151.302 50.5963 151.32 50.9992L142.32 50.8892C142.53 44.8892 147.75 40.4492 154.32 40.4492C161.97 40.4492 166.62 44.7892 166.62 51.5592V59.3192C166.594 62.0848 166.768 64.8487 167.14 67.5892H158C157.752 66.2239 157.648 64.8363 157.69 63.4492H157.49C156.35 66.1892 153.35 67.8392 149.58 67.8392C144.55 67.8892 141.5 65.2592 141.5 60.9192ZM157.5 57.3992V56.8892L154.14 57.1992C152.08 57.3992 150.79 58.4392 150.79 60.0892C150.79 61.3292 151.72 62.0892 153.21 62.0892C155.82 62.1092 157.47 59.9992 157.47 57.3992H157.5Z" fill="#7F50FF"/>
<path d="M169.93 54.4596C169.93 46.2396 175.87 40.4596 184.4 40.4596C192.1 40.4596 197.63 45.0596 197.84 51.7296L188.95 52.3496C188.85 50.0196 186.95 48.4196 184.4 48.4196C181.4 48.4196 179.34 50.8996 179.34 54.4196C179.34 57.9396 181.4 60.4196 184.4 60.4196C184.963 60.4631 185.529 60.3934 186.064 60.2147C186.6 60.036 187.094 59.7518 187.518 59.3791C187.942 59.0063 188.288 58.5524 188.533 58.0441C188.779 57.5358 188.921 56.9835 188.95 56.4196L197.84 57.0396C197.74 63.7596 192.21 68.4096 184.4 68.4096C175.87 68.4096 169.93 62.6696 169.93 54.4596ZM172.93 29.3896H180.93L184.4 33.9996L187.86 29.3496H195.72L189.52 38.1396H179.18L172.93 29.3896Z" fill="#7F50FF"/>
<path d="M227.3 51.4602V67.6402H218V52.8602C218 50.0102 216.5 48.2602 214 48.2602C211.5 48.2602 210.22 49.9102 210.22 52.6502V67.6502H200.92V41.2802H210.22L210.02 45.6202C210.58 44.1756 211.567 42.9362 212.85 42.0677C214.133 41.1993 215.651 40.7431 217.2 40.7602C223.16 40.7602 227.3 45.1502 227.3 51.4602Z" fill="#7F50FF"/>
<path d="M230.4 33.5302C230.369 32.7981 230.486 32.0673 230.744 31.3817C231.003 30.6962 231.397 30.07 231.904 29.5409C232.411 29.0118 233.019 28.5907 233.693 28.3031C234.367 28.0155 235.092 27.8672 235.825 27.8672C236.558 27.8672 237.283 28.0155 237.957 28.3031C238.631 28.5907 239.239 29.0118 239.746 29.5409C240.253 30.07 240.648 30.6962 240.906 31.3817C241.164 32.0673 241.281 32.7981 241.25 33.5302C241.19 34.9287 240.592 36.2499 239.581 37.2183C238.571 38.1866 237.225 38.7272 235.825 38.7272C234.425 38.7272 233.08 38.1866 232.069 37.2183C231.058 36.2499 230.46 34.9287 230.4 33.5302ZM231.18 41.2802H240.48V67.6402H231.18V41.2802Z" fill="#7F50FF"/>
<path d="M136.08 91.8794V118.229H126.77L126.88 115.699C126.05 116.705 124.994 117.501 123.799 118.023C122.604 118.544 121.302 118.776 120 118.699C114.27 118.699 110.24 114.309 110.24 107.999V91.8794H119.54V106.659C119.54 109.499 120.93 111.259 123.15 111.259C125.37 111.259 126.77 109.599 126.77 106.859V91.8594L136.08 91.8794Z" fill="#7F50FF"/>
<path d="M139.44 105.05C139.44 96.84 145.38 91.05 153.91 91.05C161.61 91.05 167.14 95.65 167.35 102.32L158.46 102.94C158.35 100.61 156.46 99.01 153.91 99.01C150.91 99.01 148.84 101.49 148.84 105.01C148.84 108.53 150.91 111.01 153.91 111.01C154.473 111.052 155.038 110.981 155.573 110.802C156.108 110.623 156.602 110.339 157.026 109.966C157.449 109.594 157.794 109.14 158.041 108.633C158.287 108.125 158.43 107.573 158.46 107.01L167.35 107.63C167.24 114.35 161.71 119 153.91 119C145.38 119 139.44 113.27 139.44 105.05ZM142.49 80H150.44L153.91 84.65L157.37 80H165.23L159 88.77H148.69L142.49 80Z" fill="#7F50FF"/>
<path d="M169.67 84.1195C169.67 83.0455 169.988 81.9957 170.585 81.1027C171.182 80.2098 172.03 79.5138 173.022 79.1028C174.014 78.6918 175.106 78.5843 176.159 78.7938C177.213 79.0033 178.18 79.5205 178.939 80.2799C179.699 81.0393 180.216 82.0068 180.426 83.0601C180.635 84.1134 180.528 85.2052 180.117 86.1974C179.706 87.1896 179.01 88.0377 178.117 88.6343C177.224 89.231 176.174 89.5495 175.1 89.5495C174.384 89.5589 173.674 89.4248 173.011 89.1553C172.348 88.8857 171.745 88.4861 171.239 87.98C170.733 87.4739 170.334 86.8716 170.064 86.2085C169.795 85.5455 169.66 84.8351 169.67 84.1195ZM170.45 91.8795H179.75V118.229H170.45V91.8795Z" fill="#7F50FF"/>
<path d="M196.08 102.73V107.28C196.041 107.699 196.094 108.122 196.235 108.518C196.376 108.915 196.602 109.276 196.898 109.576C197.193 109.876 197.55 110.108 197.944 110.255C198.339 110.403 198.76 110.462 199.18 110.43C199.768 110.436 200.356 110.403 200.94 110.33V118.13C199.645 118.379 198.329 118.499 197.01 118.49C191.38 118.49 186.88 115.13 186.88 108V99.1099H182.75V91.8799H186.88V85.6699H196.08V91.8799H201.25V99.1099H196.08V102.73Z" fill="#7F50FF"/>
<path d="M205.08 113.321C205.08 112.246 205.399 111.196 205.996 110.303C206.593 109.41 207.442 108.714 208.434 108.303C209.427 107.892 210.519 107.785 211.573 107.996C212.627 108.206 213.594 108.724 214.353 109.485C215.112 110.245 215.628 111.213 215.837 112.267C216.045 113.321 215.936 114.413 215.524 115.405C215.111 116.397 214.414 117.245 213.519 117.84C212.625 118.436 211.574 118.753 210.5 118.751C209.785 118.76 209.075 118.626 208.412 118.356C207.75 118.087 207.148 117.687 206.643 117.181C206.138 116.674 205.739 116.072 205.47 115.409C205.202 114.746 205.069 114.036 205.08 113.321ZM205.85 82.0605H215.15V105.311H205.85V82.0605Z" fill="#7F50FF"/>
<path d="M42.0501 148.6C20.9001 148.6 3.83008 133.84 3.83008 112.86V79.9102H36.2001V112.91C36.2001 114.44 36.808 115.908 37.8901 116.99C38.9722 118.072 40.4398 118.68 41.9701 118.68C43.5004 118.68 44.968 118.072 46.0501 116.99C47.1322 115.908 47.7401 114.44 47.7401 112.91V79.9102H80.1101V112.91C80.1101 133.84 63.0001 148.6 42.0501 148.6Z" fill="#7F50FF"/>
<path d="M60.24 46.43L74.93 66.64L56.7 79.91L42.01 59.7L27.32 79.91L9.07 66.64L23.76 46.43L0 38.71L6.95 17.27L30.73 24.98V0H53.29V24.98L77.05 17.27L84.02 38.71L60.24 46.43Z" fill="#7F50FF"/>
</svg>
