<svg fill="none" xmlns="http://www.w3.org/2000/svg" viewBox="0 0 64 65"><path d="M32 64.58c17.673 0 32-14.327 32-32 0-17.673-14.327-32-32-32-17.673 0-32 14.327-32 32 0 17.673 14.327 32 32 32z" fill="#000"/><path d="M23.556 33.195h-.021l-.102.064c-.218.136-.427.285-.649.426-.145.103-.294.2-.427.299-.32.209-.631.427-.938.653l-.167.12-.09-.47a27.739 27.739 0 01-.076-1.472 5.587 5.587 0 010-.704c0-.141.047-.401-.098-.525a.264.264 0 00-.265-.047c-.247.068-.213.35-.196.504v.102a2.622 2.622 0 01-.15.64.799.799 0 01-.085.188.996.996 0 01-.025-.363v-.124-.136a1.083 1.083 0 00-.098-.632.53.53 0 00-.662-.187 3.413 3.413 0 00-1.16.785c-.357.318-.696.656-1.016 1.01-.52.61-.997 1.256-1.425 1.934.047-.252.107-.5.162-.747.073-.311.145-.636.205-.96.094-.52.222-1.041.346-1.549.08-.333.166-.674.239-1.015.072-.342.187-.777.285-1.152.081-.303.163-.615.235-.926.154-.657.333-1.319.504-1.959l.042-.153c.094-.35.162-.708.226-1.054.064-.346.12-.644.2-.96v-.06a.34.34 0 010-.077h.189c.116.007.233.007.35 0 .432-.06.86-.153 1.28-.277.136-.043.277-.077.426-.11.15-.035.427-.103.61-.171l.397-.141.47-.171c.337-.115.682-.213 1.02-.311.23-.064.464-.133.69-.205.777-.243 1.48-.427 2.16-.602.358-.085.716-.158 1.066-.217l.2-.035.427-.072h.103c.166 0 .426 0 .499-.239a.232.232 0 00-.06-.218c-.145-.14-.49-.102-.998 0h-.086c-.524.09-.951.175-1.352.27-.47.11-.939.242-1.391.375-.35.102-.713.204-1.071.298-.277.069-.555.158-.823.24l-.384.119-.274.098-.23.085-.162.043a2.295 2.295 0 00-.316.107 5.9 5.9 0 01-.964.298l-.132.034a7.458 7.458 0 01-1.246.244h-.069a1.519 1.519 0 01-.243 0 2.32 2.32 0 01.043-.308v-.106a.52.52 0 00-.196-.555.39.39 0 00-.329-.043.538.538 0 00-.299.29c-.07.2-.07.419 0 .62.023.085.061.165.111.238a.354.354 0 01.073.162 1.243 1.243 0 01-.055.286c0 .056-.03.115-.043.166l-.051.27c-.026.106-.047.217-.069.323a24.56 24.56 0 01-.554 2.484c-.117.388-.214.783-.29 1.182-.086.392-.171.797-.29 1.181-.082.265-.137.538-.193.803-.03.153-.06.307-.098.46l-.03.12c-.055.252-.115.499-.179.747-.15.593-.281 1.194-.427 1.779l-.14.64c0 .055-.026.115-.034.17 0-.175 0-.354-.022-.529a29.304 29.304 0 01-.05-1.706c0-.969.025-2.014.118-3.388.052-.824.082-1.66.111-2.47l.026-.726v-.657c0-.337.021-.691.038-1.037v-.209c0-.179.022-.354.026-.529v-.051a.663.663 0 010-.137.22.22 0 010-.05.359.359 0 00.03-.193.26.26 0 00-.137-.188.401.401 0 00-.328 0c-.164.096-.31.222-.427.372l-.055.064c-.12.128-.235.26-.346.396l-.162.184c-.196.222-.388.452-.576.683l-.312.37a39.39 39.39 0 00-1.834 2.348c-.167.23-.316.477-.46.712-.146.235-.27.427-.428.653a3.18 3.18 0 01-.34.426 6.91 6.91 0 00-.581.815c-.09.137-.23.346-.175.525a.28.28 0 00.166.175c.265.111.406-.196.474-.345a.713.713 0 01.047-.099c.128-.2.281-.396.427-.588.145-.192.213-.278.315-.427.184-.26.354-.533.52-.798.167-.264.338-.55.525-.81.346-.487.632-.854.9-1.212.355-.448.73-.888 1.093-1.314l.17-.201c.116-.14.231-.282.346-.427.175-.221.354-.456.55-.661v.115c-.033.61-.068 1.246-.055 1.873 0 .24 0 .482-.042.721-.043.24-.035.367-.043.55-.009.184 0 .389 0 .585v.619c0 .35-.038.704-.064 1.05-.026.345-.056.789-.073 1.186v.456c0 .457-.038.922-.038 1.387v.247c0 .61 0 1.246.043 1.873 0 .154.021.312.03.465.006.465.058.928.153 1.383a.448.448 0 00.24.32.312.312 0 00.293-.043c.126-.11.226-.245.295-.397l.085-.153.691-1.033c.371-.598.8-1.158 1.28-1.672.094-.09.184-.184.274-.282a6.15 6.15 0 01.755-.704l.128-.098c.149-.12.55-.427.725-.427a.892.892 0 010 .427v.145c-.025.21.005.423.085.619a.505.505 0 00.474.311.525.525 0 00.252-.077c0 .282.025.564.047.854l.025.426v.137c0 .188.026.307-.068.392l-.329.286-.37.32c-.805.691-1.521 1.478-2.134 2.343a7.394 7.394 0 00-1.067 3.08 6.541 6.541 0 00.277 3.286c.175.515.467.982.854 1.365.199.165.43.287.678.358h.052c.263.104.54.164.823.18a1.875 1.875 0 001.301-.696c.23-.28.379-.618.427-.977l.03-.115c.102-.494.152-.998.15-1.502v-.18c0-.23.02-.46.037-.695 0-.303.039-.618.043-.926 0-.797 0-1.745-.051-2.73 0-.367-.026-.747-.03-1.11v-.657-.46-.517-.162c0-.128-.038-.269 0-.333a.898.898 0 01.18-.136l.11-.073.35-.247.854-.585.038-.025.277-.18c.167-.106.337-.217.5-.332l.076-.047a.62.62 0 00.235-.184.282.282 0 00-.039-.341.273.273 0 00-.243-.038zm-4.181 12.74a2.526 2.526 0 01-.717-.162 1.4 1.4 0 01-.623-.363 3.814 3.814 0 01-.772-1.668 6.877 6.877 0 01-.12-1.775v-.026a6.826 6.826 0 011.28-3.84 16.958 16.958 0 012.262-2.27v1.19c0 .624 0 1.28.047 1.908.055.93.064 1.86.025 2.79 0 .27 0 .534-.03.803.02.864-.09 1.727-.324 2.56a1.382 1.382 0 01-1.062.823l.034.03zM56.354 30.315c-.188-.082-.47.08-.853.37-.034 0-.056.044-.069.048a12.09 12.09 0 00-1.083.755l-.853.64c-.262.207-.511.43-.747.666l-.278.264c-.55.533-1.173 1.13-1.894 1.323a2.56 2.56 0 01-2.261-.474 1.792 1.792 0 01-.53-.968 2.35 2.35 0 01-.055-.59.525.525 0 00-.128-.392.35.35 0 00-.277-.09.891.891 0 00-.337.107 1.065 1.065 0 01-.145.064 3.667 3.667 0 00-.576.248c-.32.166-.627.362-.922.554l-.239.154c-.738.485-1.5.932-2.282 1.34-.713.354-1.477.691-2.22.503a1.406 1.406 0 01-.387-.2h-.03l-.15-.09a1.238 1.238 0 01-.396-.311 2.586 2.586 0 01-.227-.389l-.042-.072a.354.354 0 01-.064-.18.39.39 0 01.043-.085s0-.042.03-.06c.237-.469.34-.994.298-1.518a.537.537 0 00-.427-.546.507.507 0 00-.397.136c0-.18 0-.363.03-.537v-.35c0-.103 0-.21.022-.316a1.1 1.1 0 01.145-.427l.034-.068c.316-.653.585-1.328.806-2.018.051-.162.111-.32.167-.482.206-.537.364-1.091.473-1.656.051-.311.107-.678.137-1.045v-.034a1.942 1.942 0 00-.107-1.033.683.683 0 00-.456-.363.564.564 0 00-.47.099c-.266.199-.46.479-.554.797a4.21 4.21 0 00-.137.811v.192c0 .128-.034.252-.047.376-.03.23-.06.46-.094.69-.034.231-.047.39-.064.581-.017.192-.034.35-.06.525a16.37 16.37 0 00-.136 1.122c0 .15-.026.299-.038.427 0 .217-.043.426-.056.665v.039a1.25 1.25 0 01-.192.742l-.145.222c-.33.519-.704 1.009-1.118 1.463l-.025.026c-.393.448-.845.84-1.344 1.165-.427.264-1.127.427-1.562.085a1.399 1.399 0 01-.427-.708 3.383 3.383 0 01-.106-.457v-.09c0-.161 0-.404-.226-.464a.244.244 0 00-.21 0 .346.346 0 00-.136.256v.034c0 .145-.047.281-.081.427a1.028 1.028 0 01-.15.298v-.034a1.281 1.281 0 01-.025-.49.369.369 0 010-.086c.021-.145.06-.371-.107-.482a.227.227 0 00-.209-.038c-.17.047-.268.264-.341.426l-.038.09a6.915 6.915 0 01-1.28 1.54 7.243 7.243 0 01-.854.636c-.143.107-.31.178-.486.209a.793.793 0 01-.704-.248 1.758 1.758 0 01-.295-.512 2.72 2.72 0 00-.14-.303.328.328 0 00-.329-.187.243.243 0 00-.196.226.935.935 0 00.145.474l.051.11c.125.303.33.566.593.76.27.184.599.26.922.213.349-.057.677-.204.951-.426a8.224 8.224 0 001.468-1.374c.107-.124.226-.26.333-.427a.58.58 0 00.452.49.537.537 0 00.533-.268c.05.117.105.23.167.341.134.306.371.555.67.704a2.001 2.001 0 001.83-.222 7.377 7.377 0 001.557-1.34c.334-.373.638-.773.91-1.194l.055-.085v.12c0 .22-.035.451-.035.682v.392a7.28 7.28 0 010 .807c-.02.277-.025.55-.03.815v.426c0 .141 0 .376-.025.563 0 .257-.034.521-.034.781 0 .376 0 .756-.03 1.127-.03.37-.03.755-.03 1.135a.427.427 0 00.14.362.21.21 0 00.12.034c.04.001.08-.008.116-.025.2-.09.179-.389.162-.606v-.188-.998c0-.427 0-.853.038-1.306v-.17c0-.21.026-.427.03-.628v-.055a.5.5 0 010-.17.546.546 0 01.102-.065v.03c.069.15.152.293.248.427a2.2 2.2 0 00.653.524l.123.077a2.328 2.328 0 001.9.2 6.478 6.478 0 001.706-.75h.034c.555-.324 1.126-.657 1.677-1.007l.158-.098c.354-.222.716-.452 1.092-.653a1.003 1.003 0 00.102.934.487.487 0 00.649.077.598.598 0 00.196-.205c.258.504.69.897 1.216 1.106a3.088 3.088 0 002.522-.03 6.566 6.566 0 001.557-1.174c.526-.498 1.077-.97 1.651-1.412l.256-.196c.256-.197.52-.397.794-.572.113-.071.23-.137.35-.196l.221-.12.056-.03c.175-.09.465-.243.427-.477a.218.218 0 00-.12-.192zm-9.169 2.227a.194.194 0 010 .047v.034c-.01.117-.031.233-.064.346a1.72 1.72 0 01-.132.307.618.618 0 01.077-.52c.031-.076.071-.148.12-.214zm-7.027-8.005v.137c-.027.444-.091.885-.192 1.319-.056.213-.128.426-.2.644-.035.098-.069.196-.099.294-.179.56-.384 1.178-.631 1.792.034-.337.076-.674.12-1.002.042-.33.093-.768.132-1.157 0-.205.05-.427.08-.61s.06-.427.082-.636v-.175c.013-.306.064-.61.153-.904.09-.235.252-.504.376-.538h.025c.023.001.044.01.06.026.162.128.12.555.094.81zm-1.331 8.547v-.252c-.004-.144.01-.287.042-.427a.853.853 0 01.15-.307c.037-.048.079-.094.123-.136.067.403.001.818-.187 1.181a.543.543 0 00-.128-.06z" fill="#fff"/><path d="M23.893 25.08c-.085.078-.166.16-.243.247l-.077.081c-.367.393-.704.81-1.02 1.207a15.357 15.357 0 00-1.736 2.731l-.047.085c-.26.487-.49.969-.427 1.212a.219.219 0 00.133.141.195.195 0 00.085 0c.03.007.06.007.09 0a.536.536 0 00.256-.337c.086-.23.186-.455.298-.674l.039-.077c.405-.859.895-1.675 1.463-2.436.368-.506.764-.99 1.186-1.45l.145-.15c.15-.154.299-.307.427-.465.03-.03.06-.06.094-.086a.894.894 0 00.209-.23.296.296 0 00-.068-.358.243.243 0 00-.295 0l-.106.08a2.788 2.788 0 00-.214.235c-.076.098-.14.175-.192.244zM26.278 28.531c.038.022.08.034.124.034a.308.308 0 00.154-.047.304.304 0 00.076-.426.258.258 0 00-.244-.163.259.259 0 00-.101.022.311.311 0 00-.158.277.323.323 0 00.15.303zM26.108 26.974l.072.132.034-.021c.034.02.072.03.111.03h.069a.328.328 0 00.234-.312.29.29 0 00-.175-.282.294.294 0 00-.373.203.276.276 0 00-.002.126l.03.124zM26.112 26.18a.32.32 0 00.21.256.241.241 0 00.076 0 .259.259 0 00.192-.09.32.32 0 000-.426.256.256 0 00-.35-.051.295.295 0 00-.128.311zM26.347 24.747a.28.28 0 00.251.426c.036 0 .07-.008.103-.021a.294.294 0 00.179-.282.273.273 0 00-.533-.098v-.025zM26.718 29.9a.252.252 0 00.243-.183.183.183 0 000-.051v-.154h.004a.273.273 0 00-.12-.14.307.307 0 00-.32 0 .278.278 0 00-.11.281.298.298 0 00.303.248zM27.806 33.041a.212.212 0 00.153-.068h.03l.039-.124a.357.357 0 00-.154-.358.24.24 0 00-.307.034.3.3 0 00-.077.341.333.333 0 00.295.2l.02-.025zM25.327 31.804l-.128-.03h-.026a.269.269 0 00-.273.09.307.307 0 00-.051.31.274.274 0 00.239.163h.021a.295.295 0 00.282-.379.26.26 0 00-.068-.107l.004-.047zM26.052 27.64a.265.265 0 00.26.187.269.269 0 00.26-.183.333.333 0 00-.085-.359.248.248 0 00-.307-.03.367.367 0 00-.128.385zM27.366 31.77l.248-.081v-.039a.294.294 0 00.06-.17.333.333 0 00-.18-.32.26.26 0 00-.307.06.367.367 0 000 .426.257.257 0 00.188.115l-.009.009zM27.042 30.468a.286.286 0 00.175-.45.295.295 0 00-.43-.049.274.274 0 00-.07.29.298.298 0 00.283.218l.042-.009zM26.492 30.153h-.039l-.132-.026v.03a.252.252 0 00-.154.12.353.353 0 00.047.396.23.23 0 00.175.077.303.303 0 00.29-.35.278.278 0 00-.187-.247zM25.668 31.3h-.038a.252.252 0 00-.243.073.337.337 0 00-.081.337.26.26 0 00.209.18h.047a.29.29 0 00.281-.236.286.286 0 00-.175-.354zM24.593 32.286h-.043a.278.278 0 00-.217.311.282.282 0 00.277.27.26.26 0 00.23-.15.337.337 0 00-.03-.325.256.256 0 00-.217-.106zM26.21 25.4a.306.306 0 00.132.34l.12.056v-.025a.234.234 0 00.158-.064.328.328 0 00.076-.346.264.264 0 00-.247-.183.269.269 0 00-.239.222zM27.226 31.061a.222.222 0 00.2-.132.311.311 0 000-.341.302.302 0 00-.316-.082.24.24 0 00-.196.235.354.354 0 00.265.312l.047.008zM27.247 24.068a.273.273 0 00.247-.15.307.307 0 000-.32.256.256 0 00-.256-.101.286.286 0 00-.238.315.26.26 0 00.247.256zM26.778 23.94a.281.281 0 00-.163.534c.046.03.1.045.154.046.05.001.098-.012.14-.038a.234.234 0 00.108-.115h.03v-.269h-.035a.269.269 0 00-.234-.158zM28.262 26.249a.312.312 0 00-.166-.295.209.209 0 00-.239.064.328.328 0 00-.021.427.226.226 0 00.192.102c.043 0 .085-.01.123-.03a.256.256 0 00.111-.268zM27.605 28.59a.294.294 0 00.081-.362.26.26 0 00-.256-.158.295.295 0 00-.26.323.267.267 0 00.034.104l.21.158.02-.026c.06.01.121-.004.171-.038zM26.5 29.24a.222.222 0 00.124-.039.358.358 0 00.115-.397.249.249 0 00-.145-.153v-.03h-.264v.038a.287.287 0 00-.086.133.32.32 0 00.077.337.265.265 0 00.18.11zM26.159 30.844a.246.246 0 00-.183-.085.273.273 0 00-.21.46.302.302 0 00.222.098c.051 0 .101-.012.145-.038a.244.244 0 00.12-.192h.025l-.093-.239-.026-.004zM27.972 27.571a.265.265 0 00-.277-.239.268.268 0 00-.243.162.32.32 0 000 .329.253.253 0 00.192.09l.09-.026a.298.298 0 00.238-.316zM27.136 29.33a.311.311 0 00.23-.099.26.26 0 000-.324.252.252 0 00-.281-.124.282.282 0 00-.167.107h-.038v.158a.243.243 0 00.15.256.24.24 0 00.106.025zM24.15 32.747h-.052a.252.252 0 00-.23.149.307.307 0 00.05.333.246.246 0 00.189.08.265.265 0 00.098 0 .278.278 0 00.179-.306.282.282 0 00-.235-.256zM27.733 23.82a.273.273 0 00-.209.312.26.26 0 00.26.248.273.273 0 00.257-.145.298.298 0 00-.156-.4.277.277 0 00-.152-.014zM28.083 25.165H27.9v.038a.277.277 0 00-.094.252.268.268 0 00.264.247h.039a.281.281 0 00-.03-.554l.004.017zM27.968 24.516a.257.257 0 00-.243.252.269.269 0 00.256.256.26.26 0 00.222-.115.26.26 0 00-.252-.393h.017zM28.16 27.072a.298.298 0 00-.047-.299.245.245 0 00-.247-.08.277.277 0 00-.21.32.26.26 0 00.257.234h.025a.277.277 0 00.222-.175z" fill="#fff"/></svg>
