<svg fill="none" xmlns="http://www.w3.org/2000/svg" viewBox="0 0 60 60"><path d="M30.066 57.022C13.429 57.022 0 45.412 0 28.906V2.988h25.459v25.918a4.48 4.48 0 004.475 4.476c2.6 0 4.607-2.008 4.607-4.476V2.988H60v25.918c0 16.506-13.43 28.116-29.934 28.116z" fill="#97E2DC"/><path d="M15.918 23.995a.56.56 0 01-.242-.056.565.565 0 01-.27-.753 16.107 16.107 0 017.806-7.723.565.565 0 01.75.277.563.563 0 01-.276.75 14.987 14.987 0 00-7.254 7.179.567.567 0 01-.514.326zM29.91 46.111c-8.852 0-16.052-7.2-16.052-16.049 0-.967.06-1.748.209-2.61a.568.568 0 011.12.193 13.596 13.596 0 00-.196 2.417c0 8.225 6.693 14.916 14.918 14.916.812 0 1.627-.064 2.42-.195a.57.57 0 01.183 1.122c-.855.136-1.73.206-2.603.206zM36.545 44.612a.567.567 0 01-.244-1.08 14.992 14.992 0 007.179-7.255.565.565 0 01.75-.277c.285.129.412.467.28.75a16.097 16.097 0 01-7.723 7.806.561.561 0 01-.242.056zM45.216 32.98c-.397-.055-.61-.343-.563-.653a14.97 14.97 0 00.171-2.272c0-8.225-6.69-14.918-14.915-14.918-.763 0-1.526.059-2.274.172a.567.567 0 11-.169-1.122 16.288 16.288 0 012.443-.183c8.851 0 16.051 7.2 16.051 16.051 0 .817-.061 1.64-.185 2.443a.565.565 0 01-.559.481z" fill="#000"/><path d="M29.917 38.356c-4.574 0-8.296-3.72-8.296-8.293 0-.988.174-1.952.512-2.87a.568.568 0 01.727-.338.57.57 0 01.336.73 7.15 7.15 0 00-.439 2.478c0 3.947 3.21 7.158 7.16 7.158 3.947 0 7.16-3.21 7.16-7.158 0-3.95-3.213-7.16-7.16-7.16a7.18 7.18 0 00-2.307.378c-.3.101-.62-.056-.72-.354a.57.57 0 01.354-.72 8.33 8.33 0 012.673-.44c4.574 0 8.293 3.72 8.293 8.296 0 4.574-3.72 8.293-8.293 8.293zM11.953 8.193c-.964 0-1.927.367-2.661 1.101a3.77 3.77 0 000 5.32 3.768 3.768 0 005.32 0 3.77 3.77 0 000-5.32 3.747 3.747 0 00-2.659-1.1zm0 8.653a4.875 4.875 0 01-3.461-1.432 4.902 4.902 0 010-6.923 4.9 4.9 0 016.92 0 4.902 4.902 0 010 6.923 4.87 4.87 0 01-3.459 1.432z" fill="#000"/><path d="M18.614 28.776c-.15 0-.303-.014-.453-.04l-5.897-1.044a2.406 2.406 0 01-1.927-1.83L8.331 15.109a.568.568 0 01.453-.661.573.573 0 01.661.455l2.002 10.729c.11.474.51.854 1.014.943l5.897 1.042a1.456 1.456 0 001.715-1.436c0-.674-.457-1.258-1.11-1.417l-4.498-1.11a.573.573 0 01-.42-.44l-.812-4.061a.573.573 0 01.314-.627 10.395 10.395 0 004.982-4.98.566.566 0 01.625-.314l4.062.812a.566.566 0 01.438.42l1.11 4.496a1.46 1.46 0 002.856-.605l-1.044-5.895a1.27 1.27 0 00-.967-1.019L14.904 9.444a.567.567 0 01.209-1.114l10.729 2.002c.964.22 1.682.976 1.851 1.93l1.044 5.896a2.594 2.594 0 01-2.556 3.048 2.593 2.593 0 01-2.52-1.976l-1.02-4.144-3.28-.657a11.555 11.555 0 01-4.931 4.928l.657 3.28 4.146 1.024a2.591 2.591 0 011.974 2.52 2.59 2.59 0 01-.927 1.988 2.585 2.585 0 01-1.666.607zM48.017 44.258a3.735 3.735 0 00-2.658 1.103 3.768 3.768 0 000 5.318 3.765 3.765 0 005.317 0 3.763 3.763 0 00-2.659-6.42zm0 8.653a4.869 4.869 0 01-3.46-1.432 4.9 4.9 0 010-6.92 4.864 4.864 0 013.46-1.434c1.308 0 2.537.51 3.462 1.434a4.9 4.9 0 010 6.92 4.869 4.869 0 01-3.462 1.432z" fill="#000"/><path d="M44.972 51.658a5196.01 5196.01 0 01-10.835-2.013 2.404 2.404 0 01-1.852-1.93l-1.044-5.896a2.592 2.592 0 012.556-3.046c1.197 0 2.232.81 2.518 1.97l1.023 4.148 3.283.657a11.53 11.53 0 014.926-4.928l-.655-3.283-4.147-1.021a2.588 2.588 0 01-1.973-2.52c0-.77.338-1.493.927-1.988a2.58 2.58 0 012.119-.566l5.9 1.044c.95.167 1.705.887 1.921 1.828l2.01 10.75a.567.567 0 11-1.116.21L48.53 34.347a1.261 1.261 0 00-1.011-.946l-5.897-1.044a1.468 1.468 0 00-1.193.319c-.333.28-.523.688-.523 1.12 0 .675.458 1.257 1.113 1.42l4.493 1.11a.56.56 0 01.42.436l.815 4.064a.564.564 0 01-.317.622 10.407 10.407 0 00-4.98 4.982.563.563 0 01-.624.314l-4.062-.812a.566.566 0 01-.439-.42l-1.11-4.496a1.458 1.458 0 00-2.537-.589c-.279.331-.396.767-.319 1.192l1.045 5.9c.089.502.469.9.966 1.018l10.706 1.995a.57.57 0 01-.103 1.126zM20.91 24.84l4.114 4.113 1.97-1.927 1.93-1.97-4.113-4.115-3.9 3.898zm4.112 5.479a.55.55 0 01-.401-.167l-4.914-4.912a.57.57 0 010-.802l2.344-2.344 2.359-2.357a.565.565 0 01.802 0l4.91 4.912c.22.22.223.575.004.798l-2.33 2.38-2.38 2.33a.556.556 0 01-.394.162z" fill="#000"/></svg>
