<svg fill="none" xmlns="http://www.w3.org/2000/svg" viewBox="0 0 60 60"><g clip-path="url(#clip0)"><path d="M29.934 2.978C46.571 2.978 60 14.588 60 31.094v25.918H34.541V31.094a4.48 4.48 0 00-4.475-4.476c-2.6 0-4.607 2.008-4.607 4.476v25.918H0V31.094C0 14.588 13.43 2.978 29.934 2.978z" fill="#CAB0FF"/><path d="M31.915 45.292H6.431a.69.69 0 01-.689-.689V39.39c0-4.735 2.541-9.171 6.625-11.581a.687.687 0 11.697 1.186A12.118 12.118 0 007.119 39.39v4.527h24.108V39.39c0-4.251-2.277-8.232-5.945-10.395a.69.69 0 01-.244-.941.69.69 0 01.942-.242A13.492 13.492 0 0132.6 39.39v5.213a.687.687 0 01-.686.689zM19.186 11.687a5.776 5.776 0 00-5.768 5.77 5.773 5.773 0 005.768 5.768 5.776 5.776 0 005.77-5.767c0-3.182-2.589-5.771-5.77-5.771zm0 12.913c-3.938 0-7.145-3.204-7.145-7.142 0-3.941 3.207-7.145 7.145-7.145 3.938 0 7.145 3.204 7.145 7.145 0 3.938-3.207 7.142-7.145 7.142z" fill="#000"/><path d="M56.051 45.29H3.97a.69.69 0 01-.689-.688c0-.379.31-.686.689-.686H56.05c.382 0 .686.307.686.686a.685.685 0 01-.686.688zM56.051 49.685H3.97a.687.687 0 110-1.375H56.05c.382 0 .686.308.686.69a.682.682 0 01-.686.685z" fill="#000"/><path d="M52.745 45.275H40.947a3.188 3.188 0 01-3.184-3.185 3.188 3.188 0 013.184-3.184h11.798c.378 0 .689.308.689.686a.69.69 0 01-.69.689H40.948a1.81 1.81 0 000 3.62h11.798c.378 0 .689.306.689.685a.69.69 0 01-.69.689zM53.478 35.287H41.68a3.19 3.19 0 01-3.184-3.184 3.188 3.188 0 013.184-3.187h11.798a.69.69 0 010 1.377H41.68a1.81 1.81 0 000 3.62h11.798a.687.687 0 110 1.374z" fill="#000"/><path d="M49.104 40.294H37.307a.685.685 0 01-.686-.688c0-.379.304-.686.686-.686h11.797a1.81 1.81 0 000-3.62H37.307a.685.685 0 01-.686-.688c0-.382.304-.686.686-.686h11.797a3.188 3.188 0 013.184 3.184 3.188 3.188 0 01-3.184 3.184z" fill="#000"/><path d="M45.597 37.79h-7.148a.686.686 0 010-1.374h7.148a.687.687 0 110 1.374zM52.227 32.81h-5.366a.687.687 0 110-1.375h5.366a.687.687 0 110 1.375zM50.97 42.8H45.6a.687.687 0 110-1.374h5.37a.687.687 0 010 1.374zM40.616 12.624c-4.01 0-7.399 1.864-7.399 4.07 0 .907.6 1.812 1.69 2.55a.698.698 0 01.294.46.677.677 0 01-.134.53l-1.167 1.51 4.058-1.18a.669.669 0 01.319-.018 12.71 12.71 0 002.339.217c4.01 0 7.398-1.864 7.398-4.07 0-2.205-3.389-4.069-7.398-4.069zm-8.554 11.061a.682.682 0 01-.566-.302.684.684 0 01.025-.805l2.032-2.635c-1.11-.928-1.713-2.063-1.713-3.25 0-3.053 3.856-5.443 8.776-5.443s8.773 2.39 8.773 5.444c0 3.05-3.853 5.443-8.773 5.443-.823 0-1.64-.071-2.43-.208l-5.93 1.728a.635.635 0 01-.194.028z" fill="#000"/><path d="M43.946 16.052h-6.698a.686.686 0 010-1.374h6.698a.687.687 0 110 1.374zM43.744 18.865H37.05a.69.69 0 01-.692-.686.69.69 0 01.692-.689h6.695a.69.69 0 01.689.689c0 .378-.31.686-.689.686z" fill="#000"/></g><defs><clipPath id="clip0"><path fill="#fff" d="M0 0h60v60H0z"/></clipPath></defs></svg>
