<svg fill="none" xmlns="http://www.w3.org/2000/svg" viewBox="0 0 60 60"><path d="M30.066 57.022C13.429 57.022 0 45.412 0 28.906V2.988h25.459v25.918a4.48 4.48 0 004.475 4.476c2.6 0 4.607-2.008 4.607-4.476V2.988H60v25.918c0 16.506-13.43 28.116-29.934 28.116z" fill="#CAB0FF"/><path d="M30.066 57.022C13.429 57.022 0 45.412 0 28.906V2.988h25.459v25.918a4.48 4.48 0 004.475 4.476c2.6 0 4.607-2.008 4.607-4.476V2.988H60v25.918c0 16.506-13.43 28.116-29.934 28.116z" fill="#AAEC8B"/><path d="M4.226 51.55h13.386V14.188L10.917 10.5l-6.69 3.688v37.36zm14.061 1.352H3.55a.678.678 0 01-.678-.675V13.79c0-.246.134-.476.35-.594l7.37-4.06a.68.68 0 01.656 0l7.368 4.06c.218.118.35.348.35.594v38.436a.676.676 0 01-.678.675z" fill="#000"/><path d="M18.96 51.546h22.092V23.508l-11.044-6.206-11.048 6.206v28.038zm22.77 1.353H18.282a.675.675 0 01-.675-.675V23.11c0-.243.132-.467.345-.588l11.725-6.586a.677.677 0 01.66 0l11.723 6.586c.216.12.348.345.348.588v29.114a.678.678 0 01-.678.675z" fill="#000"/><path d="M41.727 27.86a.678.678 0 01-.33-.086l-11.39-6.4-11.392 6.4a.676.676 0 11-.664-1.18l11.726-6.586a.677.677 0 01.66 0l11.723 6.587a.672.672 0 01.258.92.673.673 0 01-.591.345z" fill="#000"/><path d="M42.4 51.55h13.386V14.188L49.093 10.5 42.4 14.189v37.36zm14.064 1.352H41.723a.678.678 0 01-.678-.675V13.79c0-.246.134-.476.35-.594l7.37-4.06a.675.675 0 01.653 0l7.37 4.06c.217.118.351.348.351.594v38.436c0 .372-.3.675-.675.675z" fill="#000"/><path d="M56.463 18.541a.66.66 0 01-.328-.087l-7.042-3.881-7.044 3.881a.677.677 0 11-.655-1.184l7.37-4.061a.676.676 0 01.653 0l7.371 4.06a.677.677 0 01-.325 1.272zM30.002 24.412a3.106 3.106 0 00-3.102 3.103 3.101 3.101 0 103.103-3.103zm0 7.556a4.46 4.46 0 01-4.455-4.453c0-2.459 2-4.458 4.455-4.458 2.456 0 4.456 2 4.456 4.458 0 2.456-2 4.453-4.456 4.453zM26.9 51.554h6.202v-10.18H26.9v10.18zm6.88 1.353h-7.558a.675.675 0 01-.675-.675V40.697c0-.372.302-.678.675-.678h7.558a.68.68 0 01.678.678v11.535a.678.678 0 01-.678.675zM21.714 37h2.83v-2.073h-2.83v2.072zm3.506 1.352h-4.181a.676.676 0 01-.678-.678v-3.425c0-.375.302-.675.678-.675h4.18c.376 0 .676.3.676.675v3.425c0 .375-.3.678-.675.678zM28.599 37h2.828v-2.073h-2.828v2.072zm3.506 1.352h-4.181a.676.676 0 01-.678-.678v-3.425c0-.375.302-.675.678-.675h4.18c.373 0 .675.3.675.675v3.425a.676.676 0 01-.674.678zM35.486 37h2.829v-2.073h-2.829v2.072zm3.503 1.352h-4.18a.678.678 0 01-.678-.678v-3.425c0-.375.305-.675.677-.675h4.181c.376 0 .678.3.678.675v3.425a.676.676 0 01-.678.678zM36.922 43.532h1.397V41.46h-1.397v2.072zm2.072 1.356h-2.75a.68.68 0 01-.678-.678v-3.428c0-.372.305-.675.678-.675h2.75c.375 0 .678.303.678.675v3.428a.678.678 0 01-.678.678zM36.922 49.13h1.397v-2.072h-1.397v2.073zm2.072 1.353h-2.75a.678.678 0 01-.678-.677V46.38a.68.68 0 01.678-.678h2.75c.375 0 .678.305.678.678v3.425a.677.677 0 01-.678.678zM21.714 43.532h1.397V41.46h-1.397v2.072zm2.072 1.356h-2.747a.678.678 0 01-.678-.678v-3.428c0-.372.302-.675.678-.675h2.747c.375 0 .678.303.678.675v3.428a.678.678 0 01-.678.678zM21.714 49.13h1.397v-2.072h-1.397v2.073zm2.072 1.353h-2.747a.676.676 0 01-.678-.677V46.38c0-.373.302-.678.678-.678h2.747c.375 0 .678.305.678.678v3.425a.676.676 0 01-.678.678zM46.41 22.787h5.417V20.34H46.41v2.447zm6.092 1.353h-6.769a.676.676 0 01-.675-.678v-3.8c0-.372.303-.678.675-.678h6.769c.375 0 .677.306.677.678v3.8a.677.677 0 01-.677.678zM46.41 29.347h5.417V26.9H46.41v2.448zm6.092 1.353h-6.769a.676.676 0 01-.675-.678v-3.797c0-.376.303-.678.675-.678h6.769c.375 0 .677.302.677.678v3.797a.677.677 0 01-.677.678zM46.41 35.936h5.417v-2.445H46.41v2.445zm6.092 1.355h-6.769a.676.676 0 01-.675-.677v-3.8c0-.373.303-.675.675-.675h6.769c.375 0 .677.302.677.675v3.8a.677.677 0 01-.677.678zM46.41 42.501h5.417v-2.444H46.41V42.5zm6.092 1.356h-6.769a.678.678 0 01-.675-.678v-3.8c0-.375.303-.678.675-.678h6.769c.375 0 .677.303.677.678v3.8a.678.678 0 01-.677.678zM46.41 49.064h5.417v-2.448H46.41v2.448zm6.092 1.352h-6.769a.675.675 0 01-.675-.674v-3.8c0-.376.303-.678.675-.678h6.769c.375 0 .677.302.677.677v3.8a.676.676 0 01-.677.675zM18.286 17.75a.685.685 0 01-.325-.084l-7.046-3.881-7.04 3.881a.676.676 0 01-.919-.266.673.673 0 01.264-.919l7.37-4.063a.681.681 0 01.656 0l7.368 4.063a.677.677 0 01-.328 1.269zM8.21 21.994h5.411v-2.448h-5.41v2.448zm6.089 1.355H7.53a.678.678 0 01-.675-.678v-3.8c0-.375.303-.678.675-.678H14.3c.372 0 .678.303.678.678v3.8a.68.68 0 01-.678.678zM8.21 28.582h5.411v-2.444h-5.41v2.444zm6.089 1.356H7.53a.678.678 0 01-.675-.678v-3.8c0-.372.303-.675.675-.675H14.3c.372 0 .678.303.678.675v3.8a.68.68 0 01-.678.678zM8.21 35.148h5.411v-2.445h-5.41v2.445zm6.089 1.355H7.53a.678.678 0 01-.675-.678v-3.8c0-.375.303-.677.675-.677H14.3c.372 0 .678.302.678.677v3.8a.68.68 0 01-.678.678zM8.21 41.713h5.411v-2.447h-5.41v2.447zm6.089 1.353H7.53a.675.675 0 01-.675-.675v-3.803c0-.373.303-.678.675-.678H14.3a.68.68 0 01.678.678v3.803a.678.678 0 01-.678.675zM8.21 48.276h5.411v-2.448h-5.41v2.448zm6.089 1.35H7.53a.673.673 0 01-.675-.675v-3.8c0-.373.303-.678.675-.678H14.3a.68.68 0 01.678.677v3.8a.676.676 0 01-.678.675zM25.433 12.268h3.91v-2.244H25.45l.49.72a.682.682 0 01.003.754l-.51.77zm4.585 4.954a.676.676 0 01-.675-.678V13.62h-5.17a.673.673 0 01-.563-1.05l.955-1.44-.952-1.402a.674.674 0 01.56-1.056h5.845c.375 0 .677.302.677.675v7.197a.678.678 0 01-.677.678z" fill="#000"/><path d="M30.001 11.29a.674.674 0 01-.675-.678V7.737a.676.676 0 111.353 0v2.873a.677.677 0 01-.678.678z" fill="#000"/></svg>
