<svg fill="none" xmlns="http://www.w3.org/2000/svg" viewBox="0 0 60 60"><g clip-path="url(#clip0)"><path d="M29.934 2.978C46.571 2.978 60 14.588 60 31.094v25.918H34.541V31.094a4.48 4.48 0 00-4.475-4.476c-2.6 0-4.607 2.008-4.607 4.476v25.918H0V31.094C0 14.588 13.43 2.978 29.934 2.978z" fill="#FFA293"/><path d="M29.934 2.978C46.571 2.978 60 14.588 60 31.094v25.918H34.541V31.094a4.48 4.48 0 00-4.475-4.476c-2.6 0-4.607 2.008-4.607 4.476v25.918H0V31.094C0 14.588 13.43 2.978 29.934 2.978z" fill="#FFA293"/><path d="M29.934 2.978C46.571 2.978 60 14.588 60 31.094v25.918H34.541V31.094a4.48 4.48 0 00-4.475-4.476c-2.6 0-4.607 2.008-4.607 4.476v25.918H0V31.094C0 14.588 13.43 2.978 29.934 2.978z" fill="#FFA293"/><path d="M29.934 2.978C46.571 2.978 60 14.588 60 31.094v25.918H34.541V31.094a4.48 4.48 0 00-4.475-4.476c-2.6 0-4.607 2.008-4.607 4.476v25.918H0V31.094C0 14.588 13.43 2.978 29.934 2.978z" fill="#FFA293"/><path d="M11.78 51.783h36.421V21.83h-36.42v29.952zm36.995 1.147H11.206a.574.574 0 01-.571-.574V21.257c0-.317.256-.573.571-.573h37.569c.315 0 .571.256.571.573v31.1a.574.574 0 01-.571.573z" fill="#000"/><path d="M14.475 34.866h8.073v-9.724h-8.073v9.724zm8.646 1.145h-9.22a.572.572 0 01-.57-.573v-10.87c0-.316.255-.574.57-.574h9.22c.318 0 .574.259.574.574v10.87a.573.573 0 01-.574.573zM25.962 34.866h8.072v-9.724h-8.072v9.724zm8.646 1.145h-9.22a.574.574 0 01-.574-.573v-10.87c0-.316.259-.574.574-.574h9.22c.318 0 .574.259.574.574v10.87a.573.573 0 01-.574.573zM37.415 34.866h8.075v-9.724h-8.075v9.724zm8.648 1.145h-9.22a.573.573 0 01-.573-.573v-10.87c0-.316.256-.574.573-.574h9.22c.316 0 .574.259.574.574v10.87a.574.574 0 01-.574.573zM14.475 48.604h8.073V38.88h-8.073v9.725zm8.646 1.148h-9.22a.574.574 0 01-.57-.574v-10.87c0-.318.255-.574.57-.574h9.22c.318 0 .574.256.574.574v10.87a.574.574 0 01-.574.574zM37.415 48.604h8.075V38.88h-8.075v9.725zm8.648 1.148h-9.22a.574.574 0 01-.573-.574v-10.87c0-.318.256-.574.573-.574h9.22c.316 0 .574.256.574.574v10.87a.576.576 0 01-.574.574zM25.962 51.776h8.072V40.17h-8.072v11.605zm8.646 1.147h-9.22a.576.576 0 01-.574-.574V39.597c0-.315.259-.574.574-.574h9.22c.318 0 .574.259.574.574V52.35a.574.574 0 01-.574.574z" fill="#000"/><path d="M23.121 32.666h-9.22a.57.57 0 110-1.143h9.22a.57.57 0 110 1.143zM23.121 46.409h-9.22a.572.572 0 010-1.145h9.22a.572.572 0 110 1.145zM46.063 46.555h-9.22a.572.572 0 110-1.145h9.22a.574.574 0 110 1.145zM34.608 32.666h-9.22a.572.572 0 110-1.143h9.22a.57.57 0 110 1.143zM46.063 32.666h-9.22a.57.57 0 110-1.143h9.22a.572.572 0 110 1.143zM29.976 8.206a6.244 6.244 0 00-6.24 6.237c0 3.44 2.797 6.24 6.24 6.24 3.437 0 6.237-2.8 6.237-6.24 0-3.44-2.8-6.237-6.238-6.237zm0 13.624c-4.073 0-7.388-3.314-7.388-7.387 0-4.07 3.315-7.382 7.387-7.382 4.071 0 7.383 3.311 7.383 7.382 0 4.073-3.312 7.387-7.382 7.387z" fill="#000"/><path d="M9.484 20.689h16.554a7.388 7.388 0 01-3.44-6.24c0-1.384.394-2.733 1.122-3.897h-6.387l-.998 4.324a.575.575 0 01-.56.446h-4.93l-1.361 5.367zm20.502 1.147H8.746a.574.574 0 01-.554-.716l1.652-6.512a.566.566 0 01.552-.431h4.924l.998-4.327a.573.573 0 01.56-.446h7.977a.574.574 0 01.432.951 6.23 6.23 0 00-1.541 4.094c0 3.44 2.797 6.24 6.24 6.24a.574.574 0 010 1.147z" fill="#000"/><path d="M33.935 20.689h16.552l-1.36-5.367h-4.931a.573.573 0 01-.56-.446l-.998-4.324h-6.387a7.35 7.35 0 011.12 3.897 7.39 7.39 0 01-3.436 6.24zm17.29 1.147H29.988a.574.574 0 010-1.147c3.438 0 6.237-2.8 6.237-6.24a6.23 6.23 0 00-1.54-4.094.576.576 0 01-.09-.614.579.579 0 01.52-.337h7.978c.268 0 .498.185.56.446l.998 4.327h4.921c.264 0 .491.175.558.431l1.65 6.512a.566.566 0 01-.102.493.577.577 0 01-.453.223zM29.988 11.69a.573.573 0 01-.574-.573v-1.11a.573.573 0 111.145 0v1.11a.572.572 0 01-.571.573z" fill="#000"/><path d="M34.437 15.002h-1.112a.572.572 0 010-1.145h1.112a.572.572 0 110 1.146zM29.988 19.454a.573.573 0 01-.574-.573v-1.11a.573.573 0 111.145 0v1.11a.572.572 0 01-.571.573zM26.645 15.002h-1.11a.573.573 0 110-1.145h1.11a.572.572 0 110 1.146zM31.308 15.003h-1.32a.573.573 0 01-.574-.574v-.877a.573.573 0 111.145 0v.306h.75a.574.574 0 010 1.145zM20.532 15.325h-4.755a.572.572 0 010-1.145h4.755a.572.572 0 110 1.145zM40.593 15.325h-3.808a.573.573 0 110-1.145h3.808a.572.572 0 010 1.145zM32.424 46.409h-1.147a.573.573 0 110-1.145h1.147a.572.572 0 010 1.145zM51.072 52.915H8.894a.574.574 0 010-1.147h42.178c.315 0 .573.258.573.573a.576.576 0 01-.573.574z" fill="#000"/></g><defs><clipPath id="clip0"><path fill="#fff" d="M0 0h60v60H0z"/></clipPath></defs></svg>
