<svg width="296" height="240" viewBox="0 0 296 240" fill="none" xmlns="http://www.w3.org/2000/svg">
<g id="under-construction" clip-path="url(#clip0)">
<g id="Group">
<path id="Vector" d="M48.9173 89.2405C47.0646 89.2405 45.763 88.8282 44.9098 88.3999C46.4498 87.6241 49.018 86.3575 52.4957 84.739C52.5126 86.1116 52.556 87.4534 52.6249 88.7688C51.1993 89.108 49.9699 89.2405 48.9173 89.2405ZM43.2234 86.5959L42.4592 84.9817L44.6872 83.2254C45.0688 82.9244 45.2288 82.4199 45.0899 81.9546C45.0476 81.8157 40.9838 67.9286 44.3936 51.8369C46.3513 42.5997 50.2486 34.5708 56.0517 27.7852C55.4931 31.9294 54.3081 41.6892 54.3823 49.5178C54.4205 53.5497 60.9029 62.5962 65.9312 63.0233C67.6218 63.1664 69.4332 63.2279 71.2955 63.2279C82.6663 63.2279 95.9715 60.93 95.9715 60.93C95.9715 60.93 90.6157 63.6275 90.6984 66.6896C65.2878 75.6533 47.6783 84.3298 43.2234 86.5959Z" fill="#CAB0FF"/>
</g>
<g id="Group_2">
<path id="Vector_2" d="M132.161 54.2357L130.68 50.19L125.794 51.5053C125.794 51.5053 107.37 10.2701 92.6721 6.34631C97.5022 4.99703 102.176 4.07595 106.691 3.58203C113.176 8.66648 125.377 33.387 128.565 37.1105C134.557 44.1081 140.953 46.8915 144.553 46.9424C144.553 46.9424 138.845 50.4083 141.297 52.0904C138.207 52.7783 135.161 53.4948 132.161 54.2357Z" fill="#CAB0FF"/>
</g>
<g id="Group_3">
<path id="Vector_3" d="M159.992 48.7667L158.347 45.0591L153.803 45.6844C144.803 18.9946 129.295 6.71007 126.604 4.73438C131.372 5.72858 135.903 7.32801 140.189 9.53053C141.444 10.7007 142.513 12.0743 143.33 13.6547C149.07 24.7521 156.025 36.0423 157.673 38.7801C160.26 43.0792 164.141 44.5588 164.141 44.5588L166.042 47.7852C165.347 47.8923 164.649 48.0014 163.953 48.1117C162.628 48.3236 161.307 48.542 159.992 48.7667Z" fill="#CAB0FF"/>
</g>
<g id="Group_4">
<path id="Vector_4" d="M167.411 54.4429C166.806 53.0195 166.146 51.6426 165.434 50.3124C173.703 49.0214 181.932 48.0378 189.933 47.3828C188.297 49.5832 177.412 52.6527 167.411 54.4429Z" fill="#CAB0FF"/>
</g>
<g id="Group_5">
<path id="Vector_5" d="M100.474 134.652C94.8295 134.089 89.7302 133.078 85.1641 131.605C85.056 131.477 84.9182 131.371 84.755 131.296C84.5949 131.224 84.4274 131.189 84.2621 131.189C84.1752 131.189 84.0883 131.198 84.0035 131.218C68.1608 125.726 58.9861 114.453 55.9675 96.9259C56.7274 97.4654 57.6083 97.741 58.5664 97.741C58.8812 97.741 59.2045 97.7113 59.5352 97.6509C59.7026 97.6212 59.8553 97.5566 59.9878 97.4665C60.9618 101.869 63.866 106.149 68.0252 106.149C68.1714 106.149 68.3177 106.144 68.4671 106.133L74.4366 102.909C74.4366 102.909 73.064 129.494 100.474 134.652ZM58.5548 95.3721C58.0206 95.3721 57.5743 95.2057 57.1769 94.8654C55.5912 93.5108 55.1641 89.8891 55.1058 87.9293L85.8043 73.6765C84.6108 76.1027 83.3209 80.4251 87.4292 83.0452L72.1027 87.5064C71.7614 87.606 71.4985 87.8456 71.3597 88.1445C70.0093 87.7247 68.3484 87.3591 66.6515 87.3591C65.0224 87.3591 63.3615 87.6961 61.9137 88.6448C60.1266 89.816 59.4462 92.4626 59.6698 95.3519C59.5585 95.318 59.4419 95.3 59.3221 95.3C59.2533 95.3 59.1822 95.3053 59.1112 95.318C58.9151 95.354 58.7307 95.3721 58.5548 95.3721ZM74.4366 89.3793C74.4366 89.3793 74.4017 89.3602 74.3349 89.3263L75.3397 89.0337L74.4366 89.3793ZM54.8842 85.4183C54.863 84.6149 54.8514 83.802 54.8503 82.9784C63.3361 79.1023 76.0869 73.6649 91.8225 68.1289L91.9084 68.2275L54.8842 85.4183Z" fill="#CAB0FF"/>
</g>
<g id="Group_6">
<path id="Vector_6" d="M68.4151 101.6C66.1755 101.6 64.3599 99.7842 64.3599 97.5446C64.3599 95.305 66.1755 93.4883 68.4151 93.4883C70.6547 93.4883 72.4704 95.305 72.4704 97.5446C72.4704 99.7842 70.6547 101.6 68.4151 101.6Z" fill="#CAB0FF"/>
</g>
<g id="Group_7">
<path id="Vector_7" d="M95.1699 89.4231C93.6595 86.0473 93.8546 82.9587 93.8577 82.9195C93.8874 82.5315 93.7253 82.1531 93.4232 81.9083C93.2091 81.7345 92.9441 81.6423 92.6749 81.6423C92.6282 81.6423 92.5816 81.6454 92.535 81.6507C92.3611 77.5128 92.5148 72.829 92.6113 70.5852L92.9377 70.4336H114.158C107.864 76.7984 101.534 83.1272 95.1699 89.4231Z" fill="#CAB0FF"/>
</g>
<g id="Group_8">
<path id="Vector_8" d="M114.861 98.3318C124.161 89.032 133.459 79.7333 142.758 70.4336H161.349C153.957 77.7735 146.599 85.1453 139.224 92.5012C138.39 91.3755 138.085 90.5075 138.051 90.4046C137.893 89.9139 137.434 89.5895 136.92 89.5895H136.907C136.388 89.5948 135.929 89.9467 135.781 90.4449C135.757 90.5212 133.346 97.8697 114.861 98.3318Z" fill="#CAB0FF"/>
</g>
<g id="Group_9">
<path id="Vector_9" d="M153.811 98.9032C153.451 98.9032 153.099 98.8978 152.755 98.8862L170.198 81.4431C170.2 81.7049 170.201 81.9677 170.201 82.2306C170.2 82.2497 170.2 82.2677 170.201 82.2857C170.2 85.8545 170.019 89.2229 169.654 92.4016C169.613 92.4588 169.568 92.5171 169.526 92.5744C166.347 96.7738 161.06 98.9032 153.811 98.9032ZM172.509 85.8735C172.529 85.3372 172.543 84.7956 172.552 84.2497C172.629 84.3112 172.709 84.3769 172.787 84.4458C172.709 84.9228 172.618 85.3987 172.509 85.8735ZM173.09 81.7367C172.912 81.6317 172.737 81.5384 172.569 81.4558C172.562 80.6693 172.547 79.8903 172.522 79.1187L173.137 78.5039C173.17 79.5405 173.161 80.628 173.09 81.7367Z" fill="#CAB0FF"/>
</g>
<g id="Group_10">
<path id="Vector_10" d="M149.449 98.0318C146.311 97.5379 143.998 96.5331 142.309 95.4085C150.634 87.0839 158.959 78.7593 167.284 70.4336H169.487C169.785 72.6827 169.99 75.0072 170.1 77.4058C163.19 84.255 156.309 91.1339 149.449 98.0318ZM172.346 75.181C172.233 73.5657 172.076 71.9821 171.877 70.4336H172.171C172.369 71.3112 172.669 72.8015 172.885 74.6489C172.705 74.8259 172.526 75.004 172.346 75.181Z" fill="#CAB0FF"/>
</g>
<g id="Group_11">
<path id="Vector_11" d="M107.015 97.841C106.05 97.6598 105.136 97.4309 104.271 97.1532C113.159 88.2318 122.032 79.2945 130.98 70.4336H134.419C125.235 79.5192 116.132 88.6886 107.015 97.841Z" fill="#CAB0FF"/>
</g>
<g id="Group_12">
<path id="Vector_12" d="M116.863 122.491C115.628 122.491 114.268 122.348 112.811 121.98C106.043 120.279 105.712 114.238 105.712 114.238C109.42 119.922 115.542 121.019 119.719 121.019C122.346 121.019 124.204 120.584 124.204 120.584C124.204 120.584 121.357 122.491 116.863 122.491Z" fill="#CAB0FF"/>
</g>
<g id="Group_13">
<path id="Vector_13" d="M113.586 128.609C113.358 128.609 113.114 128.584 112.857 128.532C109.91 127.929 109.89 123.457 109.89 123.457L116.769 125.994C116.769 125.994 115.965 128.609 113.586 128.609Z" fill="#CAB0FF"/>
</g>
<g id="Group_14">
<path id="Vector_14" d="M104.349 202.617C100.606 198.996 102.847 191.724 102.847 191.724L115.316 186.855C103.735 192.964 104.349 202.617 104.349 202.617Z" fill="#CAB0FF"/>
</g>
<g id="Group_15">
<path id="Vector_15" d="M177.361 219.951H102.678C102.678 219.296 102.147 218.766 101.492 218.766H88.2414C72.863 206.042 76.9851 158.129 83.7198 138.016C83.7378 137.971 83.7527 137.927 83.7654 137.88C84.1173 136.836 84.4776 135.867 84.8412 134.984C92.3931 137.344 101.335 138.505 111.785 138.505C120.515 138.505 128.02 137.731 134.594 136.118C134.999 136.695 135.387 137.285 135.759 137.894C135.184 137.954 134.439 138.034 133.562 138.127C135.087 141.068 136.754 146.825 137.45 149.352C136.015 149.207 134.448 149.117 132.774 149.117C130.116 149.117 127.185 149.345 124.081 149.945C122.625 147.39 117.577 139.95 108.132 139.95C106.976 139.95 105.753 140.061 104.464 140.307C103.82 140.429 103.398 141.05 103.52 141.694C103.576 141.988 103.737 142.237 103.957 142.409C98.3128 144.615 95.7075 149.071 101.492 156.174C108.422 164.683 115.401 164.874 116.012 164.874H116.055C116.055 164.874 119.701 171.154 134.547 171.154C138.368 171.153 142.931 170.738 148.364 169.692C148.397 169.855 148.464 170.014 148.569 170.157C149.647 171.64 151.382 172.524 153.211 172.524H154.352C157.62 179.966 153.766 188.238 153.766 188.238C153.766 188.238 148.685 184.036 145.209 182.842C144.052 182.444 142.264 182.312 140.394 182.312C136.655 182.312 132.591 182.842 132.591 182.842C134.521 180.394 134.475 178.26 133.967 176.751C130 177.974 125.559 178.859 120.993 178.869H120.953C114.093 178.869 106.853 175.337 100.769 171.805C94.6836 168.272 89.755 164.74 87.5185 164.74C87.1274 164.74 86.819 164.848 86.6007 165.083C83.8841 168.008 88.9717 173.67 88.9717 173.67C88.9717 173.67 82.4002 173.988 82.6206 176.639C82.7987 178.797 85.1412 180.774 90.71 180.774C91.984 180.774 93.4276 180.67 95.0535 180.441C95.0535 180.441 87.7909 184.194 88.9717 186.861C90.1525 189.529 96.7865 189.763 96.7865 189.763C96.7865 189.763 86.9706 194.854 87.5164 201.07C88.0294 206.899 88.5965 212.322 93.9247 214.221L93.8823 213.38C93.8823 213.38 91.771 210.927 92.4313 206.242C92.4313 206.242 95.9682 214.556 104.142 214.555C104.22 214.555 104.299 214.554 104.377 214.553C104.581 214.548 104.793 214.546 105.014 214.546C106.874 214.546 109.314 214.68 112.057 214.813C114.802 214.946 117.85 215.079 120.927 215.079C129.337 215.079 137.953 214.084 141.132 209.376C141.132 209.376 139.355 215.644 146.824 216.689C150.378 217.186 155.838 217.806 160.875 217.806C166.424 217.806 171.461 217.052 172.855 214.553C172.855 214.553 180.396 211.466 180.925 208.959C180.925 208.959 182.475 213.222 185.194 213.222C185.712 213.222 186.272 213.068 186.873 212.699L177.361 219.951Z" fill="#CAB0FF"/>
</g>
<g id="Group_16">
<path id="Vector_16" d="M186.83 211.734L187.716 211.059C187.411 211.338 187.118 211.558 186.83 211.734Z" fill="#CAB0FF"/>
</g>
<g id="Group_17">
<path id="Vector_17" d="M143.576 202.617C143.576 202.617 139.526 195.679 144.498 186.855C144.498 186.855 150.218 195.862 143.576 202.617Z" fill="#CAB0FF"/>
</g>
<g id="Group_18">
<path id="Vector_18" d="M175.556 210.942C175.556 210.942 175.583 210.636 175.658 210.157C175.63 210.414 175.597 210.675 175.556 210.942ZM175.658 210.157C176.642 201.145 170.013 197.83 168.964 197.83L169.898 197.012C170.155 196.925 170.413 196.805 170.672 196.647C172.169 195.729 173.402 194.263 174.579 192.904L180.463 187.742C180.737 187.593 181.019 187.451 181.311 187.317C181.638 187.166 181.991 187.008 182.362 186.855C181.371 189.639 179.132 196.643 180.87 198.734C183.058 201.365 179.088 204.387 179.088 204.387C176.791 204.492 175.926 208.439 175.658 210.157Z" fill="#CAB0FF"/>
</g>
<g id="Group_19">
<path id="Vector_19" d="M57.1736 237.746H19.6683C15.1477 237.746 11.4814 234.08 11.4814 229.558V196.196C11.4814 191.674 15.1477 188.008 19.6683 188.008H57.1736C61.6952 188.008 65.3615 191.674 65.3615 196.196V229.558C65.3615 234.08 61.6952 237.746 57.1736 237.746Z" fill="#CAB0FF"/>
</g>
<g id="Group_20">
<path id="Vector_20" d="M269.778 187.575H269.197C272.021 185.82 273.906 182.689 273.906 179.125V158.223C273.906 154.788 272.155 151.755 269.499 149.969H269.778C274.3 149.969 277.966 153.633 277.966 158.156V179.387C277.966 183.91 274.3 187.575 269.778 187.575ZM263.964 186.696H245.983C241.809 186.696 238.412 183.3 238.412 179.125V158.223C238.412 154.048 241.809 150.651 245.983 150.651H263.964C268.138 150.651 271.535 154.048 271.535 158.223V179.125C271.535 183.3 268.138 186.696 263.964 186.696Z" fill="#CAB0FF"/>
</g>
<g id="Group_21">
<path id="Vector_21" d="M205.822 220.43H177.802C178.378 219.884 178.953 219.339 179.534 218.796C183.845 214.776 188.932 211.276 192.555 206.586C196.858 201.013 195.636 192.827 189 189.948C189.355 188.29 189.369 186.359 187.508 185.669C187.046 185.499 186.555 185.427 186.048 185.427C184.823 185.427 183.515 185.849 182.375 186.32C182.63 185.602 182.802 185.166 182.802 185.166L180.477 187.206C178.453 188.306 176.908 189.785 175.318 191.543C175.078 191.81 174.835 192.087 174.592 192.369L169.912 196.476C169.547 196.599 169.183 196.654 168.823 196.654C167.075 196.654 165.399 195.349 163.993 194.111V174.706C163.993 173.603 164.439 172.604 165.16 171.877H190.529C190.623 171.877 190.716 171.875 190.808 171.871C190.849 171.875 190.891 171.877 190.934 171.877H216.707C217.428 172.604 217.874 173.603 217.874 174.706V216.416C217.874 217.026 217.739 217.602 217.496 218.12H206.193C205.538 218.12 205.007 218.65 205.007 219.305C205.007 219.83 205.348 220.275 205.822 220.43Z" fill="#CAB0FF"/>
</g>
<g id="Group_22">
<path id="Vector_22" d="M169.901 197.014L174.581 192.906C173.405 194.265 172.172 195.731 170.674 196.649C170.416 196.807 170.158 196.927 169.901 197.014ZM180.466 187.743L182.791 185.703C182.791 185.703 182.619 186.14 182.364 186.857C181.993 187.01 181.64 187.168 181.314 187.318C181.021 187.453 180.739 187.595 180.466 187.743Z" fill="#9FA3D2"/>
</g>
<g id="Group_23">
<path id="Vector_23" d="M75.3939 173.277H58.6578C58.4967 173.195 58.3144 173.149 58.1204 173.149H53.9125C51.5256 172.615 49.7354 170.479 49.7354 167.933V143.787C49.7354 140.84 52.1329 138.441 55.0795 138.441H80.9278C78.1889 147.239 75.9854 160.148 75.3939 173.277Z" fill="#CAB0FF"/>
</g>
<g id="Group_24">
<path id="Vector_24" d="M198.781 169.697H195.168C195.855 168.752 196.261 167.589 196.261 166.332V126.822C196.261 125.566 195.855 124.405 195.168 123.457H198.469C199.862 124.424 200.775 126.036 200.775 127.859V165.53C200.775 167.214 199.998 168.716 198.781 169.697ZM190.524 169.697H153.165C152.343 169.697 151.552 169.392 150.943 168.857C154.134 168.129 157.375 167.622 160.632 167.271L160.726 167.293C160.756 167.293 160.787 167.294 160.819 167.294C163.227 167.294 169.689 165.312 167.089 162.295C167.877 161.723 168.515 161.061 168.945 160.139C169.345 159.282 169.77 158.427 170.172 157.562C170.566 156.71 170.444 155.84 170.494 154.936C172.677 153.642 173.24 152.235 173.345 151.321C173.495 149.989 172.799 148.746 171.57 148.153C171.127 147.939 170.657 147.835 170.192 147.835C169.368 147.835 168.56 148.163 167.934 148.788C166.687 150.035 164.352 150.538 162.618 150.71C162.996 149.475 163.282 147.881 162.755 146.752C162.443 146.081 161.897 145.624 161.177 145.432C160.959 145.373 160.729 145.344 160.49 145.344C158.079 145.344 154.785 148.18 153.306 149.579C152.742 149.516 152.206 149.489 151.696 149.489C151.014 149.489 150.381 149.539 149.801 149.619V126.822C149.801 124.967 151.31 123.457 153.166 123.457H190.525C192.38 123.457 193.89 124.967 193.89 126.822V166.332C193.89 168.187 192.38 169.697 190.524 169.697Z" fill="#CAB0FF"/>
</g>
<g id="Group_25">
<path id="Vector_25" d="M143.303 107.085H130.479C129.28 107.085 128.674 105.64 129.518 104.789C131.432 102.857 134.446 100.406 137.428 100.406C140.48 100.406 142.948 102.977 144.382 104.928C145.04 105.824 144.415 107.085 143.303 107.085Z" fill="#CAB0FF"/>
</g>
<g id="Group_26">
<path id="Vector_26" d="M106.539 105.592C103.058 105.592 100.236 104.02 100.236 102.082C100.236 100.921 101.246 99.893 102.802 99.2539C105.556 100.245 108.767 100.767 112.419 100.816C112.691 101.208 112.841 101.636 112.841 102.082C112.841 104.02 110.019 105.592 106.539 105.592Z" fill="#CAB0FF"/>
</g>
<g id="Group_27">
<path id="Vector_27" d="M162.443 106.047C158.962 106.047 156.141 104.475 156.141 102.536C156.141 102.05 156.319 101.586 156.64 101.165C159.672 100.923 162.358 100.285 164.687 99.2539C166.17 99.5687 167.386 100.188 168.089 100.974C167.736 102.369 167.337 103.717 166.892 105.022C165.753 105.656 164.179 106.047 162.443 106.047Z" fill="#CAB0FF"/>
</g>
<g id="Group_28">
<path id="Vector_28" d="M117.426 88.0832C117.426 90.8284 115.948 93.0543 114.125 93.0543C112.303 93.0543 110.827 90.8284 110.827 88.0832C110.827 85.3381 112.303 83.1133 114.125 83.1133C115.948 83.1133 117.426 85.3381 117.426 88.0832Z" fill="#0C0807"/>
</g>
<g id="Group_29">
<path id="Vector_29" d="M159.426 88.0832C159.426 90.8284 157.949 93.0543 156.126 93.0543C154.304 93.0543 152.827 90.8284 152.827 88.0832C152.827 85.3381 154.304 83.1133 156.126 83.1133C157.949 83.1133 159.426 85.3381 159.426 88.0832Z" fill="#0C0807"/>
</g>
<g id="Group_30">
<path id="Vector_30" d="M140.54 183.445C129.202 183.445 108.255 189.096 99.0399 195.349C93.1796 199.325 92.8595 206.462 94.3656 211.366C95.7393 215.836 98.6001 218.84 101.483 218.84H175.377C177.961 218.756 195.26 205.986 195.372 201.118C195.527 194.33 189.133 192.484 188.861 192.409C188.319 192.258 187.954 191.748 187.99 191.189C188.002 190.986 188.24 186.506 185.179 186.227C183.838 186.103 179.312 189.323 170.982 198.797C170.617 199.213 170.015 199.32 169.53 199.059C164.556 196.386 160.014 193.186 156.006 190.363C152.083 187.599 148.693 185.211 146.133 184.207C144.8 183.685 142.873 183.445 140.54 183.445ZM175.377 221.21H101.483C97.4903 221.21 93.8071 217.619 92.0996 212.062C90.3549 206.387 90.7778 198.089 97.7087 193.387C108.608 185.99 137.904 178.436 146.998 182C149.824 183.108 153.323 185.571 157.373 188.424C161.099 191.051 165.296 194.008 169.828 196.521C181.391 183.5 184.391 183.777 185.393 183.865C189.183 184.211 190.274 187.89 190.368 190.411C193.391 191.566 197.886 194.887 197.742 201.172C197.598 207.458 178.892 221.21 175.377 221.21Z" fill="#0C0807"/>
</g>
<g id="Group_31">
<path id="Vector_31" d="M175.321 211.558L175.114 211.54C174.471 211.428 174.039 210.813 174.15 210.168C175.685 201.382 169.626 198.358 169.563 198.328C168.973 198.044 168.726 197.336 169.01 196.747C169.293 196.156 170.002 195.908 170.592 196.191C170.67 196.228 178.327 200.042 176.488 210.576C176.387 211.153 175.886 211.558 175.321 211.558Z" fill="#0C0807"/>
</g>
<g id="Group_32">
<path id="Vector_32" d="M143.565 203.836C143.331 203.836 143.094 203.766 142.887 203.622C142.351 203.246 142.219 202.507 142.596 201.97C148.659 193.299 143.67 187.75 143.619 187.695C143.173 187.216 143.202 186.466 143.681 186.021C144.162 185.573 144.911 185.603 145.357 186.082C145.424 186.155 147.025 187.904 147.692 190.93C148.295 193.667 148.238 198.039 144.538 203.329C144.307 203.659 143.94 203.836 143.565 203.836Z" fill="#0C0807"/>
</g>
<g id="Group_33">
<path id="Vector_33" d="M179.136 205.251H179.101C178.446 205.231 177.931 204.686 177.95 204.03C178.07 199.966 171.455 199.6 171.389 199.597C170.734 199.566 170.23 199.01 170.262 198.356C170.294 197.703 170.842 197.194 171.503 197.228C174.617 197.379 180.47 199.009 180.321 204.101C180.302 204.743 179.775 205.251 179.136 205.251Z" fill="#0C0807"/>
</g>
<g id="Group_34">
<path id="Vector_34" d="M178.474 216.933C177.688 216.933 177.073 216.731 176.962 216.691C176.344 216.475 176.019 215.798 176.235 215.18C176.45 214.566 177.121 214.24 177.738 214.451C177.968 214.526 178.721 214.68 179.176 214.396C179.47 214.214 179.661 213.823 179.745 213.233C179.838 212.586 180.443 212.134 181.086 212.227C181.735 212.319 182.185 212.92 182.093 213.569C181.856 215.225 181.043 216.037 180.402 216.426C179.758 216.817 179.068 216.933 178.474 216.933Z" fill="#0C0807"/>
</g>
<g id="Group_35">
<path id="Vector_35" d="M104.376 202.958L104.309 202.957C103.655 202.92 103.155 202.361 103.192 201.707C103.848 190.055 114.475 185.948 114.927 185.778C115.539 185.55 116.223 185.859 116.453 186.473C116.682 187.086 116.371 187.769 115.759 187.999C115.35 188.153 106.127 191.767 105.559 201.839C105.524 202.471 105 202.958 104.376 202.958Z" fill="#0C0807"/>
</g>
<g id="Group_36">
<path id="Vector_36" d="M101.436 220.519H87.7682C87.5032 220.519 87.2457 220.431 87.0369 220.268C68.9059 206.074 75.0523 149.849 83.1353 132.218C83.4088 131.623 84.1126 131.364 84.7072 131.634C85.3028 131.907 85.5636 132.611 85.2901 133.206C77.6969 149.771 71.6002 204.426 88.1858 218.149H101.436C102.091 218.149 102.622 218.679 102.622 219.334C102.622 219.989 102.091 220.519 101.436 220.519Z" fill="#0C0807"/>
</g>
<g id="Group_37">
<path id="Vector_37" d="M142.03 151.639C141.484 151.639 140.994 151.261 140.873 150.705C139.411 143.986 137.242 138.86 134.044 134.574C133.652 134.049 133.76 133.306 134.284 132.915C134.808 132.524 135.552 132.632 135.944 133.155C140.421 139.157 142.223 145.757 143.191 150.201C143.329 150.841 142.924 151.473 142.284 151.612L142.03 151.639Z" fill="#0C0807"/>
</g>
<g id="Group_38">
<path id="Vector_38" d="M154.795 187.461C154.669 187.461 154.541 187.441 154.415 187.399C153.795 187.187 153.463 186.515 153.673 185.895C153.715 185.766 156.008 178.663 152.645 171.242C152.374 170.647 152.638 169.944 153.235 169.674C153.831 169.401 154.533 169.666 154.805 170.264C158.581 178.595 156.029 186.331 155.919 186.656C155.75 187.15 155.289 187.461 154.795 187.461Z" fill="#0C0807"/>
</g>
<g id="Group_39">
<path id="Vector_39" d="M90.9834 175.122L90.7491 175.097C85.0786 173.961 76.9235 163.853 76.5791 163.423C76.1699 162.912 76.2515 162.166 76.7624 161.756C77.2744 161.348 78.0195 161.428 78.4286 161.94C80.6269 164.68 87.208 171.969 91.2145 172.773C91.8568 172.901 92.2733 173.526 92.144 174.168C92.0317 174.732 91.5367 175.122 90.9834 175.122Z" fill="#0C0807"/>
</g>
<g id="Group_40">
<path id="Vector_40" d="M81.9305 183.752C78.2112 183.752 75.8444 181.772 75.7247 181.671C75.2276 181.245 75.1692 180.497 75.5943 180C76.0182 179.504 76.7634 179.443 77.2615 179.865C77.3845 179.966 80.0014 182.09 83.9475 181.134C87.8003 180.204 110.795 177.144 123.15 175.5C125.868 175.139 128.032 174.851 129.295 174.678C149.499 171.917 156.287 181.425 156.566 181.83C156.938 182.371 156.8 183.108 156.261 183.479C155.721 183.849 154.982 183.713 154.612 183.174C154.555 183.091 148.258 174.479 129.616 177.028C128.351 177.2 126.184 177.489 123.462 177.851C112.028 179.372 88.236 182.538 84.504 183.439C83.5893 183.66 82.7286 183.752 81.9305 183.752Z" fill="#0C0807"/>
</g>
<g id="Group_41">
<path id="Vector_41" d="M88.1313 192.99C86.1482 192.99 84.1067 191.539 83.1072 189.343C82.1098 187.153 82.1183 183.907 85.1285 181.361C85.6299 180.941 86.3771 181.001 86.8 181.502C87.2219 182.003 87.1593 182.75 86.6601 183.173C84.2117 185.242 84.8688 187.49 85.2652 188.36C85.9139 189.785 87.2759 190.765 88.3708 190.601C91.151 190.174 97.0706 188.468 99.0071 187.9C99.2997 186.638 99.7597 183.443 97.8423 180.642C97.4724 180.101 97.6101 179.362 98.1507 178.994C98.6912 178.622 99.429 178.761 99.7989 179.302C102.935 183.884 101.168 189.03 101.091 189.246C100.965 189.603 100.676 189.877 100.314 189.986C99.9854 190.085 92.2257 192.407 88.7312 192.944C88.533 192.975 88.3327 192.99 88.1313 192.99Z" fill="#0C0807"/>
</g>
<g id="Group_42">
<path id="Vector_42" d="M81.9715 195.509C81.4734 195.509 81.0102 195.192 80.8448 194.694C80.6403 194.072 80.9784 193.402 81.6006 193.196C81.7617 193.143 97.8937 187.839 107.846 185.729C108.486 185.593 109.116 186.004 109.252 186.644C109.389 187.284 108.978 187.914 108.338 188.05C98.5127 190.133 82.5026 195.396 82.3425 195.449C82.2196 195.489 82.0945 195.509 81.9715 195.509Z" fill="#0C0807"/>
</g>
<g id="Group_43">
<path id="Vector_43" d="M157.686 123.556C157.377 123.556 157.067 123.435 156.835 123.196C156.38 122.725 156.391 121.974 156.862 121.519C165.841 112.821 170.206 100.058 170.206 82.4981C170.206 69.7674 167.732 58.936 162.857 50.3051C162.534 49.7349 162.735 49.0109 163.305 48.6887C163.875 48.3665 164.598 48.5679 164.921 49.1381C170.002 58.1294 172.577 69.3529 172.577 82.4981C172.577 100.733 167.975 114.055 158.512 123.222C158.281 123.445 157.983 123.556 157.686 123.556Z" fill="#0C0807"/>
</g>
<g id="Group_44">
<path id="Vector_44" d="M111.772 137.954C91.885 137.954 77.4637 133.747 67.6839 125.091C57.4482 116.03 52.4729 102.309 52.4729 83.147C52.4729 82.492 53.0039 81.9609 53.659 81.9609C54.3129 81.9609 54.8439 82.492 54.8439 83.147C54.8439 118.921 72.9336 135.584 111.772 135.584C126.886 135.584 138.611 133.089 147.617 127.96C148.187 127.636 148.91 127.833 149.234 128.404C149.559 128.972 149.359 129.697 148.791 130.02C139.287 135.433 127.524 137.954 111.772 137.954Z" fill="#0C0807"/>
</g>
<g id="Group_45">
<path id="Vector_45" d="M123.959 145.752C117.42 145.752 111.076 137.556 110.781 137.169C110.385 136.65 110.484 135.907 111.004 135.509C111.524 135.112 112.268 135.211 112.666 135.73C114.615 138.277 120.701 144.58 125.393 143.174C126.839 142.74 127.805 141.998 128.341 140.908C129.479 138.594 128.312 135.474 128.301 135.443C128.068 134.831 128.372 134.147 128.982 133.911C129.592 133.677 130.277 133.98 130.513 134.588C130.576 134.755 132.067 138.688 130.476 141.94C129.645 143.639 128.164 144.819 126.075 145.445C125.372 145.656 124.665 145.752 123.959 145.752Z" fill="#0C0807"/>
</g>
<g id="Group_46">
<path id="Vector_46" d="M137.459 101.626C135.477 101.626 132.966 103.057 130.391 105.657C130.367 105.681 130.316 105.733 130.357 105.832C130.4 105.932 130.476 105.932 130.51 105.932H143.334L143.476 105.848L143.458 105.663C142.35 104.156 140.097 101.626 137.459 101.626ZM143.334 108.304H130.51C129.482 108.304 128.564 107.692 128.168 106.744C127.774 105.798 127.985 104.716 128.707 103.989C130.846 101.828 134.101 99.2539 137.459 99.2539C140.956 99.2539 143.691 101.976 145.369 104.26C145.941 105.039 146.027 106.059 145.591 106.918C145.158 107.772 144.294 108.304 143.334 108.304Z" fill="#0C0807"/>
</g>
<g id="Group_47">
<path id="Vector_47" d="M122.445 122.096C108.489 122.096 103.837 114.067 103.629 113.693C103.31 113.121 103.515 112.398 104.086 112.079C104.657 111.762 105.377 111.965 105.698 112.534C105.906 112.901 110.841 121.184 126.505 119.499C127.15 119.432 127.741 119.901 127.811 120.551C127.881 121.201 127.41 121.786 126.758 121.857C125.231 122.021 123.795 122.096 122.445 122.096Z" fill="#0C0807"/>
</g>
<g id="Group_48">
<path id="Vector_48" d="M116.141 126.692C111.07 126.692 109.036 124.362 108.946 124.258C108.523 123.756 108.585 123.008 109.085 122.585C109.579 122.166 110.32 122.224 110.745 122.711C110.84 122.815 112.548 124.6 117.154 124.287C117.792 124.232 118.373 124.738 118.417 125.392C118.46 126.045 117.966 126.609 117.312 126.653C116.905 126.68 116.514 126.692 116.141 126.692Z" fill="#0C0807"/>
</g>
<g id="Group_49">
<path id="Vector_49" d="M121.217 78.5441C121.003 78.5441 120.787 78.4869 120.592 78.3661C113.127 73.7162 107.877 78.2039 107.825 78.2495C107.333 78.6819 106.584 78.6332 106.151 78.1424C105.719 77.6506 105.766 76.9012 106.258 76.4688C106.323 76.4116 112.901 70.7834 121.845 76.3522C122.401 76.6988 122.57 77.4302 122.225 77.9856C122 78.3459 121.613 78.5441 121.217 78.5441Z" fill="#0C0807"/>
</g>
<g id="Group_50">
<path id="Vector_50" d="M163.218 78.5441C163.004 78.5441 162.787 78.4869 162.592 78.3661C155.127 73.7162 149.877 78.2039 149.824 78.2495C149.333 78.6819 148.584 78.6332 148.152 78.1424C147.718 77.6506 147.767 76.9012 148.259 76.4688C148.324 76.4116 154.9 70.7834 163.845 76.3522C164.401 76.6988 164.571 77.4302 164.226 77.9856C164 78.3459 163.614 78.5441 163.218 78.5441Z" fill="#0C0807"/>
</g>
<g id="Group_51">
<path id="Vector_51" d="M67.5018 107.062C66.197 107.062 64.9293 106.795 63.7602 106.247C61.6224 105.245 58.0419 102.418 58.0928 94.7403C58.114 91.5097 59.1792 89.1863 61.2588 87.836C66.0666 84.7145 74.51 88.3479 74.8661 88.5048C75.466 88.7666 75.7395 89.4651 75.4777 90.065C75.2159 90.666 74.5153 90.9395 73.9164 90.6777C71.8061 89.7576 65.6501 87.8106 62.5477 89.8265C61.1613 90.7285 60.4798 92.3407 60.4639 94.7562C60.4331 99.4676 61.9616 102.785 64.7661 104.1C67.3947 105.331 70.7896 104.609 73.626 102.215C74.1263 101.792 74.8746 101.855 75.2975 102.356C75.7193 102.856 75.6568 103.604 75.1555 104.027C72.7971 106.018 70.0795 107.062 67.5018 107.062Z" fill="#0C0807"/>
</g>
<g id="Group_52">
<path id="Vector_52" d="M72.5309 100.642C72.338 100.642 72.144 100.595 71.9628 100.495C71.3883 100.182 71.1774 99.461 71.4922 98.8865C71.7073 98.4805 72.692 96.3618 70.5838 95.1322C68.1969 93.7395 65.8661 96.2346 65.8439 96.2589C65.4019 96.7423 64.6514 96.7751 64.1681 96.3321C63.6848 95.8901 63.653 95.1397 64.095 94.6574C65.3468 93.2933 68.5626 91.2063 71.7794 93.0834C75.1309 95.039 74.4176 98.4784 73.5728 100.025C73.3566 100.418 72.9506 100.642 72.5309 100.642Z" fill="#0C0807"/>
</g>
<g id="Group_53">
<path id="Vector_53" d="M170.077 98.0406C169.43 98.0406 168.901 97.5202 168.892 96.8705C168.884 96.2154 169.406 95.6781 170.062 95.6696C170.549 95.6569 174.897 95.3707 174.897 89.4245C174.897 84.3475 171.062 83.1413 171.023 83.1307C170.394 82.9421 170.038 82.2817 170.226 81.6542C170.413 81.0268 171.072 80.6717 171.702 80.8583C173.627 81.4338 177.268 83.9649 177.268 89.4245C177.268 97.8509 170.164 98.0396 170.093 98.0406H170.077Z" fill="#0C0807"/>
</g>
<g id="Group_54">
<path id="Vector_54" d="M133.699 66.3451C128.211 66.3451 122.808 63.6296 120.265 58.9829C119.951 58.4084 120.162 57.6866 120.737 57.3729C121.31 57.0591 122.032 57.2679 122.346 57.8435C125.641 63.8638 134.186 65.3286 139.625 62.6163C141.817 61.5224 143.108 60.0788 143.357 58.4413C143.585 56.9489 142.932 55.3007 141.611 54.0341C141.138 53.5804 141.123 52.829 141.576 52.3573C142.031 51.8835 142.781 51.8697 143.253 52.3223C145.13 54.1242 146.045 56.5451 145.701 58.7985C145.443 60.4954 144.363 62.9025 140.682 64.7383C138.492 65.83 136.087 66.3451 133.699 66.3451Z" fill="#0C0807"/>
</g>
<g id="Group_55">
<path id="Vector_55" d="M206.196 220.549H172.862C172.208 220.549 171.677 220.019 171.677 219.364C171.677 218.709 172.208 218.179 172.862 218.179H206.196C207.828 218.179 209.156 216.85 209.156 215.217V174.899C209.156 173.266 207.828 171.937 206.196 171.937H168.028C166.395 171.937 165.068 173.266 165.068 174.899V193.716C165.068 194.372 164.537 194.902 163.882 194.902C163.228 194.902 162.697 194.372 162.697 193.716V174.899C162.697 171.958 165.088 169.566 168.028 169.566H206.196C209.136 169.566 211.527 171.958 211.527 174.899V215.217C211.527 218.157 209.136 220.549 206.196 220.549Z" fill="#0C0807"/>
</g>
<g id="Group_56">
<path id="Vector_56" d="M224.239 220.549H206.171C205.516 220.549 204.985 220.019 204.985 219.364C204.985 218.709 205.516 218.179 206.171 218.179H224.239C225.872 218.179 227.2 216.85 227.2 215.217V174.898C227.2 173.267 225.872 171.936 224.239 171.936H206.171C205.516 171.936 204.985 171.406 204.985 170.751C204.985 170.096 205.516 169.566 206.171 169.566H224.239C227.179 169.566 229.571 171.958 229.571 174.898V215.217C229.571 218.157 227.179 220.549 224.239 220.549Z" fill="#0C0807"/>
</g>
<g id="Group_57">
<path id="Vector_57" d="M239.785 220.347H217.049C216.394 220.347 215.863 219.817 215.863 219.162C215.863 218.507 216.394 217.977 217.049 217.977H239.785C240.439 217.977 240.971 218.507 240.971 219.162C240.971 219.817 240.439 220.347 239.785 220.347Z" fill="#0C0807"/>
</g>
<g id="Group_58">
<path id="Vector_58" d="M209.037 172.132H190.97C190.315 172.132 189.784 171.602 189.784 170.947C189.784 170.292 190.315 169.762 190.97 169.762H209.037C210.671 169.762 211.999 168.433 211.999 166.801V126.485C211.999 124.851 210.671 123.522 209.037 123.522H190.97C190.315 123.522 189.784 122.992 189.784 122.337C189.784 121.682 190.315 121.152 190.97 121.152H209.037C211.978 121.152 214.37 123.544 214.37 126.485V166.801C214.37 169.742 211.978 172.132 209.037 172.132Z" fill="#0C0807"/>
</g>
<g id="Group_59">
<path id="Vector_59" d="M190.518 172.132H153.159C151.329 172.132 149.594 171.248 148.516 169.766C148.132 169.237 148.248 168.495 148.778 168.11C149.308 167.726 150.049 167.842 150.434 168.373C151.068 169.242 152.086 169.762 153.159 169.762H190.518C192.374 169.762 193.883 168.252 193.883 166.397V126.888C193.883 125.033 192.374 123.522 190.519 123.522H153.16C151.304 123.522 149.795 125.033 149.795 126.888V151.13C149.795 151.785 149.264 152.315 148.609 152.315C147.955 152.315 147.424 151.785 147.424 151.13V126.888C147.424 123.725 149.996 121.152 153.16 121.152H190.519C193.682 121.152 196.254 123.725 196.254 126.888V166.397C196.254 169.561 193.682 172.132 190.518 172.132Z" fill="#0C0807"/>
</g>
<g id="Group_60">
<path id="Vector_60" d="M164.957 157.004C164.415 157.004 163.927 156.63 163.801 156.081C163.657 155.442 164.057 154.807 164.695 154.662C169.18 153.642 170.903 152.135 171.013 151.154C171.058 150.771 170.811 150.508 170.566 150.39C170.377 150.298 170.003 150.2 169.636 150.565C166.789 153.41 161.096 153.259 160.858 153.254C160.46 153.241 160.095 153.029 159.887 152.69C159.677 152.351 159.653 151.93 159.821 151.569C160.573 149.949 160.887 148.158 160.617 147.828C159.754 147.607 156.897 149.483 154.577 151.771C154.312 152.032 153.939 152.154 153.57 152.1C149.469 151.491 146.984 153.073 146.959 153.089C146.639 153.295 146.238 153.338 145.884 153.202C145.786 153.164 135.928 149.461 123.677 152.086C123.134 152.202 122.581 151.925 122.35 151.418C122.135 150.95 116.964 139.984 104.886 142.28C104.244 142.408 103.622 141.981 103.499 141.337C103.377 140.694 103.799 140.073 104.443 139.951C116.266 137.699 122.426 146.721 124.06 149.589C135.124 147.449 143.978 150.046 146.208 150.8C147.264 150.275 149.789 149.287 153.331 149.679C154.956 148.142 158.772 144.871 161.202 145.533C161.922 145.724 162.468 146.181 162.781 146.852C163.307 147.981 163.021 149.575 162.643 150.81C164.377 150.638 166.712 150.135 167.959 148.888C168.938 147.91 170.364 147.661 171.595 148.253C172.824 148.846 173.52 150.089 173.37 151.421C173.209 152.84 171.937 155.447 165.22 156.974L164.957 157.004Z" fill="#0C0807"/>
</g>
<g id="Group_61">
<path id="Vector_61" d="M161.489 164.94C161.217 164.94 161.048 164.933 161.013 164.931C160.359 164.898 159.856 164.341 159.888 163.688C159.921 163.034 160.477 162.538 161.13 162.563C162.272 162.614 165.543 162.45 167.015 161.046C167.529 160.556 167.768 159.978 167.768 159.224C167.768 158.569 168.299 158.039 168.953 158.039C169.608 158.039 170.139 158.569 170.139 159.224C170.139 160.614 169.623 161.839 168.646 162.766C166.557 164.754 162.816 164.94 161.489 164.94Z" fill="#0C0807"/>
</g>
<g id="Group_62">
<path id="Vector_62" d="M121.045 173.787C108.182 173.788 98.0541 165.384 94.2268 161.692C89.3787 157.015 89.7867 149.113 89.8069 148.778C89.845 148.127 90.4015 147.635 91.0586 147.665C91.7115 147.705 92.2108 148.264 92.1737 148.917C92.1694 148.989 91.8186 156.074 95.8728 159.987C99.5868 163.569 109.556 171.853 122.034 171.397C144.94 170.561 154.992 165.93 155.092 165.883C155.317 165.775 155.573 165.743 155.819 165.789C155.857 165.798 159.836 166.507 164.759 165.141C165.131 165.038 165.78 164.804 165.935 164.405C166.091 164.006 165.806 163.417 165.744 163.317C165.396 162.762 165.565 162.031 166.12 161.683C166.676 161.336 167.406 161.504 167.754 162.059C167.857 162.225 168.746 163.717 168.146 165.263C167.741 166.303 166.815 167.032 165.392 167.427C160.772 168.707 156.957 168.346 155.762 168.18C153.778 169.031 143.498 172.987 122.121 173.767C121.76 173.78 121.4 173.787 121.045 173.787Z" fill="#0C0807"/>
</g>
<g id="Group_63">
<path id="Vector_63" d="M162.944 161.722C162.362 161.722 161.855 161.293 161.772 160.701C161.68 160.052 162.131 159.452 162.78 159.361L166.539 158.831C169.223 158.443 169.676 157.676 169.752 157.449C169.962 156.815 169.168 155.763 168.856 155.451C168.392 154.988 168.392 154.237 168.853 153.774C169.316 153.311 170.068 153.309 170.532 153.772C170.757 153.998 172.718 156.037 172.003 158.195C171.478 159.78 169.8 160.756 166.874 161.179L163.112 161.709L162.944 161.722Z" fill="#0C0807"/>
</g>
<g id="Group_64">
<path id="Vector_64" d="M118.495 158.507C118.335 158.507 118.171 158.474 118.014 158.404C117.416 158.138 117.147 157.438 117.413 156.84C119.45 152.258 122.649 150.231 122.783 150.148C123.34 149.802 124.071 149.972 124.417 150.53C124.761 151.085 124.592 151.814 124.039 152.16C124.012 152.176 121.305 153.922 119.579 157.802C119.383 158.244 118.95 158.507 118.495 158.507Z" fill="#0C0807"/>
</g>
<g id="Group_65">
<path id="Vector_65" d="M20.4147 189.225C16.2397 189.225 12.8437 192.623 12.8437 196.798V229.568C12.8437 233.743 16.2397 237.14 20.4147 237.14H49.3623C53.5362 237.14 56.9322 233.744 56.9322 229.569V196.798C56.9322 192.623 53.5362 189.225 49.3623 189.225H20.4147ZM49.3623 239.51H20.4147C14.9328 239.51 10.4727 235.05 10.4727 229.568V196.798C10.4727 191.316 14.9328 186.855 20.4147 186.855H49.3623C54.8442 186.855 59.3043 191.316 59.3043 196.798V229.569C59.3043 235.051 54.8442 239.51 49.3623 239.51Z" fill="#0C0807"/>
</g>
<g id="Group_66">
<path id="Vector_66" d="M69.7538 239.51H52.4146C51.7606 239.51 51.2296 238.98 51.2296 238.325C51.2296 237.67 51.7606 237.14 52.4146 237.14H69.7538C72.7014 237.14 75.0979 234.742 75.0979 231.795V194.571C75.0979 191.624 72.7014 189.225 69.7538 189.225H51.6408C50.9868 189.225 50.4558 188.696 50.4558 188.04C50.4558 187.385 50.9868 186.855 51.6408 186.855H69.7538C74.0083 186.855 77.47 190.316 77.47 194.571V231.795C77.47 236.05 74.0083 239.51 69.7538 239.51Z" fill="#0C0807"/>
</g>
<g id="Group_67">
<path id="Vector_67" d="M86.1929 238.788H1.64399C0.990017 238.788 0.458984 238.258 0.458984 237.603C0.458984 236.948 0.990017 236.418 1.64399 236.418H86.1929C86.8479 236.418 87.3789 236.948 87.3789 237.603C87.3789 238.258 86.8479 238.788 86.1929 238.788Z" fill="#0C0807"/>
</g>
<g id="Group_68">
<path id="Vector_68" d="M245.977 151.186C241.803 151.186 238.406 154.583 238.406 158.758V179.66C238.406 183.835 241.803 187.231 245.977 187.231H263.957C268.131 187.231 271.528 183.835 271.528 179.66V158.758C271.528 154.583 268.131 151.186 263.957 151.186H245.977ZM263.957 189.601H245.977C240.495 189.601 236.035 185.142 236.035 179.66V158.758C236.035 153.277 240.495 148.816 245.977 148.816H263.957C269.439 148.816 273.899 153.277 273.899 158.758V179.66C273.899 185.142 269.439 189.601 263.957 189.601Z" fill="#0C0807"/>
</g>
<g id="Group_69">
<path id="Vector_69" d="M281.532 189.601H268.286C267.631 189.601 267.1 189.071 267.1 188.416C267.1 187.761 267.631 187.231 268.286 187.231H281.532C283.628 187.231 285.335 185.526 285.335 183.428V154.99C285.335 152.893 283.628 151.186 281.532 151.186H267.694C267.039 151.186 266.508 150.656 266.508 150.001C266.508 149.346 267.039 148.816 267.694 148.816H281.532C284.936 148.816 287.706 151.586 287.706 154.99V183.428C287.706 186.833 284.936 189.601 281.532 189.601Z" fill="#0C0807"/>
</g>
<g id="Group_70">
<path id="Vector_70" d="M294.102 189.225H229.511C228.857 189.225 228.326 188.696 228.326 188.04C228.326 187.385 228.857 186.855 229.511 186.855H294.102C294.757 186.855 295.288 187.385 295.288 188.04C295.288 188.696 294.757 189.225 294.102 189.225Z" fill="#0C0807"/>
</g>
<g id="Group_71">
<path id="Vector_71" d="M76.3892 175.713H55.0731C50.8185 175.713 47.3579 172.251 47.3579 167.998V143.852C47.3579 139.597 50.8185 136.137 55.0731 136.137H82.5579C83.2119 136.137 83.7429 136.667 83.7429 137.322C83.7429 137.977 83.2119 138.507 82.5579 138.507H55.0731C52.1265 138.507 49.729 140.905 49.729 143.852V167.998C49.729 170.945 52.1265 173.342 55.0731 173.342H76.3892C77.0442 173.342 77.5742 173.872 77.5742 174.527C77.5742 175.183 77.0442 175.713 76.3892 175.713Z" fill="#0C0807"/>
</g>
<g id="Group_72">
<path id="Vector_72" d="M58.1677 175.394H35.4324C34.7773 175.394 34.2463 174.864 34.2463 174.208C34.2463 173.553 34.7773 173.023 35.4324 173.023H58.1677C58.8227 173.023 59.3538 173.553 59.3538 174.208C59.3538 174.864 58.8227 175.394 58.1677 175.394Z" fill="#0C0807"/>
</g>
<g id="Group_73">
<path id="Vector_73" d="M133.722 61.6899C129.795 61.6899 128.028 58.5599 127.643 56.9043C127.495 56.2663 127.891 55.6293 128.53 55.4809C129.161 55.3314 129.8 55.7257 129.951 56.3595C130.027 56.668 130.769 59.3188 133.722 59.3188C136.962 59.3188 137.433 57.5583 137.437 57.5414C137.576 56.9012 138.207 56.4963 138.847 56.633C139.487 56.7708 139.893 57.4014 139.755 58.0416C139.722 58.1911 138.906 61.6899 133.722 61.6899Z" fill="#0C0807"/>
</g>
<g id="Group_74">
<path id="Vector_74" d="M42.4558 85.3803L43.22 86.9945C51.2415 82.9138 101.916 58.0481 163.977 48.1506L164.164 49.3218L163.977 48.1506C172.3 46.8235 180.596 45.8039 188.671 45.1149L186.533 42.4121C184.569 42.2351 177.054 41.6575 170.237 42.4567C169.692 42.5256 169.172 42.2012 168.984 41.684C168.935 41.5504 164.01 28.2474 151.762 17.4881C135.4 3.11132 114.393 -0.164904 89.3276 7.74953C64.075 15.7223 48.9552 30.6894 44.3901 52.2355C40.9804 68.3272 45.0441 82.2143 45.0865 82.3532C45.2253 82.8185 45.0653 83.323 44.6837 83.624L42.4558 85.3803ZM42.6741 89.7959C42.548 89.7959 42.4219 89.7758 42.301 89.7355C41.9926 89.6338 41.7414 89.4101 41.6025 89.1176L39.9077 85.5414C39.6714 85.0422 39.8113 84.4454 40.2458 84.1031L42.5978 82.2482C41.7573 79.0133 38.9644 66.4045 42.07 51.7437C45.3398 36.3134 56.0683 15.7625 88.6132 5.48765C106.457 -0.144768 132.18 -2.93342 153.402 15.7721C164.383 25.4492 169.555 36.785 170.873 40.0029C178.756 39.2112 186.919 40.0623 187.275 40.1005C187.592 40.1344 187.881 40.2944 188.079 40.5446L191.905 45.381C192.176 45.7244 192.236 46.1897 192.061 46.5904C191.886 46.9921 191.503 47.2645 191.067 47.2984C182.362 47.9789 173.374 49.0536 164.351 50.4919C97.3671 61.1738 43.7637 89.373 43.2306 89.6571C43.0568 89.7493 42.866 89.7959 42.6741 89.7959Z" fill="#0C0807"/>
</g>
<g id="Group_75">
<path id="Vector_75" d="M55.7484 77.3628C55.2894 77.3628 54.8527 77.0957 54.6598 76.6474C54.4001 76.0453 54.6768 75.3479 55.2777 75.0882C55.9762 74.7872 125.548 44.9335 164.094 42.7765C164.756 42.7288 165.308 43.2397 165.344 43.8937C165.381 44.5477 164.88 45.1073 164.226 45.1433C126.101 47.278 56.9121 76.9664 56.2179 77.2653C56.0642 77.3321 55.9052 77.3628 55.7484 77.3628Z" fill="#0C0807"/>
</g>
<g id="Group_76">
<path id="Vector_76" d="M132.37 56.5835C131.871 56.5835 131.405 56.2655 131.243 55.7641L129.898 51.641L126.098 52.6639C125.545 52.8155 124.966 52.5452 124.719 52.029C124.572 51.7184 109.784 20.8408 100.407 12.4801C91.5195 4.55299 81.6792 10.0328 81.2637 10.2702C80.6956 10.5967 79.9717 10.3995 79.6463 9.83246C79.3209 9.2654 79.5149 8.54254 80.0809 8.21609C80.1964 8.14825 91.7973 1.62655 101.985 10.7101C110.911 18.669 123.87 44.8417 126.431 50.119L130.369 49.0591C130.976 48.8927 131.608 49.2372 131.804 49.8371L133.498 55.0296C133.7 55.6518 133.36 56.3217 132.738 56.5241C132.615 56.5644 132.492 56.5835 132.37 56.5835Z" fill="#0C0807"/>
</g>
<g id="Group_77">
<path id="Vector_77" d="M160.486 49.9844C160.033 49.9844 159.599 49.7216 159.403 49.2796L157.626 45.2752L153.966 45.7786C153.456 45.8475 152.959 45.5826 152.735 45.1173C152.591 44.8184 138.259 15.0854 128.881 6.72371C125.932 4.09404 122.565 2.66952 118.871 2.49039C118.217 2.45965 117.712 1.90319 117.744 1.24922C117.776 0.595247 118.345 0.0907203 118.986 0.122518C123.234 0.328143 127.095 1.95406 130.459 4.95364C139.431 12.9539 152.105 38.4143 154.496 43.3122L158.186 42.8045C158.707 42.7324 159.218 43.0154 159.432 43.4977L161.57 48.3172C161.836 48.916 161.567 49.6166 160.968 49.8816C160.811 49.9515 160.648 49.9844 160.486 49.9844Z" fill="#0C0807"/>
</g>
<g id="Group_78">
<path id="Vector_78" d="M101.437 59.509C100.88 59.509 100.382 59.1126 100.274 58.5434C100.224 58.2774 95.0831 31.9161 82.0864 26.1448C62.5743 17.4778 53.0021 31.0226 52.9078 31.1593C52.5379 31.6999 51.7991 31.8377 51.2596 31.4677C50.719 31.0978 50.5813 30.3601 50.9522 29.8196C51.0572 29.6648 61.7507 14.5185 83.0488 23.9773C97.1807 30.2531 102.389 56.9684 102.603 58.1025C102.725 58.7459 102.303 59.366 101.66 59.4878L101.437 59.509Z" fill="#0C0807"/>
</g>
<g id="Group_79">
<path id="Vector_79" d="M48.9074 91.152C43.9109 91.152 41.8218 88.6379 41.7116 88.5011C41.3014 87.9902 41.3841 87.2441 41.895 86.8349C42.4027 86.429 43.1403 86.5053 43.5516 87.0066C43.6798 87.154 46.2851 90.0582 53.3198 88.1291C53.9505 87.9553 54.6034 88.3284 54.7772 88.9601C54.95 89.5907 54.578 90.2437 53.9463 90.4164C52.013 90.9453 50.3404 91.152 48.9074 91.152Z" fill="#0C0807"/>
</g>
<g id="Group_80">
<path id="Vector_80" d="M166.691 55.9586C166.124 55.9586 165.623 55.5516 165.523 54.9739C165.413 54.3284 165.847 53.7158 166.492 53.6045C177.171 51.7698 189.236 48.378 190.108 46.0992C190.129 46.0451 190.145 46.0027 190.022 45.8469C189.615 45.3339 189.703 44.5877 190.216 44.1818C190.731 43.7748 191.476 43.8627 191.882 44.3768C192.501 45.159 192.657 46.0727 192.322 46.9471C190.564 51.5408 172.413 54.993 166.893 55.9416L166.691 55.9586Z" fill="#0C0807"/>
</g>
<g id="Group_81">
<path id="Vector_81" d="M153.782 100.793C143.283 100.793 138.667 96.1554 136.828 93.3222C134.638 96.1755 128.67 100.793 112.966 100.793C105.305 100.793 99.5328 98.7522 95.8072 94.7276C92.4334 91.0847 91.6597 86.7825 91.5049 84.4687L72.7263 89.9347C72.0988 90.1159 71.4395 89.7566 71.2562 89.1281C71.0739 88.4995 71.4353 87.8413 72.0638 87.658L92.3391 81.7563C92.7122 81.6482 93.115 81.7288 93.4181 81.9747C93.7202 82.2195 93.8823 82.5979 93.8526 82.9858C93.8484 83.0399 93.487 88.7529 97.5698 93.1409C100.829 96.6451 106.01 98.4204 112.966 98.4204C133.144 98.4204 135.714 90.5908 135.739 90.5113C135.887 90.0131 136.346 89.6612 136.865 89.6559H136.878C137.392 89.6559 137.851 89.9803 138.009 90.471C138.115 90.79 140.806 98.4204 153.782 98.4204C161.031 98.4204 166.317 96.291 169.496 92.0916C174.904 84.9467 172.869 73.684 172.145 70.5H92.9326L55.0669 88.0809C55.1252 90.0407 55.5524 93.6624 57.138 95.017C57.6669 95.4696 58.2817 95.6148 59.0724 95.4696C59.7157 95.3551 60.3337 95.7801 60.4513 96.4246C60.5679 97.069 60.1408 97.6859 59.4963 97.8025C58.0114 98.0738 56.6632 97.7315 55.5948 96.8168C52.61 94.2624 52.6747 88.0024 52.6927 87.2976C52.7033 86.8461 52.9694 86.4412 53.3785 86.2504L92.1706 68.2391C92.3274 68.1671 92.4981 68.1289 92.6708 68.1289H173.074C173.604 68.1289 174.071 68.4819 174.215 68.9917C174.39 69.6086 178.42 84.2196 171.392 93.5151C167.742 98.3441 161.817 100.793 153.782 100.793Z" fill="#0C0807"/>
</g>
<g id="Group_82">
<path id="Vector_82" d="M92.7056 84.0807C92.0505 84.0807 91.5195 83.5497 91.5195 82.8946V69.315C91.5195 68.6599 92.0505 68.1289 92.7056 68.1289C93.3596 68.1289 93.8906 68.6599 93.8906 69.315V82.8946C93.8906 83.5497 93.3596 84.0807 92.7056 84.0807Z" fill="#0C0807"/>
</g>
<g id="Group_83">
<path id="Vector_83" d="M81.7238 135.988H81.7217C81.9909 135.228 82.2644 134.507 82.5399 133.832C82.5421 133.833 82.541 133.833 82.5432 133.833C82.2665 134.509 81.993 135.227 81.7238 135.988Z" fill="#495CAA"/>
</g>
<g id="Group_84">
<path id="Vector_84" d="M82.5715 133.968C82.5694 133.968 82.5705 133.968 82.5683 133.967C77.522 132.162 73.1382 129.777 69.3797 126.803C73.1403 129.775 77.5305 132.152 82.5758 133.958C82.5747 133.961 82.5726 133.965 82.5715 133.968ZM64.9493 122.719C64.9429 122.712 64.9376 122.708 64.9312 122.7C64.9365 122.707 64.944 122.713 64.9493 122.719ZM64.9281 122.697C57.8489 115.085 53.8349 104.698 52.7612 91.1868C52.7655 91.1857 52.7697 91.1847 52.7729 91.1836C53.8487 104.691 57.852 115.084 64.9281 122.697Z" fill="#495CAA"/>
</g>
<g id="Group_85">
<path id="Vector_85" d="M49.412 173.214H49.4014C48.351 172.071 47.6398 170.612 47.4299 168.997C47.6419 170.613 48.3595 172.07 49.412 173.214ZM81.7173 136.137H55.0815H81.7173Z" fill="#495CAA"/>
</g>
<g id="Group_86">
<path id="Vector_86" d="M41.7175 89.0824C41.7047 89.0676 41.6931 89.0528 41.6814 89.0369C41.6867 89.0443 41.6931 89.0517 41.6984 89.0591C41.7005 89.0623 41.7037 89.0655 41.7069 89.0697C41.71 89.0729 41.7132 89.0771 41.7175 89.0824ZM41.6782 89.0337C41.6772 89.0316 41.675 89.0294 41.674 89.0273C41.675 89.0294 41.6772 89.0316 41.6782 89.0337ZM39.7937 84.3997V84.3986V84.3997ZM39.7969 84.388C39.8668 84.1655 40.0014 83.963 40.1954 83.8104L42.5474 81.9555L40.1954 83.8104C40.0014 83.963 39.8668 84.1655 39.7969 84.388ZM42.5474 81.9555C42.5474 81.9523 42.5463 81.9481 42.5453 81.9449C42.5463 81.9481 42.5474 81.9523 42.5474 81.9555ZM42.0895 80.0095C42.0884 80.0074 42.0884 80.0031 42.0874 80C42.0884 80.0031 42.0884 80.0063 42.0895 80.0095ZM42.0852 79.9894C41.1037 75.4126 39.6125 65.6455 41.4843 54.2979L41.4853 54.2969C39.6135 65.6455 41.1037 75.4137 42.0852 79.9894Z" fill="#495CAA"/>
</g>
<g id="Group_87">
<path id="Vector_87" d="M49.5018 91.7778C50.4727 91.7375 51.5464 91.5998 52.724 91.3433V91.3485C52.7208 91.3496 52.7165 91.3507 52.7123 91.3517C51.5379 91.6072 50.4695 91.7386 49.5018 91.7778ZM41.9127 89.3898C41.9096 89.3877 41.9074 89.3856 41.9053 89.3824C41.9074 89.3856 41.9096 89.3877 41.9127 89.3898ZM41.8958 89.3739C41.8958 89.3728 41.8947 89.3728 41.8947 89.3718C41.8947 89.3728 41.8958 89.3728 41.8958 89.3739ZM41.8491 89.3251C41.8481 89.3251 41.8481 89.3241 41.847 89.3241C41.8481 89.3241 41.8481 89.3251 41.8491 89.3251ZM41.8237 89.2997C41.8216 89.2965 41.8184 89.2944 41.8163 89.2912C41.8184 89.2944 41.8216 89.2965 41.8237 89.2997ZM41.8099 89.2849C41.7739 89.2457 41.7442 89.2139 41.723 89.1895C41.7442 89.2139 41.7739 89.2457 41.8099 89.2849ZM41.7199 89.1852C41.7177 89.1831 41.7156 89.181 41.7146 89.1789C41.7156 89.181 41.7177 89.1831 41.7199 89.1852ZM41.7135 89.1778C41.7103 89.1746 41.7082 89.1715 41.7061 89.1683C41.7082 89.1715 41.7103 89.1746 41.7135 89.1778ZM41.705 89.1683C41.7039 89.1662 41.7018 89.164 41.7008 89.163C41.6965 89.1577 41.6933 89.1534 41.6902 89.1503C41.6944 89.1556 41.6997 89.1609 41.705 89.1683ZM41.6817 89.1397C41.6764 89.1322 41.67 89.1248 41.6647 89.1174C41.6637 89.1163 41.6626 89.1153 41.6615 89.1142C41.6605 89.1121 41.6584 89.11 41.6573 89.1079C41.6552 89.1057 41.6531 89.1026 41.651 89.0994C41.599 89.0294 41.5566 88.9552 41.5227 88.8789L41.5354 88.9054L41.617 89.0146L41.6817 89.1397Z" fill="#495CAA"/>
</g>
<g id="Group_88">
<path id="Vector_88" d="M160.176 121.566H160.175C165.67 115.558 169.297 107.93 171.125 98.5088C171.127 98.5088 171.129 98.5077 171.13 98.5077C169.303 107.931 165.671 115.557 160.176 121.566ZM171.499 68.956H171.494C170.787 64.5436 169.716 60.4194 168.287 56.6026C168.288 56.6026 168.288 56.6026 168.29 56.6016C169.72 60.4194 170.791 64.5425 171.499 68.956Z" fill="#495CAA"/>
</g>
<g id="Group_89">
<path id="Vector_89" d="M171.125 97.6045V97.6024C171.619 97.5007 172.243 97.3237 172.903 97.0184C172.246 97.3237 171.623 97.5006 171.131 97.6035C171.129 97.6035 171.127 97.6045 171.125 97.6045ZM177.251 89.2301V89.2216V89.2301ZM177.251 89.1845V89.1739V89.1845ZM177.251 89.1283C177.251 86.4648 176.381 84.5018 175.271 83.1196V83.1133C176.384 84.4965 177.251 86.4637 177.251 89.1283Z" fill="#495CAA"/>
</g>
<g id="Group_90">
<path id="Vector_90" d="M227.516 170.701C226.618 169.999 225.494 169.574 224.269 169.566C225.494 169.573 226.621 169.995 227.519 170.696C227.518 170.697 227.517 170.698 227.516 170.701ZM224.267 169.566H213.414H224.267Z" fill="#495CAA"/>
</g>
<g id="Group_91">
<path id="Vector_91" d="M213.419 169.762H213.418C213.964 168.948 214.292 167.976 214.318 166.93C214.292 167.976 213.965 168.948 213.419 169.762ZM214.318 166.928C214.318 166.912 214.318 166.896 214.319 166.881C214.318 166.896 214.318 166.912 214.318 166.928ZM214.319 166.876V166.853V166.876ZM214.319 166.852V166.83V166.852ZM214.319 166.824V166.801V166.824ZM214.319 126.485V126.416V126.485ZM190.863 121.163C190.839 121.161 190.816 121.16 190.793 121.159C190.832 121.154 190.872 121.152 190.914 121.152L190.863 121.163Z" fill="#495CAA"/>
</g>
<g id="Group_92">
<path id="Vector_92" d="M191.89 45.0545C191.883 45.0449 191.875 45.0364 191.868 45.0269L188.065 40.2181C187.867 39.9679 187.577 39.8079 187.26 39.7739C187.22 39.7697 187.08 39.7549 186.853 39.7337C187.08 39.7549 187.22 39.7697 187.26 39.7739C187.577 39.8079 187.867 39.9679 188.065 40.2181L191.89 45.0545ZM170.802 39.5397C169.994 37.5926 167.933 33.0784 164.281 27.7852C164.283 27.7852 164.287 27.7862 164.289 27.7862C167.943 33.0827 169.996 37.5926 170.802 39.5397Z" fill="#495CAA"/>
</g>
<g id="Group_93">
<path id="Vector_93" d="M168.318 56.4182C168.316 56.4161 168.316 56.4129 168.316 56.4108C170.396 56.0208 174.474 55.212 178.624 54.1458C181.957 53.2893 184.473 52.4923 186.377 51.7588C180.764 53.9794 172.662 55.6297 168.321 56.4172C168.319 56.4182 168.319 56.4182 168.318 56.4182ZM192.288 47.7534C192.299 47.7269 192.309 47.7014 192.319 47.676C192.654 46.8016 192.498 45.8879 191.878 45.1057L191.857 45.0781C191.864 45.0877 191.871 45.0961 191.879 45.1057C192.498 45.8879 192.654 46.8016 192.319 47.676C192.309 47.7025 192.3 47.7279 192.288 47.7534Z" fill="#495CAA"/>
</g>
<g id="Group_94">
<path id="Vector_94" d="M175.262 83.1967C175.261 83.1957 175.26 83.1936 175.257 83.1925C175.966 77.4785 174.935 72.0792 174.434 69.9393C174.936 72.0792 175.969 77.4774 175.262 83.1904V83.1967ZM173.079 68.1289H171.486H173.079Z" fill="#495CAA"/>
</g>
<g id="Group_95">
<path id="Vector_95" d="M146.183 150.232C146.095 150.202 145.996 150.169 145.888 150.134C145.252 149.928 144.273 149.638 143.002 149.344C142.084 145.314 140.469 139.791 136.978 134.548C140.758 133.462 144.221 132.075 147.429 130.375V149.713C146.902 149.896 146.483 150.082 146.183 150.232Z" fill="#DBDDEF"/>
</g>
<g id="Group_96">
<path id="Vector_96" d="M143.009 149.781C142.091 145.749 140.47 140.231 136.978 134.985C136.98 134.985 136.982 134.984 136.984 134.984C140.475 140.228 142.091 145.75 143.009 149.781Z" fill="#495CAA"/>
</g>
<g id="Group_97">
<path id="Vector_97" d="M136.979 134.559H136.978C140.763 133.471 144.225 132.078 147.437 130.375V130.385C144.228 132.085 140.766 133.471 136.985 134.557C136.983 134.557 136.981 134.559 136.979 134.559Z" fill="#495CAA"/>
</g>
<g id="Group_98">
<path id="Vector_98" d="M146.21 150.856C146.51 150.706 146.929 150.52 147.456 150.338V150.343C146.935 150.524 146.508 150.709 146.21 150.856ZM145.915 150.758C145.278 150.554 144.294 150.263 143.029 149.972V149.969C144.3 150.262 145.279 150.553 145.915 150.758Z" fill="#495CAA"/>
</g>
</g>
<defs>
<clipPath id="clip0">
<rect width="295.082" height="240" fill="white" transform="translate(0.458984)"/>
</clipPath>
</defs>
</svg>
