<svg fill="none" xmlns="http://www.w3.org/2000/svg" viewBox="0 0 18 18"><path d="M8.99175.66672c-4.6 0-8.325 3.73333-8.325 8.33333 0 4.60005 3.725 8.33335 8.325 8.33335 4.60835 0 8.34165-3.7333 8.34165-8.33335 0-4.6-3.7333-8.33333-8.34165-8.33333Zm.00833 14.99998c-3.68333 0-6.66667-2.9833-6.66667-6.66665 0-3.68333 2.98334-6.66667 6.66667-6.66667 3.68332 0 6.66662 2.98334 6.66662 6.66667 0 3.68335-2.9833 6.66665-6.66662 6.66665ZM8.81675 4.83338h-.05c-.33333 0-.6.26667-.6.6v3.93334c0 .29166.15.56666.40833.71668l3.45832 2.075c.2833.1667.65.0833.8167-.2.175-.2833.0833-.6583-.2084-.825L9.41675 9.21672V5.43338c0-.33333-.26667-.6-.6-.6Z" fill="#242120"/></svg>
