<svg width="14" height="14" viewBox="0 0 14 14" fill="none" xmlns="http://www.w3.org/2000/svg">
<path id="Vector" d="M13.3 0.70998C13.2075 0.617276 13.0976 0.543728 12.9766 0.493547C12.8557 0.443366 12.726 0.417535 12.595 0.417535C12.464 0.417535 12.3344 0.443366 12.2134 0.493547C12.0924 0.543728 11.9825 0.617276 11.89 0.70998L7.00001 5.58998L2.11001 0.699979C2.01743 0.607397 1.90752 0.533957 1.78655 0.483852C1.66559 0.433747 1.53594 0.407959 1.40501 0.407959C1.27408 0.407959 1.14443 0.433747 1.02347 0.483852C0.902502 0.533957 0.792592 0.607397 0.70001 0.699979C0.607428 0.792561 0.533988 0.902472 0.483883 1.02344C0.433778 1.1444 0.40799 1.27405 0.40799 1.40498C0.40799 1.53591 0.433778 1.66556 0.483883 1.78652C0.533988 1.90749 0.607428 2.0174 0.70001 2.10998L5.59001 6.99998L0.70001 11.89C0.607428 11.9826 0.533988 12.0925 0.483883 12.2134C0.433778 12.3344 0.40799 12.464 0.40799 12.595C0.40799 12.7259 0.433778 12.8556 0.483883 12.9765C0.533988 13.0975 0.607428 13.2074 0.70001 13.3C0.792592 13.3926 0.902502 13.466 1.02347 13.5161C1.14443 13.5662 1.27408 13.592 1.40501 13.592C1.53594 13.592 1.66559 13.5662 1.78655 13.5161C1.90752 13.466 2.01743 13.3926 2.11001 13.3L7.00001 8.40998L11.89 13.3C11.9826 13.3926 12.0925 13.466 12.2135 13.5161C12.3344 13.5662 12.4641 13.592 12.595 13.592C12.7259 13.592 12.8556 13.5662 12.9766 13.5161C13.0975 13.466 13.2074 13.3926 13.3 13.3C13.3926 13.2074 13.466 13.0975 13.5161 12.9765C13.5662 12.8556 13.592 12.7259 13.592 12.595C13.592 12.464 13.5662 12.3344 13.5161 12.2134C13.466 12.0925 13.3926 11.9826 13.3 11.89L8.41001 6.99998L13.3 2.10998C13.68 1.72998 13.68 1.08998 13.3 0.70998Z" fill="#7F50FF"/>
</svg>
