<svg width="32" height="33" viewBox="0 0 32 33" fill="none" xmlns="http://www.w3.org/2000/svg">
<path d="M24 25.9137H8C7.26667 25.9137 6.66667 25.3137 6.66667 24.5803V8.58032C6.66667 7.84699 7.26667 7.24699 8 7.24699H14.6667C15.4 7.24699 16 6.64699 16 5.91366C16 5.18032 15.4 4.58032 14.6667 4.58032H6.66667C5.95942 4.58032 5.28115 4.86127 4.78105 5.36137C4.28095 5.86147 4 6.53974 4 7.24699V25.9137C4 27.3803 5.2 28.5803 6.66667 28.5803H25.3333C26.8 28.5803 28 27.3803 28 25.9137V17.9137C28 17.1803 27.4 16.5803 26.6667 16.5803C25.9333 16.5803 25.3333 17.1803 25.3333 17.9137V24.5803C25.3333 25.3137 24.7333 25.9137 24 25.9137ZM18.6667 5.91366C18.6667 6.64699 19.2667 7.24699 20 7.24699H23.4533L11.28 19.4203C11.0307 19.6696 10.8906 20.0078 10.8906 20.3603C10.8906 20.7129 11.0307 21.051 11.28 21.3003C11.5293 21.5496 11.8674 21.6897 12.22 21.6897C12.5726 21.6897 12.9107 21.5496 13.16 21.3003L25.3333 9.12699V12.5803C25.3333 13.3137 25.9333 13.9137 26.6667 13.9137C27.4 13.9137 28 13.3137 28 12.5803V5.91366C28 5.18032 27.4 4.58032 26.6667 4.58032H20C19.2667 4.58032 18.6667 5.18032 18.6667 5.91366Z" fill="white"/>
</svg>
