<svg xmlns="http://www.w3.org/2000/svg" viewBox="0 0 12 12"><path d="M10 10.667H2A.669.669 0 011.333 10V2c0-.367.3-.667.667-.667h3.333c.367 0 .667-.3.667-.666C6 .3 5.7 0 5.333 0h-4A1.333 1.333 0 000 1.333v9.334C0 11.4.6 12 1.333 12h9.334C11.4 12 12 11.4 12 10.667v-4C12 6.3 11.7 6 11.333 6c-.366 0-.666.3-.666.667V10c0 .367-.3.667-.667.667zm-2.667-10c0 .366.3.666.667.666h1.727L3.64 7.42a.665.665 0 00.94.94l6.087-6.087V4c0 .367.3.667.666.667.367 0 .667-.3.667-.667V.667C12 .3 11.7 0 11.333 0H8c-.367 0-.667.3-.667.667z"/></svg>
