<svg xmlns="http://www.w3.org/2000/svg" viewBox="0 0 32 33"><path d="M24 25.914H8c-.733 0-1.333-.6-1.333-1.334v-16c0-.733.6-1.333 1.333-1.333h6.667c.733 0 1.333-.6 1.333-1.333 0-.734-.6-1.334-1.333-1.334h-8A2.667 2.667 0 004 7.247v18.667c0 1.466 1.2 2.666 2.667 2.666h18.666c1.467 0 2.667-1.2 2.667-2.666v-8c0-.734-.6-1.334-1.333-1.334-.734 0-1.334.6-1.334 1.334v6.666c0 .734-.6 1.334-1.333 1.334zm-5.333-20c0 .733.6 1.333 1.333 1.333h3.453L11.28 19.42a1.33 1.33 0 001.88 1.88L25.333 9.127v3.453c0 .734.6 1.334 1.334 1.334.733 0 1.333-.6 1.333-1.334V5.914c0-.734-.6-1.334-1.333-1.334H20c-.733 0-1.333.6-1.333 1.334z"/></svg>
