<svg width="21" height="18" viewBox="0 0 21 18" fill="none" xmlns="http://www.w3.org/2000/svg">
<path d="M2.99979 10.18V12.99C2.99979 13.72 3.39979 14.4 4.03979 14.75L9.03979 17.48C9.63979 17.81 10.3598 17.81 10.9598 17.48L15.9598 14.75C16.5998 14.4 16.9998 13.72 16.9998 12.99V10.18L10.9598 13.48C10.3598 13.81 9.63979 13.81 9.03979 13.48L2.99979 10.18ZM9.03979 0.519999L0.609785 5.12C-0.0802149 5.5 -0.0802149 6.5 0.609785 6.88L9.03979 11.48C9.63979 11.81 10.3598 11.81 10.9598 11.48L18.9998 7.09V13C18.9998 13.55 19.4498 14 19.9998 14C20.5498 14 20.9998 13.55 20.9998 13V6.59C20.9998 6.22 20.7998 5.89 20.4798 5.71L10.9598 0.519999C10.3598 0.199999 9.63979 0.199999 9.03979 0.519999Z" fill="#858383"/>
</svg>
