<svg width="28" height="29" viewBox="0 0 28 29" fill="none" xmlns="http://www.w3.org/2000/svg">
<g clip-path="url(#clip0)">
<mask id="mask0" mask-type="alpha" maskUnits="userSpaceOnUse" x="0" y="0" width="28" height="29">
<path d="M0 0.590576H27.9912V28.5784H0V0.590576Z" fill="white"/>
</mask>
<g mask="url(#mask0)">
<path fill-rule="evenodd" clip-rule="evenodd" d="M13.9956 0.590576C10.1946 0.590576 9.718 0.606687 8.22522 0.674798C6.73556 0.742743 5.71817 0.979354 4.82794 1.32535C3.90761 1.68296 3.12711 2.16152 2.349 2.93958C1.57094 3.71769 1.09239 4.49819 0.734778 5.41852C0.388778 6.30874 0.152167 7.32613 0.0842222 8.8158C0.0161111 10.3086 0 10.7852 0 14.5862C0 18.3871 0.0161111 18.8637 0.0842222 20.3565C0.152167 21.8462 0.388778 22.8636 0.734778 23.7538C1.09239 24.6741 1.57094 25.4546 2.349 26.2327C3.12711 27.0108 3.90761 27.4894 4.82794 27.847C5.71817 28.193 6.73556 28.4296 8.22522 28.4975C9.718 28.5656 10.1946 28.5817 13.9956 28.5817C17.7966 28.5817 18.2732 28.5656 19.7659 28.4975C21.2556 28.4296 22.273 28.193 23.1632 27.847C24.0836 27.4894 24.8641 27.0108 25.6422 26.2327C26.4202 25.4546 26.8988 24.6741 27.2564 23.7538C27.6024 22.8636 27.839 21.8462 27.9069 20.3565C27.9751 18.8637 27.9912 18.3871 27.9912 14.5862C27.9912 10.7852 27.9751 10.3086 27.9069 8.8158C27.839 7.32613 27.6024 6.30874 27.2564 5.41852C26.8988 4.49819 26.4202 3.71769 25.6422 2.93958C24.8641 2.16152 24.0836 1.68296 23.1632 1.32535C22.273 0.979354 21.2556 0.742743 19.7659 0.674798C18.2732 0.606687 17.7966 0.590576 13.9956 0.590576ZM13.9956 3.1123C17.7326 3.1123 18.1752 3.12658 19.651 3.19391C21.0156 3.25613 21.7566 3.48413 22.2498 3.6758C22.9031 3.92969 23.3693 4.23296 23.859 4.72274C24.3488 5.21246 24.6521 5.67869 24.9059 6.33196C25.0976 6.82513 25.3256 7.56619 25.3878 8.93074C25.4552 10.4065 25.4694 10.8492 25.4694 14.5862C25.4694 18.3231 25.4552 18.7658 25.3878 20.2416C25.3256 21.6061 25.0976 22.3472 24.9059 22.8404C24.6521 23.4936 24.3488 23.9599 23.859 24.4496C23.3693 24.9394 22.9031 25.2426 22.2498 25.4965C21.7566 25.6882 21.0156 25.9162 19.651 25.9784C18.1754 26.0457 17.7328 26.06 13.9956 26.06C10.2583 26.06 9.81578 26.0457 8.34017 25.9784C6.97561 25.9162 6.23456 25.6882 5.74139 25.4965C5.08811 25.2426 4.62189 24.9394 4.13217 24.4496C3.64244 23.9599 3.33911 23.4936 3.08522 22.8404C2.89356 22.3472 2.66556 21.6061 2.60333 20.2416C2.536 18.7658 2.52172 18.3231 2.52172 14.5862C2.52172 10.8492 2.536 10.4065 2.60333 8.93074C2.66556 7.56619 2.89356 6.82513 3.08522 6.33196C3.33911 5.67869 3.64239 5.21246 4.13217 4.72274C4.62189 4.23296 5.08811 3.92969 5.74139 3.6758C6.23456 3.48413 6.97561 3.25613 8.34017 3.19391C9.81594 3.12658 10.2586 3.1123 13.9956 3.1123Z" fill="black"/>
</g>
<path fill-rule="evenodd" clip-rule="evenodd" d="M13.9956 19.2503C11.4191 19.2503 9.33039 17.1616 9.33039 14.5851C9.33039 12.0086 11.4191 9.91992 13.9956 9.91992C16.5721 9.91992 18.6608 12.0086 18.6608 14.5851C18.6608 17.1616 16.5721 19.2503 13.9956 19.2503ZM13.9956 7.39819C10.0263 7.39819 6.80867 10.6159 6.80867 14.5851C6.80867 18.5544 10.0263 21.772 13.9956 21.772C17.9648 21.772 21.1825 18.5544 21.1825 14.5851C21.1825 10.6159 17.9648 7.39819 13.9956 7.39819Z" fill="black"/>
<path fill-rule="evenodd" clip-rule="evenodd" d="M23.146 7.11383C23.146 8.04138 22.394 8.79327 21.4664 8.79327C20.5389 8.79327 19.787 8.04138 19.787 7.11383C19.787 6.18627 20.5389 5.43433 21.4664 5.43433C22.394 5.43433 23.146 6.18627 23.146 7.11383Z" fill="black"/>
</g>
<defs>
<clipPath id="clip0">
<rect width="28" height="28" fill="white" transform="translate(0 0.580322)"/>
</clipPath>
</defs>
</svg>
