<svg fill="none" xmlns="http://www.w3.org/2000/svg" viewBox="0 0 22 27"><path d="M11.0006 4.66683v-3.72c0-.6-.72-.89333-1.13333-.46666L4.80061 5.5335c-.26667.26667-.26667.68 0 .94667l5.05333 5.05333c.42666.4133 1.14666.12 1.14666-.48v-3.72c4.9733 0 8.9067 4.56 7.8133 9.72-.6266 3.0267-3.08 5.4667-6.0933 6.0933-4.75999 1-8.99999-2.2666-9.63999-6.68-.09334-.64-.65334-1.1333-1.30667-1.1333-.8 0-1.44.7067-1.33333 1.5067.82666 5.8533 6.4 10.1866 12.70669 8.96 4.16-.8134 7.5066-4.16 8.32-8.32 1.32-6.84-3.88-12.81337-10.4667-12.81337Z" fill="#7F50FF"/></svg>
