<svg width="24" height="25" viewBox="0 0 24 25" fill="none" xmlns="http://www.w3.org/2000/svg">
<g id="Group">
<g id="Group-3">
<mask id="mask0" mask-type="alpha" maskUnits="userSpaceOnUse" x="0" y="0" width="24" height="25">
<g id="mask-2">
<path id="Vector" d="M0.0468025 0.580322H23.987V24.5169H0.0468025V0.580322Z" fill="white"/>
</g>
</mask>
<g mask="url(#mask0)">
<path id="Fill-1" fill-rule="evenodd" clip-rule="evenodd" d="M23.987 12.5504C23.987 19.1613 18.6278 24.5205 12.0169 24.5205C5.40599 24.5205 0.0468025 19.1613 0.0468025 12.5504C0.0468025 5.9395 5.40599 0.580322 12.0169 0.580322C18.6278 0.580322 23.987 5.9395 23.987 12.5504Z" fill="black"/>
</g>
</g>
<path id="Fill-4" fill-rule="evenodd" clip-rule="evenodd" d="M9.82671 18.8642C15.1344 18.8642 18.037 14.467 18.037 10.654C18.037 10.529 18.0344 10.4046 18.0287 10.2809C18.592 9.87363 19.0818 9.36544 19.4682 8.78681C18.9511 9.01651 18.3948 9.17129 17.811 9.24107C18.4068 8.88389 18.8642 8.3186 19.0799 7.64487C18.5222 7.97536 17.905 8.21584 17.2477 8.34523C16.7211 7.78438 15.9712 7.43359 15.1414 7.43359C13.5477 7.43359 12.2553 8.72594 12.2553 10.319C12.2553 10.5454 12.2807 10.7656 12.3302 10.9769C9.93199 10.8564 7.80538 9.70802 6.38232 7.96207C6.13424 8.38839 5.9915 8.88389 5.9915 9.41236C5.9915 10.4135 6.50095 11.2973 7.27559 11.8143C6.80235 11.7998 6.35761 11.6697 5.9687 11.4533C5.96804 11.4654 5.96804 11.4775 5.96804 11.4901C5.96804 12.8878 6.96281 14.0545 8.28311 14.3191C8.04078 14.385 7.78569 14.4206 7.52241 14.4206C7.33652 14.4206 7.15571 14.4022 6.97999 14.3686C7.34729 15.515 8.41257 16.3493 9.67571 16.3728C8.68788 17.1468 7.44377 17.608 6.09175 17.608C5.85893 17.608 5.62929 17.5947 5.40341 17.568C6.6805 18.3865 8.19681 18.8642 9.82671 18.8642Z" fill="#FFFFFE"/>
</g>
</svg>
