<svg fill="none" xmlns="http://www.w3.org/2000/svg" viewBox="0 0 248 149"><path d="M110.08 60.92l16.64-21.71H110v-7.75h28.63v6.61L122 59.88h16.95v7.76h-28.87v-6.72zM141.5 60.92c0-4.76 4.29-8 11.32-8.53l4.55-.36v-.88a2.916 2.916 0 00-1.802-2.933 2.918 2.918 0 00-1.198-.218 2.876 2.876 0 00-2.852 1.82 2.869 2.869 0 00-.198 1.18l-9-.11c.21-6 5.43-10.44 12-10.44 7.65 0 12.3 4.34 12.3 11.11v7.76c-.026 2.766.148 5.53.52 8.27H158a19.81 19.81 0 01-.31-4.14h-.2c-1.14 2.74-4.14 4.39-7.91 4.39-5.03.05-8.08-2.58-8.08-6.92zm16-3.52v-.51l-3.35.31c-2.07.2-3.36 1.24-3.36 2.89 0 1.24.93 2 2.42 2 2.61.02 4.26-2.09 4.26-4.69h.03zM196.29 41.28v26.36H187l.1-2.54a8.26 8.26 0 01-6.87 3.05c-5.74 0-9.77-4.39-9.77-10.7V41.28h9.3v14.78c0 2.84 1.4 4.6 3.62 4.6S187 59 187 56.27v-15l9.29.01zM199.65 54.46c0-8.22 5.94-14 14.47-14 7.7 0 13.23 4.6 13.44 11.27l-8.89.62c-.1-2.33-2-3.93-4.55-3.93-3 0-5.06 2.48-5.06 6s2.06 6 5.06 6a4.226 4.226 0 004.133-2.376c.246-.508.388-1.06.417-1.624l8.89.62c-.11 6.72-5.64 11.37-13.44 11.37-8.53 0-14.47-5.74-14.47-13.95zm3-25.07h8l3.47 4.61 3.46-4.65h7.86l-6.2 8.79H208.9l-6.25-8.75zM109.46 110.071l8.48-.21c0 1.81 1.44 3 3.82 3 1.81 0 2.95-.68 2.95-1.71 0-1.19-1-1.6-2.8-1.86l-3.35-.46c-6-.83-8.79-3.73-8.79-8.48 0-5.58 4.7-9.46 11.47-9.46 6.93 0 11.79 3.77 11.89 9.2l-8.37.21a3.238 3.238 0 00-3.52-3c-1.5 0-2.58.78-2.58 1.86 0 .83.67 1.45 1.91 1.6l3.36.47c6.36.88 9.82 4.08 9.82 8.73 0 5.48-5 9.31-12 9.31-7.22 0-12.29-3.78-12.29-9.2zM163.11 107.639h-17.63a4.425 4.425 0 002.812 4.059 4.412 4.412 0 001.708.301 4.372 4.372 0 004.45-3l8.16.62c-.57 5.53-5.73 9.41-12.61 9.41-8.22 0-13.95-5.74-13.95-14s5.63-14 13.75-14c8.12 0 13.54 5.63 13.54 13.7.001.975-.075 1.948-.23 2.91zm-8.94-5.64c0-2.22-1.81-3.92-4.45-3.92a4.064 4.064 0 00-3.874 2.367 4.056 4.056 0 00-.366 1.553h8.69zM167.24 113.321a5.428 5.428 0 016.489-5.326 5.43 5.43 0 01-1.059 10.756 5.359 5.359 0 01-3.861-1.57 5.365 5.365 0 01-1.569-3.86zm.76-31.26h9.3v23.25H168v-23.25zM42.05 148.6c-21.15 0-38.22-14.76-38.22-35.74V79.91H36.2v33a5.77 5.77 0 0011.54 0v-33h32.37v33c0 20.93-17.11 35.69-38.06 35.69zM60.24 46.43l14.69 20.21L56.7 79.91 42.01 59.7 27.32 79.91 9.07 66.64l14.69-20.21L0 38.71l6.95-21.44 23.78 7.71V0h22.56v24.98l23.76-7.71 6.97 21.44-23.78 7.72z" fill="#FFB60B"/></svg>
