<svg fill="none" xmlns="http://www.w3.org/2000/svg" viewBox="0 0 248 149"><path d="M110.08 60.92l16.64-21.71H110v-7.75h28.63v6.61L122 59.88h16.95v7.76h-28.87v-6.72zM155.411 57.61l-3.41 3.57v6.46h-9.2V31.46h9.2V49.7l7.59-8.42h11.41l-9.51 10 9.77 16.39h-9.96l-5.89-10.06zM199.391 41.28v26.36h-9.3l.1-2.54a8.26 8.26 0 01-6.87 3.05c-5.74 0-9.77-4.39-9.77-10.7V41.28h9.3v14.78c0 2.84 1.4 4.6 3.62 4.6s3.62-1.66 3.62-4.39v-15l9.3.01zM202.49 59.47l8.48-.21c0 1.81 1.45 3 3.82 3 1.81 0 3-.67 3-1.71s-1-1.6-2.79-1.86l-3.36-.46c-6.05-.83-8.79-3.72-8.79-8.48 0-5.58 4.71-9.46 11.48-9.46 6.77 0 11.78 3.78 11.88 9.2l-8.37.21a3.223 3.223 0 00-1.141-2.206 3.225 3.225 0 00-2.369-.744c-1.5 0-2.59.78-2.59 1.87 0 .82.67 1.44 1.91 1.6l3.36.46c6.36.88 9.82 4.09 9.82 8.74 0 5.47-5 9.3-12 9.3-7.27-.05-12.34-3.82-12.34-9.25zM136.08 91.88v26.35h-9.31l.11-2.53a8.295 8.295 0 01-6.88 3c-5.73 0-9.76-4.39-9.76-10.7V91.88h9.3v14.78c0 2.84 1.39 4.6 3.62 4.6 2.23 0 3.61-1.66 3.61-4.4v-15l9.31.02zM139.439 105.05c0-8.21 5.94-14 14.47-14 7.7 0 13.23 4.6 13.44 11.27l-8.89.62c-.11-2.33-2-3.93-4.55-3.93-3 0-5.07 2.48-5.07 6s2.07 6 5.07 6a4.245 4.245 0 004.131-2.377c.247-.508.389-1.06.419-1.623l8.89.62c-.11 6.72-5.64 11.37-13.44 11.37-8.53 0-14.47-5.73-14.47-13.95zm3.05-25.05h8l3.46 4.65 3.42-4.65h7.86l-6.23 8.77h-10.31l-6.2-8.77zM169.67 84.12a5.428 5.428 0 013.352-5.017 5.432 5.432 0 017.404 3.957 5.426 5.426 0 01-2.309 5.574 5.43 5.43 0 01-3.017.915 5.363 5.363 0 01-5.43-5.43zm.78 7.76h9.3v26.349h-9.3v-26.35zM196.08 102.73v4.55a2.894 2.894 0 001.864 2.975c.395.148.816.207 1.236.175a13.11 13.11 0 001.76-.1v7.8a20.084 20.084 0 01-3.93.36c-5.63 0-10.13-3.36-10.13-10.49v-8.89h-4.13v-7.23h4.13v-6.21h9.2v6.21h5.17v7.23h-5.17v3.62zM205.081 113.321a5.43 5.43 0 115.42 5.43 5.354 5.354 0 01-5.42-5.43zm.77-31.26h9.3v23.25h-9.3v-23.25zM42.05 148.6c-21.15 0-38.22-14.76-38.22-35.74V79.91H36.2v33a5.77 5.77 0 0011.54 0v-33h32.37v33c0 20.93-17.11 35.69-38.06 35.69zM60.24 46.43l14.69 20.21L56.7 79.91 42.01 59.7 27.32 79.91 9.07 66.64l14.69-20.21L0 38.71l6.95-21.44 23.78 7.71V0h22.56v24.98l23.76-7.71 6.97 21.44-23.78 7.72z" fill="#FF2F5B"/></svg>
