<?xml version="1.0" standalone="no"?>
<!DOCTYPE svg PUBLIC "-//W3C//DTD SVG 20010904//EN"
 "http://www.w3.org/TR/2001/REC-SVG-20010904/DTD/svg10.dtd">
<svg version="1.0" xmlns="http://www.w3.org/2000/svg"
 width="700.000000pt" height="700.000000pt" viewBox="0 0 700.000000 700.000000"
 preserveAspectRatio="xMidYMid meet">
<metadata>
Created by potrace 1.14, written by Peter Selinger 2001-2017
</metadata>
<g transform="translate(0.000000,700.000000) scale(0.100000,-0.100000)"
fill="#000000" stroke="none">
<path d="M3053 6547 c-3 -5 -5 -237 -5 -517 l1 -508 -27 8 c-15 4 -54 17 -87
28 -49 17 -451 147 -794 258 -41 13 -75 23 -76 21 -1 -1 -39 -117 -84 -257
-45 -140 -109 -338 -142 -438 -33 -101 -59 -185 -57 -187 2 -1 152 -51 333
-110 182 -59 401 -130 488 -159 l158 -52 -48 -64 c-27 -36 -55 -75 -63 -87
-14 -20 -151 -209 -275 -378 -180 -246 -215 -295 -215 -304 0 -6 9 -15 21 -21
11 -6 57 -39 102 -72 45 -34 100 -74 122 -90 236 -171 495 -362 495 -364 0 -1
-214 -2 -475 -2 -262 0 -479 -3 -482 -6 -9 -9 -7 -1425 2 -1511 12 -119 70
-357 94 -390 4 -5 16 -30 25 -55 10 -25 42 -85 71 -135 248 -418 705 -690
1230 -732 391 -31 757 56 1060 253 360 232 586 583 651 1014 3 25 8 386 9 803
l3 757 -22 1 c-11 0 -228 0 -481 0 l-460 1 30 24 c17 13 184 135 372 271 188
137 340 253 338 260 -2 6 -137 195 -300 418 -163 224 -295 409 -293 410 3 2
202 68 821 268 125 41 156 55 151 67 -3 8 -35 107 -71 220 -36 113 -69 214
-73 225 -5 11 -37 108 -71 215 -34 107 -65 198 -68 202 -3 3 -44 -6 -91 -22
-47 -15 -220 -71 -385 -125 -165 -53 -345 -111 -400 -129 l-100 -33 -3 514
c-2 400 -5 513 -15 514 -83 6 -910 2 -914 -4z m634 -2698 c90 -123 181 -249
203 -279 35 -49 94 -130 197 -273 l35 -48 -158 1 c-88 1 -171 1 -186 1 l-28
-1 0 -699 c0 -501 -3 -708 -12 -732 -34 -101 -121 -164 -228 -164 -53 0 -74 5
-113 28 -59 35 -103 93 -115 155 -5 27 -9 338 -8 730 l1 682 -35 1 c-19 1
-101 1 -183 0 -167 0 -158 -9 -89 85 175 240 314 433 447 618 50 69 94 124
100 122 5 -1 83 -103 172 -227z"/>
</g>
</svg>
