<svg fill="none" xmlns="http://www.w3.org/2000/svg" viewBox="0 0 146 199"><g clip-path="url(#clip0)"><path d="M80.541 190.066h-39.22v-29.791h39.22a9.923 9.923 0 000-19.846H66.12a39.713 39.713 0 110-79.428H80.54a9.922 9.922 0 100-19.843H41.14v-29.79h39.402a39.712 39.712 0 0139.714 39.713 39.713 39.713 0 01-39.714 39.714H66.12a9.922 9.922 0 100 19.843H80.54a39.71 39.71 0 0139.714 39.714 39.715 39.715 0 01-39.714 39.714z" fill="#7F50FF"/><path d="M25.385 48.084c12.051 0 21.821-9.77 21.821-21.821 0-12.052-9.77-21.822-21.821-21.822-12.052 0-21.822 9.77-21.822 21.822 0 12.051 9.77 21.821 21.822 21.821z" fill="#fff"/><path d="M25.385 51.062a24.8 24.8 0 1124.8-24.8 24.816 24.816 0 01-24.8 24.8zm0-43.64a18.84 18.84 0 1018.843 18.84 18.863 18.863 0 00-18.843-18.84z" fill="#7F50FF"/><path d="M22.78 22.104h-.144c-.894.856-3.038 1.429-5.22 1.429V18.35c3.575 0 6.079-1.718 6.079-4.218h5.726v25.203H22.78v-17.23z" fill="#7F50FF"/><path d="M121.121 72.623c12.051 0 21.821-9.77 21.821-21.822s-9.77-21.821-21.821-21.821c-12.052 0-21.822 9.77-21.822 21.821 0 12.052 9.77 21.822 21.822 21.822z" fill="#fff"/><path d="M121.111 75.6a24.801 24.801 0 01-24.306-29.64 24.8 24.8 0 0133.805-18.074 24.796 24.796 0 0115.316 22.9A24.814 24.814 0 01121.111 75.6zm0-43.64a18.84 18.84 0 00-13.322 32.163 18.841 18.841 0 0032.163-13.322 18.864 18.864 0 00-18.841-18.84z" fill="#7F50FF"/><path d="M112.006 58.427c8.507-5.755 11.968-9.401 11.968-12.513 0-1.909-1.18-3.216-2.895-3.216-1.714 0-2.825 1.18-2.825 2.863-.007.719.053 1.437.178 2.145l-6.324.213a10.187 10.187 0 01-.287-2.61c0-4.895 3.859-8.328 9.402-8.328 5.433 0 9.188 3.576 9.188 8.758 0 4.792-2.826 8.151-9.796 11.654v.143l9.614-.178v5.36H112l.006-4.291z" fill="#7F50FF"/><path d="M25.385 122.536c12.051 0 21.821-9.77 21.821-21.821 0-12.052-9.77-21.822-21.821-21.822-12.052 0-21.822 9.77-21.822 21.822 0 12.051 9.77 21.821 21.822 21.821z" fill="#fff"/><path d="M25.385 125.514a24.8 24.8 0 1124.8-24.799 24.815 24.815 0 01-24.8 24.799zm0-43.64a18.84 18.84 0 1018.843 18.841 18.863 18.863 0 00-18.843-18.84z" fill="#7F50FF"/><path d="M15.554 105.573l6.65-.357c0 2.228 1.358 3.5 3.575 3.5 1.823 0 2.93-.954 2.93-2.682 0-1.823-1.75-2.93-5.004-2.93v-4.285c3.255 0 5.004-1.11 5.004-2.899 0-1.788-1.177-2.787-3.143-2.787-2.074 0-3.363 1.359-3.363 3.72l-6.649-.217c0-5.256 4.184-8.936 10.225-8.936 5.577 0 9.436 3.073 9.436 7.508 0 3.216-2.144 5.577-5.217 5.726v.14c3.073.252 5.217 2.577 5.217 5.685 0 4.362-3.817 7.401-9.366 7.401-6.076-.007-10.295-3.51-10.295-8.587z" fill="#7F50FF"/><path d="M121.121 172.173c12.051 0 21.821-9.77 21.821-21.821 0-12.052-9.77-21.822-21.821-21.822-12.052 0-21.822 9.77-21.822 21.822 0 12.051 9.77 21.821 21.822 21.821z" fill="#fff"/><path d="M121.111 175.151a24.809 24.809 0 01-22.926-15.319 24.814 24.814 0 0118.085-33.835 24.816 24.816 0 114.841 49.154zm0-43.64a18.841 18.841 0 1018.841 18.841 18.864 18.864 0 00-18.841-18.841z" fill="#7F50FF"/><path d="M121.996 157.084h-10.973v-3.573c3.859-4.362 6.27-10.547 6.27-16.267h6.615c0 5.969-2.717 11.689-7.187 15.052v.14h5.65v-6.255h5.79v6.255h3.077v4.648h-3.077v5.185h-6.165v-5.185z" fill="#7F50FF"/><path d="M25.385 195.213c12.051 0 21.821-9.77 21.821-21.821 0-12.052-9.77-21.822-21.821-21.822-12.052 0-21.822 9.77-21.822 21.822 0 12.051 9.77 21.821 21.822 21.821z" fill="#fff"/><path d="M25.385 198.191a24.818 24.818 0 01-17.569-42.357 24.817 24.817 0 0138.185 3.753 24.819 24.819 0 01-3.08 31.33 24.816 24.816 0 01-17.536 7.274zm0-43.64a18.84 18.84 0 1018.843 18.841 18.862 18.862 0 00-18.843-18.841z" fill="#7F50FF"/><path d="M15.732 178.749l6.436-.213c.108 1.823 1.432 2.93 3.182 2.93 1.93 0 3.254-1.463 3.254-3.538 0-2.074-1.323-3.432-3.254-3.432a2.987 2.987 0 00-2.717 1.823l-6.541-.955 1.858-14.265H34.32v5.364h-11.08l-.716 4.454h.143c.859-.856 2.545-1.429 4.113-1.429 4.862 0 8.256 3.468 8.256 8.437 0 5.256-3.967 8.908-9.687 8.908-5.72 0-9.618-3.327-9.618-8.084z" fill="#7F50FF"/></g><defs><clipPath id="clip0"><path fill="#fff" transform="translate(0 .58)" d="M0 0h146v198H0z"/></clipPath></defs></svg>
